<?xml version="1.0" encoding="UTF-8"?> <svg xmlns="http://www.w3.org/2000/svg" width="43" height="55" viewBox="0 0 43 55" fill="none"><path d="M11.6592 18.4951L15.823 22.5977L14.865 28.3637C14.7983 28.7652 14.9641 29.1697 15.2935 29.4089C15.6224 29.6481 16.0584 29.6804 16.4197 29.4933L21.6075 26.7993L26.7948 29.4933C27.1531 29.6792 27.5891 29.6502 27.921 29.4089C28.2504 29.1697 28.4162 28.7652 28.3494 28.3637L27.3915 22.5977L31.5553 18.4951C31.8453 18.2098 31.9489 17.7851 31.823 17.3978C31.6972 17.0109 31.3636 16.7285 30.9611 16.6677L25.1826 15.7978L22.568 10.5689C22.3863 10.2051 22.0141 9.97517 21.6075 9.97517C21.2004 9.97517 20.8286 10.2051 20.6465 10.5689L18.0319 15.7978L12.2533 16.6677C11.8509 16.7281 11.5173 17.0109 11.3914 17.3978C11.2656 17.7851 11.3696 18.2098 11.6592 18.4951ZM18.9034 17.8392C19.2492 17.7872 19.548 17.5703 19.7045 17.2576L21.6075 13.4513L23.5104 17.2576C23.6669 17.5703 23.9657 17.7872 24.3115 17.8392L28.5173 18.4724L25.4864 21.458C25.2376 21.7035 25.1234 22.0547 25.1805 22.3996L25.8779 26.5962L22.1022 24.6358C21.9473 24.5552 21.7774 24.5149 21.6075 24.5149C21.4375 24.5149 21.2676 24.5552 21.1123 24.6358L17.3366 26.5962L18.034 22.3996C18.0915 22.0547 17.9773 21.7035 17.7281 21.458L14.6976 18.4724L18.9034 17.8392Z" fill="#005CA9" stroke="white"></path><path d="M22.6816 1.07421C22.6816 1.66755 22.2008 2.14843 21.6074 2.14843C21.0141 2.14843 20.5332 1.66755 20.5332 1.07421C20.5332 0.480874 21.0141 -7.62939e-06 21.6074 -7.62939e-06C22.2008 -7.62939e-06 22.6816 0.480874 22.6816 1.07421Z" fill="#005CA9" stroke="white"></path><path d="M16.5447 0.633181C7.50825 2.93982 1.1972 11.0724 1.1972 20.4102C1.1972 26.2097 3.6356 31.6744 7.91612 35.5445L1.44436 46.9501C1.23623 47.3173 1.26225 47.7721 1.51066 48.1129C1.75907 48.454 2.18373 48.6181 2.59705 48.5321L9.94665 47.0059L12.5298 54.285C12.67 54.6811 13.0287 54.9585 13.4475 54.9958C13.8663 55.0332 14.2679 54.8221 14.4756 54.4566L21.6074 41.9185L28.7388 54.4566C28.931 54.7944 29.2885 54.9996 29.672 54.9996C29.7035 54.9996 29.7354 54.9984 29.7669 54.9958C30.1856 54.9585 30.5444 54.6807 30.685 54.285L33.2677 47.0059L40.6173 48.5321C41.0302 48.6177 41.4553 48.4536 41.7037 48.1129C41.9525 47.7721 41.9781 47.3173 41.77 46.9501L35.2982 35.5445C39.5788 31.6744 42.0172 26.2097 42.0172 20.4102C42.0172 11.0724 35.7061 2.93982 26.6701 0.633181C26.0948 0.486315 25.5103 0.833339 25.3634 1.40821C25.2165 1.98309 25.5635 2.56804 26.1384 2.7149C34.2228 4.77858 39.8691 12.0552 39.8691 20.4102C39.8691 30.5787 31.6107 38.6719 21.6074 38.6719C11.597 38.6719 3.34565 30.572 3.34565 20.4102C3.34565 12.0552 8.9916 4.77858 17.0759 2.7149C17.6508 2.56804 17.9978 1.98309 17.8514 1.40821C17.7045 0.833339 17.12 0.486315 16.5447 0.633181ZM13.7694 51.3536L11.6583 45.4047C11.4787 44.8986 10.9533 44.6028 10.4275 44.7119L4.48449 45.946L9.60634 36.9192C12.5928 39.0903 16.1289 40.4129 19.806 40.7402L13.7694 51.3536ZM32.7868 44.7119C32.2615 44.6028 31.7357 44.8986 31.5561 45.4047L29.4454 51.3536L23.4084 40.7402C27.0859 40.4129 30.6216 39.0903 33.6085 36.9192L38.7303 45.946L32.7868 44.7119Z" fill="#005CA9" stroke="white"></path></svg> 