<?xml version="1.0" encoding="UTF-8"?> <svg xmlns="http://www.w3.org/2000/svg" width="54" height="54" viewBox="0 0 54 54" fill="none"><path d="M45.877 29.6027C45.8726 27.7965 45.4469 26.0214 44.6354 24.4099L46.4994 22.5459C47.8968 21.1485 47.8968 18.8745 46.4994 17.477C45.8024 16.7799 44.8873 16.4307 43.9717 16.4291C43.9704 15.4735 43.5978 14.5755 42.9221 13.8996C42.2246 13.2023 41.3088 12.853 40.3927 12.8517C40.3914 11.9355 40.0421 11.0198 39.3446 10.3223C38.6692 9.64702 37.7717 9.27441 36.8169 9.27272C36.8151 8.31793 36.4426 7.42041 35.7673 6.745C35.0903 6.06801 34.1902 5.69518 33.2328 5.69518C32.2755 5.69518 31.3754 6.06801 30.6985 6.745L27.0012 10.4422L24.944 8.3849C24.267 7.70791 23.367 7.33508 22.4095 7.33508C21.4521 7.33508 20.552 7.70791 19.8752 8.3849C19.1993 9.06073 18.8268 9.95878 18.8255 10.9143C17.9099 10.916 16.9948 11.2652 16.2977 11.9622C15.6223 12.6376 15.2498 13.535 15.248 14.4899C14.2932 14.4917 13.3957 14.8642 12.7203 15.5397C11.5663 16.6937 11.3663 18.4449 12.1182 19.8073C11.6004 19.9765 11.1134 20.2656 10.7025 20.6765C9.30508 22.0741 9.30508 24.3479 10.7025 25.7455L12.1954 27.2383L0.334825 39.0989C-0.0770219 39.5107 -0.0770219 40.1786 0.334825 40.5905C0.540802 40.7964 0.810691 40.8994 1.08058 40.8994C1.35047 40.8994 1.62046 40.7964 1.82634 40.5905L9.86648 32.5504L17.3982 40.0821L5.33447 52.1458C4.92263 52.5576 4.92263 53.2254 5.33447 53.6374C5.54045 53.8433 5.81034 53.9463 6.08023 53.9463C6.35012 53.9463 6.62011 53.8433 6.82598 53.6374L23.1316 37.3318C23.4319 37.0314 23.7738 36.788 24.1438 36.6049L26.6957 38.2858C28.3835 39.3974 30.4412 39.8317 32.4252 39.5104L46.6059 53.6912C46.8119 53.897 47.0818 54.0001 47.3517 54.0001C47.6215 54.0001 47.8915 53.897 48.0974 53.6912C48.5093 53.2793 48.5093 52.6115 48.0974 52.1996L39.8695 43.9717L40.8642 42.977C41.276 42.5652 41.276 41.8974 40.8642 41.4854C40.4523 41.0737 39.7845 41.0737 39.3726 41.4854L38.3779 42.4801L36.0491 40.1512L44.7457 31.4546L47.0746 33.7835L46.0822 34.7759C45.6703 35.1879 45.6703 35.8556 46.0822 36.2675C46.2881 36.4734 46.558 36.5765 46.8279 36.5765C47.0978 36.5765 47.3678 36.4734 47.5737 36.2675L48.5661 35.2751L52.1989 38.9079C52.4049 39.1138 52.6748 39.2168 52.9447 39.2168C53.2146 39.2168 53.4846 39.1138 53.6904 38.9079C54.1023 38.4961 54.1023 37.8282 53.6904 37.4163L45.877 29.6027ZM32.19 8.23651C32.4685 7.95797 32.8389 7.80452 33.2328 7.80452C33.6268 7.80452 33.9972 7.95797 34.2757 8.23651C34.5543 8.51505 34.7077 8.88544 34.7077 9.27936C34.7077 9.67339 34.5542 10.0438 34.2757 10.3223L31.9581 12.64C31.5462 13.0518 31.5462 13.7196 31.9581 14.1316C32.3699 14.5435 33.0377 14.5434 33.4497 14.1316L35.7673 11.8139C36.0458 11.5353 36.4162 11.3819 36.8103 11.3819C37.2042 11.3819 37.5746 11.5354 37.8531 11.8139C38.4282 12.389 38.4282 13.3246 37.8531 13.8998L34.3141 17.4388C33.9022 17.8506 33.9022 18.5185 34.3141 18.9304C34.5201 19.1364 34.7899 19.2393 35.0598 19.2393C35.3297 19.2393 35.5997 19.1364 35.8056 18.9304L39.3446 15.3914C39.6232 15.1127 39.9936 14.9594 40.3875 14.9594C40.7815 14.9594 41.1519 15.1128 41.4304 15.3914C41.709 15.6699 41.8624 16.0403 41.8624 16.4342C41.8624 16.8281 41.709 17.1985 41.4304 17.4771L37.8914 21.0161C37.4796 21.428 37.4796 22.0958 37.8914 22.5077C38.0974 22.7137 38.3673 22.8166 38.6372 22.8166C38.907 22.8166 39.177 22.7137 39.3829 22.5077L42.9218 18.9687C43.4969 18.3936 44.4327 18.3937 45.0077 18.9687C45.5828 19.5438 45.5828 20.4795 45.0077 21.0545L36.2902 29.772C33.4991 32.5631 29.7882 34.1003 25.8408 34.1003C24.7719 34.1003 23.7465 34.3818 22.8477 34.9078L16.7432 28.8032C17.213 28.6259 17.6441 28.3498 18.0099 27.9841C18.6857 27.3083 19.0582 26.4102 19.0596 25.4547C19.9751 25.453 20.8903 25.1037 21.5873 24.4067C22.2843 23.7096 22.6335 22.7946 22.6352 21.8789C23.5908 21.8777 24.4889 21.5051 25.1646 20.8292C25.8617 20.1322 26.2109 19.2172 26.2126 18.3015C27.1681 18.3002 28.0661 17.9276 28.7419 17.2519C29.4188 16.5749 29.7917 15.6749 29.7917 14.7174C29.7917 13.76 29.4188 12.86 28.7419 12.183L28.4924 11.9335L32.19 8.23651ZM21.3667 9.87641C21.6452 9.59787 22.0156 9.44442 22.4095 9.44442C22.8034 9.44442 23.1738 9.59787 23.4524 9.87641L27.2507 13.6746C27.5292 13.9531 27.6827 14.3235 27.6827 14.7174C27.6827 15.1114 27.5292 15.4818 27.2507 15.7604C26.9721 16.0389 26.6017 16.1924 26.2078 16.1924C25.814 16.1924 25.4438 16.039 25.1653 15.7607C25.1652 15.7606 25.1651 15.7605 25.1649 15.7603L21.3667 11.9621C21.0881 11.6836 20.9347 11.3132 20.9347 10.9193C20.9347 10.5253 21.088 10.1551 21.3667 9.87641ZM17.7892 13.4537C18.0769 13.1661 18.4544 13.0225 18.8322 13.0225C19.2099 13.0225 19.5877 13.1662 19.8751 13.4537L23.6732 17.2519C24.2483 17.827 24.2482 18.7627 23.6732 19.3378C23.3947 19.6164 23.0243 19.7698 22.6304 19.7698C22.2366 19.7698 21.8664 19.6165 21.5878 19.3381C21.5877 19.338 21.5876 19.3379 21.5875 19.3377L17.7893 15.5395C17.5107 15.261 17.3574 14.8906 17.3574 14.4966C17.3573 14.1027 17.5107 13.7324 17.7892 13.4537ZM14.2119 17.0312C14.4905 16.7525 14.8609 16.5992 15.2548 16.5992C15.6488 16.5992 16.0192 16.7526 16.2977 17.0312L20.0959 20.8293C20.671 21.4044 20.671 22.3401 20.0959 22.9151C19.5208 23.4902 18.5851 23.4903 18.01 22.9151L14.2118 19.117C13.6368 18.542 13.6368 17.6062 14.2119 17.0312ZM12.194 22.168C12.4816 21.8804 12.8593 21.7368 13.237 21.7368C13.6141 21.7368 13.9915 21.8803 14.2788 22.1671L16.5185 24.4068C16.797 24.6853 16.9505 25.0557 16.9505 25.4496C16.9505 25.8435 16.797 26.2139 16.5185 26.4926C16.2399 26.7712 15.8695 26.9246 15.4755 26.9246C15.0819 26.9246 14.7117 26.7713 14.4332 26.4931L14.4327 26.4926L12.194 24.2539C11.619 23.6787 11.619 22.743 12.194 22.168ZM11.3581 31.0588L13.687 28.7298L21.2188 36.2615L18.8899 38.5905L11.3581 31.0588ZM33.5179 37.6199C33.2581 37.3603 32.8821 37.2539 32.5252 37.3405C30.9289 37.7247 29.2271 37.4273 27.856 36.5241L27.2848 36.1478C31.2509 35.8141 34.9353 34.1102 37.7819 31.2635L43.0453 26.0002C43.4981 27.0944 43.7424 28.2639 43.7648 29.4527L34.5578 38.6598L33.5179 37.6199Z" fill="#005CA9" stroke="white" stroke-width="0.99998"></path><path d="M42.7262 38.132C42.53 38.3282 42.4172 38.5992 42.4172 38.8777C42.4172 39.1551 42.53 39.4272 42.7262 39.6232C42.9224 39.8194 43.1945 39.9324 43.4719 39.9324C43.7503 39.9324 44.0214 39.8195 44.2175 39.6232C44.4137 39.4272 44.5266 39.1551 44.5266 38.8777C44.5266 38.5991 44.4137 38.3282 44.2175 38.132C44.0214 37.9358 43.7492 37.823 43.4719 37.823C43.1945 37.823 42.9224 37.9358 42.7262 38.132Z" fill="#005CA9" stroke="white" stroke-width="0.99998"></path><path d="M7.12578 8.61673C7.33175 8.8227 7.60164 8.92564 7.87153 8.92564C8.14142 8.92564 8.41142 8.8227 8.61729 8.61673C9.02913 8.20488 9.02913 7.53706 8.61729 7.12511L3.65287 2.16069C3.24102 1.74884 2.5732 1.74884 2.16125 2.16069C1.7493 2.57254 1.7494 3.24035 2.16125 3.6523L7.12578 8.61673Z" fill="#005CA9" stroke="white" stroke-width="0.99998"></path><path d="M12.8675 5.74963C13.45 5.74963 13.9222 5.27745 13.9222 4.69496V1.05467C13.9222 0.472178 13.45 3.8147e-06 12.8675 3.8147e-06C12.285 3.8147e-06 11.8128 0.472178 11.8128 1.05467V4.69496C11.8128 5.27745 12.285 5.74963 12.8675 5.74963Z" fill="#005CA9" stroke="white" stroke-width="0.99998"></path><path d="M1.05525 13.9217H4.69554C5.27803 13.9217 5.7502 13.4495 5.7502 12.867C5.7502 12.2845 5.27803 11.8123 4.69554 11.8123H1.05525C0.472754 11.8123 0.000579834 12.2845 0.000579834 12.867C0.000579834 13.4495 0.472754 13.9217 1.05525 13.9217Z" fill="#005CA9" stroke="white" stroke-width="0.99998"></path><path d="M46.1287 8.92552C46.3986 8.92552 46.6686 8.82259 46.8745 8.61661L51.8389 3.65219C52.2508 3.24034 52.2508 2.57253 51.8389 2.16058C51.4271 1.74862 50.7593 1.74873 50.3473 2.16058L45.3829 7.125C44.971 7.53684 44.971 8.20466 45.3829 8.61661C45.5889 8.82259 45.8588 8.92552 46.1287 8.92552Z" fill="#005CA9" stroke="white" stroke-width="0.99998"></path><path d="M41.1325 5.74963C41.715 5.74963 42.1872 5.27745 42.1872 4.69496V1.05467C42.1872 0.472178 41.715 3.8147e-06 41.1325 3.8147e-06C40.5501 3.8147e-06 40.0779 0.472178 40.0779 1.05467V4.69496C40.0779 5.27745 40.5501 5.74963 41.1325 5.74963Z" fill="#005CA9" stroke="white" stroke-width="0.99998"></path><path d="M48.2501 12.867C48.2501 13.4495 48.7222 13.9217 49.3047 13.9217H52.945C53.5275 13.9217 53.9997 13.4495 53.9997 12.867C53.9997 12.2845 53.5275 11.8123 52.945 11.8123H49.3047C48.7222 11.8123 48.2501 12.2845 48.2501 12.867Z" fill="#005CA9" stroke="white" stroke-width="0.99998"></path></svg> 