<?xml version="1.0" encoding="UTF-8"?> <svg xmlns="http://www.w3.org/2000/svg" width="47" height="36" viewBox="0 0 47 36" fill="none"><g clip-path="url(#clip0)"><path d="M31.9387 8.08691V16.9878C31.9387 17.4536 32.3232 17.8325 32.7996 17.8325H43.3405" stroke="#005CA9" stroke-miterlimit="10" stroke-linecap="round" stroke-linejoin="round"></path><path d="M27.6044 17.2912L9.41599 0.81791C9.2037 0.626017 8.92622 0.519409 8.63871 0.519409H4.15723L25.0636 21.7293" stroke="#005CA9" stroke-miterlimit="10" stroke-linecap="round" stroke-linejoin="round"></path><path d="M3.96155 0.519409V6.86337C3.96155 6.86337 6.7163 6.92077 6.69958 9.51871C6.69624 10.0255 6.44049 10.5487 6.1931 10.8538C5.3991 11.8296 3.9348 12.0215 2.89174 11.3048C2.30836 10.9062 1.79185 10.2026 1.7417 8.96599" stroke="#005CA9" stroke-miterlimit="10" stroke-linecap="round" stroke-linejoin="round"></path><path d="M36.9753 8.08691H29.0119C28.4135 8.08691 27.9287 8.56255 27.9287 9.14971V20.6682C27.9287 21.2554 27.444 21.731 26.8456 21.731H2.16814C1.56972 21.731 1.08496 22.2066 1.08496 22.7938V29.2673C1.08496 29.8545 1.56972 30.3301 2.16814 30.3301H3.3232C3.80294 30.3301 4.2225 30.6417 4.36124 31.0928C4.95298 33.033 6.78669 34.4484 8.9564 34.4484C11.1278 34.4484 12.9598 33.0347 13.5515 31.0928C13.6886 30.6417 14.1082 30.3301 14.5896 30.3301H31.0345C31.5343 30.3301 31.9639 30.6663 32.0859 31.142C32.6075 33.1872 34.493 34.7027 36.7396 34.7027C38.9862 34.7027 40.8717 33.1872 41.3933 31.142C41.5153 30.6663 41.9449 30.3301 42.4447 30.3301H45.1693C45.7678 30.3301 46.2525 29.8545 46.2525 29.2673V21.731L37.893 8.58551C37.6957 8.27553 37.3481 8.08691 36.9753 8.08691Z" stroke="#005CA9" stroke-miterlimit="10" stroke-linecap="round" stroke-linejoin="round"></path><path d="M8.94337 34.4467C11.5938 34.4467 13.7425 32.3385 13.7425 29.7379C13.7425 27.1374 11.5938 25.0292 8.94337 25.0292C6.29291 25.0292 4.14429 27.1374 4.14429 29.7379C4.14429 32.3385 6.29291 34.4467 8.94337 34.4467Z" stroke="#005CA9" stroke-miterlimit="10" stroke-linecap="round" stroke-linejoin="round"></path><path d="M36.7512 34.701C39.4017 34.701 41.5503 32.5928 41.5503 29.9922C41.5503 27.3916 39.4017 25.2834 36.7512 25.2834C34.1008 25.2834 31.9521 27.3916 31.9521 29.9922C31.9521 32.5928 34.1008 34.701 36.7512 34.701Z" stroke="#005CA9" stroke-miterlimit="10" stroke-linecap="round" stroke-linejoin="round"></path><path d="M8.94568 30.3837C9.3613 30.3837 9.69824 30.0531 9.69824 29.6453C9.69824 29.2375 9.3613 28.9069 8.94568 28.9069C8.53005 28.9069 8.19312 29.2375 8.19312 29.6453C8.19312 30.0531 8.53005 30.3837 8.94568 30.3837Z" fill="#005CA9"></path><path d="M36.7904 30.3837C37.206 30.3837 37.543 30.0531 37.543 29.6453C37.543 29.2375 37.206 28.9069 36.7904 28.9069C36.3748 28.9069 36.0378 29.2375 36.0378 29.6453C36.0378 30.0531 36.3748 30.3837 36.7904 30.3837Z" fill="#005CA9"></path></g><defs><clipPath id="clip0"><rect x="0.66748" y="0.109375" width="46" height="35" fill="white"></rect></clipPath></defs></svg> 