<?xml version="1.0" encoding="UTF-8"?> <svg xmlns="http://www.w3.org/2000/svg" width="21" height="21" viewBox="0 0 21 21" fill="none"><g clip-path="url(#clip0)"><path d="M20.3437 3.93746H18.375V3.2812C18.375 2.91845 18.0815 2.62494 17.7187 2.62494H15.0937C14.731 2.62494 14.4375 2.91845 14.4375 3.2812V3.93746H6.5625V3.2812C6.5625 2.91845 6.26899 2.62494 5.90624 2.62494H3.28123C2.91848 2.62494 2.62497 2.91845 2.62497 3.2812V3.93746H0.656262C0.293512 3.93746 0 4.23097 0 4.59372V17.7187C0 18.0815 0.293512 18.375 0.656262 18.375H20.3437C20.7064 18.375 21 18.0815 21 17.7187V4.59372C21 4.23097 20.7065 3.93746 20.3437 3.93746ZM19.6875 17.0625H1.31249V5.24995H3.60936V3.93746H5.59582V5.24995H10.5H15.5V3.93746H17.5V5.24995H19.6875L19.6875 17.0625Z" fill="#005CA9"></path><path d="M3.93758 10.5H5.25006V9.18753H6.56255V7.87505H5.25006V6.56256H3.93758V7.87505H2.62509V9.18753H3.93758V10.5Z" fill="#005CA9"></path><path d="M14.4374 7.875H18.3749V9.18749H14.4374V7.875Z" fill="#005CA9"></path></g><defs><clipPath id="clip0"><rect width="21" height="21" fill="white"></rect></clipPath></defs></svg> 