<?xml version="1.0" encoding="UTF-8"?> <svg xmlns="http://www.w3.org/2000/svg" width="23" height="23" viewBox="0 0 23 23" fill="none"><g clip-path="url(#clip0)"><path d="M22.7648 10.9083L17.446 5.27331C17.1191 4.9266 16.5735 4.91079 16.2268 5.23795C15.8806 5.56485 15.8645 6.11079 16.1917 6.45723L20.9518 11.5L16.1917 16.5434C15.8645 16.8898 15.8806 17.4355 16.2268 17.7627C16.3935 17.9199 16.6065 17.9978 16.8187 17.9978C17.0479 17.9978 17.2767 17.907 17.4461 17.7278L22.7649 12.0925C23.0785 11.7599 23.0785 11.2407 22.7648 10.9083Z" fill="#005CA9"></path><path d="M6.80877 16.5431L2.04891 11.5L6.80877 6.45694C7.13567 6.1105 7.11985 5.56451 6.77342 5.23766C6.42725 4.91076 5.88099 4.92658 5.55414 5.27301L0.235357 10.908C-0.0782895 11.2404 -0.0782895 11.7599 0.235357 12.0923L5.55441 17.7276C5.72403 17.9073 5.9526 17.9978 6.18175 17.9978C6.39391 17.9978 6.60698 17.9196 6.77342 17.7624C7.12017 17.4355 7.13567 16.8895 6.80877 16.5431Z" fill="#005CA9"></path><path d="M12.8954 2.36722C12.4248 2.29592 11.9843 2.61905 11.9125 3.0897L9.38245 19.6498C9.31057 20.1207 9.63401 20.5609 10.1049 20.6328C10.1492 20.6394 10.1929 20.6426 10.2363 20.6426C10.6552 20.6426 11.0226 20.337 11.0879 19.9103L13.6179 3.3502C13.6898 2.87924 13.3664 2.43909 12.8954 2.36722Z" fill="#005CA9"></path></g><defs><clipPath id="clip0"><rect width="23" height="23" fill="white"></rect></clipPath></defs></svg> 