<?xml version="1.0" encoding="UTF-8"?> <svg xmlns="http://www.w3.org/2000/svg" width="17" height="23" viewBox="0 0 17 23" fill="none"><path d="M15.3333 8.76666H10.55V1.24999C10.55 0.948695 10.3531 0.683103 10.0649 0.596018C9.77659 0.508599 9.46528 0.620041 9.29812 0.870619L1.09813 13.1706C0.958322 13.3805 0.94531 13.6501 1.06409 13.8723C1.18287 14.0945 1.41477 14.2333 1.66668 14.2333H6.45001V21.75C6.45001 22.0513 6.64687 22.3169 6.93515 22.404C7.22343 22.4914 7.53473 22.3799 7.7019 22.1294L15.9019 9.82936C16.0417 9.61949 16.0547 9.34989 15.9359 9.12768C15.8171 8.90546 15.5852 8.76666 15.3333 8.76666ZM7.81668 19.4951V13.55C7.81668 13.1726 7.51071 12.8667 7.13334 12.8667H2.94393L9.18334 3.50486V9.44999C9.18334 9.82736 9.48931 10.1333 9.86668 10.1333H14.0561L7.81668 19.4951Z" fill="#005CA9"></path></svg> 