<?xml version="1.0" encoding="UTF-8"?> <svg xmlns="http://www.w3.org/2000/svg" width="40" height="43" viewBox="0 0 40 43" fill="none"><g clip-path="url(#clip0)"><path d="M8.24753 4.09521C8.24753 4.09521 12.576 5.58124 10.28 7.44234C9.72324 7.89442 9.02978 8.13686 8.31659 8.16253C7.07626 8.20674 4.83379 8.53903 5.89794 10.4244C6.48146 11.4583 7.08894 12.2641 7.60481 12.8573C9.08616 14.5616 8.84937 17.1942 7.08331 18.5932C7.02552 18.6389 6.96632 18.6859 6.90571 18.7316C3.01981 21.7122 5.61887 24.9509 5.61887 24.9509C5.61887 24.9509 9.8205 29.4318 7.85851 32.709" stroke="#005CA9" stroke-miterlimit="10" stroke-linecap="round" stroke-linejoin="round"></path><path d="M30.0815 5.61682C30.0815 5.61682 26.4324 6.78054 24.6748 7.75744C24.0617 8.09828 23.3612 8.24232 22.6635 8.18956C21.2737 8.08402 19.1201 8.02555 18.4703 8.60313C17.4865 9.47735 17.7275 11.3698 18.4703 12.6091C18.934 13.3835 18.5647 13.9297 18.2208 14.2292C17.8811 14.5273 17.5964 14.8852 17.4146 15.3002C17.3131 15.5327 17.2243 15.7737 17.1975 15.9577C17.1313 16.4254 12.349 15.7295 12.8817 18.3022C12.9691 18.7201 13.1862 19.098 13.4822 19.4046C14.5647 20.527 18.0855 24.4888 18.4703 28.9197C18.4703 28.9197 23.185 26.3385 23.2667 21.4925C23.2822 20.5812 22.9595 19.7013 22.3858 18.9967C21.6148 18.0484 20.841 16.4896 23.6459 16.1003C24.2026 16.0233 24.7734 16.1573 25.2329 16.4868C25.9701 17.0159 26.9539 18.0755 27.1301 20.035C27.2978 21.9089 28.2788 21.7905 29.0653 21.3684C29.6389 21.0604 30.0815 20.5527 30.3479 19.9537C30.9526 18.596 32.6101 15.6154 35.5517 15.4471" stroke="#005CA9" stroke-miterlimit="10" stroke-linecap="round" stroke-linejoin="round"></path><path d="M21.4063 4.74833C20.7129 3.89408 19.3415 2.92146 17.2132 4.45883C17.1483 4.50589 17.0962 4.56864 17.0609 4.64137C16.865 5.05352 16.4563 6.39408 19.536 6.27144C22.7651 6.14166 19.2639 5.43858 21.0131 5.53698C21.4289 5.56123 21.6699 5.07349 21.4063 4.74833Z" stroke="#005CA9" stroke-miterlimit="10" stroke-linecap="round" stroke-linejoin="round"></path><path d="M36.052 16.678C35.0555 7.7476 27.5642 0.806641 18.4703 0.806641C8.69705 0.806641 0.774414 8.8229 0.774414 18.7117C0.774414 27.0346 6.38692 34.0311 13.991 36.0377" stroke="#005CA9" stroke-miterlimit="10" stroke-linecap="round" stroke-linejoin="round"></path><path d="M18.4702 36.6152C22.4971 36.6152 26.2082 35.2533 29.1808 32.9629C26.5437 26.7051 34.183 22.3653 34.183 22.3653C34.183 22.3653 34.758 22.7789 35.522 23.5062C35.8123 22.4481 36.0082 21.3514 36.1027 20.2247" stroke="#005CA9" stroke-miterlimit="10" stroke-linecap="round" stroke-linejoin="round"></path><path d="M37.9312 26.4728L34.072 28.9613L30.0142 26.2289" stroke="#005CA9" stroke-miterlimit="10" stroke-linecap="round" stroke-linejoin="round"></path><path d="M34.1861 22.3553C34.1861 22.3553 21.8786 29.3462 33.8985 38.3765V41.7992L34.0888 28.9098L34.1861 22.3553Z" stroke="#005CA9" stroke-miterlimit="10" stroke-linecap="round" stroke-linejoin="round"></path><path d="M34.186 22.3556C34.186 22.3556 45.917 30.8025 33.8984 38.3767" stroke="#005CA9" stroke-miterlimit="10" stroke-linecap="round" stroke-linejoin="round"></path><path d="M39.3153 30.3661L33.9889 33.8173L28.6301 30.3661" stroke="#005CA9" stroke-miterlimit="10" stroke-linecap="round" stroke-linejoin="round"></path></g><defs><clipPath id="clip0"><rect x="0.422119" y="0.449951" width="39.2453" height="41.7057" fill="white"></rect></clipPath></defs></svg> 