<?xml version="1.0" encoding="UTF-8"?> <svg xmlns="http://www.w3.org/2000/svg" width="37" height="47" viewBox="0 0 37 47" fill="none"><path d="M34.9373 38.1194H1.7785C1.10719 38.1194 0.588294 37.5276 0.677478 36.8611L3.5476 15.3838C3.62057 14.8325 4.09244 14.4207 4.64862 14.4207H31.9294C32.4839 14.4207 32.9526 14.8293 33.0288 15.3774L36.0367 36.8546C36.1308 37.5227 35.6119 38.1194 34.9373 38.1194Z" stroke="#005CA9" stroke-width="0.978261" stroke-miterlimit="10" stroke-linecap="round"></path><path d="M2.82104 21.5994H33.8719" stroke="#005CA9" stroke-width="0.978261" stroke-miterlimit="10" stroke-linecap="round"></path><path d="M1.66089 29.9147H35.0321" stroke="#005CA9" stroke-width="0.978261" stroke-miterlimit="10" stroke-linecap="round"></path><path d="M13.0525 14.4177L12.3926 38.1181" stroke="#005CA9" stroke-width="0.978261" stroke-miterlimit="10" stroke-linecap="round"></path><path d="M23.1008 14.4177L24.9899 38.1181" stroke="#005CA9" stroke-width="0.978261" stroke-miterlimit="10" stroke-linecap="round"></path><path d="M19.7609 38.28H16.9653V43.5695H19.7609V38.28Z" stroke="#005CA9" stroke-width="0.978261" stroke-miterlimit="10" stroke-linecap="round"></path><path d="M27.4731 45.8366H9.25186C8.87891 45.8366 8.57568 45.535 8.57568 45.1605V44.2443C8.57568 43.8713 8.87729 43.5681 9.25186 43.5681H27.4731C27.846 43.5681 28.1493 43.8697 28.1493 44.2443V45.1605C28.1476 45.535 27.846 45.8366 27.4731 45.8366Z" stroke="#005CA9" stroke-width="0.978261" stroke-miterlimit="10" stroke-linecap="round"></path><path d="M18.3186 9.27115C19.8536 9.27115 21.0979 8.02681 21.0979 6.49184C21.0979 4.95687 19.8536 3.71252 18.3186 3.71252C16.7836 3.71252 15.5393 4.95687 15.5393 6.49184C15.5393 8.02681 16.7836 9.27115 18.3186 9.27115Z" stroke="#005CA9" stroke-width="0.978261" stroke-miterlimit="10" stroke-linecap="round"></path><path d="M22.615 6.46436H23.8522" stroke="#005CA9" stroke-width="0.978261" stroke-miterlimit="10" stroke-linecap="round"></path><path d="M12.8635 6.46436H14.1008" stroke="#005CA9" stroke-width="0.978261" stroke-miterlimit="10" stroke-linecap="round"></path><path d="M18.3174 10.8148V12.0521" stroke="#005CA9" stroke-width="0.978261" stroke-miterlimit="10" stroke-linecap="round"></path><path d="M18.3174 1.06299V2.30022" stroke="#005CA9" stroke-width="0.978261" stroke-miterlimit="10" stroke-linecap="round"></path><path d="M21.2029 9.30847L22.0785 10.1825" stroke="#005CA9" stroke-width="0.978261" stroke-miterlimit="10" stroke-linecap="round"></path><path d="M14.3079 2.4137L15.1819 3.2877" stroke="#005CA9" stroke-width="0.978261" stroke-miterlimit="10" stroke-linecap="round"></path><path d="M15.0884 9.34583L14.2144 10.2198" stroke="#005CA9" stroke-width="0.978261" stroke-miterlimit="10" stroke-linecap="round"></path><path d="M21.9841 2.45093L21.1101 3.32494" stroke="#005CA9" stroke-width="0.978261" stroke-miterlimit="10" stroke-linecap="round"></path></svg> 