<svg width="212" height="46" viewBox="0 0 212 46" fill="none" xmlns="http://www.w3.org/2000/svg">
<g clip-path="url(#clip0_70_1508)">
<path d="M30.9509 20.2677C30.9509 20.2677 40.8479 14.6276 33.8177 4.45772C33.8177 4.45772 30.3118 -0.698864 15.1559 0.0710426C0 0.858854 0 0.858854 0 0.858854C0 1.64667 0 42.0041 0 42.0041C0 42.0041 33.5073 47.1607 37.9811 35.433C42.4548 23.7054 30.9509 20.2677 30.9509 20.2677ZM14.8272 9.09506C14.8272 9.09506 24.2494 7.62687 24.1947 12.9983C24.1399 17.8326 14.8272 16.7404 14.8272 16.7404C14.8272 16.7404 14.8455 14.2516 14.8272 9.09506ZM14.9916 35.6121C14.9916 35.6121 14.809 31.5298 14.809 26.6955C14.809 26.6955 25.5459 25.0303 25.4729 31.1538C25.4181 36.6685 14.9916 35.6121 14.9916 35.6121Z" fill="#4A4A49"/>
<path d="M46.0716 2.86388C46.0716 2.86388 47.1855 12.7115 49.1028 13.195C51.0201 13.6784 66.8151 7.4117 67.1255 16.4715C67.1255 16.4715 40.7944 13.5531 43.9899 32.2994C47.1855 51.0457 79.5789 41.5024 79.5789 41.5024C79.5789 41.5024 79.4146 13.9649 79.5789 13.4993C79.7433 13.0338 77.6799 -5.90947 46.0716 2.86388ZM66.8333 34.1794C66.8333 34.1794 56.4068 35.2358 56.3338 29.7211C56.2607 23.5976 66.9977 25.2628 66.9977 25.2628C66.9977 30.0971 66.8333 34.1794 66.8333 34.1794Z" fill="#4A4A49"/>
<path d="M87.4498 42.3801C86.3724 42.0579 87.4498 2.95377 87.4498 2.95377C87.4498 2.95377 91.4487 2.16596 94.626 1.70043C99.0084 1.05586 103.573 0.787289 106.568 0.67986C110.22 0.554526 113.89 1.14538 117.177 2.7031C120.848 4.43987 124.627 7.57321 125.12 13.1237C126.07 24.2247 125.12 42.3801 125.12 42.3801C125.12 42.3801 115.552 45.7463 111.553 41.8251C110.987 41.2521 111.188 16.0959 111.188 16.0959C111.188 16.0959 110.658 11.2974 101.82 12.9626L101.601 42.4876C101.601 42.4876 96.9268 45.1912 87.4498 42.3801Z" fill="#4A4A49"/>
<path d="M131.975 2.2019C131.547 2.3231 131.975 42.7523 131.975 42.7523C131.975 42.7523 142.137 45.2975 145.86 42.7523C146.399 42.3887 145.897 2.70401 145.897 2.70401C145.897 2.70401 139.569 0.176108 131.975 2.2019Z" fill="#4A4A49"/>
<path d="M157.526 2.31971C156.87 2.49472 147.54 21.9912 147.54 21.9912L158.364 42.8878C158.364 42.8878 166.965 45.128 173.324 42.8878L162.81 22.1837L172.285 2.93226C172.285 2.93226 166.236 -0.0254734 157.526 2.31971Z" fill="#1D7CCB"/>
<path d="M211.691 26.1046C211.91 25.5854 215.416 -0.179642 192.116 0.554455C168.816 1.28855 173.071 27.7698 173.399 28.1995C173.71 28.6113 176.796 51.046 209.353 40.8223C209.353 40.8223 210.522 34.0006 206.596 30.1869C206.596 30.1869 187.88 35.5046 186.492 26.1225C186.382 25.3705 211.472 26.6238 211.691 26.1046ZM185.853 17.8147C185.853 17.8147 184.392 11.4943 193.029 11.6912C200.808 11.8703 198.927 18.0474 198.927 18.0474C198.927 18.0474 194.143 17.94 185.853 17.8147Z" fill="#4A4A49"/>
</g>
<defs>
<clipPath id="clip0_70_1508">
<rect width="212" height="45.2991" fill="white"/>
</clipPath>
</defs>
</svg>
