<svg width="14" height="15" viewBox="0 0 14 15" fill="none" xmlns="http://www.w3.org/2000/svg">
<path fill-rule="evenodd" clip-rule="evenodd" d="M8.54006 1.50928C9.06363 1.50928 9.48973 1.93536 9.48973 2.45893V3.7745H12.6064C13.3196 3.7745 13.9001 4.35495 13.9001 5.06819V12.1965C13.9001 12.9098 13.3196 13.4902 12.6064 13.4902H1.39379C0.680518 13.4902 0.100098 12.9098 0.100098 12.1965V5.06819C0.100098 4.35495 0.680521 3.7745 1.39379 3.7745H4.51043V2.45893C4.51043 1.93536 4.93654 1.50928 5.4601 1.50928H8.54006ZM5.19951 2.45893C5.19951 2.31513 5.31635 2.19836 5.4601 2.19836H8.54006C8.68382 2.19836 8.80065 2.31517 8.80065 2.45893V3.7745H5.19951V2.45893ZM6.51702 8.517L1.86756 7.16326C1.23235 6.97832 0.789182 6.38774 0.789182 5.72614V5.06819C0.789182 4.73471 1.06031 4.46358 1.39379 4.46358H12.6064C12.9398 4.46358 13.211 4.73471 13.211 5.06819V5.72614C13.211 6.38774 12.7678 6.97835 12.1326 7.16329L7.48315 8.517C7.16718 8.60903 6.83304 8.60903 6.51702 8.517ZM0.789182 7.33256L0.950336 7.45712C1.16441 7.62258 1.40851 7.74731 1.67492 7.82489C2.72554 8.13078 3.54993 8.3723 4.20089 8.56301C5.14183 8.83867 5.72039 9.00816 6.09594 9.11244C6.41415 9.2008 6.58177 9.24092 6.69865 9.25944C6.80033 9.27555 6.86339 9.27541 6.9626 9.2752L7.00008 9.27514L7.03963 9.2752C7.13925 9.27543 7.20243 9.27558 7.30344 9.25967C7.42008 9.2413 7.58688 9.20135 7.90433 9.1131C8.27107 9.01115 8.83229 8.84664 9.73843 8.58102C10.3984 8.38757 11.2413 8.14049 12.3252 7.82489C12.5917 7.74731 12.8358 7.62258 13.0498 7.45712L13.211 7.33254V12.1965C13.211 12.53 12.9399 12.8011 12.6064 12.8011H1.39379C1.06034 12.8011 0.789182 12.53 0.789182 12.1965V7.33256Z" fill="#005CA9"/>
</svg>
