<svg width="14" height="15" viewBox="0 0 14 15" fill="none" xmlns="http://www.w3.org/2000/svg">
<g clip-path="url(#clip0_324_2286)">
<path d="M7 0.5C3.14027 0.5 0 3.64027 0 7.5C0 11.3597 3.14027 14.5 7 14.5C10.8597 14.5 14 11.3597 14 7.5C14 3.64027 10.8597 0.5 7 0.5ZM7 13.625C3.62262 13.625 0.875004 10.8774 0.875004 7.5C0.875004 4.12262 3.62262 1.375 7 1.375C10.3774 1.375 13.125 4.12262 13.125 7.5C13.125 10.8774 10.3774 13.625 7 13.625Z" fill="#005CA9"/>
<path d="M7.4375 3.125H6.5625V7.68114L9.31567 10.4343L9.93433 9.81566L7.4375 7.31884V3.125Z" fill="#005CA9"/>
</g>
<defs>
<clipPath id="clip0_324_2286">
<rect width="14" height="14" fill="white" transform="translate(0 0.5)"/>
</clipPath>
</defs>
</svg>
