<svg width="14" height="15" viewBox="0 0 14 15" fill="none" xmlns="http://www.w3.org/2000/svg">
<g opacity="0.4" clip-path="url(#clip0_324_2250)">
<path d="M11.0717 1.53702V1.61202H11.1467H11.883C12.8657 1.61202 13.6643 2.41067 13.6643 3.39332V12.6437C13.6643 13.6263 12.8657 14.425 11.883 14.425H2.11412C1.13146 14.425 0.332813 13.6263 0.332813 12.6437V3.39332C0.332813 2.41067 1.13146 1.61202 2.11412 1.61202H2.8504H2.9254V1.53702V1.01851C2.9254 0.774742 3.12514 0.575 3.36891 0.575C3.61269 0.575 3.81246 0.77475 3.81246 1.01851V1.53702V1.61202H3.88746H10.1097H10.1847V1.53702V1.01851C10.1847 0.774742 10.3844 0.575 10.6282 0.575C10.8719 0.575 11.0717 0.77475 11.0717 1.01851V1.53702ZM2.9254 2.57408V2.49908H2.8504H2.11412C1.6216 2.49908 1.21987 2.9008 1.21987 3.39332V4.90741V4.98241H1.29487H12.7022H12.7772V4.90741V3.39332C12.7772 2.9008 12.3755 2.49908 11.883 2.49908H11.1467H11.0717V2.57408V3.09259C11.0717 3.33635 10.8719 3.5361 10.6282 3.5361C10.3844 3.5361 10.1847 3.33635 10.1847 3.09259V2.57408V2.49908H10.1097H3.88742H3.81242V2.57408V3.09259C3.81242 3.33635 3.61268 3.5361 3.36891 3.5361C3.12514 3.5361 2.9254 3.33635 2.9254 3.09259V2.57408ZM1.29487 5.86943H1.21987V5.94443V12.6437C1.21987 13.1362 1.6216 13.5379 2.11412 13.5379H11.8831C12.3756 13.5379 12.7773 13.1362 12.7773 12.6437V5.94443V5.86943H12.7023H1.29487Z" fill="#272727" stroke="white" stroke-width="0.15"/>
</g>
<defs>
<clipPath id="clip0_324_2250">
<rect width="14" height="14" fill="white" transform="translate(0 0.5)"/>
</clipPath>
</defs>
</svg>
