<svg width="19" height="18" viewBox="0 0 19 18" fill="none" xmlns="http://www.w3.org/2000/svg">
<g clip-path="url(#clip0_71_688)">
<path d="M9.76465 0C4.80214 0 0.764648 4.03749 0.764648 9C0.764648 13.9625 4.80214 18 9.76465 18C14.7272 18 18.7646 13.9625 18.7646 9C18.7646 4.03749 14.7272 0 9.76465 0ZM9.76465 16.875C5.4223 16.875 1.88965 13.3424 1.88965 9C1.88965 4.65765 5.4223 1.12501 9.76465 1.12501C14.107 1.12501 17.6396 4.65765 17.6396 9C17.6396 13.3424 14.107 16.875 9.76465 16.875Z" fill="#026AC0"/>
<path d="M10.3272 3.375H9.20215V9.2329L12.7419 12.7727L13.5374 11.9773L10.3272 8.76708V3.375Z" fill="#026AC0"/>
</g>
<defs>
<clipPath id="clip0_71_688">
<rect width="18" height="18" fill="white" transform="translate(0.764648)"/>
</clipPath>
</defs>
</svg>
