<svg width="16" height="19" viewBox="0 0 16 19" fill="none" xmlns="http://www.w3.org/2000/svg">
<g opacity="0.8">
<path d="M14.6667 4.5H1.33334C0.597969 4.5 0 5.09797 0 5.83334V15.1667C0 15.902 0.597969 16.5 1.33334 16.5H14.6667C15.402 16.5 16 15.902 16 15.1667V5.83334C16 5.09797 15.402 4.5 14.6667 4.5ZM1.33334 5.16666H14.6667C14.7032 5.16666 14.7347 5.18184 14.7696 5.1875L8.35416 10.3962C8.13734 10.5332 7.82747 10.5111 7.66959 10.4138L1.23016 5.18759C1.26513 5.18187 1.29675 5.16666 1.33334 5.16666ZM15.3333 15.1667C15.3333 15.5342 15.0342 15.8333 14.6667 15.8333H1.33334C0.965844 15.8333 0.666687 15.5342 0.666687 15.1667V5.83334C0.666687 5.75881 0.686594 5.69006 0.70925 5.62309L7.27866 10.9525C7.49513 11.0924 7.74481 11.1667 8 11.1667C8.24609 11.1667 8.48634 11.098 8.69728 10.9674C8.71681 10.9573 8.73538 10.9453 8.75228 10.9313L15.2907 5.62294C15.3134 5.68997 15.3333 5.75875 15.3333 5.83334V15.1667H15.3333Z" fill="#4A4A49"/>
</g>
</svg>
