<svg width="94" height="56" viewBox="0 0 94 56" fill="none" xmlns="http://www.w3.org/2000/svg">
<path d="M85.7384 49.536H5.03613V53H85.7384V49.536Z" fill="black"/>
<path d="M85.7384 49.536H5.03613V53H85.7384V49.536Z" fill="url(#paint0_linear_71_651)"/>
<path d="M46.4551 3H5.03613V6.46399H40.7524C42.7745 10.5661 50.9765 25.2425 64.7904 26.268C67.176 26.4503 69.289 26.5187 71.1748 26.5187C77.4683 26.5187 81.0126 25.6755 82.8302 24.9918C84.5115 27.567 85.5112 30.3017 85.5112 33.0365C85.5112 37.4804 79.6721 40.557 74.4238 40.557H5.03613V44.021H74.4238C81.4216 44.021 88.9647 39.8277 88.9647 33.0365C88.9647 16.742 62.8591 3 46.4551 3ZM65.0403 22.804C54.4981 22.0292 47.3867 11.3637 44.6602 6.46399H46.4551C57.0655 6.46399 72.697 13.1869 80.5809 22.0748C78.2635 22.6901 73.5604 23.4421 65.0403 22.804Z" fill="black"/>
<path d="M46.4551 3H5.03613V6.46399H40.7524C42.7745 10.5661 50.9765 25.2425 64.7904 26.268C67.176 26.4503 69.289 26.5187 71.1748 26.5187C77.4683 26.5187 81.0126 25.6755 82.8302 24.9918C84.5115 27.567 85.5112 30.3017 85.5112 33.0365C85.5112 37.4804 79.6721 40.557 74.4238 40.557H5.03613V44.021H74.4238C81.4216 44.021 88.9647 39.8277 88.9647 33.0365C88.9647 16.742 62.8591 3 46.4551 3ZM65.0403 22.804C54.4981 22.0292 47.3867 11.3637 44.6602 6.46399H46.4551C57.0655 6.46399 72.697 13.1869 80.5809 22.0748C78.2635 22.6901 73.5604 23.4421 65.0403 22.804Z" fill="url(#paint1_linear_71_651)"/>
<path d="M74.424 31.031H67.5625V34.495H74.424V31.031Z" fill="black"/>
<path d="M74.424 31.031H67.5625V34.495H74.424V31.031Z" fill="url(#paint2_linear_71_651)"/>
<path d="M24.6895 24.7638H35.1635C36.7993 24.7638 37.5491 23.8295 37.8445 23.2825C38.7078 21.7328 38.776 18.8386 32.7551 9.17587L29.8242 10.999C34.0275 17.7447 34.7091 20.4111 34.8 21.2999H24.6895V24.7638Z" fill="black"/>
<path d="M24.6895 24.7638H35.1635C36.7993 24.7638 37.5491 23.8295 37.8445 23.2825C38.7078 21.7328 38.776 18.8386 32.7551 9.17587L29.8242 10.999C34.0275 17.7447 34.7091 20.4111 34.8 21.2999H24.6895V24.7638Z" fill="url(#paint3_linear_71_651)"/>
<path d="M18.2139 23.2825C19.0772 21.7328 19.1454 18.8386 13.1245 9.17587L10.1936 10.999C14.3969 17.7447 15.0785 20.4111 15.1694 21.2999H5.03613V24.7638H15.5102C17.146 24.7638 17.9185 23.8295 18.2139 23.2825Z" fill="black"/>
<path d="M18.2139 23.2825C19.0772 21.7328 19.1454 18.8386 13.1245 9.17587L10.1936 10.999C14.3969 17.7447 15.0785 20.4111 15.1694 21.2999H5.03613V24.7638H15.5102C17.146 24.7638 17.9185 23.8295 18.2139 23.2825Z" fill="url(#paint4_linear_71_651)"/>
<defs>
<linearGradient id="paint0_linear_71_651" x1="3.54215" y1="53.0642" x2="3.84994" y2="45.8933" gradientUnits="userSpaceOnUse">
<stop stop-color="#005CA9"/>
<stop offset="1" stop-color="#003462"/>
</linearGradient>
<linearGradient id="paint1_linear_71_651" x1="3.48243" y1="44.7804" x2="37.0453" y2="-23.8906" gradientUnits="userSpaceOnUse">
<stop stop-color="#005CA9"/>
<stop offset="1" stop-color="#003462"/>
</linearGradient>
<linearGradient id="paint2_linear_71_651" x1="67.4355" y1="34.5592" x2="70.3257" y2="28.8341" gradientUnits="userSpaceOnUse">
<stop stop-color="#005CA9"/>
<stop offset="1" stop-color="#003462"/>
</linearGradient>
<linearGradient id="paint3_linear_71_651" x1="24.4381" y1="25.0524" x2="40.4494" y2="11.1063" gradientUnits="userSpaceOnUse">
<stop stop-color="#005CA9"/>
<stop offset="1" stop-color="#003462"/>
</linearGradient>
<linearGradient id="paint4_linear_71_651" x1="4.78437" y1="25.0524" x2="20.7993" y2="11.0798" gradientUnits="userSpaceOnUse">
<stop stop-color="#005CA9"/>
<stop offset="1" stop-color="#003462"/>
</linearGradient>
</defs>
</svg>
