<svg width="14" height="13" viewBox="0 0 14 13" fill="none" xmlns="http://www.w3.org/2000/svg">
<path d="M9.53964 2.6744V2.7244H9.58964H12.6063C13.3472 2.7244 13.95 3.32724 13.95 4.0681V11.1964C13.95 11.9373 13.3472 12.5401 12.6063 12.5401H1.3937C0.652807 12.5401 0.05 11.9373 0.05 11.1964V4.0681C0.05 3.32723 0.652808 2.7244 1.3937 2.7244H4.41033H4.46033V2.6744V1.45883C4.46033 0.907649 4.90883 0.45918 5.46001 0.45918H8.53996C9.09114 0.45918 9.53964 0.907649 9.53964 1.45883V2.6744ZM8.70055 2.7244H8.75055V2.6744V1.45883C8.75055 1.34269 8.65612 1.24826 8.53996 1.24826H5.46001C5.34386 1.24826 5.24942 1.34265 5.24942 1.45883V2.6744V2.7244H5.29942H8.70055ZM0.919661 6.49658L0.839084 6.4343V6.53614V11.1964C0.839084 11.5023 1.08786 11.751 1.3937 11.751H12.6063C12.9121 11.751 13.1609 11.5023 13.1609 11.1964V6.53614V6.43429L13.0803 6.49658C12.8613 6.66589 12.6116 6.79347 12.3391 6.8728C11.2558 7.18822 10.4131 7.43525 9.7531 7.6287C8.84644 7.89447 8.28467 8.05914 7.91762 8.16118C7.60025 8.24941 7.43093 8.29009 7.31112 8.30896C7.20604 8.32552 7.13912 8.32535 7.03945 8.32511C7.02687 8.32508 7.01376 8.32504 6.99998 8.32504C6.98694 8.32504 6.9745 8.32507 6.96253 8.3251C6.86328 8.32533 6.7965 8.32548 6.69073 8.30872C6.57072 8.28971 6.40061 8.24886 6.08247 8.16052C5.7066 8.05615 5.1275 7.8865 4.18606 7.61069C3.5351 7.41999 2.71089 7.17852 1.66084 6.8728C1.38844 6.79347 1.13871 6.66589 0.919661 6.49658ZM1.3937 3.51349C1.08783 3.51349 0.839084 3.76223 0.839084 4.0681L7.45508 7.42089L7.46906 7.4689L7.46907 7.46889L12.1186 6.11518C12.7324 5.93646 13.1609 5.36541 13.1609 4.72605V4.0681C13.1609 3.76222 12.9121 3.51349 12.6063 3.51349H1.3937Z" fill="#005CA9" stroke="white" stroke-width="0.1"/>
</svg>
