<svg width="95" height="56" viewBox="0 0 95 56" fill="none" xmlns="http://www.w3.org/2000/svg">
<path fill-rule="evenodd" clip-rule="evenodd" d="M47.4346 3H6.01562V6.46399H41.7318C43.7539 10.5661 51.956 25.2425 65.7699 26.268C68.1555 26.4503 70.2685 26.5187 72.1543 26.5187C78.4478 26.5187 81.9921 25.6755 83.8097 24.9918C85.491 27.567 86.4907 30.3017 86.4907 33.0365C86.4907 37.4804 80.6516 40.557 75.4032 40.557H6.01562V44.021H75.4032C82.4011 44.021 89.9442 39.8277 89.9442 33.0365C89.9442 16.742 63.8386 3 47.4346 3ZM45.6397 6.46399C48.3662 11.3637 55.4776 22.0292 66.0198 22.804C74.5399 23.4421 79.243 22.6901 81.5604 22.0748C73.6765 13.1869 58.045 6.46399 47.4346 6.46399H45.6397Z" fill="url(#paint0_linear_112_740)"/>
<path d="M25.6689 24.7638H36.143C37.7788 24.7638 38.5286 23.8295 38.824 23.2825C39.6873 21.7328 39.7555 18.8386 33.7346 9.17587L30.8037 10.999C35.007 17.7447 35.6886 20.4111 35.7795 21.2999H25.6689V24.7638Z" fill="url(#paint1_linear_112_740)"/>
<path d="M19.1934 23.2824C20.0567 21.7328 20.1249 18.8385 14.104 9.17578L11.1731 10.9989C15.3764 17.7446 16.058 20.411 16.1489 21.2998H6.01562V24.7638H16.4897C18.1255 24.7638 18.898 23.8294 19.1934 23.2824Z" fill="url(#paint2_linear_112_740)"/>
<path d="M68.542 31.031H75.4035V34.495H68.542V31.031Z" fill="url(#paint3_linear_112_740)"/>
<path d="M6.01562 49.536H86.7179V53H6.01562V49.536Z" fill="url(#paint4_linear_112_740)"/>
<defs>
<linearGradient id="paint0_linear_112_740" x1="4.46192" y1="53.9257" x2="50.0561" y2="-22.6093" gradientUnits="userSpaceOnUse">
<stop stop-color="#005CA9"/>
<stop offset="1" stop-color="#003462"/>
</linearGradient>
<linearGradient id="paint1_linear_112_740" x1="4.46192" y1="53.9257" x2="50.0561" y2="-22.6093" gradientUnits="userSpaceOnUse">
<stop stop-color="#005CA9"/>
<stop offset="1" stop-color="#003462"/>
</linearGradient>
<linearGradient id="paint2_linear_112_740" x1="4.46192" y1="53.9257" x2="50.0561" y2="-22.6093" gradientUnits="userSpaceOnUse">
<stop stop-color="#005CA9"/>
<stop offset="1" stop-color="#003462"/>
</linearGradient>
<linearGradient id="paint3_linear_112_740" x1="4.46192" y1="53.9257" x2="50.0561" y2="-22.6093" gradientUnits="userSpaceOnUse">
<stop stop-color="#005CA9"/>
<stop offset="1" stop-color="#003462"/>
</linearGradient>
<linearGradient id="paint4_linear_112_740" x1="4.46192" y1="53.9257" x2="50.0561" y2="-22.6093" gradientUnits="userSpaceOnUse">
<stop stop-color="#005CA9"/>
<stop offset="1" stop-color="#003462"/>
</linearGradient>
</defs>
</svg>
