<svg width="16" height="16" viewBox="0 0 16 16" fill="none" xmlns="http://www.w3.org/2000/svg">
<g opacity="0.8">
<path d="M12.1115 14.7692C11.5482 14.7692 10.8679 14.628 10.1198 14.3457C8.47954 13.7273 6.69497 12.5051 5.09481 10.9049C3.4942 9.30432 2.272 7.51929 1.65316 5.87906C1.09079 4.38774 1.08942 3.16372 1.64998 2.60362C1.73058 2.52302 1.81254 2.4365 1.89724 2.34725C2.40861 1.80946 2.98647 1.20428 3.7524 1.23161C4.28016 1.25346 4.79154 1.58133 5.31521 2.23295C6.86254 4.15733 6.16492 4.84311 5.35756 5.63817L5.21503 5.77934C5.08297 5.91139 4.83343 6.52295 7.15488 8.8444C7.91261 9.60213 8.55878 10.1568 9.07516 10.4924C9.40029 10.7037 9.98179 11.0233 10.2204 10.7847L10.3638 10.6399C11.158 9.83436 11.8438 9.13902 13.7668 10.685C14.4184 11.2087 14.7458 11.7196 14.7677 12.2483C14.7991 13.0137 14.1894 13.5929 13.6511 14.1039C13.5623 14.1886 13.4758 14.2705 13.3952 14.3507C13.117 14.6294 12.6721 14.7692 12.1115 14.7692ZM3.69775 1.68606C3.15359 1.68606 2.66225 2.20335 2.22738 2.661C2.13995 2.75298 2.05525 2.84223 1.97192 2.92556C1.55435 3.34268 1.5967 4.43874 2.07938 5.71877C2.67591 7.2998 3.86123 9.02746 5.41721 10.5834C6.97274 12.1385 8.69948 13.3238 10.281 13.9199C11.561 14.4035 12.6571 14.4445 13.0737 14.0278C13.1571 13.9445 13.2463 13.8598 13.3383 13.7728C13.8059 13.3284 14.3364 12.8247 14.3132 12.266C14.2973 11.8821 14.0177 11.4691 13.4822 11.0388C11.8798 9.75012 11.4317 10.205 10.6885 10.9587L10.5428 11.1057C10.1876 11.4614 9.61067 11.3826 8.82744 10.8735C8.28419 10.5201 7.61298 9.94547 6.8334 9.16543C4.90675 7.23924 4.29064 6.0603 4.89354 5.45603L5.0388 5.31259C5.79425 4.56943 6.25007 4.1209 4.96094 2.51756C4.52971 1.9825 4.11714 1.70291 3.73327 1.68652C3.72143 1.68606 3.70959 1.68606 3.69775 1.68606Z" fill="#4A4A49" stroke="#4A4A49" stroke-width="0.25"/>
</g>
</svg>
