<svg width="19" height="18" viewBox="0 0 19 18" fill="none" xmlns="http://www.w3.org/2000/svg">
<path d="M15.2566 7.07143C15.2566 5.53696 14.6532 4.06534 13.5791 2.98031C12.505 1.89528 11.0483 1.28571 9.5293 1.28571C8.01033 1.28571 6.55358 1.89528 5.4795 2.98031C4.40543 4.06534 3.80202 5.53696 3.80202 7.07143C3.80202 9.44486 5.68184 12.5383 9.5293 16.2437C13.3768 12.5383 15.2566 9.44486 15.2566 7.07143ZM9.5293 18C4.86221 13.7147 2.5293 10.071 2.5293 7.07143C2.5293 5.19597 3.26679 3.39732 4.57955 2.07117C5.8923 0.745024 7.67278 0 9.5293 0C11.3858 0 13.1663 0.745024 14.479 2.07117C15.7918 3.39732 16.5293 5.19597 16.5293 7.07143C16.5293 10.071 14.1964 13.7147 9.5293 18Z" fill="#026AC0"/>
<path d="M9.5293 8.8C10.0067 8.8 10.4645 8.61036 10.8021 8.27279C11.1397 7.93523 11.3293 7.47739 11.3293 7C11.3293 6.52261 11.1397 6.06477 10.8021 5.72721C10.4645 5.38964 10.0067 5.2 9.5293 5.2C9.05191 5.2 8.59407 5.38964 8.2565 5.72721C7.91894 6.06477 7.7293 6.52261 7.7293 7C7.7293 7.47739 7.91894 7.93523 8.2565 8.27279C8.59407 8.61036 9.05191 8.8 9.5293 8.8ZM9.5293 10C8.73365 10 7.97059 9.68393 7.40798 9.12132C6.84537 8.55871 6.5293 7.79565 6.5293 7C6.5293 6.20435 6.84537 5.44129 7.40798 4.87868C7.97059 4.31607 8.73365 4 9.5293 4C10.3249 4 11.088 4.31607 11.6506 4.87868C12.2132 5.44129 12.5293 6.20435 12.5293 7C12.5293 7.79565 12.2132 8.55871 11.6506 9.12132C11.088 9.68393 10.3249 10 9.5293 10Z" fill="#026AC0"/>
</svg>
