<svg width="18" height="19" viewBox="0 0 18 19" fill="none" xmlns="http://www.w3.org/2000/svg">
<g clip-path="url(#clip0_380_292)">
<path d="M14.7273 7.57143C14.7273 6.03696 14.1239 4.56534 13.0498 3.48031C11.9757 2.39528 10.519 1.78571 9 1.78571C7.48103 1.78571 6.02428 2.39528 4.95021 3.48031C3.87613 4.56534 3.27273 6.03696 3.27273 7.57143C3.27273 9.94486 5.15255 13.0383 9 16.7437C12.8475 13.0383 14.7273 9.94486 14.7273 7.57143ZM9 18.5C4.33291 14.2147 2 10.571 2 7.57143C2 5.69597 2.7375 3.89732 4.05025 2.57117C5.36301 1.24502 7.14348 0.5 9 0.5C10.8565 0.5 12.637 1.24502 13.9497 2.57117C15.2625 3.89732 16 5.69597 16 7.57143C16 10.571 13.6671 14.2147 9 18.5Z" fill="white"/>
<path d="M9 9.3C9.47739 9.3 9.93523 9.11036 10.2728 8.77279C10.6104 8.43523 10.8 7.97739 10.8 7.5C10.8 7.02261 10.6104 6.56477 10.2728 6.22721C9.93523 5.88964 9.47739 5.7 9 5.7C8.52261 5.7 8.06477 5.88964 7.72721 6.22721C7.38964 6.56477 7.2 7.02261 7.2 7.5C7.2 7.97739 7.38964 8.43523 7.72721 8.77279C8.06477 9.11036 8.52261 9.3 9 9.3ZM9 10.5C8.20435 10.5 7.44129 10.1839 6.87868 9.62132C6.31607 9.05871 6 8.29565 6 7.5C6 6.70435 6.31607 5.94129 6.87868 5.37868C7.44129 4.81607 8.20435 4.5 9 4.5C9.79565 4.5 10.5587 4.81607 11.1213 5.37868C11.6839 5.94129 12 6.70435 12 7.5C12 8.29565 11.6839 9.05871 11.1213 9.62132C10.5587 10.1839 9.79565 10.5 9 10.5Z" fill="white"/>
</g>
<defs>
<clipPath id="clip0_380_292">
<rect width="18" height="18" fill="white" transform="translate(0 0.5)"/>
</clipPath>
</defs>
</svg>
