<svg width="18" height="19" viewBox="0 0 18 19" fill="none" xmlns="http://www.w3.org/2000/svg">
<g clip-path="url(#clip0_380_280)">
<path d="M14.2242 1.83331V1.93919H14.3301H15.2768C16.5349 1.93919 17.5576 2.96179 17.5576 4.21998V16.1133C17.5576 17.3715 16.5349 18.3941 15.2768 18.3941H2.71675C1.45856 18.3941 0.43596 17.3715 0.43596 16.1133V4.21998C0.43596 2.96179 1.45856 1.93919 2.71675 1.93919H3.66341H3.76929V1.83331V1.16665C3.76929 0.85846 4.02187 0.605882 4.33006 0.605882C4.63827 0.605882 4.89089 0.858472 4.89089 1.16665V1.83331V1.93919H4.99677H12.9967H13.1026V1.83331V1.16665C13.1026 0.85846 13.3552 0.605882 13.6634 0.605882C13.9716 0.605882 14.2242 0.858472 14.2242 1.16665V1.83331ZM3.76929 3.16667V3.06079H3.66341H2.71675C2.07829 3.06079 1.55756 3.58152 1.55756 4.21998V6.16667V6.27255H1.66344H16.33H16.4359V6.16667V4.21998C16.4359 3.58152 15.9152 3.06079 15.2767 3.06079H14.33H14.2242V3.16667V3.83333C14.2242 4.14152 13.9716 4.3941 13.6634 4.3941C13.3552 4.3941 13.1026 4.14152 13.1026 3.83333V3.16667V3.06079H12.9967H4.99672H4.89083V3.16667V3.83333C4.89083 4.14152 4.63826 4.3941 4.33006 4.3941C4.02187 4.3941 3.76929 4.14152 3.76929 3.83333V3.16667ZM1.66344 7.3941H1.55756V7.49998V16.1133C1.55756 16.7518 2.07829 17.2725 2.71675 17.2725H15.2768C15.9153 17.2725 16.436 16.7518 16.436 16.1133V7.49998V7.3941H16.3301H1.66344Z" fill="white" stroke="white" stroke-width="0.211765"/>
</g>
<defs>
<clipPath id="clip0_380_280">
<rect width="18" height="18" fill="white" transform="translate(0 0.5)"/>
</clipPath>
</defs>
</svg>
