<svg width="19" height="24" viewBox="0 0 19 24" fill="none" xmlns="http://www.w3.org/2000/svg">
<path d="M9.16452 23.9999C7.56464 22.6391 6.0817 21.1471 4.73119 19.5397C2.70452 17.1258 0.297853 13.5309 0.297853 10.1052C0.296974 8.35568 0.816563 6.64522 1.79086 5.19029C2.76517 3.73536 4.15038 2.60136 5.77121 1.93181C7.39203 1.26226 9.1756 1.08726 10.8962 1.42894C12.6168 1.77063 14.1971 2.61365 15.4371 3.85131C16.2626 4.67092 16.917 5.64567 17.3622 6.71915C17.8075 7.79263 18.0349 8.94352 18.0312 10.1052C18.0312 13.5309 15.6245 17.1258 13.5979 19.5397C12.2473 21.1471 10.7644 22.639 9.16452 23.9999ZM9.16452 6.31573C8.1567 6.31573 7.19015 6.71498 6.47751 7.42564C5.76487 8.13631 5.36452 9.10018 5.36452 10.1052C5.36452 11.1102 5.76487 12.0741 6.47751 12.7848C7.19015 13.4954 8.1567 13.8947 9.16452 13.8947C10.1723 13.8947 11.1389 13.4954 11.8515 12.7848C12.5642 12.0741 12.9645 11.1102 12.9645 10.1052C12.9645 9.10018 12.5642 8.13631 11.8515 7.42564C11.1389 6.71498 10.1723 6.31573 9.16452 6.31573Z" fill="#026AC0"/>
</svg>
