<svg width="18" height="19" viewBox="0 0 18 19" fill="none" xmlns="http://www.w3.org/2000/svg">
<g clip-path="url(#clip0_380_287)">
<path d="M9 0.5C4.03749 0.5 0 4.53749 0 9.5C0 14.4625 4.03749 18.5 9 18.5C13.9625 18.5 18 14.4625 18 9.5C18 4.53749 13.9625 0.5 9 0.5ZM9 17.375C4.65765 17.375 1.12501 13.8424 1.12501 9.5C1.12501 5.15765 4.65765 1.62501 9 1.62501C13.3424 1.62501 16.875 5.15765 16.875 9.5C16.875 13.8424 13.3424 17.375 9 17.375Z" fill="white"/>
<path d="M9.5625 3.87502H8.4375V9.73291L11.9773 13.2727L12.7727 12.4773L9.5625 9.26709V3.87502Z" fill="white"/>
</g>
<defs>
<clipPath id="clip0_380_287">
<rect width="18" height="18" fill="white" transform="translate(0 0.5)"/>
</clipPath>
</defs>
</svg>
