<svg width="94" height="56" viewBox="0 0 94 56" fill="none" xmlns="http://www.w3.org/2000/svg">
<path d="M73.5235 16.9167H56.1398L56.6943 16.2037L36.4951 0.345679C36.2178 0.12963 35.8552 0 35.5139 0H26.5555C25.9369 0 25.3823 0.345679 25.1051 0.907407C24.8278 1.46914 24.8918 2.13889 25.2757 2.6358L33.9355 14.0216L36.4951 12.0123L29.8616 3.28395H34.9594L52.3217 16.9167H26.4488L10.1956 2.37654C9.89698 2.11728 9.51304 1.96605 9.12911 1.96605H1.62106C1.04516 1.96605 0.511913 2.26852 0.234627 2.76543C-0.0639891 3.26235 -0.0639891 3.86728 0.191967 4.3858L6.88949 16.9167H1.62106C0.72521 16.9167 0 17.6512 0 18.5586V26.1636C0 26.8333 0.405264 27.4599 1.04516 27.6975C1.87701 28.0216 21.479 35.6481 27.5153 35.6481H38.7561L25.2757 53.3642C24.8918 53.8611 24.8278 54.5309 25.1051 55.0926C25.3823 55.6543 25.9369 56 26.5555 56H35.5139C35.8765 56 36.2178 55.8704 36.5164 55.6543L61.9628 35.6481H84.295C88.2196 35.6481 94 33.358 94 28.4321C94.0213 23.0525 83.1005 16.9167 73.5235 16.9167ZM84.3163 32.3642H61.4082C61.0456 32.3642 60.7043 32.4938 60.4057 32.7099L34.9594 52.716H29.8616L43.3633 35C43.8325 34.3951 43.8112 33.5525 43.3206 32.9691C43.0007 32.5586 42.4888 32.3426 41.9982 32.3642H27.5153C23.2494 32.3642 9.4064 27.3951 3.22078 25.0185V20.2006H9.59836C10.1743 20.2006 10.7075 19.8981 10.9848 19.4012C11.2834 18.9043 11.2834 18.2994 11.0275 17.7809L4.32993 5.25H8.51055L24.7638 19.7901C25.0624 20.0494 25.4463 20.2006 25.8303 20.2006H73.5235C82.4393 20.2006 90.7792 25.8611 90.7792 28.4321C90.7792 30.8735 87.0038 32.3642 84.3163 32.3642Z" fill="url(#paint0_linear_112_742)"/>
<defs>
<linearGradient id="paint0_linear_112_742" x1="-1.74015" y1="57.0367" x2="49.3253" y2="-28.6824" gradientUnits="userSpaceOnUse">
<stop stop-color="#005CA9"/>
<stop offset="1" stop-color="#003462"/>
</linearGradient>
</defs>
</svg>
