<svg width="94" height="56" viewBox="0 0 94 56" fill="none" xmlns="http://www.w3.org/2000/svg">
<path d="M73.5068 16.9167H56.127L56.6815 16.2037L36.4868 0.345679C36.2096 0.12963 35.8471 0 35.5059 0H26.5495C25.931 0 25.3766 0.345679 25.0994 0.907407C24.8221 1.46914 24.8861 2.13889 25.27 2.6358L33.9279 14.0216L36.4868 12.0123L29.8548 3.28395H34.9515L52.3099 16.9167H26.4428L10.1933 2.37654C9.89474 2.11728 9.51089 1.96605 9.12704 1.96605H1.62069C1.04492 1.96605 0.511797 2.26852 0.234574 2.76543C-0.0639746 3.26235 -0.0639746 3.86728 0.191924 4.3858L6.88793 16.9167H1.62069C0.725045 16.9167 0 17.6512 0 18.5586V26.1636C0 26.8333 0.405172 27.4599 1.04492 27.6975C1.87659 28.0216 21.4741 35.6481 27.5091 35.6481H38.7473L25.27 53.3642C24.8861 53.8611 24.8221 54.5309 25.0994 55.0926C25.3766 55.6543 25.931 56 26.5495 56H35.5059C35.8684 56 36.2096 55.8704 36.5082 55.6543L61.9487 35.6481H84.2759C88.1996 35.6481 93.9787 33.358 93.9787 28.4321C94 23.0525 83.0817 16.9167 73.5068 16.9167ZM84.2972 32.3642H61.3943C61.0318 32.3642 60.6906 32.4938 60.392 32.7099L34.9515 52.716H29.8548L43.3535 35C43.8226 34.3951 43.8013 33.5525 43.3108 32.9691C42.9909 32.5586 42.4791 32.3426 41.9887 32.3642H27.5091C23.2441 32.3642 9.40427 27.3951 3.22005 25.0185V20.2006H9.59619C10.172 20.2006 10.7051 19.8981 10.9823 19.4012C11.2809 18.9043 11.2809 18.2994 11.025 17.7809L4.32895 5.25H8.50862L24.7582 19.7901C25.0567 20.0494 25.4406 20.2006 25.8244 20.2006H73.5068C82.4206 20.2006 90.7586 25.8611 90.7586 28.4321C90.7586 30.8735 86.9841 32.3642 84.2972 32.3642Z" fill="black"/>
<path d="M73.5068 16.9167H56.127L56.6815 16.2037L36.4868 0.345679C36.2096 0.12963 35.8471 0 35.5059 0H26.5495C25.931 0 25.3766 0.345679 25.0994 0.907407C24.8221 1.46914 24.8861 2.13889 25.27 2.6358L33.9279 14.0216L36.4868 12.0123L29.8548 3.28395H34.9515L52.3099 16.9167H26.4428L10.1933 2.37654C9.89474 2.11728 9.51089 1.96605 9.12704 1.96605H1.62069C1.04492 1.96605 0.511797 2.26852 0.234574 2.76543C-0.0639746 3.26235 -0.0639746 3.86728 0.191924 4.3858L6.88793 16.9167H1.62069C0.725045 16.9167 0 17.6512 0 18.5586V26.1636C0 26.8333 0.405172 27.4599 1.04492 27.6975C1.87659 28.0216 21.4741 35.6481 27.5091 35.6481H38.7473L25.27 53.3642C24.8861 53.8611 24.8221 54.5309 25.0994 55.0926C25.3766 55.6543 25.931 56 26.5495 56H35.5059C35.8684 56 36.2096 55.8704 36.5082 55.6543L61.9487 35.6481H84.2759C88.1996 35.6481 93.9787 33.358 93.9787 28.4321C94 23.0525 83.0817 16.9167 73.5068 16.9167ZM84.2972 32.3642H61.3943C61.0318 32.3642 60.6906 32.4938 60.392 32.7099L34.9515 52.716H29.8548L43.3535 35C43.8226 34.3951 43.8013 33.5525 43.3108 32.9691C42.9909 32.5586 42.4791 32.3426 41.9887 32.3642H27.5091C23.2441 32.3642 9.40427 27.3951 3.22005 25.0185V20.2006H9.59619C10.172 20.2006 10.7051 19.8981 10.9823 19.4012C11.2809 18.9043 11.2809 18.2994 11.025 17.7809L4.32895 5.25H8.50862L24.7582 19.7901C25.0567 20.0494 25.4406 20.2006 25.8244 20.2006H73.5068C82.4206 20.2006 90.7586 25.8611 90.7586 28.4321C90.7586 30.8735 86.9841 32.3642 84.2972 32.3642Z" fill="url(#paint0_linear_71_664)"/>
<defs>
<linearGradient id="paint0_linear_71_664" x1="-1.73976" y1="57.0367" x2="49.3312" y2="-28.6722" gradientUnits="userSpaceOnUse">
<stop stop-color="#005CA9"/>
<stop offset="1" stop-color="#003462"/>
</linearGradient>
</defs>
</svg>
