<svg width="116" height="56" viewBox="0 0 116 56" fill="none" xmlns="http://www.w3.org/2000/svg">
<path d="M98.8067 21.1019C94.9869 20.1326 86.7479 18.6447 84.5715 18.239C82.0843 15.7818 68.6708 3 56.8119 3C54.7688 3 51.1933 3.13526 47.7289 3.27051C44.4866 3.40577 41.3997 3.51849 39.8008 3.51849C29.7629 3.51849 23.1672 11.5437 20.0137 15.3986C19.5918 15.917 19.1254 16.4806 18.8367 16.7962C16.4383 16.8188 10.953 17.0442 10.7087 17.0667L9.68713 17.1118L9.24298 18.0586C9.15415 18.2615 7 22.9955 7 29.3977C7 35.6871 7 45.1776 15.3945 45.1776H20.1248C20.9464 49.6186 24.8106 53 29.4298 53C34.1822 53 38.0908 49.4382 38.7792 44.817V45.1776H74.0229C74.8445 49.6186 78.7087 53 83.3279 53C87.9693 53 91.8335 49.5735 92.6329 45.0875C94.2985 45.0198 97.2743 44.9071 100.783 44.9071C107.024 44.9071 107.534 42.0667 108.289 37.761C108.467 36.7466 108.667 35.5969 108.956 34.2894L109 34.1091V33.9062C108.978 27.7971 103.715 22.3417 98.8067 21.1019ZM29.4076 49.596C26.0542 49.596 23.3005 46.8233 23.3005 43.3968C23.3005 39.9702 26.032 37.1975 29.4076 37.1975C32.7609 37.1975 35.5147 39.9702 35.5147 43.3968C35.5147 46.8233 32.7831 49.596 29.4076 49.596ZM83.3057 49.596C79.9523 49.596 77.1986 46.8233 77.1986 43.3968C77.1986 39.9702 79.9301 37.1975 83.3057 37.1975C86.659 37.1975 89.4128 39.9702 89.4128 43.3968C89.4128 46.8233 86.659 49.596 83.3057 49.596ZM104.936 37.1749C104.225 41.2552 104.181 41.5032 100.761 41.5032C97.2743 41.5032 94.3207 41.6159 92.6107 41.6835C91.8112 37.1975 87.9471 33.7935 83.3057 33.7935C78.6421 33.7935 74.7557 37.2426 73.9784 41.7511H38.757V41.9766C38.0686 37.3553 34.1378 33.7935 29.4076 33.7935C24.744 33.7935 20.8576 37.2426 20.0803 41.7511H15.3945C10.7309 41.7511 10.3756 36.3859 10.3756 29.3977C10.3756 25.3399 11.3749 22.0036 11.9301 20.4482C13.8844 20.3805 17.904 20.2227 19.3475 20.2227C20.4579 20.2227 21.1241 19.4112 22.612 17.6078C25.4546 14.1587 31.3396 6.945 39.8008 6.945C41.4886 6.945 44.5754 6.83228 47.8622 6.69702C51.2822 6.56177 54.8354 6.42651 56.8119 6.42651C64.9399 6.42651 74.4226 13.7304 79.2861 18.0135H56.9896V11.8819H53.614V18.0135H42.0216C35.6035 18.0135 34.4931 13.4148 34.4043 12.9188L31.0954 13.5275C31.5839 16.2552 34.5154 21.44 42.0438 21.44H82.9282L82.9504 21.4626L83.4833 21.5528C83.5944 21.5753 93.8099 23.3787 98.0072 24.4382C101.56 25.3399 105.513 29.4878 105.624 33.7484C105.314 35.0334 105.114 36.1605 104.936 37.1749Z" fill="url(#paint0_linear_112_738)"/>
<defs>
<linearGradient id="paint0_linear_112_738" x1="5.11175" y1="53.9256" x2="46.0948" y2="-29.6818" gradientUnits="userSpaceOnUse">
<stop stop-color="#005CA9"/>
<stop offset="1" stop-color="#003462"/>
</linearGradient>
</defs>
</svg>
