<svg width="80" height="38" viewBox="0 0 80 38" fill="none" xmlns="http://www.w3.org/2000/svg">
<path d="M76.3229 0.292847H28.7272C26.6997 0.292847 25.0503 1.94238 25.0503 3.96972V34.0302C25.0503 36.0577 26.6998 37.7071 28.7272 37.7071H76.3229C78.3504 37.7071 79.9998 36.0575 79.9998 34.0302V3.97003C79.9998 1.94238 78.3503 0.292847 76.3229 0.292847ZM28.7272 2.6366H76.3229C76.8815 2.6366 77.3603 2.98222 77.5583 3.47066L57.0017 19.3855C54.3659 21.4261 50.6839 21.4261 48.0481 19.3855L27.4919 3.47082C27.6898 2.98253 28.1686 2.6366 28.7272 2.6366ZM77.6561 31.6408L64.5151 21.4672C64.0034 21.0711 63.2673 21.1647 62.8711 21.6764C62.4748 22.1882 62.5686 22.9243 63.0803 23.3205L77.5581 34.5293C77.3601 35.0177 76.8815 35.3635 76.3229 35.3635H28.7272C28.1686 35.3635 27.6898 35.0178 27.4919 34.5294L41.9697 23.3207C42.4814 22.9244 42.5751 22.1883 42.1789 21.6766C41.7826 21.1649 41.0467 21.0711 40.5348 21.4674L27.3939 31.641V6.35925L46.6133 21.2388C48.3536 22.5861 50.4392 23.2599 52.5248 23.2599C54.6104 23.2599 56.6961 22.5861 58.4364 21.2388L77.6561 6.35925V31.6408Z" fill="#003462"/>
<path d="M21.2122 21.5857H6.18188C5.5347 21.5857 5.01001 22.1104 5.01001 22.7576C5.01001 23.4048 5.5347 23.9294 6.18188 23.9294H21.2122C21.8594 23.9294 22.3841 23.4048 22.3841 22.7576C22.3841 22.1104 21.8594 21.5857 21.2122 21.5857Z" fill="#003462"/>
<path d="M21.2122 27.8483H1.17188C0.524687 27.8483 0 28.373 0 29.0201C0 29.6673 0.524687 30.192 1.17188 30.192H21.2122C21.8594 30.192 22.3841 29.6673 22.3841 29.0201C22.3841 28.373 21.8594 27.8483 21.2122 27.8483Z" fill="#003462"/>
<path d="M21.2121 15.3232H11.1919C10.5447 15.3232 10.02 15.8479 10.02 16.4951C10.02 17.1423 10.5447 17.667 11.1919 17.667H21.2121C21.8592 17.667 22.3839 17.1423 22.3839 16.4951C22.3839 15.8478 21.8592 15.3232 21.2121 15.3232Z" fill="#003462"/>
<path d="M21.2123 9.06042H16.2021C15.555 9.06042 15.0303 9.58511 15.0303 10.2323C15.0303 10.8795 15.555 11.4042 16.2021 11.4042H21.2123C21.8595 11.4042 22.3842 10.8795 22.3842 10.2323C22.3842 9.58511 21.8595 9.06042 21.2123 9.06042Z" fill="#003462"/>
</svg>
