<svg width="20" height="20" viewBox="0 0 20 20" fill="none" xmlns="http://www.w3.org/2000/svg">
<g clip-path="url(#clip0_71_681)">
<path d="M15.63 1.58158V1.68746H15.7359H16.7753C18.1626 1.68746 19.2901 2.81497 19.2901 4.20224V17.2616C19.2901 18.6489 18.1626 19.7764 16.7753 19.7764H2.98394C1.59667 19.7764 0.469164 18.6489 0.469164 17.2616V4.20224C0.469164 2.81497 1.59667 1.68746 2.98394 1.68746H4.02341H4.12929V1.58158V0.849566C4.12929 0.505424 4.41128 0.223436 4.75542 0.223436C5.09957 0.223436 5.38161 0.505436 5.38161 0.849566V1.58158V1.68746H5.48749H14.2718H14.3777V1.58158V0.849566C14.3777 0.505424 14.6596 0.223436 15.0038 0.223436C15.3479 0.223436 15.63 0.505436 15.63 0.849566V1.58158ZM4.12929 3.04566V2.93978H4.02341H2.98394C2.28862 2.93978 1.72149 3.50692 1.72149 4.20224V6.33978V6.44566H1.82737H17.9318H18.0377V6.33978V4.20224C18.0377 3.50692 17.4706 2.93978 16.7753 2.93978H15.7358H15.6299V3.04566V3.77768C15.6299 4.12182 15.3479 4.40381 15.0038 4.40381C14.6596 4.40381 14.3777 4.12182 14.3777 3.77768V3.04566V2.93978H14.2718H5.48743H5.38155V3.04566V3.77768C5.38155 4.12182 5.09956 4.40381 4.75542 4.40381C4.41128 4.40381 4.12929 4.12182 4.12929 3.77768V3.04566ZM1.82737 7.69792H1.72149V7.80381V17.2616C1.72149 17.9569 2.28862 18.524 2.98394 18.524H16.7754C17.4707 18.524 18.0378 17.9569 18.0378 17.2616V7.80381V7.69792H17.932H1.82737Z" fill="#026AC0" stroke="white" stroke-width="0.211765"/>
</g>
<defs>
<clipPath id="clip0_71_681">
<rect width="19.7647" height="19.7647" fill="white" transform="translate(0 0.117676)"/>
</clipPath>
</defs>
</svg>
