<svg width="59" height="63" viewBox="0 0 59 63" fill="none" xmlns="http://www.w3.org/2000/svg">
<path d="M11.868 5.46802C11.868 5.46802 18.3607 7.69705 14.9167 10.4887C14.0816 11.1668 13.0414 11.5305 11.9716 11.569C10.1111 11.6353 6.74739 12.1337 8.34362 14.9617C9.2189 16.5127 10.1301 17.7213 10.9039 18.6112C13.1259 21.1675 12.7708 25.1165 10.1217 27.215C10.035 27.2835 9.94618 27.3541 9.85527 27.4225C4.02641 31.8934 7.92501 36.7515 7.92501 36.7515C7.92501 36.7515 14.2274 43.4729 11.2845 48.3887" stroke="#005CA9" stroke-miterlimit="10" stroke-linecap="round" stroke-linejoin="round"/>
<path d="M44.6196 7.75C44.6196 7.75 39.1459 9.49558 36.5095 10.9609C35.5898 11.4722 34.5391 11.6883 33.4925 11.6091C31.4079 11.4508 28.1774 11.3631 27.2028 12.2295C25.727 13.5408 26.0886 16.3795 27.2028 18.2385C27.8983 19.4 27.3444 20.2193 26.8285 20.6686C26.319 21.1157 25.892 21.6526 25.6192 22.2751C25.467 22.6238 25.3338 22.9853 25.2936 23.2613C25.1943 23.9629 18.0208 22.919 18.8199 26.7781C18.951 27.4049 19.2766 27.9718 19.7206 28.4317C21.3443 30.1152 26.6256 36.0579 27.2028 42.7044C27.2028 42.7044 34.2748 38.8324 34.3974 31.5635C34.4207 30.1965 33.9365 28.8767 33.076 27.8199C31.9196 26.3973 30.7589 24.0592 34.9661 23.4752C35.8012 23.3597 36.6575 23.5608 37.3467 24.0549C38.4524 24.8486 39.9282 26.438 40.1924 29.3772C40.444 32.1881 41.9155 32.0106 43.0952 31.3774C43.9557 30.9153 44.6196 30.1537 45.0192 29.2553C45.9262 27.2188 48.4125 22.7479 52.8248 22.4954" stroke="#005CA9" stroke-miterlimit="10" stroke-linecap="round" stroke-linejoin="round"/>
<path d="M31.6096 6.44739C30.5694 5.16601 28.5123 3.70709 25.3199 6.01313C25.2226 6.08373 25.1444 6.17785 25.0915 6.28695C24.7976 6.90518 24.1845 8.91602 28.8041 8.73205C33.6477 8.53738 28.396 7.48276 31.0198 7.63036C31.6434 7.66673 32.005 6.93513 31.6096 6.44739Z" stroke="#005CA9" stroke-miterlimit="10" stroke-linecap="round" stroke-linejoin="round"/>
<path d="M53.5766 24.3422C52.0818 10.9466 40.8448 0.535156 27.204 0.535156C12.5441 0.535156 0.660156 12.5596 0.660156 27.3927C0.660156 39.877 9.07892 50.3719 20.4851 53.3817" stroke="#005CA9" stroke-miterlimit="10" stroke-linecap="round" stroke-linejoin="round"/>
<path d="M27.2031 54.2478C33.2434 54.2478 38.8101 52.2049 43.269 48.7694C39.3133 39.3826 50.7723 32.873 50.7723 32.873C50.7723 32.873 51.6349 33.4934 52.7808 34.5844C53.2163 32.9971 53.5102 31.3521 53.6518 29.6621" stroke="#005CA9" stroke-miterlimit="10" stroke-linecap="round" stroke-linejoin="round"/>
<path fill-rule="evenodd" clip-rule="evenodd" d="M44.1088 38.3897C44.263 38.1607 44.5737 38.1 44.8028 38.2543L50.6162 42.1689L56.128 38.6146C56.3601 38.4649 56.6695 38.5318 56.8192 38.7638C56.9688 38.9959 56.902 39.3054 56.67 39.455L50.8813 43.1879C50.7132 43.2962 50.4968 43.2941 50.331 43.1824L44.2442 39.0837C44.0152 38.9295 43.9545 38.6188 44.1088 38.3897Z" fill="#005CA9"/>
<path fill-rule="evenodd" clip-rule="evenodd" d="M51.0345 32.4281C51.1888 32.5195 51.2823 32.6865 51.2797 32.8658L51.1338 42.6975L51.1338 42.6975L50.8484 62.0315C50.8443 62.3062 50.6194 62.5261 50.3447 62.5241C50.0701 62.5221 49.8484 62.2988 49.8484 62.0241V57.1388C45.4201 53.7675 43.1596 50.5401 42.3278 47.5549C41.4804 44.5138 42.1361 41.7985 43.3642 39.5547C44.5873 37.3201 46.3839 35.5388 47.8588 34.3228C48.5986 33.7128 49.2633 33.2402 49.7443 32.9195C49.9849 32.759 50.1798 32.6363 50.3157 32.5531C50.3836 32.5115 50.4368 32.4797 50.4735 32.4581L50.5161 32.4332L50.5278 32.4265L50.5311 32.4246L50.5322 32.424C50.5325 32.4238 50.5328 32.4236 50.7797 32.8584L50.5328 32.4236C50.6887 32.3351 50.8801 32.3368 51.0345 32.4281ZM50.2661 33.7735C49.8105 34.0786 49.1873 34.5235 48.495 35.0943C47.0718 36.2677 45.38 37.9546 44.2415 40.0348C43.108 42.1057 42.5291 44.5518 43.2911 47.2865C44.0144 49.8822 45.9642 52.8042 49.9382 55.9431L50.1339 42.6827L50.1339 42.6827L50.2661 33.7735Z" fill="#005CA9"/>
<path fill-rule="evenodd" clip-rule="evenodd" d="M50.3772 32.5663C50.5385 32.3422 50.851 32.2913 51.0751 32.4527L50.7829 32.8584C51.0751 32.4527 51.0753 32.4529 51.0757 32.4531L51.0766 32.4538L51.0797 32.456L51.0907 32.464L51.131 32.4937C51.1658 32.5196 51.2162 32.5574 51.2806 32.6069C51.4095 32.7058 51.5944 32.8512 51.8224 33.0397C52.2781 33.4164 52.907 33.9662 53.6039 34.6618C54.9937 36.049 56.6737 38.0351 57.7806 40.402C58.8903 42.7746 59.4349 45.5559 58.501 48.4936C57.5686 51.4269 55.1884 54.433 50.6182 57.3131C50.3846 57.4603 50.0759 57.3903 49.9286 57.1567C49.7814 56.9231 49.8514 56.6143 50.085 56.4671C54.5288 53.6666 56.7095 50.8284 57.548 48.1907C58.3851 45.5573 57.9108 43.0408 56.8748 40.8256C55.8361 38.6047 54.2436 36.7132 52.8975 35.3696C52.2264 34.6998 51.6214 34.171 51.1852 33.8104C50.9673 33.6302 50.7918 33.4923 50.6716 33.4001C50.6116 33.354 50.5654 33.3193 50.5347 33.2965L50.5005 33.2713L50.4925 33.2655L50.4908 33.2642L50.4908 33.2642L50.4906 33.2641C50.2666 33.1027 50.2158 32.7903 50.3772 32.5663Z" fill="#005CA9"/>
<path fill-rule="evenodd" clip-rule="evenodd" d="M42.025 44.6034C42.1745 44.3712 42.4839 44.3042 42.7161 44.4537L50.4828 49.4557L58.2013 44.4545C58.433 44.3043 58.7426 44.3704 58.8928 44.6022C59.0429 44.8339 58.9768 45.1435 58.7451 45.2937L50.7555 50.4705C50.5905 50.5775 50.3781 50.5777 50.2129 50.4713L42.1746 45.2944C41.9425 45.1449 41.8755 44.8355 42.025 44.6034Z" fill="#005CA9"/>
</svg>
