<svg width="63" height="79" viewBox="0 0 63 79" fill="none" xmlns="http://www.w3.org/2000/svg">
<path d="M60.0841 64.9399H2.87014C1.71182 64.9399 0.816492 63.9187 0.970376 62.7688L5.92263 25.7108C6.04854 24.7595 6.86272 24.0488 7.8224 24.0488H54.894C55.8509 24.0488 56.6595 24.7539 56.791 25.6996L61.9811 62.7576C62.1434 63.9103 61.248 64.9399 60.0841 64.9399Z" stroke="#005CA9" stroke-width="0.978261" stroke-miterlimit="10" stroke-linecap="round"/>
<path d="M4.66797 36.4346H58.2447" stroke="#005CA9" stroke-width="0.978261" stroke-miterlimit="10" stroke-linecap="round"/>
<path d="M2.66797 50.7812H60.2485" stroke="#005CA9" stroke-width="0.978261" stroke-miterlimit="10" stroke-linecap="round"/>
<path d="M22.3223 24.043L21.1836 64.9369" stroke="#005CA9" stroke-width="0.978261" stroke-miterlimit="10" stroke-linecap="round"/>
<path d="M39.6602 24.043L42.9197 64.9369" stroke="#005CA9" stroke-width="0.978261" stroke-miterlimit="10" stroke-linecap="round"/>
<path d="M33.8978 65.2158H29.0742V74.3425H33.8978V65.2158Z" stroke="#005CA9" stroke-width="0.978261" stroke-miterlimit="10" stroke-linecap="round"/>
<path d="M47.2042 78.2541H15.7644C15.1209 78.2541 14.5977 77.7337 14.5977 77.0874V75.5066C14.5977 74.863 15.1181 74.3398 15.7644 74.3398H47.2042C47.8477 74.3398 48.3709 74.8602 48.3709 75.5066V77.0874C48.3681 77.7337 47.8477 78.2541 47.2042 78.2541Z" stroke="#005CA9" stroke-width="0.978261" stroke-miterlimit="10" stroke-linecap="round"/>
<path d="M31.4089 15.1634C34.0574 15.1634 36.2044 13.0164 36.2044 10.3678C36.2044 7.71932 34.0574 5.57227 31.4089 5.57227C28.7603 5.57227 26.6133 7.71932 26.6133 10.3678C26.6133 13.0164 28.7603 15.1634 31.4089 15.1634Z" stroke="#005CA9" stroke-width="0.978261" stroke-miterlimit="10" stroke-linecap="round"/>
<path d="M38.8203 10.3193H40.9551" stroke="#005CA9" stroke-width="0.978261" stroke-miterlimit="10" stroke-linecap="round"/>
<path d="M21.9961 10.3193H24.1309" stroke="#005CA9" stroke-width="0.978261" stroke-miterlimit="10" stroke-linecap="round"/>
<path d="M31.4065 17.8271V19.9619" stroke="#005CA9" stroke-width="0.978261" stroke-miterlimit="10" stroke-linecap="round"/>
<path d="M31.4065 1V3.13479" stroke="#005CA9" stroke-width="0.978261" stroke-miterlimit="10" stroke-linecap="round"/>
<path d="M36.3867 15.2285L37.8976 16.7366" stroke="#005CA9" stroke-width="0.978261" stroke-miterlimit="10" stroke-linecap="round"/>
<path d="M24.4883 3.33008L25.9963 4.83814" stroke="#005CA9" stroke-width="0.978261" stroke-miterlimit="10" stroke-linecap="round"/>
<path d="M25.8362 15.291L24.3281 16.7991" stroke="#005CA9" stroke-width="0.978261" stroke-miterlimit="10" stroke-linecap="round"/>
<path d="M37.7346 3.39551L36.2266 4.90357" stroke="#005CA9" stroke-width="0.978261" stroke-miterlimit="10" stroke-linecap="round"/>
</svg>
