<svg width="74" height="57" viewBox="0 0 74 57" fill="none" xmlns="http://www.w3.org/2000/svg">
<g clip-path="url(#clip0_414_451)">
<path d="M50.3047 12.9922V27.4879C50.3047 28.2465 50.9232 28.8635 51.6895 28.8635H68.6467" stroke="#005CA9" stroke-miterlimit="10" stroke-linecap="round" stroke-linejoin="round"/>
<path d="M43.3326 27.982L14.073 1.1541C13.7315 0.841586 13.2851 0.667969 12.8226 0.667969H5.61328L39.2452 35.2099" stroke="#005CA9" stroke-miterlimit="10" stroke-linecap="round" stroke-linejoin="round"/>
<path d="M5.29762 0.667969V10.9996C5.29762 10.9996 9.72918 11.093 9.70229 15.324C9.69691 16.1493 9.28548 17.0014 8.8875 17.4982C7.61021 19.0875 5.2546 19.4 3.57663 18.2327C2.63815 17.5837 1.80723 16.4378 1.72656 14.4238" stroke="#005CA9" stroke-miterlimit="10" stroke-linecap="round" stroke-linejoin="round"/>
<path d="M58.4085 12.9922H45.5979C44.6352 12.9922 43.8553 13.7668 43.8553 14.723V33.4817C43.8553 34.438 43.0755 35.2126 42.1128 35.2126H2.41438C1.4517 35.2126 0.671875 35.9872 0.671875 36.9434V47.486C0.671875 48.4422 1.4517 49.2168 2.41438 49.2168H4.27251C5.04427 49.2168 5.71922 49.7243 5.94242 50.4589C6.89434 53.6187 9.84423 55.9238 13.3346 55.9238C16.8277 55.9238 19.7749 53.6214 20.7268 50.4589C20.9473 49.7243 21.6223 49.2168 22.3967 49.2168H48.8516C49.6556 49.2168 50.3467 49.7644 50.543 50.539C51.382 53.8698 54.4152 56.3378 58.0293 56.3378C61.6434 56.3378 64.6767 53.8698 65.5157 50.539C65.712 49.7644 66.403 49.2168 67.2071 49.2168H71.5902C72.5529 49.2168 73.3327 48.4422 73.3327 47.486V35.2126L59.8848 13.8042C59.5675 13.2994 59.0081 12.9922 58.4085 12.9922Z" stroke="#005CA9" stroke-miterlimit="10" stroke-linecap="round" stroke-linejoin="round"/>
<path d="M13.314 55.9211C17.5778 55.9211 21.0343 52.4878 21.0343 48.2525C21.0343 44.0173 17.5778 40.584 13.314 40.584C9.05023 40.584 5.59375 44.0173 5.59375 48.2525C5.59375 52.4878 9.05023 55.9211 13.314 55.9211Z" stroke="#005CA9" stroke-miterlimit="10" stroke-linecap="round" stroke-linejoin="round"/>
<path d="M58.0484 56.3352C62.3122 56.3352 65.7687 52.9018 65.7687 48.6666C65.7687 44.4314 62.3122 40.998 58.0484 40.998C53.7846 40.998 50.3281 44.4314 50.3281 48.6666C50.3281 52.9018 53.7846 56.3352 58.0484 56.3352Z" stroke="#005CA9" stroke-miterlimit="10" stroke-linecap="round" stroke-linejoin="round"/>
<path d="M13.3161 49.3045C13.9847 49.3045 14.5268 48.7661 14.5268 48.1019C14.5268 47.4378 13.9847 46.8994 13.3161 46.8994C12.6475 46.8994 12.1055 47.4378 12.1055 48.1019C12.1055 48.7661 12.6475 49.3045 13.3161 49.3045Z" fill="#005CA9"/>
<path d="M58.1091 49.3045C58.7777 49.3045 59.3197 48.7661 59.3197 48.1019C59.3197 47.4378 58.7777 46.8994 58.1091 46.8994C57.4405 46.8994 56.8984 47.4378 56.8984 48.1019C56.8984 48.7661 57.4405 49.3045 58.1091 49.3045Z" fill="#005CA9"/>
</g>
<defs>
<clipPath id="clip0_414_451">
<rect width="74" height="57" fill="white"/>
</clipPath>
</defs>
</svg>
