<svg width="80" height="59" viewBox="0 0 80 59" fill="none" xmlns="http://www.w3.org/2000/svg">
<path d="M58.979 52.24L58.954 52.2379H58.9289H24.694H24.6689L24.6439 52.24C24.4911 52.2528 24.3374 52.2337 24.1925 52.1841L23.998 52.7517L24.1925 52.1841C24.0475 52.1344 23.9144 52.0552 23.8016 51.9515C23.6888 51.8478 23.5987 51.7217 23.5371 51.5814C23.4756 51.4411 23.4438 51.2895 23.4438 51.1363C23.4438 50.983 23.4756 50.8314 23.5371 50.6911C23.5987 50.5508 23.6888 50.4248 23.8016 50.3211C23.9144 50.2173 24.0475 50.1381 24.1925 50.0885C24.3374 50.0388 24.4911 50.0198 24.6439 50.0326L24.6689 50.0347H24.694H58.9289H58.954L58.979 50.0326C59.1317 50.0198 59.2854 50.0388 59.4304 50.0885C59.5754 50.1381 59.7085 50.2173 59.8213 50.3211C59.9341 50.4248 60.0241 50.5508 60.0857 50.6911C60.1473 50.8315 60.1791 50.983 60.1791 51.1363C60.1791 51.2895 60.1473 51.4411 60.0857 51.5814C60.0241 51.7218 59.9341 51.8478 59.8213 51.9515C59.7085 52.0552 59.5754 52.1344 59.4304 52.1841C59.2854 52.2337 59.1317 52.2528 58.979 52.24Z" fill="#005CA9" stroke="white" stroke-width="1.2"/>
<path d="M76.8188 35.5095L76.7938 35.5074H76.7687H63.3112H63.2861L63.261 35.5095C63.1083 35.5223 62.9546 35.5033 62.8097 35.4536C62.6647 35.404 62.5316 35.3248 62.4188 35.221L62.0126 35.6627L62.4188 35.221C62.306 35.1173 62.2159 34.9913 62.1543 34.851C62.0927 34.7106 62.0609 34.559 62.0609 34.4058C62.0609 34.2526 62.0927 34.101 62.1543 33.9607C62.2159 33.8203 62.306 33.6943 62.4188 33.5906C62.5316 33.4868 62.6647 33.4076 62.8097 33.358C62.9546 33.3083 63.1083 33.2893 63.261 33.3021L63.2861 33.3042H63.3112H76.7687H76.7938L76.8188 33.3021C76.9715 33.2893 77.1252 33.3083 77.2702 33.358L77.4642 32.7918L77.2702 33.358C77.4152 33.4076 77.5483 33.4868 77.6611 33.5906C77.7739 33.6943 77.8639 33.8203 77.9255 33.9607L78.4749 33.7195L77.9255 33.9607C77.9871 34.101 78.0189 34.2526 78.0189 34.4058C78.0189 34.559 77.9871 34.7106 77.9255 34.851L78.4749 35.0921L77.9255 34.851C77.8639 34.9913 77.7739 35.1173 77.6611 35.221C77.5483 35.3248 77.4152 35.404 77.2702 35.4536C77.1253 35.5033 76.9716 35.5223 76.8188 35.5095Z" fill="#005CA9" stroke="white" stroke-width="1.2"/>
<path d="M77.1902 46.4258C77.1921 36.1365 75.6036 25.9086 72.4811 16.1045L72.481 16.1044L71.7888 13.9324C71.7888 13.9323 71.7888 13.9322 71.7888 13.9321C71.5569 13.1992 71.0971 12.5595 70.4763 12.1062L70.1224 12.5907C69.6048 12.2127 68.98 12.0098 68.339 12.0117V11.4117H68.3381H58.8698H58.8447L58.8196 11.4138C58.6669 11.4266 58.5132 11.4076 58.3682 11.3579C58.2233 11.3083 58.0902 11.2291 57.9774 11.1253C57.8646 11.0216 57.7745 10.8956 57.7129 10.7553C57.6513 10.6149 57.6195 10.4633 57.6195 10.3101C57.6195 10.1569 57.6513 10.0053 57.7129 9.86496C57.7745 9.72463 57.8646 9.59861 57.9774 9.49488C58.0902 9.39114 58.2233 9.31194 58.3682 9.26229C58.5132 9.21263 58.6669 9.19361 58.8196 9.20641L58.8447 9.20851H58.8698L68.339 9.20851L68.3402 9.20851C69.5741 9.20605 70.7767 9.59717 71.7731 10.325C72.7696 11.0529 73.5079 12.0796 73.8809 13.2558L73.8811 13.2566L74.5737 15.4299L74.5738 15.4302C77.7723 25.4508 79.3982 35.9067 79.3934 46.4254C79.3904 47.9661 78.777 49.4428 77.6876 50.5322C76.6045 51.6152 75.1387 52.2278 73.6078 52.2379C73.3399 52.2097 73.0912 52.0848 72.9085 51.8862C72.7205 51.6818 72.6162 51.4142 72.6162 51.1365C72.6162 50.8587 72.7205 50.5911 72.9085 50.3867C73.0917 50.1875 73.3414 50.0625 73.6101 50.0347C74.5568 50.0271 75.4631 49.6478 76.1332 48.9778C76.81 48.3009 77.1902 47.383 77.1902 46.4258ZM77.1902 46.4258L76.5902 46.4257L77.1902 46.4258Z" fill="#005CA9" stroke="white" stroke-width="1.2"/>
<path d="M1.19922 9.52937V1H58.346V20.6176" stroke="#005CA9" stroke-linecap="round"/>
<path d="M1.19922 6.97046L1.19922 51.3232H9.72859" stroke="#005CA9"/>
<path d="M32.5788 25.5742H32.5787C32.2863 25.5721 32.0066 25.4545 31.8006 25.247C31.5945 25.0395 31.4789 24.759 31.4789 24.4666V11.204C31.5069 10.9358 31.6318 10.6866 31.8308 10.5037C32.0352 10.3157 32.3028 10.2113 32.5805 10.2113C32.8582 10.2113 33.1258 10.3157 33.3302 10.5037C33.5292 10.6866 33.6541 10.9358 33.6821 11.204V24.4666H33.6821L33.6821 24.4708C33.6831 24.616 33.6553 24.7599 33.6002 24.8943C33.5451 25.0286 33.4639 25.1506 33.3612 25.2533C33.2586 25.3559 33.1365 25.4372 33.0022 25.4923C32.8679 25.5473 32.724 25.5752 32.5788 25.5742Z" fill="#005CA9" stroke="white" stroke-width="1.2"/>
<path d="M32.5952 15.8768L32.5847 15.8765L32.5742 15.8765C32.3416 15.8771 32.1148 15.8045 31.9258 15.6689L28.8673 13.4166C28.6644 13.2367 28.5344 12.9885 28.5023 12.7188C28.4694 12.4427 28.5416 12.1643 28.7045 11.9389C28.8674 11.7136 29.1092 11.5578 29.3817 11.5024C29.6471 11.4485 29.9228 11.4938 30.1567 11.6291L32.2842 13.1657L32.6365 13.4201L32.9881 13.1647L35.1255 11.6124L35.1449 11.5983L35.163 11.5828C35.2793 11.4833 35.415 11.409 35.5615 11.3645C35.708 11.3201 35.8621 11.3065 36.0141 11.3246C36.1661 11.3427 36.3127 11.3921 36.4446 11.4697C36.5765 11.5473 36.691 11.6514 36.7806 11.7755C36.8703 11.8995 36.9333 12.0408 36.9657 12.1904C36.998 12.34 36.999 12.4947 36.9685 12.6448C36.938 12.7948 36.8768 12.9368 36.7887 13.062C36.7005 13.1872 36.5874 13.2927 36.4565 13.372L36.4355 13.3846L36.4157 13.3989L33.2752 15.6677L33.2742 15.6685C33.0773 15.8114 32.8384 15.8847 32.5952 15.8768Z" fill="#005CA9" stroke="white" stroke-width="1.2"/>
<path d="M32.0269 25.4275L20.5481 18.7951C20.3439 18.6354 20.2026 18.4082 20.15 18.1537C20.0954 17.8894 20.1403 17.6142 20.276 17.3809C20.4118 17.1476 20.6289 16.9726 20.8857 16.8895C21.1336 16.8093 21.4016 16.8202 21.6418 16.9195L33.1192 23.5393C33.3256 23.6624 33.4863 23.8494 33.5771 24.0719C33.6684 24.2955 33.684 24.5427 33.6218 24.776C33.5595 25.0093 33.4227 25.2159 33.2322 25.3642C33.1012 25.4663 32.9497 25.5369 32.7893 25.5722L32.5697 25.5739C32.3803 25.5755 32.194 25.5256 32.0306 25.4297L32.0269 25.4275Z" fill="#005CA9" stroke="white" stroke-width="1.2"/>
<path d="M66.2996 58.4003C64.8555 58.398 63.4444 57.9678 62.2448 57.1639C61.0449 56.3599 60.1103 55.2182 59.5591 53.8832C59.0079 52.5482 58.8649 51.0798 59.148 49.6635C59.4311 48.2472 60.1277 46.9466 61.1497 45.9261C62.1718 44.9056 63.4734 44.211 64.8901 43.93C66.3069 43.649 67.7751 43.7943 69.1092 44.3475C70.4434 44.9008 71.5836 45.8371 72.3858 47.0381C73.188 48.2391 73.6161 49.6509 73.6162 51.0951C73.6131 53.0335 72.8409 54.8915 71.4692 56.2612C70.0974 57.6309 68.2381 58.4003 66.2996 58.4003ZM66.2977 45.9936C65.2892 45.9963 64.3042 46.2978 63.467 46.86C62.6298 47.4222 61.978 48.2199 61.5939 49.1524C61.2099 50.0848 61.1108 51.1102 61.3091 52.099C61.5075 53.0877 61.9945 53.9955 62.7085 54.7076C63.4225 55.4198 64.3316 55.9043 65.3209 56.1001C66.3101 56.2958 67.3352 56.194 68.2667 55.8075C69.1981 55.421 69.9941 54.7671 70.5541 53.9284C71.1141 53.0897 71.413 52.1038 71.413 51.0954C71.413 50.4243 71.2806 49.7597 71.0233 49.1399C70.7661 48.52 70.3891 47.957 69.9139 47.4831C69.4387 47.0092 68.8747 46.6337 68.2542 46.3781C67.6337 46.1225 66.9688 45.9918 66.2977 45.9936Z" fill="#005CA9" stroke="white" stroke-width="1.2"/>
<path d="M17.948 58.4003C16.5039 58.398 15.0929 57.9678 13.8932 57.1639C12.6934 56.3599 11.7588 55.2182 11.2076 53.8832C10.6564 52.5482 10.5133 51.0798 10.7964 49.6635C11.0795 48.2472 11.7761 46.9466 12.7982 45.9261C13.8202 44.9056 15.1219 44.211 16.5386 43.93C17.9553 43.649 19.4235 43.7943 20.7577 44.3475C22.0918 44.9008 23.2321 45.8371 24.0343 47.0381C24.8364 48.2391 25.2645 49.6509 25.2646 51.0951C25.2615 53.0335 24.4894 54.8915 23.1176 56.2612C21.7458 57.6309 19.8865 58.4003 17.948 58.4003ZM17.9382 45.9937C16.9327 46.0097 15.9545 46.3225 15.1262 46.8927C14.298 47.4629 13.6567 48.2652 13.283 49.1987C12.9093 50.1322 12.8198 51.1554 13.0257 52.1396C13.2316 53.1238 13.7238 54.0253 14.4404 54.7307C15.1571 55.4361 16.0662 55.914 17.0535 56.1043C18.0409 56.2947 19.0625 56.189 19.99 55.8006C20.9175 55.4122 21.7095 54.7583 22.2666 53.9212C22.8237 53.0841 23.121 52.101 23.1211 51.0955C23.1212 50.4186 22.9866 49.7485 22.7251 49.1242C22.4637 48.4998 22.0806 47.9338 21.5982 47.459C21.1159 46.9841 20.5438 46.61 19.9155 46.3585C19.2871 46.1069 18.6149 45.9829 17.9382 45.9937Z" fill="#005CA9" stroke="white" stroke-width="1.2"/>
<path d="M22.576 19.126L22.9695 18.9489L22.9268 18.5194L22.6641 15.8805L22.6641 15.8805L22.6638 15.8777C22.6489 15.7343 22.6624 15.5893 22.7036 15.4512C22.7448 15.313 22.8128 15.1843 22.9039 15.0725L22.4386 14.6937L22.9039 15.0725C22.9949 14.9607 23.1071 14.8679 23.2341 14.7995L22.9496 14.2713L23.2341 14.7995C23.361 14.7312 23.5002 14.6885 23.6437 14.6741L23.6437 14.6742L23.6543 14.6729C23.797 14.656 23.9416 14.6679 24.0796 14.7079C24.2175 14.748 24.346 14.8153 24.4574 14.906L24.832 14.4459L24.4574 14.906C24.5688 14.9967 24.6609 15.1089 24.7281 15.2359C24.7952 15.3628 24.8362 15.502 24.8486 15.6451L24.8485 15.6451L24.8495 15.6546L25.2435 19.5115L25.2435 19.5115L25.2441 19.5173C25.2691 19.7408 25.2248 19.9665 25.1171 20.1639C25.0113 20.3579 24.8494 20.5152 24.6527 20.6155L21.0835 22.1978L21.0723 22.2028L21.0612 22.2082C20.93 22.273 20.7864 22.3088 20.6402 22.3134C20.3908 22.3105 20.1495 22.2236 19.9556 22.0664C19.7595 21.9076 19.6236 21.6865 19.5703 21.4399C19.517 21.1932 19.5495 20.9358 19.6625 20.7101C19.7752 20.485 19.9612 20.305 20.1898 20.1998L22.576 19.126Z" fill="#005CA9" stroke="white" stroke-width="1.2"/>
<path d="M20.1192 31.6676L20.1142 31.6588L20.1089 31.6503C20.0303 31.523 19.9783 31.3811 19.9561 31.2332C19.9338 31.0853 19.9418 30.9345 19.9794 30.7897C20.017 30.6449 20.0836 30.5093 20.1751 30.391C20.2665 30.2727 20.381 30.1741 20.5116 30.1012L20.5117 30.1013L20.5191 30.097L32.0278 23.4592C32.2863 23.3136 32.5921 23.2763 32.8781 23.3557C33.1648 23.4352 33.4081 23.6253 33.5546 23.8843C33.7011 24.1432 33.7388 24.4498 33.6592 24.7365C33.5797 25.0232 33.3896 25.2665 33.1306 25.413L33.1306 25.413L33.1263 25.4155L21.6151 32.0547L21.6151 32.0546L21.6058 32.0602C21.4419 32.1587 21.2546 32.2116 21.0634 32.2133C20.872 32.2139 20.6839 32.1638 20.5182 32.0681C20.3521 31.9723 20.2144 31.8341 20.1192 31.6676Z" fill="#005CA9" stroke="white" stroke-width="1.2"/>
<path d="M23.7873 34.2662H23.7872H23.6416C23.5076 34.2493 23.3777 34.2078 23.2587 34.1437C23.1317 34.0753 23.0195 33.9826 22.9284 33.8708C22.8374 33.759 22.7694 33.6303 22.7282 33.4921C22.687 33.3539 22.6734 33.2089 22.6884 33.0655L22.6887 33.0628L22.9514 30.4238L22.9941 29.9943L22.6005 29.8172L20.214 28.7433C19.9469 28.6209 19.7386 28.3985 19.634 28.124C19.5296 27.8499 19.537 27.5457 19.6544 27.277C19.7136 27.1467 19.7977 27.0292 19.902 26.9313C20.0069 26.8327 20.1303 26.7557 20.265 26.7048C20.3998 26.654 20.5432 26.6301 20.6871 26.6347C20.8311 26.6393 20.9727 26.6723 21.1039 26.7316L21.1039 26.7317L21.1081 26.7335L24.6781 28.3162C24.8791 28.4178 25.0441 28.579 25.1504 28.7779L25.6796 28.4951L25.1504 28.7779C25.2583 28.9799 25.3002 29.2108 25.2702 29.4379L25.2689 29.4475L25.2679 29.4572L24.8865 33.2956C24.8532 33.5626 24.7238 33.8084 24.5225 33.987C24.3198 34.1669 24.0583 34.2662 23.7873 34.2662Z" fill="#005CA9" stroke="white" stroke-width="1.2"/>
<path d="M32.5831 38.8523L32.5831 38.8522H32.5745C32.284 38.8522 32.0053 38.7368 31.7998 38.5313C31.5943 38.3259 31.4789 38.0472 31.4789 37.7566V24.4941C31.5069 24.2258 31.6318 23.9766 31.8308 23.7937C32.0352 23.6057 32.3028 23.5014 32.5805 23.5014C32.8582 23.5014 33.1258 23.6057 33.3302 23.7937C33.5292 23.9766 33.6541 24.2258 33.6821 24.4941V37.7566H33.6821L33.6821 37.7609C33.6831 37.9052 33.6554 38.0482 33.6004 38.1816C33.5454 38.315 33.4644 38.436 33.362 38.5377C33.2597 38.6393 33.138 38.7195 33.0043 38.7736C32.8705 38.8276 32.7273 38.8543 32.5831 38.8523Z" fill="#005CA9" stroke="white" stroke-width="1.2"/>
<path d="M35.7155 37.5261V37.526L35.7079 37.5261C35.4838 37.5294 35.265 37.4582 35.0857 37.3237L35.0858 37.3236L35.0751 37.316L32.9258 35.7756L32.5762 35.5251L32.2267 35.7756L30.0899 37.307C29.8561 37.4549 29.5748 37.5089 29.3025 37.4579C29.0262 37.4062 28.7803 37.2502 28.6158 37.0222C28.4513 36.7943 28.3807 36.5118 28.4186 36.2332C28.4559 35.959 28.5956 35.7093 28.8093 35.534L31.9365 33.2748L31.9365 33.2748L31.9383 33.2735C32.1236 33.1385 32.347 33.0658 32.5762 33.0658C32.8055 33.0658 33.0288 33.1385 33.2142 33.2735L33.2142 33.2735L33.216 33.2748L36.3559 35.5431C36.3559 35.5432 36.356 35.5432 36.356 35.5433C36.5433 35.679 36.6828 35.8704 36.7546 36.0902C36.8264 36.3101 36.8268 36.5471 36.7558 36.7672C36.6847 36.9873 36.5457 37.1792 36.3589 37.3156C36.172 37.4519 35.9468 37.5256 35.7155 37.5261Z" fill="#005CA9" stroke="white" stroke-width="1.2"/>
<path d="M44.0713 32.2007L43.9225 32.2016C43.7837 32.182 43.6494 32.136 43.527 32.0658C43.5268 32.0657 43.5265 32.0656 43.5263 32.0654L32.0286 25.4152L32.0286 25.4152L32.0273 25.4144C31.9019 25.3423 31.792 25.2463 31.7038 25.1317C31.6155 25.0172 31.5507 24.8864 31.513 24.7468C31.4754 24.6072 31.4655 24.4615 31.4842 24.3181C31.5028 24.1747 31.5494 24.0364 31.6215 23.9111C31.6936 23.7857 31.7896 23.6758 31.9042 23.5875C32.0187 23.4993 32.1495 23.4345 32.2891 23.3968C32.4287 23.3592 32.5744 23.3493 32.7178 23.3679C32.861 23.3865 32.9992 23.4331 33.1245 23.5051C33.1246 23.5052 33.1247 23.5052 33.1248 23.5053L44.6318 30.1421C44.8387 30.2656 44.9997 30.4532 45.0903 30.6765C45.1814 30.9008 45.1965 31.1488 45.1332 31.3825C45.07 31.6162 44.9319 31.8227 44.7401 31.9705C44.5483 32.1182 44.3134 32.1991 44.0713 32.2007Z" fill="#005CA9" stroke="white" stroke-width="1.2"/>
<path d="M41.4099 34.2677L41.3873 34.2659L41.3648 34.2659C41.0914 34.2655 40.8279 34.164 40.6248 33.981C40.4218 33.798 40.2936 33.5464 40.2649 33.2745L40.265 33.2745L40.2645 33.2704L39.8352 29.4546C39.8139 29.2234 39.8649 28.9913 39.9813 28.7904C40.0983 28.5884 40.2756 28.428 40.4883 28.3317C40.4884 28.3317 40.4885 28.3316 40.4887 28.3316L44.0106 26.7437L44.032 26.7341L44.0526 26.7228C44.1865 26.6493 44.3343 26.6044 44.4864 26.5907C44.6386 26.5771 44.792 26.5951 44.9369 26.6437C45.0818 26.6922 45.215 26.7701 45.3283 26.8727C45.4416 26.9752 45.5325 27.1001 45.5952 27.2394C45.6579 27.3787 45.6911 27.5295 45.6927 27.6823C45.6943 27.8351 45.6642 27.9866 45.6045 28.1272C45.5447 28.2678 45.4565 28.3945 45.3453 28.4994C45.2342 28.6043 45.1026 28.685 44.9587 28.7366L44.9353 28.745L44.9126 28.7553L42.5244 29.8419L42.1313 30.0208L42.1762 30.4504L42.4508 33.0768C42.4508 33.0769 42.4508 33.0771 42.4508 33.0772C42.4656 33.2211 42.4518 33.3665 42.4102 33.505C42.3685 33.6437 42.2998 33.7727 42.2079 33.8846L42.6718 34.2652L42.2079 33.8846C42.1161 33.9965 42.003 34.0891 41.8752 34.1571C41.7608 34.2179 41.6366 34.2578 41.5085 34.2753L41.4099 34.2677Z" fill="#005CA9" stroke="white" stroke-width="1.2"/>
<path d="M32.0244 23.5194L32.0244 23.5194L32.0287 23.5169L43.5279 16.9016L43.5302 16.9002C43.7822 16.7538 44.082 16.7134 44.3638 16.788C44.6455 16.8626 44.8861 17.046 45.0325 17.298L45.5512 16.9965L45.0325 17.298C45.179 17.55 45.2194 17.8498 45.1448 18.1315C45.0703 18.4128 44.8873 18.6531 44.6359 18.7996C44.6355 18.7998 44.6351 18.8 44.6347 18.8003L33.1262 25.4141L33.1261 25.414L33.1161 25.42C32.9529 25.5181 32.7666 25.5709 32.5763 25.5731C32.3823 25.5715 32.1919 25.52 32.0234 25.4236C31.8547 25.327 31.7137 25.1885 31.6141 25.0215C31.542 24.8967 31.4952 24.759 31.4765 24.6161C31.4576 24.4723 31.4675 24.3262 31.5055 24.1862C31.5436 24.0462 31.609 23.9152 31.6981 23.8008C31.7872 23.6863 31.8981 23.5906 32.0244 23.5194Z" fill="#005CA9" stroke="white" stroke-width="1.2"/>
<path d="M44.4832 22.2909L44.4804 22.3026C44.3288 22.2994 44.1791 22.2679 44.0391 22.2096L40.5244 20.6131L40.5244 20.6131L40.5211 20.6117C40.3097 20.5171 40.1332 20.3587 40.0165 20.1586C39.9001 19.9592 39.849 19.7283 39.8703 19.4984L40.2641 15.6441C40.2641 15.6441 40.2641 15.6441 40.2641 15.644C40.2641 15.644 40.2641 15.644 40.2641 15.644C40.2789 15.5005 40.3217 15.3614 40.3902 15.2345C40.4587 15.1075 40.5515 14.9953 40.6634 14.9042C40.7753 14.8131 40.904 14.745 41.0422 14.7037C41.1804 14.6623 41.3254 14.6486 41.4689 14.6633C41.6124 14.678 41.7516 14.7209 41.8786 14.7894C42.0055 14.8579 42.1177 14.9507 42.2088 15.0626C42.2999 15.1745 42.368 15.3032 42.4094 15.4414C42.4507 15.5796 42.4644 15.7246 42.4497 15.8681L42.4495 15.8696L42.1868 18.4966L42.1441 18.9244L42.5354 19.1024L44.9236 20.1891L44.9236 20.1891L44.9307 20.1922C45.1614 20.2936 45.3502 20.4715 45.4651 20.6958C45.58 20.9202 45.614 21.1773 45.5615 21.4238C45.5089 21.6703 45.3729 21.8911 45.1765 22.0491C44.9801 22.207 44.7352 22.2924 44.4832 22.2909Z" fill="#005CA9" stroke="white" stroke-width="1.2"/>
</svg>
