<svg width="94" height="58" viewBox="0 0 94 58" fill="none" xmlns="http://www.w3.org/2000/svg">
<path d="M91.3153 25.2937C91.4789 25.2939 91.6357 25.3591 91.7513 25.4748C91.8669 25.5906 91.9319 25.7475 91.9319 25.9111V44.0137C91.9319 44.1773 91.8669 44.3342 91.7512 44.4499C91.6355 44.5655 91.4787 44.6305 91.3151 44.6305H63.5181H63.3681V44.4805V8.84761V8.84743C63.3683 8.68381 63.4333 8.52694 63.549 8.41124C63.6647 8.29555 63.8216 8.23046 63.9852 8.23026H63.9854H80.64H80.6401V8.38026C80.7239 8.38019 80.8062 8.40271 80.8784 8.44544C80.9505 8.48818 81.0098 8.54955 81.05 8.62312L90.0135 25.0401M91.3153 25.2937L90.1449 24.9678L90.0135 25.0401M91.3153 25.2937L90.6943 25.292L90.6937 25.292C90.5816 25.2921 90.4715 25.2621 90.375 25.205C90.2785 25.1481 90.1991 25.0662 90.1451 24.9681M91.3153 25.2937L90.1451 24.9681M90.0135 25.0401L90.1452 24.9682L90.1451 24.9681M90.0135 25.0401C90.0805 25.1619 90.179 25.2635 90.2987 25.3342C90.4184 25.4049 90.5548 25.4421 90.6939 25.442L90.1451 24.9681M91.1537 24.0435H91.0647L91.0221 23.9654L82.2791 7.95264L82.279 7.95257C82.1185 7.65815 81.8815 7.41244 81.5931 7.24131C81.3047 7.07017 80.9755 6.97993 80.6401 6.98008H80.6401H63.9855C63.4903 6.98066 63.0156 7.17762 62.6655 7.52774C62.3154 7.87788 62.1184 8.35261 62.1179 8.84778V45.2556C62.1179 45.4214 62.1837 45.5804 62.301 45.6976C62.4182 45.8148 62.5772 45.8807 62.743 45.8807H91.3149C91.8099 45.8801 92.2845 45.6832 92.6345 45.3332C92.9846 44.9832 93.1815 44.5086 93.182 44.0136L93.182 25.9112C93.1814 25.4161 92.9846 24.9415 92.6346 24.5914C92.2845 24.2413 91.8099 24.0442 91.3149 24.0435H91.1537Z" fill="#005CA9" stroke="white" stroke-width="0.3"/>
<path d="M78.9272 12.625L78.927 12.625L70.7673 12.625C70.6856 12.625 70.6073 12.6575 70.5496 12.7152C70.4918 12.7729 70.4594 12.8513 70.4594 12.9329V24.0397V24.1897H70.6094L84.905 24.1897C84.9051 24.1897 84.9053 24.1897 84.9054 24.1897H84.9055V24.0397L78.9272 12.625ZM78.9272 12.625C78.9824 12.6251 79.0365 12.6399 79.0839 12.668C79.1314 12.6961 79.1705 12.7363 79.1972 12.7846L79.1976 12.7852M78.9272 12.625L79.1976 12.7852M79.1976 12.7852L85.1753 23.7343L79.1976 12.7852ZM69.8348 25.4398H69.8349H84.9055C84.9055 25.4398 84.9055 25.4398 84.9055 25.4398C85.1758 25.4398 85.4414 25.3694 85.6763 25.2357C85.9112 25.1019 86.1072 24.9093 86.2451 24.6769C86.3831 24.4444 86.4582 24.1801 86.463 23.9099C86.4679 23.6396 86.4024 23.3727 86.2729 23.1355L80.2916 12.1878L80.2915 12.1878C80.1575 11.9422 79.9598 11.7372 79.7192 11.5945C79.4786 11.4517 79.2039 11.3764 78.9242 11.3766H78.9241H70.7679C70.3548 11.377 69.9588 11.5413 69.6667 11.8334C69.3745 12.1255 69.2102 12.5216 69.2098 12.9348V24.8148V24.8149C69.2097 24.897 69.2259 24.9783 69.2572 25.0541C69.2886 25.13 69.3347 25.1989 69.3927 25.2569C69.4508 25.315 69.5197 25.361 69.5955 25.3924C69.6714 25.4238 69.7527 25.4399 69.8348 25.4398Z" fill="#005CA9" stroke="white" stroke-width="0.3"/>
<path d="M77.3383 36.4341C72.4694 36.6075 68.6629 40.6951 68.8364 45.564C69.0098 50.4329 73.0974 54.2394 77.9663 54.0659C82.8352 53.8925 86.6417 49.8049 86.4682 44.936C86.2948 40.0671 82.2072 36.2606 77.3383 36.4341Z" fill="white" stroke="white" stroke-width="0.3"/>
<path d="M77.6524 36.9092H77.8024V36.9122C82.3354 36.9925 85.9983 40.7027 85.9983 45.2568C85.9983 49.861 82.2543 53.6038 77.6524 53.6038C73.0504 53.6038 69.3071 49.8575 69.3071 45.2551C69.3071 40.6526 73.0487 36.9092 77.6524 36.9092ZM77.6524 54.854C82.9435 54.854 87.2484 50.5485 87.2484 45.2568C87.2484 39.9651 82.9435 35.6607 77.6524 35.6607C72.3613 35.6607 68.0569 39.964 68.0569 45.2551C68.0569 50.5462 72.3608 54.854 77.6524 54.854Z" fill="#005CA9" stroke="white" stroke-width="0.3"/>
<path d="M77.649 40.2152L73.2834 42.7352V47.7758L77.649 50.2958L82.0141 47.7758V42.7352L77.649 40.2152Z" fill="white" stroke="white" stroke-width="0.3"/>
<path d="M0.776245 45.7537H0.776356H57.0921C57.2579 45.7537 57.4169 45.6879 57.5341 45.5706C57.6513 45.4534 57.7172 45.2944 57.7172 45.1286V2.32534C57.7166 1.74859 57.4872 1.19562 57.0794 0.787793C56.6715 0.379947 56.1186 0.150569 55.5418 0.15L2.32661 0.15C1.74986 0.150588 1.19688 0.379964 0.789055 0.787793C0.381207 1.19564 0.151833 1.74864 0.151264 2.32542V45.1286V45.1287C0.151203 45.2108 0.167328 45.2921 0.198711 45.368C0.230099 45.4438 0.276131 45.5127 0.334179 45.5708C0.392223 45.6288 0.461143 45.6749 0.536999 45.7063C0.61285 45.7376 0.694149 45.7538 0.776245 45.7537ZM56.467 44.3535V44.5035H56.317H1.55145H1.40144V44.3535V2.32642L1.40145 2.32631C1.40163 2.08105 1.49913 1.84588 1.67256 1.67245C1.84599 1.49902 2.08116 1.40151 2.32642 1.40133H2.32653H55.5419L55.542 1.40133C55.7873 1.40151 56.0225 1.49902 56.1959 1.67245C56.3693 1.84588 56.4668 2.08105 56.467 2.32631V2.32642V44.3535Z" fill="#005CA9" stroke="white" stroke-width="0.3"/>
<path d="M66.0453 37.5318H49.7819V47.0347H66.0453V37.5318Z" fill="white" stroke="white" stroke-width="0.3"/>
<path d="M66.8187 37.3815L66.8187 37.3814C66.8188 37.2993 66.8027 37.218 66.7713 37.1422C66.7399 37.0663 66.6939 36.9974 66.6358 36.9394C66.5778 36.8813 66.5089 36.8353 66.433 36.8039C66.3572 36.7725 66.2759 36.7564 66.1938 36.7564H66.1937L49.6303 36.7564L49.6302 36.7564C49.5481 36.7564 49.4668 36.7725 49.3909 36.8039C49.3151 36.8353 49.2461 36.8813 49.1881 36.9394C49.1301 36.9974 49.084 37.0663 49.0526 37.1422C49.0212 37.218 49.0051 37.2993 49.0052 37.3814V37.3815V47.1844C49.0052 47.3502 49.071 47.5092 49.1883 47.6264C49.3055 47.7436 49.4645 47.8095 49.6303 47.8095H66.1937C66.3594 47.8095 66.5184 47.7436 66.6357 47.6264C66.7529 47.5092 66.8187 47.3502 66.8187 47.1844L66.8187 37.3815ZM65.5691 46.4093L65.5692 46.5593H65.4191H50.4054H50.2554V46.4093V38.1566V38.0066H50.4054H65.4186H65.5686L65.5686 38.1566L65.5691 46.4093Z" fill="#005CA9" stroke="white" stroke-width="0.3"/>
<path d="M17.4846 39.0181C14.0396 42.4631 14.0396 48.0486 17.4846 51.4936C20.9296 54.9386 26.5151 54.9386 29.9601 51.4936C33.4052 48.0486 33.4052 42.4631 29.9601 39.0181C26.5151 35.5731 20.9296 35.5731 17.4846 39.0181Z" fill="white" stroke="white" stroke-width="0.3"/>
<path d="M15.8982 50.8169L15.8984 50.8172C16.6262 51.8463 17.5509 52.721 18.6189 53.3904C19.687 54.0599 20.8772 54.5109 22.1207 54.7174L22.1211 54.7175C22.6565 54.8081 23.1984 54.8539 23.7414 54.8543C25.2509 54.8511 26.7385 54.4918 28.0831 53.8057C29.4278 53.1196 30.5917 52.126 31.4802 50.9056C32.3687 49.6851 32.9568 48.2723 33.1968 46.7819C33.4367 45.2915 33.3216 43.7654 32.861 42.3278C32.4003 40.8902 31.6071 39.5815 30.5456 38.5081C29.4842 37.4347 28.1845 36.6268 26.7521 36.15C25.3198 35.6732 23.7952 35.5411 22.3021 35.7642C20.8091 35.9874 19.3898 36.5596 18.1594 37.4344C13.8474 40.5011 12.8338 46.5048 15.8982 50.8169ZM23.5537 36.9085V36.9068L23.7035 36.9067C24.175 36.9062 24.6456 36.9453 25.1105 37.0236L25.1106 37.0236C26.464 37.2521 27.7402 37.8108 28.8261 38.6504C29.912 39.4899 30.7741 40.5843 31.336 41.8366C31.898 43.0888 32.1424 44.4604 32.0476 45.8297C31.9529 47.199 31.5219 48.5238 30.7929 49.6867C30.0638 50.8497 29.0592 51.8149 27.868 52.4969C26.6769 53.1788 25.3359 53.5565 23.9639 53.5964C22.5919 53.6364 21.2312 53.3373 20.0024 52.7258C18.7736 52.1142 17.7146 51.2091 16.9191 50.0905C14.2519 46.3399 15.1335 41.1187 18.884 38.4514C20.2495 37.4758 21.8781 36.9385 23.5537 36.9085Z" fill="#005CA9" stroke="white" stroke-width="0.3"/>
<path d="M25.8203 40.6722L20.8025 41.1478L18.7055 45.7316L21.6268 49.8391L26.6446 49.3634L28.7416 44.7796L25.8203 40.6722Z" fill="white" stroke="white" stroke-width="0.3"/>
</svg>
