<svg width="78" height="57" viewBox="0 0 78 57" fill="none" xmlns="http://www.w3.org/2000/svg">
<path d="M58.1765 24.9502V25.0502H58.2765H68.3115C68.4521 25.0678 68.5816 25.1358 68.676 25.2417C68.7716 25.349 68.8244 25.4877 68.8244 25.6314C68.8244 25.7751 68.7716 25.9138 68.676 26.0211C68.5816 26.127 68.4521 26.195 68.3115 26.2126L57.6 26.1944H57.5998C57.4451 26.1945 57.2967 26.1333 57.187 26.0243L57.1165 26.0952L57.187 26.0243C57.0773 25.9153 57.0152 25.7675 57.0141 25.6129V17.7536C57.0317 17.6129 57.0997 17.4834 57.2056 17.389C57.3129 17.2934 57.4516 17.2406 57.5953 17.2406C57.739 17.2406 57.8776 17.2934 57.9849 17.389C58.0908 17.4834 58.1589 17.6129 58.1765 17.7536V24.9502Z" fill="#005CA9" stroke="white" stroke-width="0.2"/>
<mask id="path-2-inside-1_414_487" fill="white">
<path d="M28.1923 48.4247H55.8447L55.9264 48.9833C56.2542 51.2111 57.3722 53.2468 59.0764 54.7186C60.7806 56.1904 62.9572 57.0002 65.209 57.0002C67.4608 57.0002 69.6375 56.1904 71.3416 54.7186C73.0458 53.2468 74.1638 51.2111 74.4916 48.9833L74.5733 48.4247H76.9167C77.0081 48.4242 77.0985 48.4054 77.1826 48.3696C77.2668 48.3338 77.3429 48.2817 77.4067 48.2162C77.4705 48.1507 77.5207 48.0732 77.5543 47.9881C77.5879 47.9031 77.6042 47.8122 77.6024 47.7208V38.1476C77.6012 37.9661 77.5286 37.7924 77.4003 37.664C77.2719 37.5357 77.0982 37.4631 76.9167 37.4619H75.4816V27.2165C75.4814 27.0769 75.4387 26.9406 75.359 26.826L65.9947 13.3335C65.9308 13.2437 65.8464 13.1704 65.7484 13.1198C65.6505 13.0692 65.5418 13.0429 65.4316 13.0429H52.3842C52.2031 13.0429 52.0294 13.1145 51.9009 13.2421C51.7724 13.3698 51.6996 13.543 51.6984 13.7241V37.4619H40.7719V34.737L41.3305 34.6508C41.4374 34.6349 41.539 34.5936 41.6267 34.5304C41.7144 34.4672 41.7857 34.3839 41.8346 34.2875L49.0326 20.3091C49.088 20.2 49.1134 20.0782 49.1062 19.9562C49.099 19.8341 49.0595 19.7161 48.9918 19.6143L40.6084 7.02558C40.5445 6.92816 40.457 6.84848 40.3541 6.79397L32.1796 2.58412C32.1017 2.54429 32.0169 2.51963 31.9298 2.51145L6.73883 0.272561C6.60348 0.259711 6.46739 0.287932 6.34831 0.353547C6.22924 0.419161 6.13269 0.519126 6.07125 0.640411L0.853208 10.7722C0.791429 10.8934 0.76708 11.0302 0.783253 11.1652C0.799426 11.3003 0.85539 11.4275 0.944034 11.5306L5.52628 16.8713V37.4619H1.08028C0.898772 37.4631 0.725041 37.5357 0.596695 37.664C0.46835 37.7924 0.395721 37.9661 0.394531 38.1476V43.2794C0.395731 43.4605 0.468506 43.6337 0.596979 43.7613C0.725452 43.889 0.899189 43.9606 1.08028 43.9606H7.4382V47.7208C7.43939 47.9023 7.51202 48.0761 7.64036 48.2044C7.76871 48.3328 7.94244 48.4054 8.12395 48.4066H9.48636L9.56811 48.9652C9.89251 51.1962 11.0094 53.2358 12.7144 54.7108C14.4194 56.1858 16.5985 56.9976 18.8529 56.9976C21.1074 56.9976 23.2865 56.1858 24.9915 54.7108C26.6965 53.2358 27.8134 51.1962 28.1378 48.9652L28.1923 48.4247ZM73.22 47.7208C73.2254 48.7729 73.0235 49.8156 72.6259 50.7896C72.2282 51.7636 71.6426 52.6497 70.9025 53.3974C70.1625 54.1451 69.2823 54.7397 68.3124 55.1472C67.3426 55.5548 66.3019 55.7673 65.2499 55.7727C63.1252 55.7835 61.0833 54.9499 59.5733 53.4552C58.0633 51.9605 57.2089 49.9272 57.198 47.8026V47.7208C57.2003 47.7043 57.2003 47.6875 57.198 47.6709V47.5982C57.198 47.5301 57.198 47.462 57.198 47.3939V47.3166C57.1958 47.2803 57.1958 47.244 57.198 47.2077C57.198 47.135 57.198 47.0714 57.198 47.0078V46.9079C57.1958 46.8716 57.1958 46.8352 57.198 46.7989L57.2253 46.5628V46.5401C57.2253 46.4901 57.2253 46.4447 57.2253 46.3993C57.2253 46.3539 57.248 46.2767 57.2571 46.2131V46.1223C57.2571 46.0859 57.2571 46.0451 57.2798 46.0042L57.3207 45.8316L57.3706 45.6227C57.3706 45.5546 57.4024 45.491 57.4206 45.432L57.4433 45.3593C57.4433 45.3184 57.4433 45.2776 57.4796 45.2412C57.5159 45.2049 57.5205 45.1141 57.5432 45.0505L57.5659 44.9869L57.6068 44.8643C57.6068 44.8098 57.6476 44.7553 57.6703 44.6963L57.7112 44.6055C57.7208 44.5692 57.7346 44.5342 57.7521 44.501C57.7521 44.4465 57.802 44.3875 57.8293 44.333L57.8611 44.2512C57.8611 44.2194 57.8929 44.1831 57.911 44.1468L58.0064 43.9606L58.0336 43.9106L58.0881 43.8062L58.179 43.6472L58.2289 43.5655L58.2834 43.4701L58.3697 43.3293L58.4287 43.243L58.4923 43.1477C58.5287 43.0886 58.5695 43.0341 58.6059 42.9842L58.6513 42.9206C58.6513 42.8933 58.6921 42.8661 58.7103 42.8343C58.7285 42.8025 58.783 42.7435 58.8193 42.6981L58.8829 42.6163L58.9556 42.53L59.0736 42.3893L59.1236 42.3348L59.2053 42.2394L59.3279 42.1122L59.3824 42.0532L59.4687 41.9624C59.5148 41.9223 59.5588 41.8799 59.6004 41.8352L59.664 41.7762L59.7457 41.699L59.882 41.5854L59.9501 41.5264L60.0409 41.4447L60.1681 41.3447L60.2498 41.2812L60.3407 41.2085L60.4905 41.104L60.5541 41.0586L60.654 40.986L60.7903 40.8997L60.8856 40.8407L60.981 40.7816C61.0278 40.7502 61.0763 40.7214 61.1263 40.6953L61.2126 40.6454L61.3125 40.5863L61.4579 40.5137L61.5532 40.4637L61.6622 40.4092L61.8121 40.3411L61.912 40.2957L62.0164 40.2503L62.1708 40.1867L62.2753 40.1458L62.3797 40.1095L62.5478 40.0504L62.6341 40.0187L62.7476 39.9823L62.9293 39.9324L63.0201 39.9051L63.1336 39.8733L63.3107 39.8325L63.4061 39.8098L63.5151 39.7825L63.7104 39.7507H63.8012H63.9147L64.0964 39.7235H64.1963C64.2356 39.7213 64.275 39.7213 64.3144 39.7235H64.5414H64.6232H64.7186C64.9865 39.7235 65.2635 39.7235 65.5405 39.7235C67.5955 39.8318 69.5304 40.7254 70.9453 42.2197C72.3601 43.714 73.1468 45.6948 73.1428 47.7526L73.22 47.7208ZM76.24 38.8334V47.0533H74.596L74.5052 46.3448C74.5052 46.2631 74.4825 46.1768 74.4689 46.0905L74.428 45.868C74.428 45.7862 74.3962 45.6999 74.3781 45.6136C74.3599 45.5273 74.3417 45.4729 74.3281 45.4002L74.26 45.1459C74.26 45.0777 74.2237 45.0096 74.2009 44.9415L74.1237 44.6872L74.0556 44.4874L73.9603 44.2376V44.1876L73.9012 44.0469C73.8694 43.9651 73.8331 43.8834 73.7968 43.8016L73.765 43.7381C73.7506 43.6956 73.7324 43.6545 73.7105 43.6154C73.6787 43.5428 73.6378 43.4701 73.6015 43.3929L73.497 43.1976C73.4562 43.1159 73.4108 43.0387 73.3653 42.9569L73.3199 42.8843C73.305 42.8531 73.2883 42.8227 73.27 42.7934L73.1065 42.5346L73.0202 42.3983C72.8476 42.144 72.6569 41.8943 72.4616 41.6536L72.3708 41.5491L72.1573 41.3039L72.0801 41.2221L72.012 41.154L71.8349 40.9678L71.735 40.8724L71.6941 40.8316L71.4943 40.6499L71.3898 40.5591L71.3399 40.5137L71.1401 40.3456L71.0129 40.2457L70.9766 40.2185L70.7767 40.0641L70.7268 40.0277L69.1055 38.847H71.0947L76.24 38.8334ZM53.079 14.4099H65.0864L74.1283 27.4345V37.4619H53.079V14.4099ZM47.6294 20.0502L40.8173 33.3201L26.8844 33.7743L39.8909 8.40162L47.6294 20.0502ZM39.4049 34.7325V37.4573H34.8318V34.8824L39.4049 34.7325ZM33.4648 34.9278V37.4619H12.8379V25.3909L17.4065 30.7225C17.4655 30.7893 17.5363 30.8447 17.6154 30.886L25.7899 35.0958C25.8868 35.1458 25.9942 35.1722 26.1033 35.173L33.4648 34.9278ZM32.3204 4.21447L38.7828 7.53876L25.522 33.4246L19.055 30.1003L32.3204 4.21447ZM2.28374 10.9857L7.07035 1.68947L30.9852 3.81483L17.9469 29.2465L2.28374 10.9857ZM11.4664 23.7969V37.4619H6.89778V18.4653L11.4664 23.7969ZM10.6217 43.0886C10.5218 43.2657 10.431 43.4474 10.3447 43.6245L10.2947 43.7335C10.2221 43.8925 10.1539 44.0514 10.0904 44.2149C10.0825 44.2396 10.0734 44.2638 10.0631 44.2876L8.80061 47.5165V43.2794C8.80062 43.0983 8.729 42.9245 8.60137 42.7961C8.47375 42.6676 8.30049 42.5948 8.11941 42.5936H1.76148V38.8334H15.0314L13.3011 40.0504C13.1285 40.1776 12.9741 40.2957 12.847 40.4183L12.7698 40.4864C12.6381 40.6 12.5064 40.7135 12.3792 40.8361L12.2793 40.9315C12.134 41.0723 11.9977 41.2176 11.866 41.3584L11.7979 41.4447C11.6844 41.5718 11.5708 41.7035 11.4664 41.8397L11.3801 41.9488C11.2575 42.1077 11.144 42.2712 11.035 42.4347L10.9714 42.5346C10.876 42.6754 10.7852 42.8252 10.6989 42.9887L10.6217 43.0886ZM26.8435 47.7208C26.7937 49.8131 25.9276 51.8028 24.4302 53.2649C22.9329 54.7271 20.9231 55.5456 18.8302 55.5456C16.7374 55.5456 14.7276 54.7271 13.2303 53.2649C11.7329 51.8028 10.8668 49.8131 10.817 47.7208V47.63C10.8152 46.5764 11.021 45.5328 11.4227 44.5588C11.8244 43.5847 12.414 42.6994 13.158 41.9534C13.9019 41.2073 14.7856 40.6151 15.7585 40.2107C16.7313 39.8063 17.7744 39.5975 18.828 39.5963C18.9688 39.5963 19.105 39.5963 19.2412 39.5963C21.2966 39.7035 23.2321 40.5968 24.6472 42.0914C26.0623 43.5859 26.8486 45.5673 26.8435 47.6255V47.7208ZM28.0424 45.8634C28.0424 45.7817 28.0106 45.6954 27.9925 45.6091C27.9743 45.5228 27.9607 45.4683 27.9425 45.3957C27.9243 45.323 27.9016 45.2276 27.8789 45.1413C27.8562 45.055 27.8381 45.0051 27.8199 44.937L27.7381 44.6872L27.67 44.4828L27.5747 44.2331V44.1831L27.5202 44.0423L27.4112 43.7925L27.3885 43.7426C27.3885 43.6972 27.3476 43.6563 27.3294 43.6109L27.2159 43.3884L27.1796 43.3202C27.1611 43.2765 27.1399 43.2341 27.116 43.1931C27.0751 43.1113 27.0251 43.0341 26.9797 42.9524L26.9389 42.8797L26.8844 42.7889C26.8344 42.6981 26.7754 42.6163 26.7209 42.53L26.6346 42.3938C26.462 42.1395 26.2758 41.8897 26.076 41.649L25.9852 41.5446C25.917 41.4628 25.8444 41.3765 25.7717 41.2993L25.6991 41.2221L25.6219 41.1404L25.4493 40.9633L25.3585 40.877L25.3085 40.827L25.1132 40.6454L25.0042 40.5545L24.9543 40.5091L24.759 40.3411L24.6409 40.2503L24.591 40.2139L24.3912 40.0595L24.3412 40.0232L22.7245 38.8425H24.7136H61.367L59.6822 40.0732C59.6186 40.1231 59.555 40.1731 59.4869 40.2185L59.4324 40.2639L59.3143 40.3593L59.1236 40.5182L59.0736 40.5636L58.9646 40.659L58.7784 40.8316L58.7149 40.8906L58.624 40.9769L58.456 41.154L58.3833 41.2312C58.3554 41.2546 58.3296 41.2805 58.3061 41.3084C58.2289 41.3902 58.1608 41.4764 58.0881 41.5582L58.0019 41.6581C57.7975 41.9033 57.6113 42.1531 57.4387 42.4074L57.3615 42.53C57.3025 42.6209 57.2434 42.7117 57.1889 42.8025L57.139 42.8888L57.0845 42.9796L56.9573 43.2113L56.8938 43.3293L56.8711 43.3747C56.8256 43.461 56.7848 43.5428 56.7484 43.6245C56.7121 43.7063 56.7076 43.7108 56.6894 43.7562L56.6622 43.8107C56.6213 43.9015 56.5895 43.9787 56.5577 44.0559C56.5259 44.1331 56.5123 44.1695 56.4896 44.224V44.2512L56.3942 44.4965L56.3261 44.6963C56.2988 44.7826 56.2716 44.8643 56.2489 44.9461C56.2262 45.0278 56.208 45.0868 56.1899 45.155L56.1217 45.4093C56.1217 45.4819 56.0899 45.5501 56.0718 45.6227C56.0536 45.6954 56.0354 45.7953 56.0218 45.8816C56.0082 45.9679 55.9946 46.0224 55.981 46.0996C55.9673 46.1768 55.9537 46.2721 55.9446 46.3584L55.9219 46.4901L55.8538 47.0623H28.2422L28.1514 46.3584L28.1105 46.0996C28.0697 46.0133 28.0606 45.9406 28.0424 45.868V45.8634Z"/>
</mask>
<path d="M28.1923 48.4247H55.8447L55.9264 48.9833C56.2542 51.2111 57.3722 53.2468 59.0764 54.7186C60.7806 56.1904 62.9572 57.0002 65.209 57.0002C67.4608 57.0002 69.6375 56.1904 71.3416 54.7186C73.0458 53.2468 74.1638 51.2111 74.4916 48.9833L74.5733 48.4247H76.9167C77.0081 48.4242 77.0985 48.4054 77.1826 48.3696C77.2668 48.3338 77.3429 48.2817 77.4067 48.2162C77.4705 48.1507 77.5207 48.0732 77.5543 47.9881C77.5879 47.9031 77.6042 47.8122 77.6024 47.7208V38.1476C77.6012 37.9661 77.5286 37.7924 77.4003 37.664C77.2719 37.5357 77.0982 37.4631 76.9167 37.4619H75.4816V27.2165C75.4814 27.0769 75.4387 26.9406 75.359 26.826L65.9947 13.3335C65.9308 13.2437 65.8464 13.1704 65.7484 13.1198C65.6505 13.0692 65.5418 13.0429 65.4316 13.0429H52.3842C52.2031 13.0429 52.0294 13.1145 51.9009 13.2421C51.7724 13.3698 51.6996 13.543 51.6984 13.7241V37.4619H40.7719V34.737L41.3305 34.6508C41.4374 34.6349 41.539 34.5936 41.6267 34.5304C41.7144 34.4672 41.7857 34.3839 41.8346 34.2875L49.0326 20.3091C49.088 20.2 49.1134 20.0782 49.1062 19.9562C49.099 19.8341 49.0595 19.7161 48.9918 19.6143L40.6084 7.02558C40.5445 6.92816 40.457 6.84848 40.3541 6.79397L32.1796 2.58412C32.1017 2.54429 32.0169 2.51963 31.9298 2.51145L6.73883 0.272561C6.60348 0.259711 6.46739 0.287932 6.34831 0.353547C6.22924 0.419161 6.13269 0.519126 6.07125 0.640411L0.853208 10.7722C0.791429 10.8934 0.76708 11.0302 0.783253 11.1652C0.799426 11.3003 0.85539 11.4275 0.944034 11.5306L5.52628 16.8713V37.4619H1.08028C0.898772 37.4631 0.725041 37.5357 0.596695 37.664C0.46835 37.7924 0.395721 37.9661 0.394531 38.1476V43.2794C0.395731 43.4605 0.468506 43.6337 0.596979 43.7613C0.725452 43.889 0.899189 43.9606 1.08028 43.9606H7.4382V47.7208C7.43939 47.9023 7.51202 48.0761 7.64036 48.2044C7.76871 48.3328 7.94244 48.4054 8.12395 48.4066H9.48636L9.56811 48.9652C9.89251 51.1962 11.0094 53.2358 12.7144 54.7108C14.4194 56.1858 16.5985 56.9976 18.8529 56.9976C21.1074 56.9976 23.2865 56.1858 24.9915 54.7108C26.6965 53.2358 27.8134 51.1962 28.1378 48.9652L28.1923 48.4247ZM73.22 47.7208C73.2254 48.7729 73.0235 49.8156 72.6259 50.7896C72.2282 51.7636 71.6426 52.6497 70.9025 53.3974C70.1625 54.1451 69.2823 54.7397 68.3124 55.1472C67.3426 55.5548 66.3019 55.7673 65.2499 55.7727C63.1252 55.7835 61.0833 54.9499 59.5733 53.4552C58.0633 51.9605 57.2089 49.9272 57.198 47.8026V47.7208C57.2003 47.7043 57.2003 47.6875 57.198 47.6709V47.5982C57.198 47.5301 57.198 47.462 57.198 47.3939V47.3166C57.1958 47.2803 57.1958 47.244 57.198 47.2077C57.198 47.135 57.198 47.0714 57.198 47.0078V46.9079C57.1958 46.8716 57.1958 46.8352 57.198 46.7989L57.2253 46.5628V46.5401C57.2253 46.4901 57.2253 46.4447 57.2253 46.3993C57.2253 46.3539 57.248 46.2767 57.2571 46.2131V46.1223C57.2571 46.0859 57.2571 46.0451 57.2798 46.0042L57.3207 45.8316L57.3706 45.6227C57.3706 45.5546 57.4024 45.491 57.4206 45.432L57.4433 45.3593C57.4433 45.3184 57.4433 45.2776 57.4796 45.2412C57.5159 45.2049 57.5205 45.1141 57.5432 45.0505L57.5659 44.9869L57.6068 44.8643C57.6068 44.8098 57.6476 44.7553 57.6703 44.6963L57.7112 44.6055C57.7208 44.5692 57.7346 44.5342 57.7521 44.501C57.7521 44.4465 57.802 44.3875 57.8293 44.333L57.8611 44.2512C57.8611 44.2194 57.8929 44.1831 57.911 44.1468L58.0064 43.9606L58.0336 43.9106L58.0881 43.8062L58.179 43.6472L58.2289 43.5655L58.2834 43.4701L58.3697 43.3293L58.4287 43.243L58.4923 43.1477C58.5287 43.0886 58.5695 43.0341 58.6059 42.9842L58.6513 42.9206C58.6513 42.8933 58.6921 42.8661 58.7103 42.8343C58.7285 42.8025 58.783 42.7435 58.8193 42.6981L58.8829 42.6163L58.9556 42.53L59.0736 42.3893L59.1236 42.3348L59.2053 42.2394L59.3279 42.1122L59.3824 42.0532L59.4687 41.9624C59.5148 41.9223 59.5588 41.8799 59.6004 41.8352L59.664 41.7762L59.7457 41.699L59.882 41.5854L59.9501 41.5264L60.0409 41.4447L60.1681 41.3447L60.2498 41.2812L60.3407 41.2085L60.4905 41.104L60.5541 41.0586L60.654 40.986L60.7903 40.8997L60.8856 40.8407L60.981 40.7816C61.0278 40.7502 61.0763 40.7214 61.1263 40.6953L61.2126 40.6454L61.3125 40.5863L61.4579 40.5137L61.5532 40.4637L61.6622 40.4092L61.8121 40.3411L61.912 40.2957L62.0164 40.2503L62.1708 40.1867L62.2753 40.1458L62.3797 40.1095L62.5478 40.0504L62.6341 40.0187L62.7476 39.9823L62.9293 39.9324L63.0201 39.9051L63.1336 39.8733L63.3107 39.8325L63.4061 39.8098L63.5151 39.7825L63.7104 39.7507H63.8012H63.9147L64.0964 39.7235H64.1963C64.2356 39.7213 64.275 39.7213 64.3144 39.7235H64.5414H64.6232H64.7186C64.9865 39.7235 65.2635 39.7235 65.5405 39.7235C67.5955 39.8318 69.5304 40.7254 70.9453 42.2197C72.3601 43.714 73.1468 45.6948 73.1428 47.7526L73.22 47.7208ZM76.24 38.8334V47.0533H74.596L74.5052 46.3448C74.5052 46.2631 74.4825 46.1768 74.4689 46.0905L74.428 45.868C74.428 45.7862 74.3962 45.6999 74.3781 45.6136C74.3599 45.5273 74.3417 45.4729 74.3281 45.4002L74.26 45.1459C74.26 45.0777 74.2237 45.0096 74.2009 44.9415L74.1237 44.6872L74.0556 44.4874L73.9603 44.2376V44.1876L73.9012 44.0469C73.8694 43.9651 73.8331 43.8834 73.7968 43.8016L73.765 43.7381C73.7506 43.6956 73.7324 43.6545 73.7105 43.6154C73.6787 43.5428 73.6378 43.4701 73.6015 43.3929L73.497 43.1976C73.4562 43.1159 73.4108 43.0387 73.3653 42.9569L73.3199 42.8843C73.305 42.8531 73.2883 42.8227 73.27 42.7934L73.1065 42.5346L73.0202 42.3983C72.8476 42.144 72.6569 41.8943 72.4616 41.6536L72.3708 41.5491L72.1573 41.3039L72.0801 41.2221L72.012 41.154L71.8349 40.9678L71.735 40.8724L71.6941 40.8316L71.4943 40.6499L71.3898 40.5591L71.3399 40.5137L71.1401 40.3456L71.0129 40.2457L70.9766 40.2185L70.7767 40.0641L70.7268 40.0277L69.1055 38.847H71.0947L76.24 38.8334ZM53.079 14.4099H65.0864L74.1283 27.4345V37.4619H53.079V14.4099ZM47.6294 20.0502L40.8173 33.3201L26.8844 33.7743L39.8909 8.40162L47.6294 20.0502ZM39.4049 34.7325V37.4573H34.8318V34.8824L39.4049 34.7325ZM33.4648 34.9278V37.4619H12.8379V25.3909L17.4065 30.7225C17.4655 30.7893 17.5363 30.8447 17.6154 30.886L25.7899 35.0958C25.8868 35.1458 25.9942 35.1722 26.1033 35.173L33.4648 34.9278ZM32.3204 4.21447L38.7828 7.53876L25.522 33.4246L19.055 30.1003L32.3204 4.21447ZM2.28374 10.9857L7.07035 1.68947L30.9852 3.81483L17.9469 29.2465L2.28374 10.9857ZM11.4664 23.7969V37.4619H6.89778V18.4653L11.4664 23.7969ZM10.6217 43.0886C10.5218 43.2657 10.431 43.4474 10.3447 43.6245L10.2947 43.7335C10.2221 43.8925 10.1539 44.0514 10.0904 44.2149C10.0825 44.2396 10.0734 44.2638 10.0631 44.2876L8.80061 47.5165V43.2794C8.80062 43.0983 8.729 42.9245 8.60137 42.7961C8.47375 42.6676 8.30049 42.5948 8.11941 42.5936H1.76148V38.8334H15.0314L13.3011 40.0504C13.1285 40.1776 12.9741 40.2957 12.847 40.4183L12.7698 40.4864C12.6381 40.6 12.5064 40.7135 12.3792 40.8361L12.2793 40.9315C12.134 41.0723 11.9977 41.2176 11.866 41.3584L11.7979 41.4447C11.6844 41.5718 11.5708 41.7035 11.4664 41.8397L11.3801 41.9488C11.2575 42.1077 11.144 42.2712 11.035 42.4347L10.9714 42.5346C10.876 42.6754 10.7852 42.8252 10.6989 42.9887L10.6217 43.0886ZM26.8435 47.7208C26.7937 49.8131 25.9276 51.8028 24.4302 53.2649C22.9329 54.7271 20.9231 55.5456 18.8302 55.5456C16.7374 55.5456 14.7276 54.7271 13.2303 53.2649C11.7329 51.8028 10.8668 49.8131 10.817 47.7208V47.63C10.8152 46.5764 11.021 45.5328 11.4227 44.5588C11.8244 43.5847 12.414 42.6994 13.158 41.9534C13.9019 41.2073 14.7856 40.6151 15.7585 40.2107C16.7313 39.8063 17.7744 39.5975 18.828 39.5963C18.9688 39.5963 19.105 39.5963 19.2412 39.5963C21.2966 39.7035 23.2321 40.5968 24.6472 42.0914C26.0623 43.5859 26.8486 45.5673 26.8435 47.6255V47.7208ZM28.0424 45.8634C28.0424 45.7817 28.0106 45.6954 27.9925 45.6091C27.9743 45.5228 27.9607 45.4683 27.9425 45.3957C27.9243 45.323 27.9016 45.2276 27.8789 45.1413C27.8562 45.055 27.8381 45.0051 27.8199 44.937L27.7381 44.6872L27.67 44.4828L27.5747 44.2331V44.1831L27.5202 44.0423L27.4112 43.7925L27.3885 43.7426C27.3885 43.6972 27.3476 43.6563 27.3294 43.6109L27.2159 43.3884L27.1796 43.3202C27.1611 43.2765 27.1399 43.2341 27.116 43.1931C27.0751 43.1113 27.0251 43.0341 26.9797 42.9524L26.9389 42.8797L26.8844 42.7889C26.8344 42.6981 26.7754 42.6163 26.7209 42.53L26.6346 42.3938C26.462 42.1395 26.2758 41.8897 26.076 41.649L25.9852 41.5446C25.917 41.4628 25.8444 41.3765 25.7717 41.2993L25.6991 41.2221L25.6219 41.1404L25.4493 40.9633L25.3585 40.877L25.3085 40.827L25.1132 40.6454L25.0042 40.5545L24.9543 40.5091L24.759 40.3411L24.6409 40.2503L24.591 40.2139L24.3912 40.0595L24.3412 40.0232L22.7245 38.8425H24.7136H61.367L59.6822 40.0732C59.6186 40.1231 59.555 40.1731 59.4869 40.2185L59.4324 40.2639L59.3143 40.3593L59.1236 40.5182L59.0736 40.5636L58.9646 40.659L58.7784 40.8316L58.7149 40.8906L58.624 40.9769L58.456 41.154L58.3833 41.2312C58.3554 41.2546 58.3296 41.2805 58.3061 41.3084C58.2289 41.3902 58.1608 41.4764 58.0881 41.5582L58.0019 41.6581C57.7975 41.9033 57.6113 42.1531 57.4387 42.4074L57.3615 42.53C57.3025 42.6209 57.2434 42.7117 57.1889 42.8025L57.139 42.8888L57.0845 42.9796L56.9573 43.2113L56.8938 43.3293L56.8711 43.3747C56.8256 43.461 56.7848 43.5428 56.7484 43.6245C56.7121 43.7063 56.7076 43.7108 56.6894 43.7562L56.6622 43.8107C56.6213 43.9015 56.5895 43.9787 56.5577 44.0559C56.5259 44.1331 56.5123 44.1695 56.4896 44.224V44.2512L56.3942 44.4965L56.3261 44.6963C56.2988 44.7826 56.2716 44.8643 56.2489 44.9461C56.2262 45.0278 56.208 45.0868 56.1899 45.155L56.1217 45.4093C56.1217 45.4819 56.0899 45.5501 56.0718 45.6227C56.0536 45.6954 56.0354 45.7953 56.0218 45.8816C56.0082 45.9679 55.9946 46.0224 55.981 46.0996C55.9673 46.1768 55.9537 46.2721 55.9446 46.3584L55.9219 46.4901L55.8538 47.0623H28.2422L28.1514 46.3584L28.1105 46.0996C28.0697 46.0133 28.0606 45.9406 28.0424 45.868V45.8634Z" fill="#005CA9" stroke="white" stroke-width="0.4" mask="url(#path-2-inside-1_414_487)"/>
</svg>
