<svg width="88" height="59" viewBox="0 0 88 59" fill="none" xmlns="http://www.w3.org/2000/svg">
<path d="M87 33.2838H87.5C87.5 33.2347 87.4928 33.1858 87.4785 33.1389L87 33.2838ZM70.1741 27.5868H69.6741C69.6741 27.8011 69.8108 27.9916 70.0138 28.0603L70.1741 27.5868ZM70.1741 16.1927V15.6927C69.898 15.6927 69.6741 15.9165 69.6741 16.1927H70.1741ZM87 50.3766V50.8766C87.2761 50.8766 87.5 50.6527 87.5 50.3766H87ZM80.3351 11.2777L80.8136 11.1328L80.8133 11.1318L80.3351 11.2777ZM76.76 8.60385V9.10385L76.7604 9.10385L76.76 8.60385ZM60.8258 8.60385V8.10385C60.5497 8.10385 60.3258 8.32771 60.3258 8.60385H60.8258ZM74.4657 44.8392L74.3492 45.3254L74.4657 44.8392ZM79.3309 52.8344L79.8179 52.9476L79.3309 52.8344ZM71.4597 57.7762L71.3431 58.2624L71.4597 57.7762ZM66.5946 49.781L67.0816 49.8942L66.5946 49.781ZM23.0662 44.8779L23.1808 44.3913L23.0662 44.8779ZM27.9615 52.8541L27.474 52.7428L27.9615 52.8541ZM20.1091 57.8266L20.2237 57.3399L20.1091 57.8266ZM15.2137 49.8504L14.7263 49.7391L15.2137 49.8504ZM44.8872 46.6264L44.5309 46.9772L44.8872 46.6264ZM44.8872 56.0257L44.5309 55.6749L44.8872 56.0257ZM35.6338 56.0257L35.2775 56.3765L35.6338 56.0257ZM35.6338 46.6264L35.2775 46.2757L35.6338 46.6264ZM6.60876 50.3767H6.10876C6.10876 50.6528 6.33261 50.8767 6.60876 50.8767V50.3767ZM1 40.8811L0.516384 40.7541C0.477031 40.904 0.509431 41.0637 0.6041 41.1865C0.69877 41.3092 0.845003 41.3811 1 41.3811V40.8811ZM8.47765 12.3942V11.8942C8.2504 11.8942 8.05173 12.0474 7.99403 12.2672L8.47765 12.3942ZM57.6161 1V0.5C57.3891 0.5 57.1905 0.652955 57.1326 0.872474L57.6161 1ZM66.4344 49.8767L46.7377 49.8833L46.738 50.8833L66.4348 50.8767L66.4344 49.8767ZM81.3913 39.4825H87V38.4825H81.3913V39.4825ZM87.1604 32.8102L70.3345 27.1132L70.0138 28.0603L86.8396 33.7574L87.1604 32.8102ZM70.6741 27.5868V16.1927H69.6741V27.5868H70.6741ZM70.1741 16.6927H81.3914V15.6927H70.1741V16.6927ZM79.5223 50.8766H87V49.8766H79.5223V50.8766ZM87.5 50.3766L87.5 33.2838H86.5L86.5 50.3766H87.5ZM87.4785 33.1389L80.8136 11.1328L79.8566 11.4227L86.5215 33.4287L87.4785 33.1389ZM80.8133 11.1318C80.546 10.2559 80.0092 9.48862 79.2799 8.94318L78.681 9.74398C79.2384 10.1609 79.651 10.7492 79.8569 11.4237L80.8133 11.1318ZM79.2799 8.94318C78.5505 8.39765 77.6673 8.10307 76.7596 8.10385L76.7604 9.10385C77.4506 9.10326 78.1236 9.32716 78.681 9.74398L79.2799 8.94318ZM76.76 8.10385H60.8258V9.10385H76.76V8.10385ZM60.3258 8.60385V50.3833H61.3258V8.60385H60.3258ZM74.3492 45.3254C77.5927 46.103 79.6132 49.4101 78.8439 52.7213L79.8179 52.9476C80.7087 49.1138 78.3729 45.2617 74.5823 44.353L74.3492 45.3254ZM78.8439 52.7213C78.0751 56.0299 74.817 58.0669 71.5763 57.29L71.3431 58.2624C75.1365 59.1719 78.9265 56.7839 79.8179 52.9476L78.8439 52.7213ZM71.5763 57.29C68.3328 56.5124 66.3122 53.2054 67.0816 49.8942L66.1076 49.6678C65.2167 53.5016 67.5526 57.3537 71.3431 58.2624L71.5763 57.29ZM67.0816 49.8942C67.8504 46.5855 71.1085 44.5485 74.3492 45.3254L74.5823 44.353C70.789 43.4435 66.9989 45.8316 66.1076 49.6678L67.0816 49.8942ZM22.9515 45.3646C26.1979 46.1295 28.2309 49.4286 27.474 52.7428L28.4489 52.9655C29.3252 49.1283 26.9749 45.2852 23.1808 44.3913L22.9515 45.3646ZM27.474 52.7428C26.7177 56.0545 23.4674 58.1042 20.2237 57.3399L19.9944 58.3133C23.7912 59.2079 27.5721 56.8051 28.4489 52.9655L27.474 52.7428ZM20.2237 57.3399C16.9774 56.575 14.9443 53.2759 15.7012 49.9617L14.7263 49.7391C13.85 53.5763 16.2004 57.4193 19.9944 58.3133L20.2237 57.3399ZM15.7012 49.9617C16.4575 46.65 19.7079 44.6003 22.9515 45.3646L23.1808 44.3913C19.3841 43.4966 15.6032 45.8994 14.7263 49.7391L15.7012 49.9617ZM44.5309 46.9772C46.8946 49.3781 46.8946 53.274 44.5309 55.6749L45.2435 56.3765C47.9903 53.5863 47.9903 49.0658 45.2435 46.2757L44.5309 46.9772ZM44.5309 55.6749C42.1715 58.0715 38.3495 58.0715 35.9901 55.6749L35.2775 56.3765C38.0286 59.1709 42.4924 59.171 45.2435 56.3765L44.5309 55.6749ZM35.9901 55.6749C33.6265 53.274 33.6265 49.3781 35.9901 46.9772L35.2775 46.2757C32.5307 49.0658 32.5307 53.5863 35.2775 56.3765L35.9901 55.6749ZM35.9901 46.9772C38.3495 44.5807 42.1715 44.5807 44.5309 46.9772L45.2435 46.2757C42.4924 43.4812 38.0286 43.4812 35.2775 46.2757L35.9901 46.9772ZM15.115 49.8767H6.60876V50.8767H15.115V49.8767ZM7.10876 50.3767V40.881H6.10876V50.3767H7.10876ZM33.7832 49.8833H28.0626V50.8833H33.7832V49.8833ZM60.8259 40.3811H1V41.3811H60.8259V40.3811ZM1.48362 41.008L8.96126 12.5211L7.99403 12.2672L0.516384 40.7541L1.48362 41.008ZM8.47765 12.8942H53.3483V11.8942H8.47765V12.8942ZM47.5799 41.0085L58.0995 1.12753L57.1326 0.872474L46.613 40.7534L47.5799 41.0085ZM57.6161 1.5H75.7828V0.5H57.6161V1.5Z" fill="#005CA9"/>
</svg>
