<svg width="94" height="58" viewBox="0 0 94 58" fill="none" xmlns="http://www.w3.org/2000/svg">
<path d="M63.4475 44.6305H63.5975H91.3945C91.5581 44.6305 91.7149 44.5655 91.8306 44.4499C91.9463 44.3342 92.0113 44.1773 92.0113 44.0137V25.9111C92.0113 25.7475 91.9463 25.5906 91.8307 25.4748C91.7152 25.3591 91.5584 25.294 91.3949 25.2937L63.4475 44.6305ZM63.4475 44.6305V44.4805V8.84761V8.84742C63.4477 8.68381 63.5127 8.52694 63.6284 8.41124C63.7441 8.29555 63.901 8.23046 64.0646 8.23026H64.0648H80.7194M63.4475 44.6305L91.3947 25.2937L90.7737 25.292L90.7731 25.292C90.661 25.2921 90.5509 25.2621 90.4544 25.205C90.3579 25.1481 90.2785 25.0662 90.2245 24.9681C90.2245 24.968 90.2244 24.9679 90.2243 24.9678L81.2611 8.55124L81.261 8.55117C81.2079 8.45396 81.1295 8.37286 81.0342 8.31639L80.9578 8.44544L81.0342 8.31639C80.9389 8.25992 80.8301 8.23017 80.7194 8.23026M80.7194 8.23026L80.7195 8.38026V8.23026H80.7194ZM91.2331 24.0435H91.1441L91.1015 23.9654L82.3585 7.95264L82.3584 7.95257C82.1979 7.65815 81.9609 7.41244 81.6725 7.24131C81.3841 7.07017 81.0549 6.97993 80.7196 6.98008H80.7195H64.0649C63.5697 6.98066 63.0951 7.17762 62.7449 7.52774C62.3948 7.87788 62.1978 8.35261 62.1973 8.84778V45.2556C62.1973 45.4214 62.2631 45.5804 62.3804 45.6976C62.4976 45.8148 62.6566 45.8807 62.8224 45.8807H91.3943C91.8893 45.8801 92.3639 45.6832 92.7139 45.3332C93.064 44.9832 93.2609 44.5086 93.2614 44.0136L93.2614 25.9112C93.2609 25.4161 93.064 24.9415 92.714 24.5914C92.3639 24.2413 91.8893 24.0442 91.3943 24.0435H91.2331Z" fill="#005CA9" stroke="white" stroke-width="0.3"/>
<path d="M79.0048 12.6248L79.0045 12.6248L70.8448 12.6248C70.7632 12.6248 70.6849 12.6572 70.6271 12.715C70.5694 12.7727 70.5369 12.851 70.5369 12.9327V24.0394V24.1894H70.6869H84.9826H84.9831V24.0394L79.0048 12.6248ZM79.0048 12.6248C79.0599 12.6249 79.114 12.6397 79.1615 12.6678C79.209 12.6958 79.2481 12.7361 79.2747 12.7843L79.2751 12.785M79.0048 12.6248L79.2751 12.785M79.2751 12.785L85.2529 23.7341L79.2751 12.785ZM69.9123 25.4396H69.9124H84.983C84.983 25.4396 84.983 25.4396 84.9831 25.4396C85.2533 25.4395 85.519 25.3692 85.7538 25.2354C85.9887 25.1017 86.1847 24.9091 86.3227 24.6766C86.4606 24.4442 86.5357 24.1799 86.5406 23.9096C86.5454 23.6394 86.4799 23.3725 86.3505 23.1352L80.3691 12.1876L80.3691 12.1875C80.2351 11.9419 80.0374 11.737 79.7967 11.5942C79.5561 11.4515 79.2815 11.3762 79.0017 11.3763H79.0017H70.8455C70.4324 11.3768 70.0363 11.5411 69.7442 11.8332C69.4521 12.1253 69.2878 12.5214 69.2873 12.9345V24.8145V24.8146C69.2873 24.8967 69.3034 24.978 69.3348 25.0539C69.3662 25.1297 69.4122 25.1986 69.4703 25.2567C69.5283 25.3147 69.5972 25.3608 69.6731 25.3921C69.7489 25.4235 69.8302 25.4397 69.9123 25.4396Z" fill="#005CA9" stroke="white" stroke-width="0.3"/>
<path d="M77.4173 36.4341C72.5484 36.6075 68.742 40.6951 68.9154 45.564C69.0888 50.4329 73.1765 54.2394 78.0454 54.0659C82.9143 53.8925 86.7207 49.8049 86.5473 44.936C86.3738 40.0671 82.2862 36.2606 77.4173 36.4341Z" fill="white" stroke="white" stroke-width="0.3"/>
<path d="M77.7299 36.9097H77.8799V36.9127C82.4129 36.993 86.0758 40.7032 86.0758 45.2573C86.0758 49.8615 82.3318 53.6043 77.7299 53.6043C73.128 53.6043 69.3847 49.8579 69.3847 45.2555C69.3847 40.6531 73.1263 36.9097 77.7299 36.9097ZM77.7299 54.8545C83.021 54.8545 87.326 50.549 87.326 45.2573C87.326 39.9656 83.0211 35.6612 77.7299 35.6612C72.4388 35.6612 68.1345 39.9645 68.1345 45.2555C68.1345 50.5467 72.4383 54.8545 77.7299 54.8545Z" fill="#005CA9" stroke="white" stroke-width="0.3"/>
<path d="M77.7299 40.2152L73.3643 42.7352V47.7758L77.7299 50.2958L82.0949 47.7758V42.7352L77.7299 40.2152Z" fill="white" stroke="white" stroke-width="0.3"/>
<path d="M0.855042 45.7537H0.855152H57.1709C57.3367 45.7537 57.4957 45.6879 57.6129 45.5706C57.7301 45.4534 57.796 45.2944 57.796 45.1286V2.32534C57.7954 1.74859 57.566 1.19562 57.1582 0.787793C56.7503 0.379947 56.1973 0.150569 55.6206 0.15L2.40541 0.15C1.82865 0.150588 1.27568 0.379964 0.867851 0.787793C0.460003 1.19564 0.230629 1.74864 0.230064 2.32542V45.1286V45.1287C0.23 45.2108 0.246124 45.2921 0.277508 45.368C0.308895 45.4438 0.354927 45.5127 0.412975 45.5708C0.47102 45.6288 0.53994 45.6749 0.615795 45.7063C0.691643 45.7376 0.772945 45.7538 0.855042 45.7537ZM56.5458 44.3535V44.5035H56.3958H1.63024H1.48024V44.3535V2.32642V2.32631C1.48042 2.08105 1.57793 1.84588 1.75136 1.67245C1.92479 1.49902 2.15995 1.40151 2.40522 1.40133H2.40533L55.6207 1.40133L55.6208 1.40133C55.8661 1.40151 56.1013 1.49902 56.2747 1.67245C56.4481 1.84588 56.5456 2.08105 56.5458 2.32631V2.32642V44.3535Z" fill="#005CA9" stroke="white" stroke-width="0.3"/>
<path d="M66.1247 47.035V37.5321H49.8613V47.035H66.1247Z" fill="white" stroke="white" stroke-width="0.3"/>
<path d="M66.8998 37.382L66.8998 37.3819C66.8998 37.2998 66.8837 37.2185 66.8523 37.1427C66.8209 37.0668 66.7749 36.9979 66.7169 36.9398C66.6588 36.8818 66.5899 36.8358 66.514 36.8044C66.4382 36.773 66.3569 36.7569 66.2748 36.7569H66.2747L49.7113 36.7569L49.7112 36.7569C49.6291 36.7569 49.5478 36.773 49.4719 36.8044C49.3961 36.8358 49.3272 36.8818 49.2691 36.9398C49.2111 36.9979 49.165 37.0668 49.1337 37.1427C49.1023 37.2185 49.0861 37.2998 49.0862 37.3819V37.382V47.1849C49.0862 47.3507 49.1521 47.5097 49.2693 47.6269C49.3865 47.7441 49.5455 47.81 49.7113 47.81H66.2747C66.4405 47.81 66.5995 47.7441 66.7167 47.6269C66.8339 47.5097 66.8998 47.3507 66.8998 47.1849L66.8998 37.382ZM65.6502 46.4098L65.6502 46.5598H65.5002H50.4864H50.3364V46.4098V38.1571V38.0071H50.4864H65.4996H65.6496L65.6496 38.1571L65.6502 46.4098Z" fill="#005CA9" stroke="white" stroke-width="0.3"/>
<path d="M17.564 39.0181C14.119 42.4631 14.119 48.0486 17.564 51.4936C21.009 54.9386 26.5945 54.9386 30.0395 51.4936C33.4845 48.0486 33.4845 42.4631 30.0395 39.0181C26.5945 35.5731 21.009 35.5731 17.564 39.0181Z" fill="white" stroke="white" stroke-width="0.3"/>
<path d="M15.9793 50.8169L15.9795 50.8172C16.7073 51.8463 17.632 52.721 18.7001 53.3904C19.7681 54.0599 20.9583 54.5109 22.2018 54.7174L22.2023 54.7175C22.7376 54.8081 23.2795 54.8539 23.8225 54.8543C25.3321 54.8511 26.8196 54.4918 28.1642 53.8057C29.5089 53.1196 30.6728 52.126 31.5613 50.9056C32.4499 49.6851 33.038 48.2723 33.2779 46.7819C33.5178 45.2915 33.4028 43.7654 32.9421 42.3278C32.4815 40.8902 31.6882 39.5815 30.6267 38.5081C29.5653 37.4347 28.2656 36.6268 26.8332 36.15C25.4009 35.6732 23.8763 35.5411 22.3832 35.7642C20.8902 35.9874 19.4709 36.5596 18.2405 37.4344C13.9285 40.5011 12.9149 46.5048 15.9793 50.8169ZM23.6348 36.9085V36.9068L23.7847 36.9067C24.2561 36.9062 24.7267 36.9453 25.1917 37.0236L25.1917 37.0236C26.5452 37.2521 27.8213 37.8108 28.9072 38.6504C29.9931 39.4899 30.8552 40.5843 31.4172 41.8366C31.9791 43.0888 32.2235 44.4604 32.1288 45.8297C32.034 47.199 31.603 48.5238 30.874 49.6867C30.1449 50.8497 29.1403 51.8149 27.9491 52.4969C26.758 53.1788 25.417 53.5565 24.045 53.5964C22.673 53.6364 21.3123 53.3373 20.0835 52.7258C18.8547 52.1142 17.7957 51.2091 17.0002 50.0905C14.333 46.3399 15.2146 41.1187 18.9651 38.4514C20.3306 37.4758 21.9592 36.9385 23.6348 36.9085Z" fill="#005CA9" stroke="white" stroke-width="0.3"/>
<path d="M25.899 40.6717L20.8812 41.1474L18.7842 45.7311L21.7055 49.8386L26.7233 49.3629L28.8204 44.7792L25.899 40.6717Z" fill="white" stroke="white" stroke-width="0.3"/>
</svg>
