<?xml version="1.0" encoding="utf-8"?>
<!-- Generator: Adobe Illustrator 23.0.2, SVG Export Plug-In . SVG Version: 6.00 Build 0)  -->
<svg version="1.1" id="Layer_1" xmlns="http://www.w3.org/2000/svg" xmlns:xlink="http://www.w3.org/1999/xlink" x="0px" y="0px"
	 viewBox="0 0 95 59" style="enable-background:new 0 0 95 59;" xml:space="preserve">
<style type="text/css">
	.st0{fill:#005CA9;}
</style>
<path class="st0" d="M85.4,26H71.5c-0.6,0-1-0.4-1-1V13.5c0-0.6,0.4-1,1-1h8.4c0.2,0,0.4,0.1,0.6,0.2l5.8,11.8
	c0.2,0.3,0.1,0.7-0.1,1S85.8,26,85.4,26z M71,25h0.5l0,0H71z M71.5,25h13.9l-5.5-11.5l0,0h-8.4V25z"/>
<path class="st0" d="M24,55c-5,0-9-4-9-9s4-9,9-9s9,4,9,9S29,55,24,55z M24,38c-4.4,0-8,3.6-8,8s3.6,8,8,8s8-3.6,8-8S28.4,38,24,38z
	"/>
<path class="st0" d="M79,55c-5,0-9-4-9-9s4-9,9-9s9,4,9,9S84,55,79,55z M79,38c-4.4,0-8,3.6-8,8s3.6,8,8,8s8-3.6,8-8S83.4,38,79,38z
	"/>
<path class="st0" d="M47,46.5H34c-0.3,0-0.5-0.2-0.5-0.5s0.2-0.5,0.5-0.5h13c0.3,0,0.5,0.2,0.5,0.5S47.3,46.5,47,46.5z M13.5,46.5H2
	c-0.8,0-1.5-0.7-1.5-1.5V2c0-0.8,0.7-1.5,1.5-1.5h56c0.8,0,1.5,0.7,1.5,1.5v34.8c0,0.3-0.2,0.5-0.5,0.5s-0.5-0.2-0.5-0.5V2
	c0-0.3-0.2-0.5-0.5-0.5H2C1.7,1.5,1.5,1.7,1.5,2v43c0,0.3,0.2,0.5,0.5,0.5h11.5c0.3,0,0.5,0.2,0.5,0.5S13.8,46.5,13.5,46.5z"/>
<path class="st0" d="M92.5,46.5h-3.4v-1h3.4c0.3,0,0.5-0.2,0.5-0.5V27.5c0-0.3-0.2-0.5-0.5-0.5h-0.4c-0.6,0-1.1-0.3-1.3-0.8l-9-16.9
	c0-0.2-0.2-0.3-0.4-0.3H65c-0.3,0-0.5,0.2-0.5,0.5v28.1h-1V9.5C63.5,8.7,64.2,8,65,8h16.4c0.6,0,1.1,0.3,1.3,0.8l8.9,16.9
	c0.1,0.2,0.3,0.3,0.4,0.3h0.4c0.8,0,1.5,0.7,1.5,1.5V45C94,45.8,93.3,46.5,92.5,46.5z M68.8,46.5H66v-1h2.8V46.5z"/>
<path class="st0" d="M66,49H48c-0.6,0-1-0.4-1-1V38c0-0.6,0.4-1,1-1h18c0.6,0,1,0.4,1,1v10C67,48.6,66.6,49,66,49z M48,38v10h18V38
	H48z M48,37.5V38l0,0V37.5z"/>
</svg>
