<svg width="78" height="57" viewBox="0 0 78 57" fill="none" xmlns="http://www.w3.org/2000/svg">
<path d="M58.2604 24.95V25.05H58.3604H68.3954C68.536 25.0676 68.6656 25.1356 68.7599 25.2415C68.8555 25.3488 68.9083 25.4875 68.9083 25.6312C68.9083 25.7749 68.8555 25.9135 68.7599 26.0208C68.6656 26.1267 68.5361 26.1947 68.3955 26.2124L57.6839 26.1942H57.6837C57.529 26.1942 57.3806 26.133 57.2709 26.024L57.2004 26.095L57.2709 26.024C57.1612 25.9151 57.0991 25.7672 57.098 25.6127V17.7533C57.1156 17.6127 57.1836 17.4832 57.2895 17.3888C57.3968 17.2932 57.5355 17.2404 57.6792 17.2404C57.8229 17.2404 57.9616 17.2932 58.0689 17.3888C58.1748 17.4832 58.2428 17.6127 58.2604 17.7533V24.95Z" fill="#005CA9" stroke="white" stroke-width="0.2"/>
<mask id="path-2-inside-1" fill="white">
<path d="M28.2738 48.4245H55.9262L56.008 48.9831C56.3357 51.2109 57.4537 53.2465 59.1579 54.7183C60.8621 56.1902 63.0388 57 65.2905 57C67.5423 57 69.719 56.1902 71.4232 54.7183C73.1274 53.2465 74.2454 51.2109 74.5731 48.9831L74.6549 48.4245H76.9982C77.0896 48.4239 77.18 48.4052 77.2642 48.3694C77.3483 48.3336 77.4245 48.2814 77.4883 48.2159C77.552 48.1504 77.6022 48.0729 77.6358 47.9879C77.6694 47.9029 77.6858 47.812 77.684 47.7206V38.1474C77.6828 37.9659 77.6101 37.7921 77.4818 37.6638C77.3534 37.5354 77.1797 37.4628 76.9982 37.4616H75.5631V27.2163C75.563 27.0767 75.5202 26.9404 75.4405 26.8257L66.0762 13.3333C66.0124 13.2434 65.9279 13.1701 65.83 13.1195C65.732 13.069 65.6233 13.0426 65.5131 13.0427H52.4657C52.2846 13.0427 52.1109 13.1143 51.9824 13.2419C51.8539 13.3695 51.7812 13.5428 51.78 13.7239V37.4616H40.8534V34.7368L41.412 34.6505C41.5189 34.6346 41.6205 34.5934 41.7082 34.5301C41.7959 34.4669 41.8672 34.3836 41.9161 34.2872L49.1142 20.3089C49.1695 20.1998 49.1949 20.078 49.1877 19.9559C49.1805 19.8338 49.1411 19.7158 49.0733 19.614L40.6899 7.02534C40.6261 6.92791 40.5386 6.84824 40.4356 6.79373L32.2611 2.58387C32.1832 2.54404 32.0985 2.51938 32.0114 2.51121L6.82036 0.272316C6.68501 0.259467 6.54892 0.287688 6.42984 0.353302C6.31076 0.418917 6.21422 0.518881 6.15278 0.640167L0.934735 10.772C0.872957 10.8931 0.848608 11.0299 0.864781 11.165C0.880954 11.3 0.936917 11.4272 1.02556 11.5304L5.60781 16.871V37.4616H1.1618C0.9803 37.4628 0.806568 37.5354 0.678223 37.6638C0.549877 37.7921 0.477249 37.9659 0.476059 38.1474V43.2791C0.477258 43.4602 0.550034 43.6335 0.678507 43.7611C0.80698 43.8887 0.980717 43.9603 1.1618 43.9603H7.51973V47.7206C7.52092 47.9021 7.59355 48.0758 7.72189 48.2042C7.85024 48.3325 8.02397 48.4052 8.20547 48.4063H9.56789L9.64963 48.9649C9.97403 51.1959 11.0909 53.2356 12.7959 54.7106C14.5009 56.1856 16.68 56.9973 18.9345 56.9973C21.1889 56.9973 23.368 56.1856 25.073 54.7106C26.778 53.2356 27.8949 51.1959 28.2193 48.9649L28.2738 48.4245ZM73.3015 47.7206C73.3069 48.7726 73.105 49.8154 72.7074 50.7894C72.3097 51.7634 71.7242 52.6495 70.9841 53.3972C70.244 54.1449 69.3639 54.7395 68.394 55.147C67.4241 55.5546 66.3834 55.7671 65.3314 55.7725C63.2068 55.7833 61.1648 54.9497 59.6548 53.455C58.1448 51.9603 57.2904 49.927 57.2796 47.8023V47.7206C57.2818 47.704 57.2818 47.6872 57.2796 47.6706V47.598C57.2796 47.5299 57.2796 47.4617 57.2796 47.3936V47.3164C57.2773 47.2801 57.2773 47.2437 57.2796 47.2074C57.2796 47.1348 57.2796 47.0712 57.2796 47.0076V46.9077C57.2773 46.8714 57.2773 46.835 57.2796 46.7987L57.3068 46.5625V46.5398C57.3068 46.4899 57.3068 46.4445 57.3068 46.399C57.3068 46.3536 57.3295 46.2764 57.3386 46.2129V46.122C57.3386 46.0857 57.3386 46.0448 57.3613 46.004L57.4022 45.8314L57.4521 45.6225C57.4521 45.5544 57.4839 45.4908 57.5021 45.4317L57.5248 45.3591C57.5248 45.3182 57.5248 45.2773 57.5611 45.241C57.5975 45.2047 57.602 45.1138 57.6247 45.0503L57.6474 44.9867L57.6883 44.8641C57.6883 44.8096 57.7292 44.7551 57.7519 44.696L57.7927 44.6052C57.8024 44.569 57.8161 44.5339 57.8336 44.5008C57.8336 44.4463 57.8836 44.3872 57.9108 44.3327L57.9426 44.251C57.9426 44.2192 57.9744 44.1829 57.9926 44.1465L58.0879 43.9603L58.1152 43.9104L58.1697 43.8059L58.2605 43.647L58.3105 43.5652L58.3649 43.4699L58.4512 43.3291L58.5103 43.2428L58.5739 43.1474C58.6102 43.0884 58.6511 43.0339 58.6874 42.9839L58.7328 42.9204C58.7328 42.8931 58.7737 42.8659 58.7918 42.8341C58.81 42.8023 58.8645 42.7432 58.9008 42.6978L58.9644 42.6161L59.0371 42.5298L59.1552 42.389L59.2051 42.3345L59.2868 42.2391L59.4095 42.112L59.464 42.053L59.5503 41.9621C59.5964 41.9221 59.6403 41.8796 59.6819 41.835L59.7455 41.7759L59.8273 41.6987L59.9635 41.5852L60.0316 41.5261L60.1225 41.4444L60.2496 41.3445L60.3314 41.2809L60.4222 41.2083L60.5721 41.1038L60.6356 41.0584L60.7355 40.9857L60.8718 40.8995L60.9672 40.8404L61.0625 40.7814C61.1093 40.75 61.1579 40.7211 61.2079 40.6951L61.2941 40.6451L61.3941 40.5861L61.5394 40.5134L61.6347 40.4635L61.7437 40.409L61.8936 40.3409L61.9935 40.2954L62.098 40.25L62.2524 40.1865L62.3568 40.1456L62.4613 40.1092L62.6293 40.0502L62.7156 40.0184L62.8291 39.9821L63.0108 39.9321L63.1016 39.9049L63.2151 39.8731L63.3923 39.8322L63.4876 39.8095L63.5966 39.7823L63.7919 39.7505H63.8827H63.9963L64.1779 39.7232H64.2778C64.3172 39.721 64.3566 39.721 64.3959 39.7232H64.623H64.7047H64.8001C65.068 39.7232 65.345 39.7232 65.6221 39.7232C67.6771 39.8315 69.6119 40.7252 71.0268 42.2195C72.4416 43.7138 73.2283 45.6945 73.2243 47.7524L73.3015 47.7206ZM76.3215 38.8331V47.053H74.6776L74.5867 46.3446C74.5867 46.2628 74.564 46.1765 74.5504 46.0902L74.5095 45.8677C74.5095 45.786 74.4777 45.6997 74.4596 45.6134C74.4414 45.5271 74.4233 45.4726 74.4096 45.4L74.3415 45.1456C74.3415 45.0775 74.3052 45.0094 74.2825 44.9413L74.2053 44.687L74.1371 44.4871L74.0418 44.2374V44.1874L73.9827 44.0466C73.951 43.9649 73.9146 43.8831 73.8783 43.8014L73.8465 43.7378C73.8322 43.6953 73.8139 43.6543 73.792 43.6152C73.7602 43.5425 73.7193 43.4699 73.683 43.3927L73.5786 43.1974C73.5377 43.1156 73.4923 43.0384 73.4469 42.9567L73.4014 42.884C73.3865 42.8528 73.3699 42.8225 73.3515 42.7932L73.188 42.5343L73.1017 42.3981C72.9291 42.1438 72.7384 41.894 72.5431 41.6533L72.4523 41.5489L72.2389 41.3036L72.1616 41.2219L72.0935 41.1538L71.9164 40.9676L71.8165 40.8722L71.7756 40.8313L71.5758 40.6497L71.4714 40.5588L71.4214 40.5134L71.2216 40.3454L71.0944 40.2455L71.0581 40.2182L70.8583 40.0638L70.8083 40.0275L69.187 38.8467H71.1762L76.3215 38.8331ZM53.1605 14.4096H65.1679L74.2098 27.4343V37.4616H53.1605V14.4096ZM47.7109 20.05L40.8988 33.3199L26.9659 33.774L39.9724 8.40137L47.7109 20.05ZM39.4865 34.7323V37.4571H34.9133V34.8821L39.4865 34.7323ZM33.5463 34.9275V37.4616H12.9194V25.3907L17.488 30.7222C17.5471 30.7891 17.6179 30.8445 17.6969 30.8857L25.8714 35.0956C25.9684 35.1455 26.0757 35.172 26.1848 35.1728L33.5463 34.9275ZM32.4019 4.21423L38.8643 7.53851L25.6035 33.4243L19.1366 30.1001L32.4019 4.21423ZM2.36527 10.9854L7.15188 1.68922L31.0668 3.81459L18.0285 29.2463L2.36527 10.9854ZM11.5479 23.7966V37.4616H6.9793V18.4651L11.5479 23.7966ZM10.7032 43.0884C10.6033 43.2655 10.5125 43.4472 10.4262 43.6243L10.3762 43.7333C10.3036 43.8922 10.2355 44.0512 10.1719 44.2146C10.1641 44.2393 10.155 44.2636 10.1446 44.2873L8.88214 47.5162V43.2791C8.88214 43.098 8.81052 42.9243 8.6829 42.7958C8.55528 42.6674 8.38202 42.5946 8.20093 42.5934H1.84301V38.8331H15.1129L13.3826 40.0502C13.2101 40.1774 13.0557 40.2954 12.9285 40.4181L12.8513 40.4862C12.7196 40.5997 12.5879 40.7132 12.4607 40.8359L12.3608 40.9312C12.2155 41.072 12.0793 41.2173 11.9476 41.3581L11.8794 41.4444C11.7659 41.5716 11.6524 41.7033 11.5479 41.8395L11.4616 41.9485C11.339 42.1075 11.2255 42.2709 11.1165 42.4344L11.0529 42.5343C10.9575 42.6751 10.8667 42.825 10.7804 42.9885L10.7032 43.0884ZM26.925 47.7206C26.8752 49.8128 26.0091 51.8026 24.5117 53.2647C23.0144 54.7268 21.0046 55.5453 18.9118 55.5453C16.819 55.5453 14.8091 54.7268 13.3118 53.2647C11.8144 51.8026 10.9483 49.8128 10.8985 47.7206V47.6298C10.8967 46.5762 11.1025 45.5325 11.5042 44.5585C11.9059 43.5845 12.4956 42.6992 13.2395 41.9531C13.9834 41.2071 14.8671 40.6149 15.84 40.2105C16.8129 39.806 17.8559 39.5973 18.9095 39.5961C19.0503 39.5961 19.1865 39.5961 19.3228 39.5961C21.3781 39.7033 23.3136 40.5966 24.7287 42.0911C26.1438 43.5857 26.9301 45.5671 26.925 47.6252V47.7206ZM28.1239 45.8632C28.1239 45.7814 28.0921 45.6951 28.074 45.6089C28.0558 45.5226 28.0422 45.4681 28.024 45.3954C28.0059 45.3227 27.9832 45.2274 27.9605 45.1411C27.9377 45.0548 27.9196 45.0048 27.9014 44.9367L27.8197 44.687L27.7516 44.4826L27.6562 44.2328V44.1829L27.6017 44.0421L27.4927 43.7923L27.47 43.7423C27.47 43.6969 27.4291 43.6561 27.4109 43.6107L27.2974 43.3881L27.2611 43.32C27.2426 43.2763 27.2214 43.2338 27.1975 43.1928C27.1566 43.1111 27.1067 43.0339 27.0613 42.9521L27.0204 42.8795L26.9659 42.7887C26.9159 42.6978 26.8569 42.6161 26.8024 42.5298L26.7161 42.3936C26.5435 42.1392 26.3573 41.8895 26.1575 41.6488L26.0667 41.5443C25.9986 41.4626 25.9259 41.3763 25.8533 41.2991L25.7806 41.2219L25.7034 41.1401L25.5308 40.963L25.44 40.8767L25.39 40.8268L25.1948 40.6451L25.0858 40.5543L25.0358 40.5089L24.8405 40.3409L24.7225 40.25L24.6725 40.2137L24.4727 40.0593L24.4227 40.023L22.806 38.8422H24.7951H61.4485L59.7637 40.0729C59.7001 40.1229 59.6365 40.1728 59.5684 40.2182L59.5139 40.2636L59.3959 40.359L59.2051 40.518L59.1552 40.5634L59.0462 40.6588L58.86 40.8313L58.7964 40.8904L58.7056 40.9766L58.5375 41.1538L58.4649 41.231C58.4369 41.2544 58.4111 41.2802 58.3877 41.3082C58.3105 41.3899 58.2423 41.4762 58.1697 41.5579L58.0834 41.6579C57.879 41.9031 57.6928 42.1529 57.5203 42.4072L57.4431 42.5298C57.384 42.6206 57.325 42.7115 57.2705 42.8023L57.2205 42.8886L57.166 42.9794L57.0389 43.211L56.9753 43.3291L56.9526 43.3745C56.9072 43.4608 56.8663 43.5425 56.83 43.6243C56.7936 43.706 56.7891 43.7106 56.7709 43.756L56.7437 43.8105C56.7028 43.9013 56.671 43.9785 56.6392 44.0557C56.6074 44.1329 56.5938 44.1692 56.5711 44.2237V44.251L56.4757 44.4962L56.4076 44.696C56.3804 44.7823 56.3531 44.8641 56.3304 44.9458C56.3077 45.0276 56.2895 45.0866 56.2714 45.1547L56.2033 45.409C56.2033 45.4817 56.1715 45.5498 56.1533 45.6225C56.1351 45.6951 56.117 45.7951 56.1034 45.8813C56.0897 45.9676 56.0761 46.0221 56.0625 46.0993C56.0489 46.1765 56.0352 46.2719 56.0261 46.3582L56.0034 46.4899L55.9353 47.0621H28.3238L28.2329 46.3582L28.1921 46.0993C28.1512 46.013 28.1421 45.9404 28.1239 45.8677V45.8632Z"/>
</mask>
<path d="M28.2738 48.4245H55.9262L56.008 48.9831C56.3357 51.2109 57.4537 53.2465 59.1579 54.7183C60.8621 56.1902 63.0388 57 65.2905 57C67.5423 57 69.719 56.1902 71.4232 54.7183C73.1274 53.2465 74.2454 51.2109 74.5731 48.9831L74.6549 48.4245H76.9982C77.0896 48.4239 77.18 48.4052 77.2642 48.3694C77.3483 48.3336 77.4245 48.2814 77.4883 48.2159C77.552 48.1504 77.6022 48.0729 77.6358 47.9879C77.6694 47.9029 77.6858 47.812 77.684 47.7206V38.1474C77.6828 37.9659 77.6101 37.7921 77.4818 37.6638C77.3534 37.5354 77.1797 37.4628 76.9982 37.4616H75.5631V27.2163C75.563 27.0767 75.5202 26.9404 75.4405 26.8257L66.0762 13.3333C66.0124 13.2434 65.9279 13.1701 65.83 13.1195C65.732 13.069 65.6233 13.0426 65.5131 13.0427H52.4657C52.2846 13.0427 52.1109 13.1143 51.9824 13.2419C51.8539 13.3695 51.7812 13.5428 51.78 13.7239V37.4616H40.8534V34.7368L41.412 34.6505C41.5189 34.6346 41.6205 34.5934 41.7082 34.5301C41.7959 34.4669 41.8672 34.3836 41.9161 34.2872L49.1142 20.3089C49.1695 20.1998 49.1949 20.078 49.1877 19.9559C49.1805 19.8338 49.1411 19.7158 49.0733 19.614L40.6899 7.02534C40.6261 6.92791 40.5386 6.84824 40.4356 6.79373L32.2611 2.58387C32.1832 2.54404 32.0985 2.51938 32.0114 2.51121L6.82036 0.272316C6.68501 0.259467 6.54892 0.287688 6.42984 0.353302C6.31076 0.418917 6.21422 0.518881 6.15278 0.640167L0.934735 10.772C0.872957 10.8931 0.848608 11.0299 0.864781 11.165C0.880954 11.3 0.936917 11.4272 1.02556 11.5304L5.60781 16.871V37.4616H1.1618C0.9803 37.4628 0.806568 37.5354 0.678223 37.6638C0.549877 37.7921 0.477249 37.9659 0.476059 38.1474V43.2791C0.477258 43.4602 0.550034 43.6335 0.678507 43.7611C0.80698 43.8887 0.980717 43.9603 1.1618 43.9603H7.51973V47.7206C7.52092 47.9021 7.59355 48.0758 7.72189 48.2042C7.85024 48.3325 8.02397 48.4052 8.20547 48.4063H9.56789L9.64963 48.9649C9.97403 51.1959 11.0909 53.2356 12.7959 54.7106C14.5009 56.1856 16.68 56.9973 18.9345 56.9973C21.1889 56.9973 23.368 56.1856 25.073 54.7106C26.778 53.2356 27.8949 51.1959 28.2193 48.9649L28.2738 48.4245ZM73.3015 47.7206C73.3069 48.7726 73.105 49.8154 72.7074 50.7894C72.3097 51.7634 71.7242 52.6495 70.9841 53.3972C70.244 54.1449 69.3639 54.7395 68.394 55.147C67.4241 55.5546 66.3834 55.7671 65.3314 55.7725C63.2068 55.7833 61.1648 54.9497 59.6548 53.455C58.1448 51.9603 57.2904 49.927 57.2796 47.8023V47.7206C57.2818 47.704 57.2818 47.6872 57.2796 47.6706V47.598C57.2796 47.5299 57.2796 47.4617 57.2796 47.3936V47.3164C57.2773 47.2801 57.2773 47.2437 57.2796 47.2074C57.2796 47.1348 57.2796 47.0712 57.2796 47.0076V46.9077C57.2773 46.8714 57.2773 46.835 57.2796 46.7987L57.3068 46.5625V46.5398C57.3068 46.4899 57.3068 46.4445 57.3068 46.399C57.3068 46.3536 57.3295 46.2764 57.3386 46.2129V46.122C57.3386 46.0857 57.3386 46.0448 57.3613 46.004L57.4022 45.8314L57.4521 45.6225C57.4521 45.5544 57.4839 45.4908 57.5021 45.4317L57.5248 45.3591C57.5248 45.3182 57.5248 45.2773 57.5611 45.241C57.5975 45.2047 57.602 45.1138 57.6247 45.0503L57.6474 44.9867L57.6883 44.8641C57.6883 44.8096 57.7292 44.7551 57.7519 44.696L57.7927 44.6052C57.8024 44.569 57.8161 44.5339 57.8336 44.5008C57.8336 44.4463 57.8836 44.3872 57.9108 44.3327L57.9426 44.251C57.9426 44.2192 57.9744 44.1829 57.9926 44.1465L58.0879 43.9603L58.1152 43.9104L58.1697 43.8059L58.2605 43.647L58.3105 43.5652L58.3649 43.4699L58.4512 43.3291L58.5103 43.2428L58.5739 43.1474C58.6102 43.0884 58.6511 43.0339 58.6874 42.9839L58.7328 42.9204C58.7328 42.8931 58.7737 42.8659 58.7918 42.8341C58.81 42.8023 58.8645 42.7432 58.9008 42.6978L58.9644 42.6161L59.0371 42.5298L59.1552 42.389L59.2051 42.3345L59.2868 42.2391L59.4095 42.112L59.464 42.053L59.5503 41.9621C59.5964 41.9221 59.6403 41.8796 59.6819 41.835L59.7455 41.7759L59.8273 41.6987L59.9635 41.5852L60.0316 41.5261L60.1225 41.4444L60.2496 41.3445L60.3314 41.2809L60.4222 41.2083L60.5721 41.1038L60.6356 41.0584L60.7355 40.9857L60.8718 40.8995L60.9672 40.8404L61.0625 40.7814C61.1093 40.75 61.1579 40.7211 61.2079 40.6951L61.2941 40.6451L61.3941 40.5861L61.5394 40.5134L61.6347 40.4635L61.7437 40.409L61.8936 40.3409L61.9935 40.2954L62.098 40.25L62.2524 40.1865L62.3568 40.1456L62.4613 40.1092L62.6293 40.0502L62.7156 40.0184L62.8291 39.9821L63.0108 39.9321L63.1016 39.9049L63.2151 39.8731L63.3923 39.8322L63.4876 39.8095L63.5966 39.7823L63.7919 39.7505H63.8827H63.9963L64.1779 39.7232H64.2778C64.3172 39.721 64.3566 39.721 64.3959 39.7232H64.623H64.7047H64.8001C65.068 39.7232 65.345 39.7232 65.6221 39.7232C67.6771 39.8315 69.6119 40.7252 71.0268 42.2195C72.4416 43.7138 73.2283 45.6945 73.2243 47.7524L73.3015 47.7206ZM76.3215 38.8331V47.053H74.6776L74.5867 46.3446C74.5867 46.2628 74.564 46.1765 74.5504 46.0902L74.5095 45.8677C74.5095 45.786 74.4777 45.6997 74.4596 45.6134C74.4414 45.5271 74.4233 45.4726 74.4096 45.4L74.3415 45.1456C74.3415 45.0775 74.3052 45.0094 74.2825 44.9413L74.2053 44.687L74.1371 44.4871L74.0418 44.2374V44.1874L73.9827 44.0466C73.951 43.9649 73.9146 43.8831 73.8783 43.8014L73.8465 43.7378C73.8322 43.6953 73.8139 43.6543 73.792 43.6152C73.7602 43.5425 73.7193 43.4699 73.683 43.3927L73.5786 43.1974C73.5377 43.1156 73.4923 43.0384 73.4469 42.9567L73.4014 42.884C73.3865 42.8528 73.3699 42.8225 73.3515 42.7932L73.188 42.5343L73.1017 42.3981C72.9291 42.1438 72.7384 41.894 72.5431 41.6533L72.4523 41.5489L72.2389 41.3036L72.1616 41.2219L72.0935 41.1538L71.9164 40.9676L71.8165 40.8722L71.7756 40.8313L71.5758 40.6497L71.4714 40.5588L71.4214 40.5134L71.2216 40.3454L71.0944 40.2455L71.0581 40.2182L70.8583 40.0638L70.8083 40.0275L69.187 38.8467H71.1762L76.3215 38.8331ZM53.1605 14.4096H65.1679L74.2098 27.4343V37.4616H53.1605V14.4096ZM47.7109 20.05L40.8988 33.3199L26.9659 33.774L39.9724 8.40137L47.7109 20.05ZM39.4865 34.7323V37.4571H34.9133V34.8821L39.4865 34.7323ZM33.5463 34.9275V37.4616H12.9194V25.3907L17.488 30.7222C17.5471 30.7891 17.6179 30.8445 17.6969 30.8857L25.8714 35.0956C25.9684 35.1455 26.0757 35.172 26.1848 35.1728L33.5463 34.9275ZM32.4019 4.21423L38.8643 7.53851L25.6035 33.4243L19.1366 30.1001L32.4019 4.21423ZM2.36527 10.9854L7.15188 1.68922L31.0668 3.81459L18.0285 29.2463L2.36527 10.9854ZM11.5479 23.7966V37.4616H6.9793V18.4651L11.5479 23.7966ZM10.7032 43.0884C10.6033 43.2655 10.5125 43.4472 10.4262 43.6243L10.3762 43.7333C10.3036 43.8922 10.2355 44.0512 10.1719 44.2146C10.1641 44.2393 10.155 44.2636 10.1446 44.2873L8.88214 47.5162V43.2791C8.88214 43.098 8.81052 42.9243 8.6829 42.7958C8.55528 42.6674 8.38202 42.5946 8.20093 42.5934H1.84301V38.8331H15.1129L13.3826 40.0502C13.2101 40.1774 13.0557 40.2954 12.9285 40.4181L12.8513 40.4862C12.7196 40.5997 12.5879 40.7132 12.4607 40.8359L12.3608 40.9312C12.2155 41.072 12.0793 41.2173 11.9476 41.3581L11.8794 41.4444C11.7659 41.5716 11.6524 41.7033 11.5479 41.8395L11.4616 41.9485C11.339 42.1075 11.2255 42.2709 11.1165 42.4344L11.0529 42.5343C10.9575 42.6751 10.8667 42.825 10.7804 42.9885L10.7032 43.0884ZM26.925 47.7206C26.8752 49.8128 26.0091 51.8026 24.5117 53.2647C23.0144 54.7268 21.0046 55.5453 18.9118 55.5453C16.819 55.5453 14.8091 54.7268 13.3118 53.2647C11.8144 51.8026 10.9483 49.8128 10.8985 47.7206V47.6298C10.8967 46.5762 11.1025 45.5325 11.5042 44.5585C11.9059 43.5845 12.4956 42.6992 13.2395 41.9531C13.9834 41.2071 14.8671 40.6149 15.84 40.2105C16.8129 39.806 17.8559 39.5973 18.9095 39.5961C19.0503 39.5961 19.1865 39.5961 19.3228 39.5961C21.3781 39.7033 23.3136 40.5966 24.7287 42.0911C26.1438 43.5857 26.9301 45.5671 26.925 47.6252V47.7206ZM28.1239 45.8632C28.1239 45.7814 28.0921 45.6951 28.074 45.6089C28.0558 45.5226 28.0422 45.4681 28.024 45.3954C28.0059 45.3227 27.9832 45.2274 27.9605 45.1411C27.9377 45.0548 27.9196 45.0048 27.9014 44.9367L27.8197 44.687L27.7516 44.4826L27.6562 44.2328V44.1829L27.6017 44.0421L27.4927 43.7923L27.47 43.7423C27.47 43.6969 27.4291 43.6561 27.4109 43.6107L27.2974 43.3881L27.2611 43.32C27.2426 43.2763 27.2214 43.2338 27.1975 43.1928C27.1566 43.1111 27.1067 43.0339 27.0613 42.9521L27.0204 42.8795L26.9659 42.7887C26.9159 42.6978 26.8569 42.6161 26.8024 42.5298L26.7161 42.3936C26.5435 42.1392 26.3573 41.8895 26.1575 41.6488L26.0667 41.5443C25.9986 41.4626 25.9259 41.3763 25.8533 41.2991L25.7806 41.2219L25.7034 41.1401L25.5308 40.963L25.44 40.8767L25.39 40.8268L25.1948 40.6451L25.0858 40.5543L25.0358 40.5089L24.8405 40.3409L24.7225 40.25L24.6725 40.2137L24.4727 40.0593L24.4227 40.023L22.806 38.8422H24.7951H61.4485L59.7637 40.0729C59.7001 40.1229 59.6365 40.1728 59.5684 40.2182L59.5139 40.2636L59.3959 40.359L59.2051 40.518L59.1552 40.5634L59.0462 40.6588L58.86 40.8313L58.7964 40.8904L58.7056 40.9766L58.5375 41.1538L58.4649 41.231C58.4369 41.2544 58.4111 41.2802 58.3877 41.3082C58.3105 41.3899 58.2423 41.4762 58.1697 41.5579L58.0834 41.6579C57.879 41.9031 57.6928 42.1529 57.5203 42.4072L57.4431 42.5298C57.384 42.6206 57.325 42.7115 57.2705 42.8023L57.2205 42.8886L57.166 42.9794L57.0389 43.211L56.9753 43.3291L56.9526 43.3745C56.9072 43.4608 56.8663 43.5425 56.83 43.6243C56.7936 43.706 56.7891 43.7106 56.7709 43.756L56.7437 43.8105C56.7028 43.9013 56.671 43.9785 56.6392 44.0557C56.6074 44.1329 56.5938 44.1692 56.5711 44.2237V44.251L56.4757 44.4962L56.4076 44.696C56.3804 44.7823 56.3531 44.8641 56.3304 44.9458C56.3077 45.0276 56.2895 45.0866 56.2714 45.1547L56.2033 45.409C56.2033 45.4817 56.1715 45.5498 56.1533 45.6225C56.1351 45.6951 56.117 45.7951 56.1034 45.8813C56.0897 45.9676 56.0761 46.0221 56.0625 46.0993C56.0489 46.1765 56.0352 46.2719 56.0261 46.3582L56.0034 46.4899L55.9353 47.0621H28.3238L28.2329 46.3582L28.1921 46.0993C28.1512 46.013 28.1421 45.9404 28.1239 45.8677V45.8632Z" fill="#005CA9" stroke="white" stroke-width="0.4" mask="url(#path-2-inside-1)"/>
</svg>
