<svg width="62" height="48" viewBox="0 0 62 48" fill="none" xmlns="http://www.w3.org/2000/svg">
<g clip-path="url(#clip0)">
<path d="M41.5527 10.8038V22.8582C41.5527 23.489 42.0636 24.0021 42.6966 24.0021H56.7034" stroke="#005CA9" stroke-miterlimit="10" stroke-linecap="round" stroke-linejoin="round"/>
<path d="M35.7932 23.2691L11.6246 0.959553C11.3425 0.699675 10.9737 0.555298 10.5917 0.555298H4.63672L32.417 29.2796" stroke="#005CA9" stroke-miterlimit="10" stroke-linecap="round" stroke-linejoin="round"/>
<path d="M4.37746 0.555298V9.14682C4.37746 9.14682 8.03797 9.22457 8.01576 12.7429C8.01131 13.4293 7.67147 14.1378 7.34274 14.551C6.28768 15.8726 4.34192 16.1324 2.95591 15.1618C2.18071 14.622 1.49437 13.6691 1.42773 11.9944" stroke="#005CA9" stroke-miterlimit="10" stroke-linecap="round" stroke-linejoin="round"/>
<path d="M48.2457 10.8038H37.664C36.8688 10.8038 36.2246 11.448 36.2246 12.2432V27.8425C36.2246 28.6377 35.5805 29.2818 34.7853 29.2818H1.99401C1.19883 29.2818 0.554688 29.926 0.554688 30.7212V39.4882C0.554688 40.2833 1.19883 40.9275 1.99401 40.9275H3.52885C4.16633 40.9275 4.72384 41.3495 4.9082 41.9603C5.6945 44.588 8.13113 46.5049 11.0142 46.5049C13.8995 46.5049 16.334 44.5902 17.1203 41.9603C17.3024 41.3495 17.8599 40.9275 18.4996 40.9275H40.3516C41.0157 40.9275 41.5866 41.3828 41.7487 42.027C42.4417 44.7968 44.9472 46.8492 47.9325 46.8492C50.9177 46.8492 53.4232 44.7968 54.1162 42.027C54.2784 41.3828 54.8492 40.9275 55.5134 40.9275H59.1339C59.9291 40.9275 60.5732 40.2833 60.5732 39.4882V29.2818L49.4651 11.4791C49.203 11.0593 48.741 10.8038 48.2457 10.8038Z" stroke="#005CA9" stroke-miterlimit="10" stroke-linecap="round" stroke-linejoin="round"/>
<path d="M10.9971 46.5026C14.5191 46.5026 17.3741 43.6475 17.3741 40.1255C17.3741 36.6036 14.5191 33.7485 10.9971 33.7485C7.4752 33.7485 4.62012 36.6036 4.62012 40.1255C4.62012 43.6475 7.4752 46.5026 10.9971 46.5026Z" stroke="#005CA9" stroke-miterlimit="10" stroke-linecap="round" stroke-linejoin="round"/>
<path d="M47.9483 46.8469C51.4702 46.8469 54.3253 43.9918 54.3253 40.4699C54.3253 36.948 51.4702 34.0929 47.9483 34.0929C44.4264 34.0929 41.5713 36.948 41.5713 40.4699C41.5713 43.9918 44.4264 46.8469 47.9483 46.8469Z" stroke="#005CA9" stroke-miterlimit="10" stroke-linecap="round" stroke-linejoin="round"/>
<path d="M11 41C11.5523 41 12 40.5523 12 40C12 39.4477 11.5523 39 11 39C10.4477 39 10 39.4477 10 40C10 40.5523 10.4477 41 11 41Z" fill="#005CA9"/>
<path d="M48 41C48.5523 41 49 40.5523 49 40C49 39.4477 48.5523 39 48 39C47.4477 39 47 39.4477 47 40C47 40.5523 47.4477 41 48 41Z" fill="#005CA9"/>
</g>
<defs>
<clipPath id="clip0">
<rect width="61.1247" height="47.4" fill="white"/>
</clipPath>
</defs>
</svg>
