<svg width="88" height="59" viewBox="0 0 88 59" fill="none" xmlns="http://www.w3.org/2000/svg">
<path d="M87.0801 33.2838H87.5801C87.5801 33.2347 87.5728 33.1858 87.5586 33.1389L87.0801 33.2838ZM70.2542 27.5868H69.7542C69.7542 27.8011 69.8908 27.9916 70.0939 28.0603L70.2542 27.5868ZM70.2542 16.1927V15.6927C69.9781 15.6927 69.7542 15.9165 69.7542 16.1927H70.2542ZM87.08 50.3766V50.8766C87.3562 50.8766 87.58 50.6527 87.58 50.3766H87.08ZM80.4152 11.2777L80.8937 11.1328L80.8934 11.1318L80.4152 11.2777ZM76.8401 8.60385V9.10385L76.8405 9.10385L76.8401 8.60385ZM60.9059 8.60385V8.10385C60.6298 8.10385 60.4059 8.32771 60.4059 8.60385H60.9059ZM74.5458 44.8392L74.4293 45.3254L74.5458 44.8392ZM79.411 52.8344L79.898 52.9476L79.411 52.8344ZM71.5398 57.7762L71.4232 58.2624L71.5398 57.7762ZM66.6747 49.781L67.1617 49.8942L66.6747 49.781ZM23.1462 44.8779L23.2609 44.3913L23.1462 44.8779ZM28.0416 52.8541L27.5541 52.7428L28.0416 52.8541ZM20.1891 57.8266L20.3038 57.3399L20.1891 57.8266ZM15.2938 49.8504L14.8064 49.7391L15.2938 49.8504ZM44.9673 46.6264L44.611 46.9772L44.9673 46.6264ZM44.9673 56.0257L44.611 55.6749L44.9673 56.0257ZM35.7139 56.0257L35.3576 56.3765L35.7139 56.0257ZM35.7139 46.6264L35.3576 46.2757L35.7139 46.6264ZM6.68883 50.3767H6.18883C6.18883 50.6528 6.41269 50.8767 6.68883 50.8767V50.3767ZM1.08008 40.8811L0.596462 40.7541C0.557109 40.904 0.589509 41.0637 0.684178 41.1865C0.778848 41.3092 0.925081 41.3811 1.08008 41.3811V40.8811ZM8.55772 12.3942V11.8942C8.33047 11.8942 8.1318 12.0474 8.07411 12.2672L8.55772 12.3942ZM57.6962 1V0.5C57.4691 0.5 57.2706 0.652955 57.2127 0.872474L57.6962 1ZM66.5145 49.8767L46.8178 49.8833L46.8181 50.8833L66.5148 50.8767L66.5145 49.8767ZM81.4714 39.4825H87.08V38.4825H81.4714V39.4825ZM87.2404 32.8102L70.4146 27.1132L70.0939 28.0603L86.9197 33.7574L87.2404 32.8102ZM70.7542 27.5868V16.1927H69.7542V27.5868H70.7542ZM70.2542 16.6927H81.4714V15.6927H70.2542V16.6927ZM79.6024 50.8766H87.08V49.8766H79.6024V50.8766ZM87.58 50.3766L87.5801 33.2838H86.5801L86.58 50.3766H87.58ZM87.5586 33.1389L80.8937 11.1328L79.9366 11.4227L86.6015 33.4287L87.5586 33.1389ZM80.8934 11.1318C80.6261 10.2559 80.0892 9.48862 79.36 8.94318L78.761 9.74398C79.3185 10.1609 79.7311 10.7492 79.9369 11.4237L80.8934 11.1318ZM79.36 8.94318C78.6306 8.39765 77.7473 8.10307 76.8396 8.10385L76.8405 9.10385C77.5307 9.10326 78.2037 9.32716 78.761 9.74398L79.36 8.94318ZM76.8401 8.10385H60.9059V9.10385H76.8401V8.10385ZM60.4059 8.60385V50.3833H61.4059V8.60385H60.4059ZM74.4293 45.3254C77.6728 46.103 79.6933 49.4101 78.9239 52.7213L79.898 52.9476C80.7888 49.1138 78.4529 45.2617 74.6624 44.353L74.4293 45.3254ZM78.9239 52.7213C78.1551 56.0299 74.8971 58.0669 71.6564 57.29L71.4232 58.2624C75.2166 59.1719 79.0066 56.7839 79.898 52.9476L78.9239 52.7213ZM71.6564 57.29C68.4129 56.5124 66.3923 53.2054 67.1617 49.8942L66.1876 49.6678C65.2968 53.5016 67.6327 57.3537 71.4232 58.2624L71.6564 57.29ZM67.1617 49.8942C67.9305 46.5855 71.1885 44.5485 74.4293 45.3254L74.6624 44.353C70.869 43.4435 67.079 45.8316 66.1876 49.6678L67.1617 49.8942ZM23.0316 45.3646C26.2779 46.1295 28.311 49.4286 27.5541 52.7428L28.529 52.9655C29.4053 49.1283 27.0549 45.2852 23.2609 44.3913L23.0316 45.3646ZM27.5541 52.7428C26.7978 56.0545 23.5474 58.1042 20.3038 57.3399L20.0745 58.3133C23.8712 59.2079 27.6521 56.8051 28.529 52.9655L27.5541 52.7428ZM20.3038 57.3399C17.0574 56.575 15.0244 53.2759 15.7813 49.9617L14.8064 49.7391C13.9301 53.5763 16.2804 57.4193 20.0745 58.3133L20.3038 57.3399ZM15.7813 49.9617C16.5376 46.65 19.788 44.6003 23.0316 45.3646L23.2609 44.3913C19.4641 43.4966 15.6832 45.8994 14.8064 49.7391L15.7813 49.9617ZM44.611 46.9772C46.9746 49.3781 46.9746 53.274 44.611 55.6749L45.3236 56.3765C48.0704 53.5863 48.0704 49.0658 45.3236 46.2757L44.611 46.9772ZM44.611 55.6749C42.2516 58.0715 38.4296 58.0715 36.0702 55.6749L35.3576 56.3765C38.1087 59.1709 42.5725 59.171 45.3236 56.3765L44.611 55.6749ZM36.0702 55.6749C33.7066 53.274 33.7066 49.3781 36.0702 46.9772L35.3576 46.2757C32.6108 49.0658 32.6108 53.5863 35.3576 56.3765L36.0702 55.6749ZM36.0702 46.9772C38.4296 44.5807 42.2516 44.5807 44.611 46.9772L45.3236 46.2757C42.5725 43.4812 38.1087 43.4812 35.3576 46.2757L36.0702 46.9772ZM15.1951 49.8767H6.68883V50.8767H15.1951V49.8767ZM7.18883 50.3767V40.881H6.18883V50.3767H7.18883ZM33.8633 49.8833H28.1427V50.8833H33.8633V49.8833ZM60.9059 40.3811H1.08008V41.3811H60.9059V40.3811ZM1.56369 41.008L9.04134 12.5211L8.07411 12.2672L0.596462 40.7541L1.56369 41.008ZM8.55772 12.8942H53.4283V11.8942H8.55772V12.8942ZM47.66 41.0085L58.1796 1.12753L57.2127 0.872474L46.693 40.7534L47.66 41.0085ZM57.6962 1.5H75.8629V0.5H57.6962V1.5Z" fill="#005CA9"/>
</svg>
