<?xml version="1.0" encoding="utf-8"?>
<!-- Generator: Adobe Illustrator 23.0.2, SVG Export Plug-In . SVG Version: 6.00 Build 0)  -->
<svg version="1.1" id="Layer_1" xmlns="http://www.w3.org/2000/svg" xmlns:xlink="http://www.w3.org/1999/xlink" x="0px" y="0px"
	 viewBox="0 0 88 59" style="enable-background:new 0 0 88 59;" xml:space="preserve">
<style type="text/css">
	.st0{fill:none;}
	.st1{fill:#005CA9;}
</style>
<g>
	<polygon class="st0" points="1,40.9 0.5,40.8 1,40.9 	"/>
	<polygon class="st0" points="57.6,1 57.1,0.9 57.6,1 	"/>
	<polygon class="st0" points="81.4,16.5 81.4,16.7 70.7,16.7 70.7,27.2 86.2,32.5 	"/>
	<path class="st0" d="M23,45.4c-3.2-0.8-6.5,1.3-7.3,4.6c-0.8,3.3,1.3,6.6,4.5,7.4c3.2,0.8,6.5-1.3,7.3-4.6
		C28.2,49.4,26.2,46.1,23,45.4z"/>
	<polygon class="st0" points="80.3,11.3 80.8,11.1 80.4,11.3 	"/>
	<path class="st0" d="M36,47c-2.4,2.4-2.4,6.3,0,8.7c2.4,2.4,6.2,2.4,8.5,0c2.4-2.4,2.4-6.3,0-8.7C42.2,44.6,38.3,44.6,36,47z"/>
	<path class="st0" d="M86.5,39.5h-5.1v-1h5.1v-4.8L70,28.1c-0.2-0.1-0.3-0.3-0.3-0.5V16.2c0-0.3,0.2-0.5,0.5-0.5h11l-1.3-4.3
		c-0.2-0.7-0.6-1.3-1.2-1.7c-0.6-0.4-1.2-0.6-1.9-0.6h0H61.3v40.8l4.7,0c0-0.1,0-0.1,0-0.2c0.9-3.8,4.7-6.2,8.5-5.3
		c2.8,0.7,4.7,2.9,5.3,5.5h6.6V39.5z"/>
	<polygon class="st0" points="70.2,27.6 70,28.1 70.2,27.6 	"/>
	<path class="st0" d="M74.3,45.3c-3.2-0.8-6.5,1.3-7.3,4.6c-0.8,3.3,1.3,6.6,4.5,7.4c3.2,0.8,6.5-1.3,7.3-4.6
		C79.6,49.4,77.6,46.1,74.3,45.3z"/>
	<path class="st0" d="M60.3,41.4H7.1v8.5h7.6c0,0,0-0.1,0-0.1c0.9-3.8,4.7-6.2,8.5-5.3c2.8,0.6,4.7,2.9,5.3,5.5h4.9
		c0.3-1.3,0.9-2.6,1.9-3.6c2.8-2.8,7.2-2.8,10,0c1,1,1.6,2.3,1.9,3.6l13.2,0V41.4z"/>
	<path class="st1" d="M87.5,33.1l-6.7-22l-0.5,0.1l0,0l0.4-0.1l0,0c-0.3-0.9-0.8-1.6-1.5-2.2s-1.6-0.8-2.5-0.8v0H60.8
		c-0.3,0-0.5,0.2-0.5,0.5v31.8H47.7L58,1.5h17.8v-1H57.6c-0.2,0-0.4,0.2-0.5,0.4L57.6,1v0l-0.5-0.1L46.7,40.4H1.6l7.2-27.5h44.5v-1
		H8.5c-0.2,0-0.4,0.2-0.5,0.4L0.5,40.8L1,40.9v0l-0.5-0.1c0,0.1,0,0.3,0.1,0.4c0.1,0.1,0.2,0.2,0.4,0.2h5.1v9c0,0.3,0.2,0.5,0.5,0.5
		h8c-0.2,3.4,2,6.6,5.4,7.4c3.8,0.9,7.6-1.5,8.5-5.3c0.2-0.7,0.2-1.4,0.2-2.1h4.6c-0.1,2,0.6,4,2,5.5c2.8,2.8,7.2,2.8,10,0
		c1.5-1.5,2.2-3.5,2-5.5l18.7,0c-0.2,3.4,2,6.6,5.4,7.4c3.8,0.9,7.6-1.5,8.5-5.3c0.2-0.7,0.2-1.4,0.2-2.1h7c0.3,0,0.5-0.2,0.5-0.5
		V33.3C87.5,33.2,87.5,33.2,87.5,33.1z M70.7,16.7h10.7v-0.2l4.8,16l-15.6-5.3V16.7z M20.2,57.3c-3.2-0.8-5.3-4.1-4.5-7.4
		c0.8-3.3,4-5.4,7.3-4.6c3.2,0.8,5.3,4.1,4.5,7.4C26.7,56.1,23.5,58.1,20.2,57.3z M44.5,55.7c-2.4,2.4-6.2,2.4-8.5,0
		c-2.4-2.4-2.4-6.3,0-8.7c2.4-2.4,6.2-2.4,8.5,0C46.9,49.4,46.9,53.3,44.5,55.7z M45.2,46.3c-2.8-2.8-7.2-2.8-10,0
		c-1,1-1.6,2.3-1.9,3.6h-4.9c-0.5-2.6-2.5-4.8-5.3-5.5c-3.8-0.9-7.6,1.5-8.5,5.3c0,0,0,0.1,0,0.1H7.1v-8.5h53.2v8.5l-13.2,0
		C46.9,48.6,46.3,47.3,45.2,46.3z M71.6,57.3c-3.2-0.8-5.3-4.1-4.5-7.4c0.8-3.3,4-5.3,7.3-4.6c3.2,0.8,5.3,4.1,4.5,7.4
		C78.1,56,74.8,58.1,71.6,57.3z M74.6,44.4c-3.8-0.9-7.6,1.5-8.5,5.3c0,0.1,0,0.1,0,0.2l-4.7,0V9.1h15.4h0c0.7,0,1.4,0.2,1.9,0.6
		c0.6,0.4,1,1,1.2,1.7l1.3,4.3h-11c-0.3,0-0.5,0.2-0.5,0.5v11.4c0,0.2,0.1,0.4,0.3,0.5l0.2-0.5l0,0L70,28.1l16.5,5.6v4.8h-5.1v1h5.1
		v10.4h-6.6C79.3,47.2,77.3,45,74.6,44.4z"/>
</g>
</svg>
