<svg width="17" height="16" viewBox="0 0 17 16" fill="none" xmlns="http://www.w3.org/2000/svg">
<g clip-path="url(#clip0)">
<path d="M16.3723 4.32991L12.2961 0.0943125C12.238 0.0340625 12.158 0 12.0743 0H5.99903C5.31913 0 4.76597 0.552938 4.76597 1.23256V5.53847H2.30388C1.79519 5.53847 1.38135 5.95219 1.38135 6.46075V11.0778C1.38135 11.5863 1.79519 12 2.30388 12H4.76597V14.7696C4.76597 15.448 5.31913 16 5.99903 16H15.2252C15.9051 16 16.4583 15.4483 16.4583 14.7703V4.54328C16.4583 4.46372 16.4274 4.38725 16.3723 4.32991ZM12.1506 0.830656L15.4968 4.30769H12.1506V0.830656ZM2.30388 11.3846C2.1345 11.3846 1.99675 11.247 1.99675 11.0778V6.46075C1.99675 6.29153 2.13454 6.15384 2.30388 6.15384H10.6127C10.7821 6.15384 10.9198 6.29153 10.9198 6.46075V11.0778C10.9198 11.247 10.782 11.3846 10.6127 11.3846H2.30388ZM15.8429 14.7703C15.8429 15.109 15.5658 15.3846 15.2252 15.3846H5.99903C5.65844 15.3846 5.38135 15.1087 5.38135 14.7696V12H10.6127C11.1214 12 11.5352 11.5863 11.5352 11.0778V6.46075C11.5352 5.95219 11.1214 5.53847 10.6127 5.53847H5.38135V1.23256C5.38135 0.892219 5.65844 0.615375 5.99903 0.615375H11.5352V4.61538C11.5352 4.78531 11.673 4.92306 11.8429 4.92306H15.8429V14.7703Z" fill="#005CA9"/>
<path d="M5.05988 7.80921C4.95772 7.6764 4.83091 7.59015 4.67947 7.55049C4.58091 7.52405 4.36938 7.51083 4.04485 7.51083H3.18848V10.1539H3.72213V9.15686H4.0701C4.31169 9.15686 4.49619 9.14424 4.6236 9.11899C4.71735 9.09855 4.8096 9.0568 4.90035 8.99367C4.9911 8.93058 5.06591 8.84374 5.12482 8.73317C5.18372 8.62261 5.21316 8.48618 5.21316 8.32393C5.21313 8.11358 5.16204 7.94202 5.05988 7.80921ZM4.60285 8.53668C4.5626 8.59558 4.50701 8.63883 4.43607 8.66649C4.36513 8.69414 4.22454 8.70796 4.01419 8.70796H3.72213V7.95796H3.97994C4.17226 7.95796 4.30026 7.96396 4.36394 7.97599C4.45047 7.99161 4.52201 8.03068 4.57847 8.09318C4.63497 8.15568 4.66322 8.23502 4.66322 8.33114C4.66326 8.40927 4.6431 8.47777 4.60285 8.53668Z" fill="#005CA9"/>
<path d="M7.77863 8.23289C7.72095 8.06402 7.63679 7.9213 7.52623 7.80471C7.41567 7.68811 7.28282 7.60699 7.12779 7.5613C7.01242 7.52765 6.84473 7.51083 6.62479 7.51083H5.64941V10.1539H6.65363C6.85076 10.1539 7.0082 10.1352 7.12598 10.098C7.28345 10.0475 7.40845 9.97717 7.50098 9.88702C7.62357 9.76802 7.71792 9.61239 7.78404 9.42008C7.83813 9.26261 7.86517 9.07511 7.86517 8.85758C7.86517 8.60999 7.83632 8.40177 7.77863 8.23289ZM7.25938 9.31824C7.22332 9.43664 7.17676 9.52167 7.11966 9.57333C7.06257 9.62502 6.99076 9.66167 6.90423 9.6833C6.83813 9.70014 6.73054 9.70855 6.58151 9.70855H6.18307V7.95796H6.42285C6.64038 7.95796 6.78645 7.96636 6.86095 7.98321C6.9607 8.00483 7.04304 8.0463 7.10795 8.10761C7.17285 8.16893 7.22332 8.25424 7.25938 8.36361C7.29545 8.47299 7.31348 8.62983 7.31348 8.83417C7.31348 9.03849 7.29545 9.19983 7.25938 9.31824Z" fill="#005CA9"/>
<path d="M10.1332 7.95796V7.51083H8.32129V10.1539H8.85494V9.03067H9.95831V8.58355H8.85494V7.95796H10.1332Z" fill="#005CA9"/>
</g>
<defs>
<clipPath id="clip0">
<rect x="0.919922" width="16" height="16" fill="white"/>
</clipPath>
</defs>
</svg>
