<svg width="53" height="55" viewBox="0 0 53 55" fill="none" xmlns="http://www.w3.org/2000/svg">
<g clip-path="url(#clip0)">
<path d="M11.3684 4.77356C11.3684 4.77356 17.1037 6.71954 14.0614 9.15669C13.3237 9.74871 12.4049 10.0662 11.4599 10.0998C9.81649 10.1577 6.84522 10.5928 8.25522 13.0617C9.02839 14.4157 9.8333 15.4709 10.5168 16.2478C12.4796 18.4795 12.1659 21.927 9.82583 23.7591C9.74926 23.8188 9.67082 23.8804 9.59052 23.9402C4.44169 27.8434 7.88545 32.0846 7.88545 32.0846C7.88545 32.0846 13.4526 37.9524 10.853 42.244" stroke="#005CA9" stroke-miterlimit="10" stroke-linecap="round" stroke-linejoin="round"/>
<path d="M40.2987 6.76624C40.2987 6.76624 35.4636 8.29015 33.1348 9.56942C32.3224 10.0158 31.3942 10.2044 30.4698 10.1353C28.6284 9.99709 25.7747 9.92052 24.9138 10.6769C23.6103 11.8217 23.9296 14.2999 24.9138 15.9228C25.5282 16.9369 25.0389 17.6522 24.5832 18.0444C24.1332 18.4347 23.7559 18.9034 23.515 19.4469C23.3805 19.7513 23.2629 20.0669 23.2274 20.3078C23.1396 20.9204 16.803 20.009 17.509 23.3781C17.6248 23.9253 17.9124 24.4202 18.3046 24.8217C19.7388 26.2914 24.404 31.4795 24.9138 37.282C24.9138 37.282 31.1608 33.9017 31.2691 27.5558C31.2896 26.3624 30.8619 25.2101 30.1019 24.2876C29.0803 23.0457 28.055 21.0044 31.7714 20.4946C32.5091 20.3937 33.2655 20.5693 33.8743 21.0007C34.851 21.6935 36.1546 23.0811 36.388 25.6471C36.6103 28.1011 37.9101 27.9461 38.9522 27.3933C39.7123 26.9899 40.2987 26.3251 40.6516 25.5407C41.4528 23.7628 43.649 19.8596 47.5466 19.6392" stroke="#005CA9" stroke-miterlimit="10" stroke-linecap="round" stroke-linejoin="round"/>
<path d="M28.8042 5.62892C27.8854 4.51026 26.0683 3.23659 23.2483 5.24981C23.1624 5.31143 23.0933 5.39361 23.0466 5.48885C22.787 6.02857 22.2454 7.78407 26.326 7.62346C30.6046 7.45351 25.9656 6.53281 28.2832 6.66167C28.8341 6.69342 29.1535 6.05472 28.8042 5.62892Z" stroke="#005CA9" stroke-miterlimit="10" stroke-linecap="round" stroke-linejoin="round"/>
<path d="M48.2096 21.2511C46.8893 9.55652 36.9633 0.467163 24.9139 0.467163C11.9643 0.467163 1.4668 10.9647 1.4668 23.9142C1.4668 34.8132 8.90337 43.9754 18.9788 46.6031" stroke="#005CA9" stroke-miterlimit="10" stroke-linecap="round" stroke-linejoin="round"/>
<path d="M24.9141 47.3592C30.2496 47.3592 35.1669 45.5757 39.1056 42.5764C35.6114 34.3816 45.7335 28.6987 45.7335 28.6987C45.7335 28.6987 46.4954 29.2403 47.5077 30.1927C47.8924 28.807 48.152 27.3709 48.2771 25.8955" stroke="#005CA9" stroke-miterlimit="10" stroke-linecap="round" stroke-linejoin="round"/>
<path d="M50.699 34.0775L45.5857 37.3364L40.209 33.7582" stroke="#005CA9" stroke-miterlimit="10" stroke-linecap="round" stroke-linejoin="round"/>
<path d="M45.737 28.6857C45.737 28.6857 29.4295 37.8404 45.356 49.6657V54.1478L45.6081 37.2689L45.737 28.6857Z" stroke="#005CA9" stroke-miterlimit="10" stroke-linecap="round" stroke-linejoin="round"/>
<path d="M45.7374 28.6859C45.7374 28.6859 61.281 39.7474 45.3564 49.6659" stroke="#005CA9" stroke-miterlimit="10" stroke-linecap="round" stroke-linejoin="round"/>
<path d="M52.5329 39.1759L45.4754 43.6954L38.375 39.1759" stroke="#005CA9" stroke-miterlimit="10" stroke-linecap="round" stroke-linejoin="round"/>
</g>
<defs>
<clipPath id="clip0">
<rect width="52" height="54.6146" fill="white" transform="translate(1)"/>
</clipPath>
</defs>
</svg>
