<?xml version="1.0" encoding="utf-8"?>
<!-- Generator: Adobe Illustrator 23.0.2, SVG Export Plug-In . SVG Version: 6.00 Build 0)  -->
<svg version="1.1" id="Layer_1" xmlns="http://www.w3.org/2000/svg" xmlns:xlink="http://www.w3.org/1999/xlink" x="0px" y="0px"
	 viewBox="0 0 80 59" style="enable-background:new 0 0 80 59;" xml:space="preserve">
<style type="text/css">
	.st0{fill:#005CA9;}
	.st1{fill-rule:evenodd;clip-rule:evenodd;fill:#005CA9;}
</style>
<path class="st0" d="M73.8,51.5c-0.2,0-0.4,0-0.6-0.1c-0.3,0-0.5-0.3-0.4-0.6c0-0.3,0.3-0.5,0.6-0.4c2.1,0.3,3.5-1.6,4-2.7
	c2.9-5.7-3.8-31.6-5-34.6c-0.7-1.7-2.9-2.2-4-2.2h-10c-0.3,0-0.5-0.2-0.5-0.5s0.2-0.5,0.5-0.5h10c1.3,0,4.1,0.6,5,2.8
	c0.9,2.2,8.1,29.1,5,35.4C77.7,49.3,76.1,51.5,73.8,51.5z"/>
<path class="st0" d="M58.1,21.1c-0.3,0-0.5-0.2-0.5-0.5V1.5H1.5v8C1.5,9.8,1.3,10,1,10S0.5,9.8,0.5,9.5v-9h58.1v20.1
	C58.6,20.9,58.4,21.1,58.1,21.1z"/>
<path class="st0" d="M9.5,51.8H1c-0.3,0-0.5-0.2-0.5-0.5V7c0-0.3,0.2-0.5,0.5-0.5S1.5,6.7,1.5,7v43.9h8c0.3,0,0.5,0.2,0.5,0.5
	S9.8,51.8,9.5,51.8z"/>
<path class="st0" d="M77.5,35h-15c-0.3,0-0.5-0.2-0.5-0.5s0.2-0.5,0.5-0.5h15c0.3,0,0.5,0.2,0.5,0.5S77.8,35,77.5,35z"/>
<path class="st0" d="M19,59c-4.4,0-8-3.6-8-8s3.6-8,8-8s8,3.6,8,8S23.4,59,19,59z M19,44c-3.9,0-7,3.1-7,7s3.1,7,7,7s7-3.1,7-7
	S22.9,44,19,44z"/>
<path class="st0" d="M63,59c-4.4,0-8-3.6-8-8s3.6-8,8-8s8,3.6,8,8S67.4,59,63,59z M63,44c-3.9,0-7,3.1-7,7s3.1,7,7,7s7-3.1,7-7
	S66.9,44,63,44z"/>
<path class="st0" d="M52.5,51.5H29c-0.3,0-0.5-0.2-0.5-0.5s0.2-0.5,0.5-0.5h23.5c0.3,0,0.5,0.2,0.5,0.5S52.8,51.5,52.5,51.5z"/>
<path class="st1" d="M31.6,9c0.3,0,0.5,0.2,0.5,0.5v2.6l2.2-1.5c0.2-0.2,0.5-0.1,0.7,0.1c0.2,0.2,0.1,0.5-0.1,0.7l-2.8,1.9v9.1
	l7.9-4.6l0.2-3.3c0-0.3,0.3-0.5,0.5-0.5c0.3,0,0.5,0.3,0.5,0.5L41,17.2l2.2-1.3c0.2-0.1,0.5-0.1,0.7,0.2c0.1,0.2,0.1,0.5-0.2,0.7
	l-2.2,1.3l2.4,1.2c0.2,0.1,0.3,0.4,0.2,0.7c-0.1,0.2-0.4,0.3-0.7,0.2l-3-1.5l-7.9,4.6l7.9,4.6l3-1.5c0.2-0.1,0.5,0,0.7,0.2
	c0.1,0.2,0,0.5-0.2,0.7l-2.4,1.2l2.2,1.3c0.2,0.1,0.3,0.4,0.2,0.7c-0.1,0.2-0.4,0.3-0.7,0.2L41,29.3l0.2,2.7c0,0.3-0.2,0.5-0.5,0.5
	c-0.3,0-0.5-0.2-0.5-0.5L40,28.7l-7.9-4.6v9.1l2.8,1.9c0.2,0.2,0.3,0.5,0.1,0.7c-0.2,0.2-0.5,0.3-0.7,0.1l-2.2-1.5V37
	c0,0.3-0.2,0.5-0.5,0.5c-0.3,0-0.5-0.2-0.5-0.5v-2.6l-2.2,1.5c-0.2,0.2-0.5,0.1-0.7-0.1c-0.2-0.2-0.1-0.5,0.1-0.7l2.8-1.9v-9.1
	l-7.9,4.6L23,32c0,0.3-0.3,0.5-0.5,0.5c-0.3,0-0.5-0.3-0.5-0.5l0.2-2.7L20,30.6c-0.2,0.1-0.5,0.1-0.7-0.2c-0.1-0.2-0.1-0.5,0.2-0.7
	l2.2-1.3l-2.4-1.2c-0.2-0.1-0.3-0.4-0.2-0.7c0.1-0.2,0.4-0.3,0.7-0.2l3,1.5l7.9-4.6l-7.9-4.6l-3,1.5c-0.2,0.1-0.5,0-0.7-0.2
	c-0.1-0.2,0-0.5,0.2-0.7l2.4-1.2l-2.2-1.3c-0.2-0.1-0.3-0.4-0.2-0.7c0.1-0.2,0.4-0.3,0.7-0.2l2.2,1.3L22,14.6c0-0.3,0.2-0.5,0.5-0.5
	c0.3,0,0.5,0.2,0.5,0.5l0.2,3.3l7.9,4.6v-9.1l-2.8-1.9c-0.2-0.2-0.3-0.5-0.1-0.7c0.2-0.2,0.5-0.3,0.7-0.1l2.2,1.5V9.5
	C31.1,9.2,31.3,9,31.6,9z"/>
</svg>
