<svg width="81" height="59" viewBox="0 0 81 59" fill="none" xmlns="http://www.w3.org/2000/svg">
<path d="M59.0585 52.2397L59.0335 52.2376H59.0084H24.7735H24.7484L24.7234 52.2397C24.5707 52.2525 24.417 52.2335 24.272 52.1838L24.0776 52.7515L24.272 52.1838C24.127 52.1342 23.9939 52.055 23.8811 51.9513C23.7683 51.8475 23.6783 51.7215 23.6167 51.5812C23.5551 51.4409 23.5233 51.2893 23.5233 51.136C23.5233 50.9828 23.5551 50.8312 23.6167 50.6909C23.6783 50.5506 23.7683 50.4245 23.8811 50.3208C23.9939 50.2171 24.127 50.1379 24.272 50.0882C24.417 50.0386 24.5707 50.0195 24.7234 50.0323L24.7484 50.0344H24.7735H59.0084H59.0335L59.0585 50.0323C59.2113 50.0195 59.365 50.0386 59.5099 50.0882C59.6549 50.1379 59.788 50.2171 59.9008 50.3208C60.0136 50.4245 60.1037 50.5506 60.1653 50.6909C60.2268 50.8312 60.2587 50.9828 60.2587 51.136C60.2587 51.2893 60.2268 51.4409 60.1653 51.5812C60.1037 51.7215 60.0136 51.8475 59.9008 51.9513C59.788 52.055 59.6549 52.1342 59.5099 52.1838C59.365 52.2335 59.2113 52.2525 59.0585 52.2397Z" fill="#005CA9" stroke="white" stroke-width="1.2"/>
<path d="M76.8984 35.51L76.8734 35.5079H76.8483H63.3908H63.3657L63.3406 35.51C63.1879 35.5228 63.0342 35.5038 62.8892 35.4541C62.7443 35.4045 62.6112 35.3253 62.4984 35.2215L62.0922 35.6632L62.4984 35.2215C62.3856 35.1178 62.2955 34.9918 62.2339 34.8515C62.1723 34.7111 62.1405 34.5595 62.1405 34.4063C62.1405 34.2531 62.1723 34.1015 62.2339 33.9611C62.2955 33.8208 62.3856 33.6948 62.4984 33.5911C62.6112 33.4873 62.7443 33.4081 62.8892 33.3585C63.0342 33.3088 63.1879 33.2898 63.3406 33.3026L63.3657 33.3047H63.3908H76.8483H76.8734L76.8984 33.3026C77.0511 33.2898 77.2048 33.3088 77.3498 33.3585L77.5437 32.7922L77.3498 33.3585C77.4948 33.4081 77.6279 33.4873 77.7407 33.5911C77.8535 33.6948 77.9435 33.8208 78.0051 33.9611L78.5545 33.72L78.0051 33.9612C78.0667 34.1015 78.0985 34.2531 78.0985 34.4063C78.0985 34.5595 78.0667 34.7111 78.0051 34.8514L78.5545 35.0926L78.0051 34.8515C77.9435 34.9918 77.8535 35.1178 77.7407 35.2215C77.6279 35.3253 77.4948 35.4045 77.3498 35.4541C77.2049 35.5038 77.0511 35.5228 76.8984 35.51Z" fill="#005CA9" stroke="white" stroke-width="1.2"/>
<path d="M77.2692 46.4256C77.2711 36.1362 75.6826 25.9084 72.56 16.1043L72.56 16.1042L71.8678 13.9321C71.8678 13.932 71.8677 13.9319 71.8677 13.9318C71.6358 13.199 71.176 12.5593 70.5552 12.1059L70.2014 12.5905C69.6837 12.2124 69.0589 12.0096 68.4179 12.0115V11.4115H68.4171H58.9487H58.9236L58.8986 11.4136C58.7459 11.4264 58.5922 11.4073 58.4472 11.3577C58.3022 11.308 58.1691 11.2288 58.0563 11.1251C57.9435 11.0214 57.8535 10.8953 57.7919 10.755C57.7303 10.6147 57.6985 10.4631 57.6985 10.3099C57.6985 10.1566 57.7303 10.005 57.7919 9.86471C57.8535 9.72439 57.9435 9.59837 58.0563 9.49463C58.1691 9.3909 58.3022 9.3117 58.4472 9.26204C58.5922 9.21239 58.7459 9.19336 58.8986 9.20617L58.9236 9.20827H58.9487L68.4179 9.20827L68.4191 9.20826C69.6531 9.20581 70.8557 9.59693 71.8521 10.3248C72.8485 11.0526 73.5869 12.0793 73.9598 13.2556L73.9601 13.2564L74.6527 15.4297L74.6527 15.4299C77.8513 25.4506 79.4771 35.9065 79.4724 46.4252C79.4693 47.9658 78.8559 49.4425 77.7665 50.5319C76.6834 51.615 75.2176 52.2275 73.6867 52.2377C73.4189 52.2095 73.1702 52.0846 72.9875 51.8859C72.7995 51.6815 72.6952 51.4139 72.6952 51.1362C72.6952 50.8585 72.7995 50.5909 72.9875 50.3865C73.1707 50.1873 73.4203 50.0622 73.689 50.0345C74.6358 50.0269 75.5421 49.6475 76.2121 48.9775C76.889 48.3007 77.2692 47.3828 77.2692 46.4256ZM77.2692 46.4256L76.6692 46.4255L77.2692 46.4256Z" fill="#005CA9" stroke="white" stroke-width="1.2"/>
<path d="M1.27788 9.52937V1H58.4247V20.6176" stroke="#005CA9" stroke-linecap="round"/>
<path d="M1.27787 6.97046L1.27787 51.3232H9.80724" stroke="#005CA9"/>
<path d="M32.6588 25.5739H32.6588C32.3664 25.5719 32.0867 25.4543 31.8806 25.2468C31.6746 25.0393 31.559 24.7588 31.559 24.4663V11.2038C31.5869 10.9355 31.7119 10.6864 31.9108 10.5034C32.1153 10.3154 32.3828 10.2111 32.6606 10.2111C32.9383 10.2111 33.2059 10.3154 33.4103 10.5034C33.6092 10.6864 33.7342 10.9355 33.7622 11.2038V24.4663H33.7621L33.7622 24.4706C33.7632 24.6158 33.7354 24.7597 33.6803 24.894C33.6252 25.0283 33.544 25.1504 33.4413 25.253C33.3386 25.3557 33.2166 25.4369 33.0823 25.492C32.948 25.5471 32.804 25.5749 32.6588 25.5739Z" fill="#005CA9" stroke="white" stroke-width="1.2"/>
<path d="M32.674 15.877L32.6635 15.8767L32.653 15.8767C32.4204 15.8773 32.1936 15.8047 32.0046 15.6692L28.9461 13.4168C28.7432 13.2369 28.6132 12.9887 28.5811 12.7191C28.5482 12.4429 28.6204 12.1645 28.7833 11.9392C28.9462 11.7138 29.188 11.558 29.4605 11.5027C29.7259 11.4488 30.0016 11.494 30.2355 11.6294L32.363 13.1659L32.7153 13.4203L33.0669 13.165L35.2043 11.6126L35.2237 11.5986L35.2418 11.583C35.3581 11.4835 35.4938 11.4092 35.6403 11.3648C35.7868 11.3203 35.9409 11.3067 36.0929 11.3248C36.2449 11.3429 36.3915 11.3923 36.5234 11.4699C36.6553 11.5475 36.7698 11.6517 36.8594 11.7757C36.9491 11.8998 37.0121 12.0411 37.0445 12.1907C37.0768 12.3403 37.0778 12.495 37.0473 12.645C37.0168 12.795 36.9556 12.9371 36.8675 13.0622C36.7793 13.1874 36.6662 13.293 36.5353 13.3722L36.5143 13.3849L36.4945 13.3992L33.354 15.668L33.353 15.6687C33.1561 15.8116 32.9172 15.8849 32.674 15.877Z" fill="#005CA9" stroke="white" stroke-width="1.2"/>
<path d="M32.107 25.4275L20.6282 18.7951C20.4239 18.6354 20.2827 18.4082 20.2301 18.1537C20.1754 17.8894 20.2203 17.6142 20.3561 17.3809C20.4918 17.1476 20.7089 16.9726 20.9658 16.8895C21.2136 16.8093 21.4817 16.8202 21.7218 16.9195L33.1992 23.5393C33.4056 23.6624 33.5664 23.8494 33.6572 24.0719C33.7484 24.2955 33.7641 24.5427 33.7018 24.776C33.6395 25.0093 33.5027 25.2159 33.3122 25.3642C33.1812 25.4663 33.0297 25.5369 32.8694 25.5722L32.6498 25.5739C32.4603 25.5755 32.274 25.5256 32.1106 25.4297L32.107 25.4275Z" fill="#005CA9" stroke="white" stroke-width="1.2"/>
<path d="M66.3763 58.4003C64.9322 58.398 63.5212 57.9678 62.3215 57.1639C61.1217 56.3599 60.1871 55.2182 59.6359 53.8832C59.0847 52.5482 58.9416 51.0798 59.2247 49.6635C59.5078 48.2472 60.2044 46.9466 61.2265 45.9261C62.2485 44.9056 63.5502 44.211 64.9669 43.93C66.3836 43.649 67.8518 43.7943 69.186 44.3475C70.5202 44.9008 71.6604 45.8371 72.4626 47.0381C73.2647 48.2391 73.6929 49.6509 73.6929 51.0951C73.6898 53.0335 72.9177 54.8915 71.546 56.2612C70.1742 57.6309 68.3149 58.4003 66.3763 58.4003ZM66.3744 45.9936C65.366 45.9963 64.3809 46.2978 63.5437 46.86C62.7065 47.4222 62.0547 48.2199 61.6707 49.1524C61.2866 50.0848 61.1875 51.1102 61.3859 52.099C61.5843 53.0877 62.0712 53.9955 62.7853 54.7076C63.4993 55.4198 64.4084 55.9043 65.3976 56.1001C66.3869 56.2958 67.412 56.194 68.3434 55.8075C69.2749 55.421 70.0709 54.7671 70.6309 53.9284C71.1909 53.0897 71.4897 52.1038 71.4897 51.0954C71.4897 50.4243 71.3573 49.7597 71.1001 49.1399C70.8429 48.52 70.4659 47.957 69.9907 47.4831C69.5155 47.0092 68.9515 46.6337 68.331 46.3781C67.7104 46.1225 67.0456 45.9918 66.3744 45.9936Z" fill="#005CA9" stroke="white" stroke-width="1.2"/>
<path d="M18.0271 58.4003C16.583 58.398 15.172 57.9678 13.9723 57.1639C12.7725 56.3599 11.8379 55.2182 11.2867 53.8832C10.7355 52.5482 10.5924 51.0798 10.8755 49.6635C11.1587 48.2472 11.8553 46.9466 12.8773 45.9261C13.8994 44.9056 15.201 44.211 16.6177 43.93C18.0344 43.649 19.5027 43.7943 20.8368 44.3475C22.171 44.9008 23.3112 45.8371 24.1134 47.0381C24.9155 48.2391 25.3437 49.6509 25.3437 51.0951C25.3407 53.0335 24.5685 54.8915 23.1968 56.2612C21.825 57.6309 19.9657 58.4003 18.0271 58.4003ZM18.0173 45.9937C17.0119 46.0097 16.0336 46.3225 15.2054 46.8927C14.3771 47.4629 13.7359 48.2652 13.3622 49.1987C12.9885 50.1322 12.8989 51.1554 13.1049 52.1396C13.3108 53.1238 13.803 54.0253 14.5196 54.7307C15.2362 55.4361 16.1453 55.914 17.1327 56.1043C18.12 56.2947 19.1416 56.189 20.0691 55.8006C20.9967 55.4122 21.7887 54.7583 22.3458 53.9212C22.9029 53.0841 23.2001 52.101 23.2003 51.0955C23.2003 50.4186 23.0657 49.7485 22.8043 49.1242C22.5428 48.4998 22.1598 47.9338 21.6774 47.459C21.195 46.9841 20.623 46.61 19.9946 46.3585C19.3662 46.1069 18.6941 45.9829 18.0173 45.9937Z" fill="#005CA9" stroke="white" stroke-width="1.2"/>
<path d="M22.6554 19.1263L23.049 18.9491L23.0062 18.5197L22.7435 15.8807L22.7436 15.8807L22.7433 15.878C22.7283 15.7345 22.7418 15.5896 22.783 15.4514C22.8242 15.3132 22.8923 15.1845 22.9833 15.0727L22.518 14.6939L22.9833 15.0727C23.0744 14.9609 23.1866 14.8681 23.3135 14.7998L23.0291 14.2715L23.3135 14.7998C23.4405 14.7314 23.5797 14.6888 23.7232 14.6743L23.7232 14.6744L23.7338 14.6732C23.8764 14.6562 24.021 14.6681 24.159 14.7082C24.297 14.7482 24.4255 14.8156 24.5369 14.9063L24.9114 14.4462L24.5369 14.9063C24.6483 14.997 24.7403 15.1091 24.8075 15.2361C24.8747 15.3631 24.9157 15.5023 24.928 15.6454L24.9279 15.6454L24.9289 15.6548L25.323 19.5118L25.3229 19.5118L25.3236 19.5176C25.3486 19.741 25.3043 19.9667 25.1966 20.1641C25.0908 20.3581 24.9288 20.5155 24.7321 20.6157L21.163 22.198L21.1517 22.203L21.1407 22.2085C21.0094 22.2732 20.8659 22.3091 20.7197 22.3136C20.4702 22.3108 20.229 22.2238 20.0351 22.0667C19.839 21.9078 19.7031 21.6868 19.6498 21.4401C19.5965 21.1935 19.629 20.936 19.7419 20.7103C19.8546 20.4852 20.0406 20.3053 20.2693 20.2L22.6554 19.1263Z" fill="#005CA9" stroke="white" stroke-width="1.2"/>
<path d="M20.1955 31.6676L20.1905 31.6588L20.1852 31.6503C20.1067 31.523 20.0547 31.3811 20.0324 31.2332C20.0102 31.0853 20.0181 30.9345 20.0557 30.7897C20.0934 30.6449 20.1599 30.5093 20.2514 30.391C20.3429 30.2727 20.4574 30.1741 20.588 30.1012L20.588 30.1013L20.5954 30.097L32.1041 23.4592C32.3627 23.3136 32.6684 23.2763 32.9544 23.3557C33.2411 23.4352 33.4845 23.6253 33.631 23.8843C33.7775 24.1432 33.8151 24.4498 33.7356 24.7365C33.6561 25.0232 33.4659 25.2665 33.207 25.413L33.2069 25.413L33.2026 25.4155L21.6915 32.0547L21.6914 32.0546L21.6822 32.0602C21.5182 32.1587 21.3309 32.2116 21.1397 32.2133C20.9484 32.2139 20.7602 32.1638 20.5945 32.0681C20.4284 31.9723 20.2907 31.8341 20.1955 31.6676Z" fill="#005CA9" stroke="white" stroke-width="1.2"/>
<path d="M23.8661 34.2662H23.866H23.7203C23.5863 34.2493 23.4565 34.2078 23.3374 34.1437C23.2105 34.0753 23.0982 33.9826 23.0072 33.8708C22.9162 33.759 22.8481 33.6303 22.8069 33.4921C22.7657 33.3539 22.7522 33.2089 22.7672 33.0655L22.7674 33.0628L23.0301 30.4238L23.0729 29.9943L22.6793 29.8172L20.2927 28.7433C20.0257 28.6209 19.8174 28.3985 19.7128 28.124C19.6084 27.8499 19.6157 27.5457 19.7332 27.277C19.7923 27.1467 19.8764 27.0292 19.9807 26.9313C20.0857 26.8327 20.2091 26.7557 20.3438 26.7048C20.4785 26.654 20.622 26.6301 20.7659 26.6347C20.9098 26.6393 21.0514 26.6723 21.1826 26.7316L21.1826 26.7317L21.1869 26.7335L24.7568 28.3162C24.9579 28.4178 25.1229 28.579 25.2291 28.7779L25.7583 28.4951L25.2291 28.7779C25.3371 28.9799 25.379 29.2108 25.3489 29.4379L25.3477 29.4475L25.3467 29.4572L24.9652 33.2956C24.932 33.5626 24.8026 33.8084 24.6013 33.987C24.3986 34.1669 24.137 34.2662 23.8661 34.2662Z" fill="#005CA9" stroke="white" stroke-width="1.2"/>
<path d="M32.6631 38.8525L32.6631 38.8525H32.6546C32.364 38.8525 32.0853 38.7371 31.8799 38.5316C31.6744 38.3261 31.559 38.0474 31.559 37.7569V24.4943C31.5869 24.226 31.7119 23.9769 31.9108 23.7939C32.1152 23.606 32.3828 23.5016 32.6606 23.5016C32.9383 23.5016 33.2059 23.6059 33.4103 23.7939C33.6092 23.9769 33.7342 24.226 33.7622 24.4943V37.7569H33.7621L33.7622 37.7612C33.7632 37.9054 33.7354 38.0485 33.6805 38.1818C33.6255 38.3152 33.5445 38.4363 33.4421 38.5379C33.3397 38.6396 33.2181 38.7198 33.0843 38.7738C32.9506 38.8278 32.8074 38.8546 32.6631 38.8525Z" fill="#005CA9" stroke="white" stroke-width="1.2"/>
<path d="M35.7938 37.5256V37.5255L35.7863 37.5256C35.5622 37.5289 35.3433 37.4577 35.1641 37.3232L35.1642 37.3231L35.1535 37.3155L33.0041 35.7751L32.6546 35.5246L32.3051 35.7751L30.1683 37.3065C29.9345 37.4544 29.6531 37.5084 29.3809 37.4574C29.1046 37.4057 28.8587 37.2497 28.6942 37.0217C28.5296 36.7938 28.459 36.5113 28.497 36.2327C28.5343 35.9585 28.674 35.7088 28.8877 35.5335L32.0148 33.2743L32.0149 33.2743L32.0167 33.273C32.202 33.138 32.4253 33.0653 32.6546 33.0653C32.8838 33.0653 33.1072 33.138 33.2925 33.273L33.2925 33.273L33.2943 33.2743L36.4342 35.5427C36.4343 35.5427 36.4343 35.5427 36.4344 35.5428C36.6216 35.6785 36.7611 35.8699 36.833 36.0897C36.9048 36.3096 36.9052 36.5466 36.8341 36.7667C36.763 36.9868 36.6241 37.1788 36.4372 37.3151C36.2503 37.4514 36.0251 37.5251 35.7938 37.5256Z" fill="#005CA9" stroke="white" stroke-width="1.2"/>
<path d="M44.1499 32.2009L44.001 32.2019C43.8622 32.1822 43.728 32.1363 43.6055 32.0661C43.6053 32.0659 43.6051 32.0658 43.6048 32.0657L32.1072 25.4154L32.1072 25.4154L32.1058 25.4146C31.9805 25.3426 31.8705 25.2465 31.7823 25.132C31.6941 25.0174 31.6293 24.8866 31.5916 24.747C31.5539 24.6074 31.5441 24.4618 31.5627 24.3184C31.5813 24.175 31.628 24.0367 31.7 23.9113C31.7721 23.786 31.8682 23.676 31.9827 23.5878C32.0972 23.4996 32.2281 23.4348 32.3677 23.3971C32.5073 23.3594 32.6529 23.3496 32.7963 23.3682C32.9396 23.3868 33.0778 23.4334 33.2031 23.5054C33.2032 23.5054 33.2033 23.5055 33.2034 23.5055L44.7103 30.1423C44.9172 30.2658 45.0782 30.4534 45.1689 30.6768C45.2599 30.9011 45.275 31.1491 45.2117 31.3827C45.1485 31.6164 45.0104 31.8229 44.8186 31.9707C44.6269 32.1185 44.392 32.1993 44.1499 32.2009Z" fill="#005CA9" stroke="white" stroke-width="1.2"/>
<path d="M41.4892 34.2682L41.4666 34.2664L41.4441 34.2664C41.1707 34.266 40.9072 34.1645 40.7041 33.9815C40.5011 33.7985 40.3729 33.5468 40.3442 33.275L40.3443 33.275L40.3438 33.2709L39.9145 29.4551C39.8932 29.2239 39.9442 28.9918 40.0606 28.7909C40.1776 28.5889 40.3549 28.4285 40.5676 28.3322C40.5677 28.3322 40.5678 28.3321 40.568 28.3321L44.0899 26.7442L44.1113 26.7346L44.1319 26.7233C44.2658 26.6498 44.4136 26.6048 44.5657 26.5912C44.7179 26.5776 44.8713 26.5956 45.0162 26.6441C45.1611 26.6927 45.2943 26.7706 45.4076 26.8732C45.5209 26.9757 45.6118 27.1005 45.6745 27.2399C45.7372 27.3792 45.7704 27.53 45.772 27.6828C45.7736 27.8356 45.7435 27.987 45.6838 28.1277C45.624 28.2683 45.5358 28.395 45.4246 28.4999C45.3135 28.6048 45.1819 28.6855 45.038 28.737L45.0146 28.7454L44.9919 28.7558L42.6037 29.8424L42.2106 30.0213L42.2555 30.4509L42.5301 33.0773C42.5301 33.0774 42.5301 33.0775 42.5301 33.0777C42.5449 33.2215 42.5311 33.3669 42.4895 33.5055C42.4478 33.6442 42.3791 33.7732 42.2872 33.8851L42.7511 34.2657L42.2872 33.8851C42.1954 33.997 42.0823 34.0896 41.9545 34.1576C41.8401 34.2184 41.7159 34.2583 41.5878 34.2757L41.4892 34.2682Z" fill="#005CA9" stroke="white" stroke-width="1.2"/>
<path d="M32.1016 23.5194L32.1016 23.5194L32.106 23.5169L43.6052 16.9016L43.6075 16.9002C43.8595 16.7538 44.1593 16.7134 44.441 16.788C44.7228 16.8626 44.9633 17.046 45.1098 17.298L45.6285 16.9965L45.1098 17.298C45.2562 17.55 45.2966 17.8498 45.222 18.1315C45.1475 18.4128 44.9645 18.6531 44.7131 18.7996C44.7128 18.7998 44.7124 18.8 44.712 18.8003L33.2034 25.4141L33.2034 25.414L33.1933 25.42C33.0302 25.5181 32.8439 25.5709 32.6536 25.5731C32.4595 25.5715 32.2691 25.52 32.1007 25.4236C31.9319 25.327 31.791 25.1885 31.6913 25.0215C31.6193 24.8967 31.5725 24.759 31.5538 24.6161C31.5349 24.4723 31.5448 24.3262 31.5828 24.1862C31.6208 24.0462 31.6863 23.9152 31.7754 23.8008C31.8644 23.6863 31.9753 23.5906 32.1016 23.5194Z" fill="#005CA9" stroke="white" stroke-width="1.2"/>
<path d="M44.5635 22.2906L44.5607 22.3023C44.4091 22.2992 44.2594 22.2677 44.1194 22.2094L40.6047 20.6129L40.6047 20.6129L40.6014 20.6114C40.39 20.5169 40.2135 20.3585 40.0968 20.1584C39.9804 19.9589 39.9294 19.7281 39.9507 19.4981L40.3444 15.6439C40.3444 15.6439 40.3444 15.6438 40.3444 15.6438C40.3444 15.6438 40.3444 15.6437 40.3445 15.6437C40.3592 15.5003 40.402 15.3611 40.4705 15.2342C40.539 15.1073 40.6318 14.9951 40.7437 14.904C40.8556 14.8129 40.9843 14.7448 41.1225 14.7034C41.2607 14.6621 41.4057 14.6484 41.5492 14.6631C41.6927 14.6778 41.8319 14.7206 41.9589 14.7891C42.0858 14.8576 42.198 14.9505 42.2891 15.0623C42.3802 15.1742 42.4483 15.3029 42.4897 15.4411C42.531 15.5794 42.5447 15.7244 42.53 15.8679L42.5298 15.8693L42.2671 18.4963L42.2244 18.9241L42.6157 19.1022L45.0039 20.1888L45.0039 20.1889L45.011 20.192C45.2418 20.2934 45.4305 20.4712 45.5454 20.6956C45.6603 20.9199 45.6943 21.177 45.6418 21.4235C45.5892 21.67 45.4532 21.8909 45.2568 22.0488C45.0604 22.2068 44.8155 22.2922 44.5635 22.2906Z" fill="#005CA9" stroke="white" stroke-width="1.2"/>
</svg>
