<?xml version="1.0" encoding="utf-8"?>
<!-- Generator: Adobe Illustrator 23.0.2, SVG Export Plug-In . SVG Version: 6.00 Build 0)  -->
<svg version="1.1" id="Layer_1" xmlns="http://www.w3.org/2000/svg" xmlns:xlink="http://www.w3.org/1999/xlink" x="0px" y="0px"
	 viewBox="0 0 78 57" style="enable-background:new 0 0 78 57;" xml:space="preserve">
<style type="text/css">
	.st0{fill-rule:evenodd;clip-rule:evenodd;fill:#005CA9;}
</style>
<path class="st0" d="M0.1,16.2l9.2-16C9.4,0.1,9.6,0,9.8,0h36.9c0.3,0,0.6,0.2,0.6,0.6S47,1.1,46.7,1.1h-0.8v45h6l0.2-0.5
	c1.1-3.4,4.4-5.9,8.2-5.9c3.8,0,7,2.5,8.2,5.9l0.2,0.5h7.8V31.9L61,12.8H49.5c-0.3,0-0.6-0.2-0.6-0.6c0-0.3,0.2-0.6,0.6-0.6h11.7
	c0.2,0,0.3,0.1,0.4,0.2l15.6,19.4c0.1,0.1,0.1,0.2,0.1,0.3v15c0,0.3-0.2,0.6-0.6,0.6h-8.1l0,0.7c0,0.1,0,0.3,0,0.4
	c0,4.7-3.9,8.6-8.6,8.6s-8.6-3.9-8.6-8.6c0-0.1,0-0.3,0-0.4l0-0.7H30.8l0,0.7l0,0.1c0,0.1,0,0.2,0,0.3c0,0.3-0.2,0.6-0.6,0.6
	s-0.6-0.2-0.6-0.6c0-6.9-5.6-12.5-12.5-12.5c-6.9,0-12.5,5.6-12.5,12.5c0,0.3-0.2,0.6-0.6,0.6c-0.3,0-0.6-0.2-0.6-0.6
	c0-0.1,0-0.2,0-0.3l0-0.1l0-0.7h-3C0.2,47.2,0,47,0,46.7V16.5C0,16.4,0,16.3,0.1,16.2z M44.8,1.1H10.1l-9,15.6v29.5h2.6l0.1-0.6
	c1.3-6.2,6.8-10.8,13.3-10.8s12,4.6,13.3,10.8l0.1,0.6h14.2V1.1z M60.2,40.9c-4.1,0-7.5,3.4-7.5,7.5c0,4.1,3.4,7.5,7.5,7.5
	c4.1,0,7.5-3.4,7.5-7.5C67.7,44.3,64.3,40.9,60.2,40.9z"/>
<path class="st0" d="M23.2,7.4c0.2,0,0.3,0.1,0.4,0.2L33,24c0.1,0.1,0.1,0.3,0,0.5c-0.1,0.1-0.2,0.2-0.4,0.2h-3.7
	c-0.3,0-0.5-0.2-0.5-0.5c0-0.3,0.2-0.5,0.5-0.5h2.9l-8.6-15l-9,15H23l-2-2c-0.2-0.2-0.2-0.5,0-0.7c0.2-0.2,0.5-0.2,0.7,0l2.8,2.8
	c0.2,0.2,0.2,0.5,0,0.7l-2.8,2.8c-0.2,0.2-0.5,0.2-0.7,0c-0.2-0.2-0.2-0.5,0-0.7l2-2h-9.6c-0.2,0-0.3-0.1-0.4-0.2
	c-0.1-0.1-0.1-0.3,0-0.5l9.8-16.4C22.9,7.5,23,7.4,23.2,7.4z"/>
<path class="st0" d="M49.9,17.3c0-0.3,0.2-0.6,0.6-0.6c0.3,0,0.6,0.2,0.6,0.6v10.5h16.6c0.3,0,0.6,0.2,0.6,0.6
	c0,0.3-0.2,0.6-0.6,0.6H50.4c-0.3,0-0.6-0.2-0.6-0.6V17.3z"/>
<path class="st0" d="M8.6,48.4c0-4.7,3.9-8.6,8.6-8.6s8.6,3.9,8.6,8.6c0,4.7-3.9,8.6-8.6,8.6S8.6,53.1,8.6,48.4z M17.2,40.9
	c-4.1,0-7.5,3.4-7.5,7.5c0,4.1,3.4,7.5,7.5,7.5c4.1,0,7.5-3.4,7.5-7.5C24.7,44.3,21.3,40.9,17.2,40.9z"/>
</svg>
