<svg width="14" height="14" viewBox="0 0 14 14" fill="none" xmlns="http://www.w3.org/2000/svg">
<path fill-rule="evenodd" clip-rule="evenodd" d="M12.1474 1.14645C12.3427 0.951184 12.6593 0.951184 12.8545 1.14645C13.0498 1.34171 13.0498 1.65829 12.8545 1.85355L7.70764 7.00045L12.8551 12.1479C13.0504 12.3432 13.0504 12.6598 12.8551 12.855C12.6598 13.0503 12.3433 13.0503 12.148 12.855L7.00053 7.70756L1.85355 12.8545C1.65829 13.0498 1.34171 13.0498 1.14645 12.8545C0.951185 12.6593 0.951185 12.3427 1.14645 12.1474L6.29342 7.00045L1.14702 1.85404C0.951754 1.65878 0.951754 1.3422 1.14702 1.14694C1.34228 0.951674 1.65886 0.951674 1.85412 1.14694L7.00053 6.29334L12.1474 1.14645Z" fill="#005CA9"/>
<path d="M12.8545 1.14645L13.2081 0.792893L13.2081 0.792893L12.8545 1.14645ZM12.1474 1.14645L11.7939 0.792893V0.792893L12.1474 1.14645ZM12.8545 1.85355L13.2081 2.20711V2.20711L12.8545 1.85355ZM7.70764 7.00045L7.35408 6.6469L7.00053 7.00045L7.35408 7.354L7.70764 7.00045ZM12.8551 12.1479L12.5015 12.5015L12.5016 12.5015L12.8551 12.1479ZM12.8551 12.855L12.5016 12.5015L12.5015 12.5015L12.8551 12.855ZM12.148 12.855L12.5016 12.5015L12.5015 12.5015L12.148 12.855ZM7.00053 7.70756L7.35408 7.354L7.00053 7.00045L6.64698 7.354L7.00053 7.70756ZM6.29342 7.00045L6.64698 7.354L7.00053 7.00045L6.64698 6.6469L6.29342 7.00045ZM1.14702 1.85404L0.793463 2.2076H0.793463L1.14702 1.85404ZM1.14702 1.14694L1.50057 1.50049L1.50057 1.50049L1.14702 1.14694ZM1.85412 1.14694L2.20768 0.793383V0.793383L1.85412 1.14694ZM7.00053 6.29334L6.64698 6.6469L7.00053 7.00045L7.35408 6.6469L7.00053 6.29334ZM13.2081 0.792893C12.8176 0.402369 12.1844 0.402369 11.7939 0.792893L12.501 1.5H12.501L13.2081 0.792893ZM13.2081 2.20711C13.5986 1.81658 13.5986 1.18342 13.2081 0.792893L12.501 1.5V1.5L13.2081 2.20711ZM8.06119 7.354L13.2081 2.20711L12.501 1.5L7.35408 6.6469L8.06119 7.354ZM7.35408 7.354L12.5015 12.5015L13.2087 11.7944L8.06119 6.6469L7.35408 7.354ZM12.5016 12.5015V12.5015L13.2087 13.2086C13.5992 12.8181 13.5992 12.1849 13.2087 11.7944L12.5016 12.5015ZM12.5015 12.5015H12.5016L11.7944 13.2086C12.185 13.5991 12.8181 13.5991 13.2087 13.2086L12.5015 12.5015ZM12.5015 12.5015L7.35408 7.354L6.64698 8.06111L11.7944 13.2086L12.5015 12.5015ZM2.20711 13.2081L7.35408 8.06111L6.64698 7.354L1.5 12.501L2.20711 13.2081ZM0.792893 13.2081C1.18342 13.5986 1.81658 13.5986 2.20711 13.2081L1.5 12.501H1.5L0.792893 13.2081ZM0.792893 11.7939C0.402369 12.1844 0.402369 12.8176 0.792893 13.2081L1.5 12.501V12.501L0.792893 11.7939ZM5.93987 6.6469L0.792893 11.7939L1.5 12.501L6.64698 7.354L5.93987 6.6469ZM6.64698 6.6469L1.50057 1.50049L0.793463 2.2076L5.93987 7.354L6.64698 6.6469ZM1.50057 1.50049H1.50057L0.793463 0.793383C0.402939 1.18391 0.402939 1.81707 0.793463 2.2076L1.50057 1.50049ZM1.50057 1.50049V1.50049L2.20768 0.793383C1.81715 0.402859 1.18399 0.402859 0.793463 0.793383L1.50057 1.50049ZM1.50057 1.50049L6.64698 6.6469L7.35408 5.93979L2.20768 0.793383L1.50057 1.50049ZM11.7939 0.792893L6.64698 5.93979L7.35408 6.6469L12.501 1.5L11.7939 0.792893Z" fill="#005CA9"/>
</svg>
