<svg width="15" height="15" viewBox="0 0 15 15" fill="none" xmlns="http://www.w3.org/2000/svg">
<path d="M7.5 0C3.35484 0 0 3.3544 0 7.5C0 11.6452 3.3544 15 7.5 15C11.6452 15 15 11.6456 15 7.5C15 3.35484 11.6456 0 7.5 0ZM7.5 14C3.91591 14 0.99999 11.0841 0.99999 7.5C0.99999 3.91588 3.91591 0.99999 7.5 0.99999C11.0841 0.99999 14 3.91591 14 7.5C14 11.0841 11.0841 14 7.5 14Z" fill="#005CA9"/>
<path d="M6.68283 9.19377V8.87385C6.68283 8.50727 6.74948 8.20234 6.88278 7.95906C7.01608 7.71579 7.24936 7.46418 7.58262 7.20424C7.97919 6.89098 8.23413 6.64771 8.34744 6.47442C8.46407 6.30112 8.52239 6.0945 8.52239 5.85456C8.52239 5.57463 8.42908 5.35968 8.24246 5.20971C8.05584 5.05975 7.78757 4.98477 7.43765 4.98477C7.12106 4.98477 6.82779 5.02976 6.55786 5.11974C6.28792 5.20971 6.02465 5.31802 5.76805 5.44466L5.34814 4.56487C6.02465 4.18829 6.74948 4 7.52263 4C8.17581 4 8.69402 4.15996 9.07726 4.47989C9.46051 4.79981 9.65213 5.24137 9.65213 5.80457C9.65213 6.05451 9.61547 6.27779 9.54215 6.47442C9.46884 6.6677 9.3572 6.85266 9.20723 7.02928C9.0606 7.20591 8.80566 7.43585 8.44241 7.71912C8.13249 7.9624 7.9242 8.16402 7.81756 8.32398C7.71425 8.48394 7.6626 8.69889 7.6626 8.96883V9.19377H6.68283ZM6.47788 10.7884C6.47788 10.2852 6.72282 10.0336 7.2127 10.0336C7.45265 10.0336 7.63594 10.1002 7.76257 10.2335C7.88921 10.3635 7.95253 10.5485 7.95253 10.7884C7.95253 11.025 7.88754 11.2133 7.75757 11.3533C7.63094 11.4899 7.44931 11.5582 7.2127 11.5582C6.97609 11.5582 6.79447 11.4916 6.66783 11.3583C6.5412 11.2216 6.47788 11.0317 6.47788 10.7884Z" fill="#005CA9"/>
</svg>
