<svg width="20" height="20" viewBox="0 0 20 20" fill="none" xmlns="http://www.w3.org/2000/svg">
<path fill-rule="evenodd" clip-rule="evenodd" d="M19.316 5.41238L14.2207 0.117891C14.1482 0.0425781 14.0481 0 13.9436 0H6.34943C5.49955 0 4.80811 0.691172 4.80811 1.5407V6.92309H5.57732V1.5407C5.57732 1.11527 5.92369 0.769219 6.34943 0.769219H13.2696V5.76922C13.2696 5.98164 13.4419 6.15383 13.6542 6.15383H18.6542V18.4629C18.6542 18.8863 18.3079 19.2308 17.8821 19.2308H6.34943C5.92369 19.2308 5.57732 18.8859 5.57732 18.462V16H4.80811V18.462C4.80811 19.31 5.49955 20 6.34943 20H17.8822C18.732 20 19.4235 19.3104 19.4235 18.4629V5.6791C19.4235 5.57965 19.3849 5.48406 19.316 5.41238ZM18.2217 5.38461L14.0389 1.03832V5.38461H18.2217Z" fill="#0079E9"/>
<path d="M4.69718 9.56446C4.49535 9.31321 4.24482 9.15004 3.94564 9.07502C3.75092 9.02501 3.33301 9 2.69187 9H1V14H2.0543V12.1139H2.74175C3.21905 12.1139 3.58355 12.09 3.83525 12.0423C4.02047 12.0036 4.20272 11.9246 4.382 11.8052C4.56129 11.6858 4.70909 11.5215 4.82547 11.3124C4.94184 11.1032 5 10.8451 5 10.5382C4.99994 10.1403 4.899 9.81571 4.69718 9.56446ZM3.79426 10.9407C3.71474 11.0521 3.60491 11.1339 3.46476 11.1862C3.32462 11.2386 3.04686 11.2647 2.6313 11.2647H2.0543V9.84586H2.56364C2.94357 9.84586 3.19645 9.85721 3.32227 9.87997C3.49322 9.90953 3.63454 9.98342 3.7461 10.1017C3.85772 10.2199 3.91354 10.37 3.91354 10.5518C3.9136 10.6996 3.87378 10.8292 3.79426 10.9407Z" fill="#0079E9"/>
<path d="M10.172 10.366C10.0629 10.0465 9.90371 9.77651 9.69455 9.55594C9.48539 9.33538 9.23408 9.18191 8.94079 9.09548C8.72253 9.03181 8.4053 9 7.98923 9H6.14404V14H8.0438C8.41671 14 8.71455 13.9648 8.93736 13.8942C9.23526 13.7988 9.47173 13.6657 9.64678 13.4952C9.8787 13.2701 10.0572 12.9757 10.1823 12.6119C10.2846 12.314 10.3357 11.9593 10.3357 11.5477C10.3357 11.0793 10.2812 10.6854 10.172 10.366ZM9.18974 12.4192C9.12152 12.6432 9.03343 12.804 8.92542 12.9018C8.81741 12.9996 8.68156 13.0689 8.51786 13.1098C8.39283 13.1417 8.18929 13.1576 7.90735 13.1576H7.1536V9.84586H7.60721C8.01873 9.84586 8.29505 9.86176 8.43599 9.89362C8.62469 9.93453 8.78047 10.013 8.90325 10.129C9.02604 10.245 9.12152 10.4064 9.18974 10.6133C9.25796 10.8202 9.29207 11.1169 9.29207 11.5035C9.29207 11.89 9.25796 12.1952 9.18974 12.4192Z" fill="#0079E9"/>
<path d="M14.6274 9.84586V9H11.1997V14H12.2093V11.8752H14.2966V11.0293H12.2093V9.84586H14.6274Z" fill="#0079E9"/>
</svg>
