<svg width="70" height="70" viewBox="0 0 70 70" fill="none" xmlns="http://www.w3.org/2000/svg">
<mask id="mask0" mask-type="alpha" maskUnits="userSpaceOnUse" x="0" y="0" width="70" height="70">
<circle cx="35" cy="35" r="35" fill="#C4C4C4"/>
</mask>
<g mask="url(#mask0)">
<circle cx="35" cy="35" r="35" fill="#F2F5F9"/>
<path fill-rule="evenodd" clip-rule="evenodd" d="M42.7295 45.9424V49.6484C56.9098 57.871 64 53.8176 64 72H35.2906H35.0581H6C6 53.0069 13.0902 57.871 27.2705 49.6484V46.4057C24.7134 44.5527 24.2485 41.6574 23.3186 38.183C22.8537 38.183 22.6212 37.7198 22.6212 37.0249C22.6212 36.7933 22.6212 36.7933 22.6212 36.5617C22.3888 36.3301 22.1563 35.6352 21.9238 34.9403C21.6914 34.0138 20.5291 31.6976 21.4589 31.0027C22.1563 30.3079 22.6212 31.0027 22.6212 31.0027C21.6914 25.5596 20.2966 18.4951 27.6192 16.4105C27.6192 11.8938 45.2866 13.8626 47.3788 21.1587C48.3086 24.1698 47.1463 31.0027 47.1463 31.0027C47.3788 30.3079 47.8437 30.3079 48.0762 30.5395C49.006 31.2343 48.0762 34.0138 47.8437 34.8245C47.6112 35.751 47.3788 36.2142 47.1463 36.6775V36.9091C47.1463 37.3724 46.6814 38.0672 46.4489 38.0672C45.6353 41.1941 44.9379 44.4369 42.7295 45.9424Z" fill="#9CB8D0"/>
</g>
</svg>
