<svg width="14" height="14" viewBox="0 0 14 14" fill="none" xmlns="http://www.w3.org/2000/svg">
<path d="M13.8289 13.0048L9.84773 9.02363C10.6189 8.07106 11.0832 6.86065 11.0832 5.54234C11.0832 2.48687 8.59706 0.000717163 5.54159 0.000717163C2.48612 0.000717163 0 2.48684 0 5.54231C0 8.59778 2.48615 11.0839 5.54162 11.0839C6.85993 11.0839 8.07035 10.6196 9.02291 9.84845L13.0041 13.8297C13.1179 13.9434 13.2672 14.0006 13.4165 14.0006C13.5659 14.0006 13.7152 13.9434 13.829 13.8297C14.057 13.6016 14.057 13.2329 13.8289 13.0048ZM5.54162 9.91727C3.12897 9.91727 1.16666 7.95496 1.16666 5.54231C1.16666 3.12966 3.12897 1.16735 5.54162 1.16735C7.95427 1.16735 9.91658 3.12966 9.91658 5.54231C9.91658 7.95496 7.95425 9.91727 5.54162 9.91727Z" fill="#005CA9"/>
</svg>
