<svg width="19" height="20" viewBox="0 0 19 20" fill="none" xmlns="http://www.w3.org/2000/svg">
<g clip-path="url(#clip0)">
<path fill-rule="evenodd" clip-rule="evenodd" d="M18.7388 5.41238L13.6436 0.117891C13.571 0.0425781 13.471 0 13.3664 0H5.77228C4.9224 0 4.23096 0.691172 4.23096 1.5407V6.92309H5.00018V1.5407C5.00018 1.11527 5.34654 0.769219 5.77228 0.769219H12.6925V5.76922C12.6925 5.98164 12.8647 6.15383 13.0771 6.15383H18.0771V18.4629C18.0771 18.8863 17.7307 19.2308 17.305 19.2308H5.77228C5.34654 19.2308 5.00018 18.8859 5.00018 18.462V15H4.23096V18.462C4.23096 19.31 4.9224 20 5.77228 20H17.305C18.1549 20 18.8463 19.3104 18.8463 18.4629V5.6791C18.8463 5.57965 18.8078 5.48406 18.7388 5.41238ZM17.6445 5.38461L13.4617 1.03832V5.38461H17.6445Z" fill="#25C8BE"/>
<path d="M3.76188 12.5239C3.76188 13.0038 3.58857 13.3819 3.24196 13.6582C2.89777 13.9346 2.41784 14.0727 1.80218 14.0727C1.23499 14.0727 0.733245 13.9661 0.296947 13.7528V12.7056C0.655681 12.8656 0.958666 12.9783 1.2059 13.0438C1.45556 13.1092 1.68341 13.1419 1.88943 13.1419C2.13667 13.1419 2.32573 13.0947 2.45662 13.0002C2.58994 12.9056 2.65659 12.765 2.65659 12.5784C2.65659 12.4742 2.62751 12.3821 2.56933 12.3021C2.51116 12.2197 2.42511 12.1409 2.31119 12.0657C2.19969 11.9906 1.97063 11.8706 1.62402 11.7058C1.29922 11.5531 1.05562 11.4065 0.893221 11.2659C0.730821 11.1253 0.601144 10.9617 0.504189 10.775C0.407233 10.5884 0.358756 10.3702 0.358756 10.1206C0.358756 9.65035 0.51752 9.28071 0.835048 9.01166C1.155 8.74261 1.59615 8.60808 2.15849 8.60808C2.43481 8.60808 2.6978 8.64081 2.94746 8.70625C3.19954 8.77169 3.46253 8.8638 3.73643 8.98257L3.37285 9.8588C3.08925 9.74246 2.85414 9.66126 2.6675 9.6152C2.48329 9.56915 2.30149 9.54612 2.12213 9.54612C1.90883 9.54612 1.74521 9.59581 1.63129 9.69519C1.51737 9.79457 1.46041 9.92425 1.46041 10.0842C1.46041 10.1836 1.48344 10.2709 1.52949 10.346C1.57554 10.4187 1.64826 10.4902 1.74764 10.5605C1.84944 10.6284 2.08819 10.752 2.46389 10.9314C2.96079 11.1689 3.30134 11.4077 3.48556 11.6476C3.66977 11.8852 3.76188 12.1772 3.76188 12.5239ZM6.77597 14H5.64887V9.62248H4.20545V8.68444H8.21939V9.62248H6.77597V14ZM10.1646 11.1859H10.5354C10.882 11.1859 11.1414 11.118 11.3135 10.9823C11.4856 10.8441 11.5716 10.6441 11.5716 10.3824C11.5716 10.1182 11.4989 9.92304 11.3535 9.797C11.2105 9.67095 10.985 9.60793 10.6772 9.60793H10.1646V11.1859ZM12.7096 10.3424C12.7096 10.9144 12.5303 11.3519 12.1715 11.6549C11.8152 11.9579 11.3074 12.1094 10.6481 12.1094H10.1646V14H9.03745V8.68444H10.7354C11.3801 8.68444 11.8698 8.82381 12.2042 9.10255C12.5412 9.37888 12.7096 9.79215 12.7096 10.3424Z" fill="#25C8BE"/>
</g>
<defs>
<clipPath id="clip0">
<rect width="18.8462" height="20" fill="white"/>
</clipPath>
</defs>
</svg>
