<svg width="234" height="50" viewBox="0 0 234 50" fill="none" xmlns="http://www.w3.org/2000/svg">
<g clip-path="url(#clip0_592_426)">
<path d="M34.1628 22.3712C34.1628 22.3712 45.0868 16.1459 37.3271 4.92058C37.3271 4.92058 33.4574 -0.771116 16.7287 0.0786868C0 0.948252 0 0.948252 0 0.948252C0 1.81782 0 46.3633 0 46.3633C0 46.3633 36.9845 52.055 41.9225 39.1103C46.8605 26.1656 34.1628 22.3712 34.1628 22.3712ZM16.3659 10.0392C16.3659 10.0392 26.7659 8.41861 26.7054 14.3475C26.645 19.6834 16.3659 18.4779 16.3659 18.4779C16.3659 18.4779 16.386 15.7309 16.3659 10.0392ZM16.5473 39.3079C16.5473 39.3079 16.3457 34.802 16.3457 29.466C16.3457 29.466 28.1969 27.6281 28.1163 34.387C28.0558 40.4739 16.5473 39.3079 16.5473 39.3079Z" fill="white"/>
<path d="M50.8524 3.16114C50.8524 3.16114 52.0818 14.0307 54.1981 14.5643C56.3144 15.0979 73.7485 8.1809 74.0911 18.1809C74.0911 18.1809 45.0276 14.9596 48.5547 35.6513C52.0818 56.343 87.8369 45.8094 87.8369 45.8094C87.8369 45.8094 87.6555 15.4141 87.8369 14.9003C88.0183 14.3864 85.7408 -6.52266 50.8524 3.16114ZM73.7687 37.7264C73.7687 37.7264 62.2601 38.8924 62.1795 32.8054C62.0989 26.0465 73.9501 27.8845 73.9501 27.8845C73.9501 33.2204 73.7687 37.7264 73.7687 37.7264Z" fill="white"/>
<path d="M96.5246 46.7781C95.3355 46.4223 96.5246 3.26028 96.5246 3.26028C96.5246 3.26028 100.939 2.39071 104.446 1.87688C109.283 1.16542 114.322 0.868975 117.627 0.750398C121.658 0.612058 125.709 1.26423 129.337 2.9836C133.388 4.9006 137.56 8.3591 138.104 14.4856C139.152 26.7385 138.104 46.7781 138.104 46.7781C138.104 46.7781 127.543 50.4935 123.129 46.1654C122.504 45.533 122.726 17.7662 122.726 17.7662C122.726 17.7662 122.142 12.4698 112.387 14.3077L112.145 46.8966C112.145 46.8966 106.985 49.8808 96.5246 46.7781Z" fill="white"/>
<path d="M145.671 2.43047C145.198 2.56425 145.671 47.1889 145.671 47.1889C145.671 47.1889 156.887 49.9982 160.996 47.1889C161.592 46.7876 161.037 2.9847 161.037 2.9847C161.037 2.9847 154.052 0.194462 145.671 2.43047Z" fill="white"/>
<path d="M173.873 2.56051C173.149 2.75369 162.852 24.2734 162.852 24.2734L174.799 47.3385C174.799 47.3385 184.292 49.8112 191.311 47.3385L179.706 24.4859L190.165 3.23662C190.165 3.23662 183.487 -0.0280384 173.873 2.56051Z" fill="#1D7CCB"/>
<path d="M233.659 28.8138C233.901 28.2407 237.771 -0.198072 212.053 0.612205C186.335 1.42248 191.031 30.6517 191.394 31.126C191.736 31.5806 195.143 56.3434 231.079 45.0588C231.079 45.0588 232.369 37.5292 228.036 33.3197C228.036 33.3197 207.377 39.1893 205.845 28.8335C205.724 28.0035 233.417 29.3869 233.659 28.8138ZM205.14 19.6636C205.14 19.6636 203.527 12.6873 213.06 12.9047C221.646 13.1023 219.571 19.9205 219.571 19.9205C219.571 19.9205 214.29 19.8019 205.14 19.6636Z" fill="white"/>
</g>
<defs>
<clipPath id="clip0_592_426">
<rect width="234" height="50" fill="white"/>
</clipPath>
</defs>
</svg>
