<?xml version="1.0" encoding="UTF-8"?> <svg xmlns="http://www.w3.org/2000/svg" width="52" height="52" viewBox="0 0 52 52" fill="none"><path fill-rule="evenodd" clip-rule="evenodd" d="M6.84682 0.981079C5.23603 0.981079 3.92467 2.29231 3.92467 3.90281V12.8497C3.92467 14.4602 5.23601 15.7715 6.84696 15.7715H8.91582C10.5261 15.7715 11.8373 14.4604 11.8373 12.8497V9.03852H21.62L21.7332 9.48138C22.1357 11.0556 23.3791 12.2989 24.9535 12.7014L25.3964 12.8146V37.0509L24.9911 37.1838C23.6162 37.6345 22.6222 38.9293 22.6222 40.4493V43.746H11.8373V39.9348C11.8373 38.3242 10.5261 37.013 8.91582 37.013H6.84682C5.23587 37.013 3.92453 38.3243 3.92453 39.9348V48.8817C3.92453 50.4922 5.23587 51.8034 6.84682 51.8034H8.91568C10.5259 51.8034 11.8371 50.4923 11.8371 48.8817V45.0705H22.6221V48.3673C22.6221 50.2613 24.1642 51.8033 26.0585 51.8033C27.9525 51.8033 29.4944 50.2614 29.4944 48.3673V45.0705H40.2791V48.8817C40.2791 50.4922 41.5904 51.8034 43.2011 51.8034H45.27C46.8806 51.8034 48.1917 50.4923 48.1917 48.8817V39.9348C48.1917 38.3242 46.8806 37.013 45.27 37.013H43.2011C41.5904 37.013 40.2791 38.3242 40.2791 39.9348V43.746H29.4944V40.4493C29.4944 38.9296 28.5007 37.6348 27.1261 37.184L26.7208 37.0511V12.8148L27.1637 12.7016C28.7379 12.2991 29.9813 11.0556 30.3837 9.48151L30.497 9.03866H40.2791V12.8499C40.2792 14.4603 41.5905 15.7715 43.2013 15.7715H45.2701C46.8807 15.7715 48.1919 14.4603 48.1919 12.8497V3.90281C48.1919 2.29224 46.8807 0.981079 45.2701 0.981079H43.2013C41.5905 0.981079 40.2792 2.29228 40.2792 3.90281V7.71404H30.4971L30.3839 7.27118C29.8907 5.34201 28.137 3.91242 26.0587 3.91242C23.9802 3.91242 22.2264 5.34204 21.7332 7.27118L21.62 7.71404H11.8373V3.90281C11.8373 2.29221 10.5261 0.981079 8.91582 0.981079H6.84682ZM10.5125 12.2611V3.90281C10.5125 3.02191 9.797 2.3057 8.91568 2.3057H6.84682C5.96555 2.3057 5.24915 3.02144 5.24915 3.90281V12.8497C5.24915 13.7312 5.96575 14.4469 6.84682 14.4469H8.91582C9.79714 14.4469 10.5127 13.7307 10.5127 12.8497L10.5125 12.2611ZM41.6039 3.90281C41.6039 3.0216 42.32 2.3057 43.2013 2.3057H45.2701C46.1512 2.3057 46.8672 3.0217 46.8672 3.90281V12.8497C46.8672 13.7308 46.1514 14.4469 45.2701 14.4469H43.2013C42.3202 14.4469 41.6039 13.731 41.6039 12.8497V3.90281ZM22.9192 8.37635C22.9192 6.6448 24.3271 5.23704 26.0588 5.23704C27.7903 5.23704 29.198 6.64472 29.198 8.37635C29.1978 10.0723 27.8474 11.4526 26.1676 11.5107L26.1365 11.5118L26.084 11.5081L26.0692 11.5071C26.0687 11.5071 26.0758 11.5087 26.0888 11.5116C26.1518 11.5258 26.3536 11.5702 26.5111 11.6049L26.5113 11.6049C26.776 11.6632 26.9154 11.6939 26.0587 11.5066C24.5866 11.1848 24.219 10.9079 23.6054 10.3293C22.9919 9.75059 22.9192 8.37635 22.9192 8.37635ZM23.9468 40.4493C23.9468 39.2844 24.8938 38.3378 26.0587 38.3378C27.2235 38.3378 28.1699 39.2846 28.1699 40.4493V48.3675C28.1699 49.5323 27.2234 50.479 26.0587 50.479C24.8939 50.479 23.9468 49.5324 23.9468 48.3675V40.4493ZM41.6039 39.9349C41.6039 39.0537 42.32 38.3378 43.2013 38.3378H45.2701C46.1512 38.3378 46.8672 39.0538 46.8672 39.9349V48.8818C46.8672 49.7629 46.1514 50.479 45.2701 50.479H43.2013C42.3202 50.479 41.6039 49.7631 41.6039 48.8818V39.9349ZM10.5125 48.2933V39.935C10.5125 39.0541 9.797 38.3379 8.91568 38.3379H6.84682C5.96555 38.3379 5.24915 39.0537 5.24915 39.935V48.882C5.24915 49.7634 5.96575 50.4791 6.84682 50.4791H8.91582C9.79714 50.4791 10.5127 49.7629 10.5127 48.882L10.5125 48.2933Z" fill="#005CA9"></path></svg> 