<?xml version="1.0" encoding="UTF-8"?> <svg xmlns="http://www.w3.org/2000/svg" width="54" height="54" viewBox="0 0 54 54" fill="none"><path fill-rule="evenodd" clip-rule="evenodd" d="M11.5913 37.0669H11.5897C11.6006 37.1093 11.6116 37.1517 11.6227 37.1941L11.5913 37.0669ZM11.4141 30.9033C11.4141 30.9033 11.4141 30.9034 11.4141 30.9035L11.4139 30.9035M25.797 4.66826C25.797 2.96705 27.1817 1.58228 28.883 1.58228H36.4768C38.178 1.58228 39.5628 2.96705 39.5628 4.66826C39.5628 6.11163 38.5651 7.32858 37.2216 7.66283L36.8423 7.75719V11.2291L37.234 11.316C40.965 12.1437 44.5101 14.0049 47.4073 16.902C50.7972 20.292 52.9249 24.7822 53.3983 29.5438C53.8652 34.2403 52.7142 38.9948 50.1593 42.9295C49.9925 43.1863 49.6492 43.2595 49.392 43.0926C49.1352 42.9258 49.0621 42.5822 49.2289 42.3253C54.2562 34.5834 53.1596 24.2236 46.6228 17.6867C38.943 10.0071 26.4485 10.0071 18.769 17.6867C11.0893 25.3664 11.0893 37.8609 18.769 45.5406C25.3144 52.086 35.6832 53.1766 43.4288 48.1328C43.6855 47.9656 44.0291 48.0382 44.1964 48.2949C44.3635 48.5516 44.2909 48.8953 44.0342 49.0625C40.6686 51.2542 36.7003 52.4178 32.6802 52.4178C32.0002 52.4178 31.3193 52.3845 30.639 52.3174C25.8725 51.8465 21.3777 49.7182 17.9845 46.325C15.8359 44.1764 14.2573 41.6717 13.2471 38.9995L13.1249 38.6763H5.27351C4.96722 38.6763 4.71882 38.4279 4.71882 38.1216C4.71882 37.8152 4.96722 37.5669 5.27351 37.5669H12.7549L12.5899 36.9397C12.248 35.6401 12.0336 34.3138 11.9467 32.9804L11.9162 32.5129H6.7501C6.4438 32.5129 6.1954 32.2645 6.1954 31.9582C6.1954 31.6519 6.4438 31.4035 6.7501 31.4035H11.8978L11.9138 30.92C11.9578 29.5899 12.1282 28.2637 12.4251 26.9606L12.5643 26.3495H1.0547C0.748403 26.3495 0.5 26.1012 0.5 25.7948C0.5 25.4885 0.748403 25.2401 1.0547 25.2401H12.892L13.0071 24.9007C13.4706 23.534 14.0794 22.2066 14.8343 20.9427L15.2861 20.1863H8.2443C7.938 20.1863 7.6896 19.9379 7.6896 19.6316C7.6896 19.3252 7.938 19.0769 8.2443 19.0769H15.7602C15.7653 19.0769 15.7731 19.0772 15.8024 19.0794L16.0708 19.0998L16.2355 18.887C16.7691 18.1978 17.3521 17.5345 17.9845 16.9021C20.8734 14.0132 24.4069 12.1545 28.1264 11.3233L28.5174 11.2359V7.75722L28.1381 7.66284C26.7947 7.32849 25.797 6.11152 25.797 4.66826ZM28.883 2.69177C27.7926 2.69177 26.9064 3.57799 26.9064 4.66837C26.9064 5.75862 27.7926 6.64496 28.883 6.64496H36.4768C37.5672 6.64496 38.4534 5.75874 38.4534 4.66837C38.4534 3.57799 37.5672 2.69177 36.4768 2.69177H28.883ZM35.7329 7.75435H29.6268V11.0366L30.1866 10.9691C31.8423 10.7697 33.5178 10.7685 35.1739 10.9654L35.7329 11.0319V7.75435Z" fill="#005CA9"></path><path fill-rule="evenodd" clip-rule="evenodd" d="M46.6236 45.5402C46.7261 45.4376 46.8701 45.3777 47.0155 45.3777C47.159 45.3777 47.3036 45.4371 47.4081 45.5408C47.5103 45.6432 47.5702 45.7879 47.5702 45.9324C47.5702 46.077 47.5101 46.2219 47.4076 46.3245C47.3043 46.4278 47.1605 46.487 47.0155 46.487C46.869 46.487 46.7259 46.4274 46.6245 46.3255L46.6245 46.3255L46.6225 46.3235C46.5206 46.2221 46.4608 46.078 46.4608 45.9324C46.4608 45.7868 46.5206 45.6426 46.6225 45.5412L46.6225 45.5412L46.6236 45.5402Z" fill="#005CA9"></path><path fill-rule="evenodd" clip-rule="evenodd" d="M34.2434 29.2813L39.7209 23.8039C39.9378 23.5871 40.2889 23.5873 40.5055 23.8038C40.722 24.0204 40.722 24.3717 40.5054 24.5883L35.028 30.0657L35.187 30.3873C35.3699 30.7573 35.4732 31.173 35.4732 31.6133C35.4732 33.1443 34.2269 34.3907 32.6958 34.3907C31.1647 34.3907 29.9184 33.1443 29.9184 31.6133C29.9184 31.173 30.0216 30.7573 30.2046 30.3874L30.3637 30.0658L27.7721 27.4741C27.5555 27.2575 27.5555 26.9063 27.7721 26.6897C27.9889 26.473 28.34 26.4732 28.5567 26.6897L31.1482 29.2813L31.4698 29.1223C31.8398 28.9393 32.2554 28.8361 32.6958 28.8361C33.1361 28.8361 33.5519 28.9393 33.9219 29.1223L34.2434 29.2813ZM32.6958 29.9455C31.7757 29.9455 31.0278 30.6933 31.0278 31.6134C31.0278 32.5336 31.7757 33.2814 32.6958 33.2814C33.616 33.2814 34.3638 32.5336 34.3638 31.6134C34.3638 30.6933 33.616 29.9455 32.6958 29.9455Z" fill="#005CA9"></path><path fill-rule="evenodd" clip-rule="evenodd" d="M42.4408 31.6262C42.4408 31.3199 42.6892 31.0715 42.9955 31.0715H43.9726C44.2789 31.0715 44.5273 31.3199 44.5273 31.6262C44.5273 31.9325 44.2789 32.1809 43.9726 32.1809H42.9955C42.6892 32.1809 42.4408 31.9325 42.4408 31.6262Z" fill="#005CA9"></path><path fill-rule="evenodd" clip-rule="evenodd" d="M20.8644 31.6006C20.8644 31.2943 21.1128 31.0459 21.4191 31.0459H22.3961C22.7024 31.0459 22.9508 31.2943 22.9508 31.6006C22.9508 31.9069 22.7024 32.1553 22.3961 32.1553H21.4191C21.1128 32.1553 20.8644 31.9069 20.8644 31.6006Z" fill="#005CA9"></path><path fill-rule="evenodd" clip-rule="evenodd" d="M32.1541 20.3367C32.1541 20.0303 32.4024 19.782 32.7087 19.782C33.015 19.782 33.2634 20.0303 33.2634 20.3367V21.3137C33.2634 21.62 33.015 21.8684 32.7087 21.8684C32.4024 21.8684 32.1541 21.62 32.1541 21.3137V20.3367Z" fill="#005CA9"></path><path fill-rule="evenodd" clip-rule="evenodd" d="M32.1283 41.9131C32.1283 41.6068 32.3767 41.3584 32.683 41.3584C32.9893 41.3584 33.2377 41.6068 33.2377 41.9131V42.8901C33.2377 43.1965 32.9893 43.4448 32.683 43.4448C32.3767 43.4448 32.1283 43.1965 32.1283 42.8901V41.9131Z" fill="#005CA9"></path></svg> 