<?xml version="1.0" encoding="UTF-8"?> <svg xmlns="http://www.w3.org/2000/svg" width="52" height="52" viewBox="0 0 52 52" fill="none"><g clip-path="url(#clip0)"><path d="M49.325 19.9708L44.8516 19.5396C44.377 17.6351 43.6106 15.8153 42.5803 14.1444L45.4317 10.7022C45.7118 10.3644 45.6885 9.8694 45.3786 9.55946L40.5402 4.7206C40.2302 4.41065 39.7352 4.38783 39.3975 4.66749L35.9528 7.51968C34.2789 6.49689 32.4612 5.73094 30.56 5.24756L30.1285 0.768026C30.0865 0.332355 29.7202 0 29.2824 0H22.6698C22.232 0 21.8661 0.332355 21.8242 0.768026L21.3922 5.24756C19.491 5.73053 17.6732 6.49689 15.9994 7.51968L12.5547 4.66666C12.2174 4.387 11.7224 4.40982 11.412 4.71977L6.57359 9.55904C6.26365 9.8694 6.24041 10.3644 6.52048 10.7022L9.37102 14.144C8.33993 15.8149 7.57315 17.6351 7.09806 19.5401L2.62725 19.9716C2.1924 20.0139 1.86171 20.3803 1.86378 20.8172V27.6767C1.86129 28.1132 2.19199 28.48 2.62683 28.5224L7.10304 28.9539C7.5856 30.8546 8.35113 32.6728 9.37351 34.3467L6.52007 37.7909C6.22755 38.144 6.26779 38.6656 6.61135 38.9697L10.2814 42.2157C10.4627 42.3763 10.7042 42.4518 10.9452 42.4232C11.1859 42.3941 11.4029 42.2638 11.5415 42.0651L16.816 34.4969C17.0513 34.1591 17.0106 33.701 16.7193 33.4098C11.6589 28.3493 11.6585 20.1442 16.7193 15.0834C21.7802 10.0225 29.9853 10.0225 35.0461 15.0834C40.107 20.1442 40.107 28.3493 35.0461 33.4098C34.7511 33.7048 34.7138 34.1699 34.9578 34.5081L40.4178 42.0759C40.558 42.2705 40.7742 42.3966 41.0128 42.4232C41.2513 42.4497 41.4899 42.3742 41.6696 42.2153L45.3408 38.9706C45.6844 38.6669 45.7251 38.1449 45.4321 37.7914L42.5795 34.3467C43.6023 32.6728 44.3683 30.8551 44.8512 28.9539L49.325 28.5224C49.7598 28.48 50.0905 28.1132 50.088 27.6767V20.8164C50.0901 20.3799 49.7598 20.0131 49.325 19.9708ZM48.3885 26.9046L44.0786 27.3203C43.7127 27.3556 43.4114 27.6232 43.333 27.9825C42.8646 30.1074 42.0127 32.1289 40.8198 33.9487C40.6157 34.2608 40.6389 34.6695 40.8767 34.9562L43.5986 38.242L41.2472 40.3207L36.7486 34.0853C41.9575 28.339 41.7907 19.4243 36.2478 13.8813C30.5326 8.16614 21.2329 8.16614 15.5177 13.8813C9.97183 19.4272 9.80793 28.3485 15.0248 34.094L10.6926 40.3104L8.35321 38.2416L11.0747 34.9558C11.3124 34.6682 11.3353 34.2599 11.1311 33.9479C9.9378 32.1285 9.08555 30.107 8.61585 27.9825C8.53868 27.6236 8.23827 27.356 7.87314 27.3203L3.56332 26.9046V21.589L7.87314 21.1728C8.24076 21.1371 8.54283 20.8678 8.61959 20.5064C9.07684 18.3812 9.92868 16.3609 11.1303 14.5493C11.3369 14.2369 11.3145 13.8261 11.0755 13.5378L8.3225 10.2138L12.0668 6.46909L15.3907 9.22171C15.6779 9.45987 16.0866 9.48269 16.3982 9.27814C18.2176 8.08481 20.2391 7.23256 22.3636 6.76328C22.7233 6.68361 22.9905 6.38155 23.0258 6.01517L23.4415 1.69995H28.5107L28.9268 6.01517C28.9621 6.38155 29.2293 6.68361 29.5886 6.76328C31.7135 7.23256 33.735 8.08523 35.5544 9.27855C35.866 9.48311 36.2747 9.46029 36.5619 9.22212L39.8854 6.46951L43.6297 10.2138L40.8771 13.5378C40.6385 13.8261 40.6165 14.2369 40.8231 14.5489C42.0252 16.3605 42.877 18.3812 43.3347 20.5064C43.4102 20.8674 43.7114 21.1371 44.0782 21.1728L48.3885 21.5885V26.9046Z" fill="#005CA9" stroke="white" stroke-width="0.6"></path><path fill-rule="evenodd" clip-rule="evenodd" d="M29.0534 39.4901V26.4402C31.2197 25.1892 32.6419 22.8144 32.6419 20.367C32.6419 17.0228 30.7295 14.5872 27.5263 13.8523C27.2594 13.7911 26.9799 13.8603 26.7726 14.0387C26.5657 14.2174 26.4558 14.4839 26.4768 14.7567L26.7609 18.4039C26.0433 18.7803 25.1872 18.7807 24.4692 18.4047L24.7747 14.7374C24.7982 14.4554 24.6815 14.1801 24.4624 14.0009C24.2434 13.8217 23.9505 13.7617 23.6789 13.8406C20.7494 14.6891 18.9243 17.2087 18.9243 20.4169C18.9243 23.3616 20.4695 25.7436 23.0478 26.7759V39.7755C21.2215 40.8536 19.4619 43.0412 19.4896 45.8247C19.4896 49.1417 21.3805 51.5937 24.5422 52.3847C24.8107 52.4519 25.0949 52.386 25.3064 52.2076C25.5179 52.0293 25.6307 51.7603 25.6098 51.4846L25.3269 47.8378C26.0441 47.4614 26.9006 47.461 27.6186 47.8366L27.3131 51.5043C27.2896 51.7863 27.4063 52.0616 27.6253 52.2408C27.8444 52.42 28.1373 52.48 28.4088 52.4011C31.3242 51.5563 33.153 49.0493 33.1824 45.8491C33.1828 42.904 31.6175 40.5224 29.0534 39.4901ZM29.374 47.4689L29.1453 50.2172C30.5843 49.3364 31.4463 47.7539 31.4647 45.8415C31.4647 43.4646 30.1172 41.5766 27.9468 40.9211C27.5842 40.8116 27.3358 40.4775 27.3358 40.0986V25.9219C27.3358 25.59 27.5267 25.2878 27.8264 25.1456C29.6502 24.2794 30.9238 22.3146 30.9238 20.3674C30.9238 18.2784 29.98 16.7102 28.2922 15.9191L28.5146 18.7765C28.536 19.0543 28.4218 19.3254 28.2078 19.5038C28.2007 19.5097 28.1923 19.5164 28.1847 19.5223C26.6874 20.6876 24.5929 20.6998 23.0818 19.5516L23.0499 19.5273C22.8157 19.3498 22.689 19.0648 22.7133 18.7719L22.9412 16.0236C21.5005 16.9074 20.6461 18.4954 20.6461 20.4161C20.6461 22.801 21.9911 24.689 24.1611 25.3441C24.5229 25.4544 24.7692 25.7889 24.7671 26.167V40.2946C24.7692 40.6274 24.5783 40.9312 24.2774 41.073C22.7838 41.773 21.1917 43.5553 21.2139 45.8163C21.2139 47.8915 22.1392 49.4669 23.7939 50.2915L23.5745 47.4643C23.5522 47.1785 23.6739 46.9003 23.8988 46.7228C25.3966 45.5545 27.4932 45.5406 29.0064 46.6892L29.0387 46.714C29.2721 46.8919 29.3984 47.1764 29.374 47.4689Z" fill="#005CA9" stroke="white" stroke-width="0.6"></path></g><defs><clipPath id="clip0"><rect width="52" height="52" fill="white"></rect></clipPath></defs></svg> 