<?xml version="1.0" encoding="UTF-8"?> <svg xmlns="http://www.w3.org/2000/svg" width="53" height="55" viewBox="0 0 53 55" fill="none"><path fill-rule="evenodd" clip-rule="evenodd" d="M44.68 31.5599L52.6926 46.2343C53.1225 47.0234 53.1005 47.9786 52.6318 48.7465C52.1645 49.512 51.3285 49.971 50.437 49.971H34.25V54.0144L25.3129 47.4381L34.25 40.8617V44.9051H46.1423L40.1539 33.9401L44.68 31.5599ZM47.8278 45.9051H33.25V42.8391L27.0002 47.4381L33.25 52.037V48.971H50.437C50.9863 48.971 51.4959 48.688 51.7782 48.2255C52.0605 47.763 52.0747 47.1894 51.8153 46.7133L44.2742 32.9032L41.5185 34.3524L47.8278 45.9051Z" fill="#005CA9"></path><path fill-rule="evenodd" clip-rule="evenodd" d="M17.5278 33.8136L13.9492 31.9193L6.85775 44.9053H23.875V49.9712H2.56309C1.67163 49.9712 0.835522 49.5122 0.36831 48.7466C-0.100352 47.9787 -0.122853 47.0243 0.307146 46.2352L9.42987 29.5274L5.71919 27.5633L15.8708 22.9646L17.5278 33.8136ZM10.793 29.1175L1.18525 46.7136C0.925862 47.1897 0.939592 47.7631 1.2219 48.2257C1.5042 48.6882 2.01379 48.9712 2.56309 48.9712H22.875V45.9053H5.17228L13.5446 30.5737L16.2392 32.0001L15.0815 24.42L7.98857 27.6331L10.793 29.1175Z" fill="#005CA9"></path><path fill-rule="evenodd" clip-rule="evenodd" d="M31.8555 25.8928L35.4183 24.2663L26.9987 8.84725L19.577 22.444L15.0508 20.0638L24.7428 2.3127C25.1982 1.47826 26.0968 0.980337 27.0015 0.981692C27.9036 0.983048 28.7971 1.48044 29.2525 2.30809L29.254 2.31085L40.0814 22.1376L44.0212 20.339L41.712 31.0734L31.8555 25.8928ZM39.6499 23.4338L28.3764 2.79014C28.1029 2.29318 27.5515 1.98252 27 1.98169C26.4468 1.98086 25.8935 2.29152 25.6207 2.79159L16.4153 19.6515L19.171 21.1006L26.9985 6.76038L36.8108 24.7298L34.1251 25.956L41.0114 29.5755L42.6247 22.0758L39.6499 23.4338Z" fill="#005CA9"></path></svg> 