<?xml version="1.0" standalone="no"?>
<!DOCTYPE svg PUBLIC "-//W3C//DTD SVG 1.1//EN" "http://www.w3.org/Graphics/SVG/1.1/DTD/svg11.dtd" >
<svg xmlns="http://www.w3.org/2000/svg">
<metadata>Generated by IcoMoon</metadata>
<defs>
<font id="icomoon" horiz-adv-x="1024">
<font-face units-per-em="1024" ascent="960" descent="-64" />
<missing-glyph horiz-adv-x="1024" />
<glyph unicode="&#x20;" horiz-adv-x="512" d="" />
<glyph unicode="&#xe900;" glyph-name="prev" d="M249.888 468.416l483.072 483.040c11.36 11.36 29.6 11.36 40.992 0s11.36-29.6 0-40.992l-462.464-462.464 462.464-462.464c11.36-11.36 11.36-29.6 0-40.992-5.568-5.568-13.088-8.576-20.384-8.576s-14.816 2.784-20.384 8.576l-483.040 483.072c-11.36 11.168-11.36 29.6-0.224 40.768z" />
<glyph unicode="&#xe901;" glyph-name="next" d="M774.112 468.416l-483.040 483.040c-11.36 11.36-29.6 11.36-40.992 0s-11.36-29.6 0-40.992l462.464-462.464-462.464-462.464c-11.36-11.36-11.36-29.6 0-40.992 5.568-5.568 13.088-8.576 20.384-8.576s14.816 2.784 20.384 8.576l483.040 483.040c11.36 11.168 11.36 29.6 0.224 40.768z" />
<glyph unicode="&#xe902;" glyph-name="arrow-down" horiz-adv-x="1600" d="M803.2-25.6l-790.4 793.6 102.4 102.4 688-688 691.2 688 102.4-102.4z" />
<glyph unicode="&#xe903;" glyph-name="mobile" horiz-adv-x="1312" d="M1209.6 438.4h-297.6c-19.2 0-35.2 16-35.2 35.2v256c0 6.4 3.2 9.6 9.6 9.6s9.6-3.2 9.6-9.6v-256c0-6.4 6.4-12.8 12.8-12.8h297.6c6.4 0 9.6-3.2 9.6-9.6s0-12.8-6.4-12.8zM691.2 323.2c-3.2 0-6.4 0-6.4 3.2l-592 614.4c-3.2 3.2-6.4 6.4-3.2 12.8 0 3.2 6.4 6.4 9.6 6.4h128c9.6 0 19.2-6.4 28.8-12.8l515.2-476.8c3.2-3.2 3.2-9.6 0-16-3.2-3.2-9.6-3.2-16 0l-515.2 476.8c-3.2 3.2-9.6 6.4-12.8 6.4h-102.4l576-595.2c3.2-3.2 3.2-9.6 0-16-3.2 0-6.4-3.2-9.6-3.2zM102.4 614.4c-16 0-32 3.2-44.8 16-16 9.6-35.2 32-38.4 73.6 0 6.4 3.2 9.6 9.6 9.6s9.6-3.2 9.6-9.6c0-25.6 9.6-48 28.8-60.8 25.6-16 60.8-12.8 80 9.6 6.4 9.6 12.8 22.4 12.8 35.2 0 64-64 67.2-67.2 67.2-6.4 0-9.6 6.4-9.6 9.6v182.4c0 6.4 3.2 12.8 9.6 12.8s9.6-3.2 9.6-9.6v-172.8c32-3.2 76.8-25.6 76.8-86.4 0-19.2-9.6-35.2-16-44.8-12.8-22.4-35.2-32-60.8-32zM1024-51.2c-67.2 0-124.8 44.8-140.8 112-3.2 9.6-9.6 16-19.2 16h-470.4c-9.6 0-16-6.4-19.2-16-19.2-64-73.6-105.6-140.8-105.6-64 0-121.6 41.6-140.8 105.6-3.2 9.6-9.6 16-19.2 16h-32c-22.4 0-41.6 19.2-41.6 41.6v185.6c0 22.4 19.2 41.6 41.6 41.6h700.8c9.6 0 19.2 9.6 19.2 19.2v332.8c0 22.4 19.2 41.6 41.6 41.6h227.2c0 0 0 0 3.2 0 12.8 0 25.6-6.4 32-19.2l236.8-380.8c0-3.2 0-3.2 0-6.4v-217.6c0-22.4-19.2-41.6-41.6-41.6h-76.8c-9.6 0-16-6.4-19.2-16-16-60.8-73.6-108.8-140.8-108.8zM393.6 96h467.2c19.2 0 35.2-12.8 41.6-32 12.8-54.4 64-96 121.6-96s108.8 38.4 121.6 96c3.2 19.2 22.4 32 41.6 32h76.8c9.6 0 19.2 9.6 19.2 19.2v214.4l-236.8 380.8c-3.2 6.4-9.6 9.6-19.2 9.6h-224c-9.6 0-19.2-9.6-19.2-19.2v-332.8c0-22.4-19.2-41.6-41.6-41.6h-700.8c-9.6 0-19.2-9.6-19.2-19.2v-185.6c0-16 9.6-25.6 19.2-25.6h32c19.2 0 35.2-12.8 38.4-28.8 16-51.2 64-89.6 121.6-89.6 54.4 0 105.6 35.2 121.6 89.6 6.4 19.2 22.4 28.8 38.4 28.8zM233.6-41.6c-80 0-147.2 67.2-147.2 147.2s67.2 147.2 147.2 147.2 147.2-67.2 147.2-147.2-64-147.2-147.2-147.2zM233.6 230.4c-70.4 0-124.8-57.6-124.8-124.8s57.6-124.8 124.8-124.8 124.8 57.6 124.8 124.8-54.4 124.8-124.8 124.8zM1024-51.2c-80 0-147.2 67.2-147.2 147.2s67.2 147.2 147.2 147.2 147.2-67.2 147.2-147.2c-3.2-80-67.2-147.2-147.2-147.2zM1024 220.8c-70.4 0-124.8-57.6-124.8-124.8 0-70.4 57.6-124.8 124.8-124.8s124.8 57.6 124.8 124.8c0 70.4-57.6 124.8-124.8 124.8zM233.6 86.4c12.8 0 22.4 9.6 22.4 19.2s-9.6 22.4-22.4 22.4c-12.8 0-22.4-9.6-22.4-22.4s12.8-19.2 22.4-19.2zM1024 86.4c12.8 0 22.4 9.6 22.4 22.4s-9.6 19.2-22.4 19.2c-12.8 0-22.4-9.6-22.4-22.4s9.6-19.2 22.4-19.2z" />
<glyph unicode="&#xe904;" glyph-name="refuse" d="M89.6 3.2c-6.4 0-16 3.2-19.2 9.6-6.4 6.4-9.6 19.2-6.4 28.8l41.6 156.8 643.2 643.2c3.2 3.2 9.6 3.2 12.8 0s3.2-9.6 0-12.8l-643.2-640-38.4-153.6c0-3.2 0-6.4 3.2-9.6s6.4-3.2 9.6-3.2h3.2c6.4 0 9.6-3.2 9.6-6.4 0-6.4-3.2-9.6-6.4-9.6h-3.2c0 0-3.2-3.2-6.4-3.2zM169.6 25.6c-3.2 0-6.4 3.2-9.6 6.4 0 6.4 3.2 9.6 6.4 9.6l80 22.4 636.8 636.8c3.2 3.2 9.6 3.2 12.8 0s3.2-9.6 0-12.8l-640-643.2-86.4-19.2c3.2 0 3.2 0 0 0zM889.6 684.8c-3.2 0-3.2 0-6.4 3.2l-92.8 92.8c-3.2 3.2-3.2 9.6 0 12.8s9.6 3.2 12.8 0l92.8-92.8c3.2-3.2 3.2-9.6 0-12.8 0-3.2-3.2-3.2-6.4-3.2zM889.6 684.8c-3.2 0-3.2 0-6.4 3.2s-3.2 9.6 0 12.8l28.8 28.8c19.2 19.2 19.2 48 0 67.2l-60.8 60.8c-19.2 19.2-48 19.2-67.2 0l-28.8-28.8c-3.2-3.2-9.6-3.2-12.8 0s-3.2 9.6 0 12.8l28.8 28.8c25.6 25.6 67.2 25.6 92.8 0l60.8-60.8c25.6-25.6 25.6-67.2 0-92.8l-28.8-28.8c0-3.2-3.2-3.2-6.4-3.2zM246.4 182.4c-3.2 0-3.2 0-6.4 3.2s-3.2 9.6 0 12.8l572.8 572.8c3.2 3.2 9.6 3.2 12.8 0 6.4-3.2 6.4-9.6 0-12.8l-572.8-576c-3.2 0-3.2 0-6.4 0zM195.2 105.6c-3.2 0-3.2 0-6.4 3.2l-64 64c-3.2 3.2-3.2 9.6 0 12.8s9.6 3.2 12.8 0l64-64c3.2-3.2 3.2-9.6 0-12.8-3.2 0-6.4-3.2-6.4-3.2zM748.8-12.8c-3.2 0-3.2 0-6.4 3.2l-275.2 275.2c-3.2 3.2-3.2 9.6 0 12.8s9.6 3.2 12.8 0l275.2-275.2c3.2-3.2 3.2-9.6 0-12.8 0 0-3.2-3.2-6.4-3.2zM841.6-64c-3.2 0-3.2 0-6.4 3.2s-3.2 9.6 0 12.8l137.6 137.6c19.2 19.2 19.2 54.4 0 73.6l-246.4 252.8c-3.2 3.2-3.2 9.6 0 12.8s9.6 3.2 12.8 0l249.6-249.6c28.8-28.8 28.8-73.6 0-99.2l-137.6-137.6c-3.2-3.2-6.4-6.4-9.6-6.4zM265.6 473.6c-3.2 0-3.2 0-6.4 3.2l-240 236.8c-12.8 12.8-19.2 28.8-19.2 48s6.4 35.2 19.2 48l134.4 137.6c9.6 9.6 19.2 12.8 32 12.8 0 0 0 0 0 0 12.8 0 22.4-3.2 32-12.8l313.6-313.6c3.2-3.2 3.2-9.6 0-12.8s-9.6-3.2-12.8 0l-310.4 310.4c-6.4 6.4-12.8 9.6-19.2 9.6v0c-6.4 0-12.8-3.2-19.2-9.6l-137.6-134.4c-6.4-9.6-12.8-22.4-12.8-35.2s6.4-25.6 12.8-35.2l240-240c3.2-3.2 3.2-9.6 0-12.8-3.2 0-3.2 0-6.4 0zM892.8 169.6c-3.2 0-3.2 0-6.4 3.2s-3.2 9.6 0 12.8l38.4 38.4c3.2 3.2 9.6 3.2 12.8 0s3.2-9.6 0-12.8l-38.4-38.4c0-3.2-3.2-3.2-6.4-3.2zM812.8 249.6c-3.2 0-3.2 0-6.4 3.2s-3.2 9.6 0 12.8l38.4 38.4c3.2 3.2 9.6 3.2 12.8 0s3.2-9.6 0-12.8l-38.4-38.4c-3.2 0-3.2-3.2-6.4-3.2zM729.6 332.8c-3.2 0-3.2 0-6.4 3.2s-3.2 9.6 0 12.8l38.4 38.4c3.2 3.2 9.6 3.2 12.8 0s3.2-9.6 0-12.8l-38.4-38.4c0-3.2-3.2-3.2-6.4-3.2zM403.2 659.2c-3.2 0-3.2 0-6.4 3.2s-3.2 9.6 0 12.8l38.4 38.4c3.2 3.2 9.6 3.2 12.8 0 0-3.2 0-9.6-3.2-12.8l-38.4-38.4c0 0 0-3.2-3.2-3.2zM297.6 720c-3.2 0-3.2 0-6.4 3.2s-3.2 9.6 0 12.8l60.8 57.6c3.2 3.2 9.6 3.2 12.8 0s3.2-9.6 0-12.8l-60.8-57.6c-3.2-3.2-3.2-3.2-6.4-3.2zM240 825.6c-3.2 0-3.2 0-6.4 3.2s-3.2 9.6 0 12.8l38.4 38.4c3.2 3.2 9.6 3.2 12.8 0s3.2-9.6 0-12.8l-38.4-41.6c-3.2 0-6.4 0-6.4 0zM790.4 227.2c-3.2 0-3.2 0-6.4 3.2s-3.2 9.6 0 12.8l60.8 60.8c3.2 3.2 9.6 3.2 12.8 0s3.2-9.6 0-12.8l-60.8-60.8c-3.2-3.2-6.4-3.2-6.4-3.2z" />
<glyph unicode="&#xe905;" glyph-name="components" horiz-adv-x="992" d="M896-48c-32 0-64 12.8-86.4 38.4l-265.6 272c-16 0-64-3.2-115.2 12.8-73.6 25.6-124.8 99.2-118.4 179.2l6.4 83.2c0 3.2 3.2 6.4 6.4 6.4s6.4 0 9.6-3.2l44.8-51.2c22.4-25.6 54.4-41.6 89.6-44.8 9.6 0 22.4 3.2 28.8 9.6s12.8 19.2 12.8 28.8v6.4c0 25.6-9.6 51.2-28.8 70.4l-67.2 64c-3.2 3.2-3.2 6.4-3.2 9.6s3.2 6.4 6.4 6.4h118.4c22.4 0 48-6.4 67.2-16 48-25.6 121.6-89.6 86.4-224l265.6-262.4c28.8-28.8 41.6-64 38.4-102.4 0 0 0 0 0-3.2-9.6-28.8-19.2-51.2-60.8-73.6-12.8-3.2-25.6-6.4-35.2-6.4zM544 281.6c3.2 0 3.2 0 6.4-3.2l268.8-275.2c28.8-28.8 67.2-38.4 105.6-28.8 32 19.2 38.4 35.2 51.2 60.8 3.2 32-9.6 64-32 86.4l-272 268.8c-3.2 3.2-3.2 6.4-3.2 9.6 35.2 124.8-32 182.4-76.8 208-16 9.6-38.4 16-57.6 16h-99.2l51.2-48c22.4-22.4 35.2-51.2 35.2-83.2v-6.4c0-16-6.4-32-19.2-41.6s-25.6-16-41.6-16c-38.4 3.2-76.8 19.2-102.4 48l-32 35.2-3.2-60.8c-3.2-73.6 38.4-137.6 105.6-163.2 57.6-12.8 115.2-6.4 115.2-6.4s0 0 0 0zM883.2 12.8c-25.6 0-48 22.4-48 48s22.4 48 48 48 48-22.4 48-48-22.4-48-48-48zM883.2 86.4c-16 0-28.8-12.8-28.8-28.8s12.8-28.8 28.8-28.8c16 0 28.8 12.8 28.8 28.8s-12.8 28.8-28.8 28.8zM588.8-16c-3.2 0-6.4 3.2-6.4 3.2l-70.4 134.4h-64l-76.8-131.2c-3.2-3.2-6.4-6.4-9.6-3.2-147.2 57.6-150.4 67.2-153.6 73.6 0 3.2 0 6.4 0 9.6 3.2 6.4 28.8 80 44.8 128l-54.4 57.6-121.6-54.4c-3.2 0-3.2 0-6.4 0s-3.2 3.2-6.4 3.2l-67.2 156.8c-3.2 3.2 0 9.6 3.2 9.6l128 70.4v70.4l-124.8 60.8c-3.2 3.2-6.4 6.4-3.2 12.8l70.4 153.6c3.2 3.2 6.4 6.4 9.6 3.2l128-48 48 54.4-48 131.2c-3.2 3.2 0 9.6 6.4 9.6l153.6 57.6c3.2 0 9.6 0 9.6-3.2l70.4-121.6h70.4l67.2 128c3.2 3.2 6.4 6.4 12.8 3.2l137.6-70.4c3.2-3.2 6.4-6.4 3.2-9.6l-41.6-124.8 51.2-60.8 131.2 48c3.2 0 9.6 0 9.6-6.4l57.6-147.2c0-3.2 0-9.6-3.2-9.6l-115.2-60.8-3.2-80 131.2-67.2c3.2 0 3.2-3.2 3.2-6.4s0-3.2 0-6.4l-51.2-89.6c-3.2-3.2-6.4-6.4-12.8-3.2-3.2 3.2-6.4 6.4-3.2 12.8l44.8 80-128 67.2c-3.2 0-6.4 3.2-3.2 9.6l6.4 92.8c0 3.2 3.2 6.4 3.2 6.4l112 60.8-51.2 131.2-128-44.8c-3.2 0-6.4 0-9.6 3.2l-57.6 67.2c-3.2 3.2-3.2 6.4 0 9.6l38.4 121.6-124.8 64-64-124.8c0-3.2-3.2-3.2-6.4-3.2l-80-3.2c-3.2 0-6.4 0-6.4 3.2l-70.4 121.6-140.8-54.4 48-128c0-3.2 0-6.4 0-9.6l-54.4-60.8c0-3.2-6.4-6.4-9.6-3.2l-124.8 44.8-64-137.6 124.8-60.8c3.2 0 6.4-3.2 6.4-6.4v-80c0-3.2-3.2-6.4-3.2-6.4l-124.8-70.4 60.8-140.8 118.4 54.4c3.2 0 6.4 0 9.6-3.2l60.8-64c3.2-3.2 3.2-6.4 3.2-9.6-9.6-25.6-35.2-108.8-44.8-131.2 16-9.6 76.8-35.2 134.4-57.6l76.8 128c0 3.2 3.2 3.2 6.4 3.2h70.4c3.2 0 6.4-3.2 6.4-3.2l67.2-128 73.6 38.4c3.2 3.2 9.6 0 12.8-3.2s0-9.6-3.2-12.8l-80-41.6c-6.4-3.2-9.6-6.4-9.6-6.4z" />
<glyph unicode="&#xe906;" glyph-name="workplace" horiz-adv-x="992" d="M896-60.8h-118.4c-22.4 0-44.8 6.4-67.2 16-48 25.6-118.4 89.6-83.2 220.8l-51.2 51.2c-3.2 3.2-3.2 9.6 0 12.8s9.6 3.2 12.8 0l54.4-54.4c3.2-3.2 3.2-6.4 3.2-9.6-35.2-124.8 32-182.4 73.6-204.8 16-9.6 38.4-16 57.6-16h96l-48 48c-22.4 22.4-35.2 51.2-35.2 80v6.4c0 16 6.4 32 19.2 41.6s25.6 16 41.6 16c38.4-3.2 73.6-19.2 99.2-48l32-35.2 3.2 60.8c3.2 70.4-38.4 137.6-105.6 160-54.4 19.2-108.8 12.8-108.8 12.8-3.2 0-6.4 0-6.4 3.2l-54.4 51.2c-3.2 3.2-3.2 9.6 0 12.8s9.6 3.2 12.8 0l48-48c16 0 64 3.2 112-12.8 73.6-25.6 121.6-99.2 115.2-179.2l-6.4-83.2c0-3.2-3.2-6.4-6.4-6.4s-6.4 0-9.6 3.2l-44.8 51.2c-22.4 25.6-54.4 41.6-86.4 41.6-9.6 0-19.2-3.2-28.8-9.6-6.4-6.4-12.8-16-12.8-28.8v-6.4c0-25.6 9.6-51.2 28.8-67.2l64-64c3.2-3.2 3.2-6.4 3.2-9.6 3.2-3.2 0-6.4-3.2-6.4zM297.6 518.4c-3.2 0-3.2 0-6.4 3.2l-54.4 57.6c-16 0-64-3.2-112 12.8-76.8 25.6-124.8 99.2-121.6 179.2l6.4 83.2c0 3.2 3.2 6.4 6.4 6.4s6.4 0 9.6-3.2l44.8-51.2c22.4-22.4 54.4-38.4 86.4-41.6 9.6 0 19.2 3.2 28.8 9.6 6.4 6.4 12.8 16 12.8 28.8v6.4c0 25.6-9.6 51.2-28.8 67.2l-64 64c-3.2 3.2-3.2 6.4-3.2 9.6s3.2 6.4 9.6 6.4h118.4c22.4 0 44.8-6.4 67.2-16 48-25.6 118.4-89.6 83.2-220.8l83.2-83.2c3.2-3.2 3.2-9.6 0-12.8s-9.6-3.2-12.8 0l-86.4 86.4c-3.2 3.2-3.2 6.4-3.2 9.6 35.2 124.8-32 182.4-73.6 204.8-19.2 6.4-38.4 12.8-60.8 12.8h-96l48-48c22.4-22.4 35.2-51.2 35.2-80v-6.4c0-16-6.4-32-19.2-41.6-6.4-9.6-22.4-16-38.4-16-38.4 3.2-73.6 22.4-99.2 51.2l-32 35.2-3.2-60.8c-3.2-70.4 38.4-137.6 105.6-160 54.4-19.2 108.8-12.8 108.8-12.8 3.2 0 6.4 0 6.4-3.2l57.6-60.8c3.2-3.2 3.2-9.6 0-12.8 0 0-3.2-3.2-3.2-3.2zM252.8-6.4c-3.2 0-3.2 0-6.4 3.2s-3.2 9.6 0 12.8l179.2 176c0 0 3.2 3.2 6.4 3.2l102.4 12.8c19.2 19.2 179.2 166.4 217.6 198.4 3.2 3.2 3.2 3.2 6.4 6.4 9.6 12.8 9.6 32 0 44.8-3.2 6.4-9.6 12.8-19.2 9.6l-28.8-22.4c-6.4-9.6-9.6-6.4-12.8-3.2s-6.4 9.6-3.2 12.8c0 0 0 3.2 3.2 3.2v0c3.2 3.2 12.8 16 28.8 44.8 6.4 9.6 6.4 19.2 3.2 25.6-9.6 19.2-48 28.8-60.8 28.8-3.2 0-6.4 3.2-6.4 6.4s0 6.4 0 9.6c6.4 9.6 9.6 19.2 6.4 28.8s-9.6 16-19.2 22.4c-16 6.4-35.2 6.4-51.2-6.4l-28.8-28.8c-3.2-3.2-9.6-3.2-12.8 0s-3.2 9.6 0 12.8l28.8 28.8c0 0 0 0 0 0l12.8 12.8c3.2 25.6 0 41.6-9.6 51.2s-25.6 9.6-48 6.4c-19.2-6.4-172.8-163.2-185.6-179.2-9.6-12.8-28.8-6.4-51.2 0-12.8 3.2-28.8 9.6-35.2 6.4-9.6-9.6-22.4-89.6-28.8-163.2 0-3.2 0-3.2-3.2-6.4l-172.8-179.2c-3.2-3.2-9.6-3.2-12.8 0s-3.2 9.6 0 12.8l172.8 179.2c6.4 76.8 19.2 166.4 38.4 172.8 12.8 6.4 28.8 0 48-6.4 9.6-3.2 28.8-9.6 32-6.4 6.4 9.6 169.6 179.2 195.2 185.6 28.8 6.4 51.2 3.2 64-9.6s19.2-32 16-60.8c12.8 3.2 25.6 0 38.4-6.4 16-6.4 25.6-19.2 28.8-35.2 3.2-6.4 3.2-19.2-3.2-32 19.2-3.2 51.2-16 60.8-38.4 6.4-12.8 3.2-28.8-6.4-41.6 3.2 0 0-3.2 0-6.4 16 3.2 28.8-6.4 38.4-19.2 9.6-16 12.8-48-3.2-67.2-3.2-3.2-3.2-6.4-6.4-9.6-41.6-32-220.8-198.4-220.8-198.4s-3.2-3.2-6.4-3.2l-102.4-12.8-176-176c-3.2 0-3.2 0-6.4 0z" />
<glyph unicode="&#xe907;" glyph-name="lamp" horiz-adv-x="800" d="M633.6 656c-3.2 0-6.4 3.2-6.4 3.2-3.2 3.2 0 9.6 3.2 9.6l131.2 64c3.2 3.2 9.6 0 9.6-3.2 3.2-3.2 0-9.6-3.2-9.6l-131.2-64c0 0-3.2 0-3.2 0zM528 761.6c-3.2 0-3.2 0-3.2 0-3.2 3.2-3.2 6.4-3.2 9.6l86.4 121.6c3.2 3.2 6.4 6.4 9.6 3.2s3.2-6.4 3.2-9.6l-86.4-118.4c0-3.2-3.2-6.4-6.4-6.4zM387.2 796.8c0 0-3.2 0 0 0-3.2 0-9.6 3.2-9.6 9.6l3.2 147.2c0 3.2 3.2 6.4 6.4 6.4 0 0 0 0 0 0 3.2 0 6.4-3.2 6.4-9.6l-3.2-147.2c3.2-3.2 0-6.4-3.2-6.4zM137.6 659.2c0 0-3.2 0-3.2 0l-131.2 64c-3.2 3.2-3.2 9.6-3.2 12.8 3.2 3.2 6.4 6.4 9.6 3.2l134.4-67.2c3.2 0 3.2-6.4 3.2-9.6-3.2-3.2-6.4-3.2-9.6-3.2zM243.2 764.8c-3.2 0-3.2 3.2-6.4 3.2l-83.2 118.4c-3.2 6.4-3.2 9.6 0 12.8s9.6 0 12.8-3.2l86.4-118.4c0-3.2 0-9.6-3.2-9.6-3.2-3.2-3.2-3.2-6.4-3.2zM390.4 198.4h-150.4c-3.2 0-9.6 3.2-9.6 9.6s3.2 9.6 9.6 9.6h150.4c3.2 0 9.6-3.2 9.6-9.6s-3.2-9.6-9.6-9.6zM483.2 198.4h-44.8c-3.2 0-9.6 3.2-9.6 9.6s3.2 9.6 9.6 9.6h44.8c3.2 0 9.6-3.2 9.6-9.6s-6.4-9.6-9.6-9.6zM384-54.4c-28.8 0-54.4 22.4-57.6 51.2h-51.2c-22.4 0-41.6 19.2-41.6 41.6v236.8c0 22.4-9.6 44.8-25.6 60.8-48 48-70.4 112-70.4 176 3.2 131.2 112 243.2 243.2 246.4 67.2-3.2 131.2-25.6 179.2-73.6s73.6-112 73.6-179.2c0-64-25.6-128-70.4-172.8-16-16-25.6-38.4-25.6-60.8v-233.6c0-22.4-19.2-41.6-41.6-41.6h-51.2c-6.4-32-28.8-51.2-60.8-51.2zM384 739.2c-3.2 0-3.2 0-6.4 0-121.6-3.2-224-105.6-224-230.4 0-64 22.4-121.6 67.2-166.4 19.2-19.2 28.8-44.8 28.8-70.4v-236.8c0-16 12.8-25.6 25.6-25.6h60.8c3.2 0 6.4-3.2 9.6-6.4 0-22.4 19.2-41.6 44.8-41.6 22.4 0 41.6 19.2 44.8 41.6 0 3.2 3.2 6.4 9.6 6.4h60.8c16 0 25.6 12.8 25.6 25.6v233.6c0 25.6 9.6 51.2 28.8 70.4 41.6 44.8 67.2 102.4 67.2 163.2v0c0 64-25.6 121.6-70.4 166.4-51.2 48-108.8 70.4-172.8 70.4zM188.8 508.8c0 0 0 0 0 0-6.4 0-9.6 3.2-6.4 9.6 3.2 25.6 16 89.6 73.6 134.4 38.4 28.8 76.8 38.4 102.4 41.6 3.2 0 9.6-3.2 9.6-6.4s-3.2-9.6-6.4-9.6c-25.6-3.2-60.8-12.8-96-38.4-51.2-41.6-64-99.2-67.2-124.8 0-3.2-3.2-6.4-9.6-6.4zM457.6-6.4h-160c-3.2 0-9.6 3.2-9.6 9.6s3.2 9.6 9.6 9.6h163.2c3.2 0 9.6-3.2 9.6-9.6s-6.4-9.6-12.8-9.6zM528 259.2h-288c-3.2 0-9.6 3.2-9.6 9.6s3.2 9.6 9.6 9.6h288c3.2 0 9.6-3.2 9.6-9.6s-3.2-9.6-9.6-9.6z" />
<glyph unicode="&#xe908;" glyph-name="earth" horiz-adv-x="960" d="M182.4 163.2c-3.2 0-3.2 0-6.4 0-3.2 3.2-6.4 9.6-3.2 12.8 44.8 73.6-54.4 176-54.4 179.2-3.2 3.2-28.8 35.2-22.4 80 3.2 32 22.4 60.8 54.4 86.4l3.2 3.2c19.2 16 32 38.4 35.2 60.8 3.2 25.6-6.4 48-22.4 67.2-12.8 16-25.6 38.4-38.4 60.8-9.6 16-12.8 28.8-6.4 41.6 12.8 19.2 44.8 25.6 70.4 25.6 16 0 32 6.4 41.6 16 9.6 6.4 12.8 16 12.8 22.4 0 19.2-41.6 38.4-57.6 41.6-3.2 3.2-6.4 9.6-3.2 12.8 0 6.4 6.4 9.6 9.6 6.4 6.4-3.2 67.2-22.4 73.6-57.6 3.2-12.8-3.2-28.8-19.2-41.6-16-9.6-35.2-16-54.4-19.2-28.8 0-51.2-6.4-54.4-16-3.2-6.4-3.2-12.8 3.2-25.6 12.8-22.4 25.6-41.6 41.6-57.6 19.2-22.4 28.8-51.2 25.6-80s-16-54.4-41.6-73.6l-3.2-3.2c-28.8-22.4-44.8-48-48-73.6-3.2-38.4 19.2-64 19.2-64 3.2-3.2 108.8-115.2 57.6-198.4-6.4-3.2-9.6-6.4-12.8-6.4zM444.8 256c0 0-3.2 0-3.2 0-3.2 0-3.2 3.2-6.4 6.4-9.6 105.6-96 198.4-121.6 227.2-9.6 9.6-16 19.2-16 32-3.2 12.8 0 25.6 6.4 35.2 16 22.4 54.4 25.6 83.2 28.8 6.4 0 12.8 0 19.2 3.2 0 3.2 3.2 9.6 6.4 12.8 6.4 9.6 12.8 19.2 22.4 28.8 12.8 9.6 9.6 22.4 3.2 28.8-22.4 35.2-25.6 83.2 0 108.8 12.8 12.8 51.2 16 108.8 12.8 16 0 32 3.2 44.8 9.6 44.8 22.4 131.2 51.2 134.4 54.4 6.4 3.2 9.6 0 12.8-6.4 0-6.4 0-9.6-6.4-12.8 0 0-89.6-28.8-131.2-51.2-16-9.6-35.2-12.8-54.4-12.8-73.6 6.4-92.8-3.2-96-6.4-19.2-16-16-57.6 3.2-86.4 12.8-19.2 9.6-38.4-9.6-51.2-6.4-6.4-12.8-16-16-22.4s-3.2-12.8-3.2-12.8c0-9.6-12.8-12.8-35.2-12.8-22.4-3.2-57.6-6.4-70.4-19.2-3.2-6.4-6.4-12.8-3.2-19.2 3.2-9.6 6.4-16 12.8-22.4 25.6-25.6 108.8-118.4 124.8-224 28.8 19.2 99.2 76.8 102.4 166.4 0 19.2-6.4 38.4-19.2 54.4-19.2 22.4-22.4 41.6-16 54.4 6.4 16 25.6 25.6 54.4 28.8 16 3.2 32-3.2 44.8-9.6 19.2-16 44.8-41.6 51.2-92.8 0-16 6.4-25.6 12.8-28.8s16 0 22.4 3.2c12.8 6.4 22.4 16 28.8 28.8 16 32 57.6 112 137.6 115.2 6.4 0 9.6-3.2 9.6-9.6s-3.2-9.6-9.6-9.6c-73.6-3.2-112-73.6-128-105.6-6.4-16-19.2-32-35.2-38.4-16-9.6-28.8-9.6-41.6-3.2s-19.2 22.4-22.4 44.8c-3.2 44.8-25.6 67.2-41.6 80-9.6 6.4-22.4 9.6-32 6.4-22.4-3.2-35.2-9.6-38.4-19.2s3.2-22.4 16-38.4c16-19.2 25.6-41.6 22.4-67.2-3.2-121.6-118.4-185.6-124.8-188.8 0 0 0 0-3.2 0zM460.8 809.6c-32 0-51.2 6.4-60.8 19.2-6.4 9.6-6.4 22.4 0 32 0 3.2 3.2 6.4 6.4 6.4 60.8 44.8 102.4 9.6 115.2-9.6 6.4-6.4 6.4-16 3.2-22.4s-6.4-9.6-12.8-9.6c0-3.2 0-3.2 0-6.4-3.2-9.6-12.8-12.8-44.8-12.8 0 3.2-3.2 3.2-6.4 3.2zM467.2 873.6c-12.8 0-28.8-6.4-48-19.2-3.2-3.2-3.2-9.6 0-16 3.2-3.2 12.8-12.8 54.4-12.8 6.4 0 12.8 0 16 0-3.2 3.2-3.2 6.4-3.2 9.6 3.2 9.6 12.8 6.4 22.4 6.4 0 0 3.2 0 3.2 0s0 3.2 0 3.2v0c-12.8 19.2-28.8 28.8-44.8 28.8zM336 83.2c-3.2 0-3.2 0 0 0-198.4 51.2-336 227.2-336 432 0 246.4 198.4 444.8 444.8 444.8 227.2 0 419.2-169.6 444.8-393.6 0-6.4-3.2-9.6-9.6-9.6s-9.6 3.2-9.6 9.6c-25.6 211.2-208 374.4-425.6 374.4-236.8 0-428.8-192-428.8-428.8 0-195.2 131.2-364.8 320-412.8 6.4 0 6.4-6.4 6.4-12.8 0 0-3.2-3.2-6.4-3.2zM444.8 70.4c-6.4 0-9.6 3.2-9.6 9.6s3.2 9.6 9.6 9.6c92.8 0 179.2 28.8 252.8 83.2-60.8 153.6 128 262.4 131.2 262.4 3.2 3.2 6.4 0 9.6 0 0 0 9.6-6.4 22.4-19.2 6.4 19.2 9.6 41.6 9.6 64 0 6.4 3.2 9.6 9.6 9.6s9.6-6.4 9.6-9.6c-3.2-28.8-6.4-54.4-16-83.2 0-3.2-3.2-6.4-6.4-6.4s-6.4 0-9.6 3.2c-12.8 9.6-22.4 19.2-28.8 22.4-28.8-19.2-169.6-112-115.2-243.2 3.2-3.2 0-9.6-3.2-9.6-73.6-64-166.4-92.8-265.6-92.8zM828.8 256c-3.2 0-3.2 0-6.4 0l-99.2 67.2c-3.2 3.2-6.4 9.6-3.2 12.8s9.6 6.4 12.8 3.2l96-64 89.6 57.6c3.2 3.2 9.6 0 12.8-3.2s0-9.6-3.2-12.8l-96-60.8c0 0 0 0-3.2 0zM825.6-57.6c-6.4 0-9.6 3.2-9.6 9.6v80c-89.6 67.2-134.4 140.8-131.2 211.2 6.4 115.2 137.6 188.8 140.8 192s6.4 0 9.6 0c3.2-3.2 3.2-6.4 3.2-9.6l-6.4-473.6c3.2-6.4 0-9.6-6.4-9.6zM822.4 409.6c-32-22.4-112-83.2-118.4-169.6-3.2-64 35.2-124.8 112-188.8l6.4 358.4zM825.6 25.6c-3.2 0-6.4 0-6.4 3.2-3.2 3.2 0 9.6 3.2 12.8 83.2 51.2 128 112 128 172.8 3.2 108.8-121.6 201.6-121.6 201.6-3.2 3.2-6.4 9.6-3.2 12.8s9.6 6.4 12.8 3.2c6.4-3.2 134.4-96 131.2-217.6-3.2-70.4-48-134.4-137.6-188.8-3.2 0-3.2 0-6.4 0zM828.8 137.6c-3.2 0-3.2 0-6.4 0l-131.2 86.4c-3.2 3.2-6.4 9.6-3.2 12.8s9.6 6.4 12.8 3.2l128-80 124.8 80c3.2 3.2 9.6 0 12.8-3.2s0-9.6-3.2-12.8l-131.2-86.4c0 0-3.2 0-3.2 0z" />
<glyph unicode="&#xe909;" glyph-name="design" d="M89.6 3.2c-6.4 0-16 3.2-19.2 9.6-6.4 6.4-9.6 19.2-6.4 28.8l41.6 156.8 643.2 643.2c3.2 3.2 9.6 3.2 12.8 0s3.2-9.6 0-12.8l-643.2-640-38.4-153.6c0-3.2 0-6.4 3.2-9.6s6.4-3.2 9.6-3.2h3.2c6.4 0 9.6-3.2 9.6-6.4 0-6.4-3.2-9.6-6.4-9.6h-3.2c0 0-3.2-3.2-6.4-3.2zM169.6 25.6c-3.2 0-6.4 3.2-9.6 6.4 0 6.4 3.2 9.6 6.4 9.6l80 22.4 636.8 636.8c3.2 3.2 9.6 3.2 12.8 0s3.2-9.6 0-12.8l-640-643.2-86.4-19.2c3.2 0 3.2 0 0 0zM889.6 684.8c-3.2 0-3.2 0-6.4 3.2l-92.8 92.8c-3.2 3.2-3.2 9.6 0 12.8s9.6 3.2 12.8 0l92.8-92.8c3.2-3.2 3.2-9.6 0-12.8 0-3.2-3.2-3.2-6.4-3.2zM889.6 684.8c-3.2 0-3.2 0-6.4 3.2s-3.2 9.6 0 12.8l28.8 28.8c19.2 19.2 19.2 48 0 67.2l-60.8 60.8c-19.2 19.2-48 19.2-67.2 0l-28.8-28.8c-3.2-3.2-9.6-3.2-12.8 0s-3.2 9.6 0 12.8l28.8 28.8c25.6 25.6 67.2 25.6 92.8 0l60.8-60.8c25.6-25.6 25.6-67.2 0-92.8l-28.8-28.8c0-3.2-3.2-3.2-6.4-3.2zM246.4 182.4c-3.2 0-3.2 0-6.4 3.2s-3.2 9.6 0 12.8l572.8 572.8c3.2 3.2 9.6 3.2 12.8 0 6.4-3.2 6.4-9.6 0-12.8l-572.8-576c-3.2 0-3.2 0-6.4 0zM195.2 105.6c-3.2 0-3.2 0-6.4 3.2l-64 64c-3.2 3.2-3.2 9.6 0 12.8s9.6 3.2 12.8 0l64-64c3.2-3.2 3.2-9.6 0-12.8-3.2 0-6.4-3.2-6.4-3.2zM748.8-12.8c-3.2 0-3.2 0-6.4 3.2l-275.2 275.2c-3.2 3.2-3.2 9.6 0 12.8s9.6 3.2 12.8 0l275.2-275.2c3.2-3.2 3.2-9.6 0-12.8 0 0-3.2-3.2-6.4-3.2zM841.6-64c-3.2 0-3.2 0-6.4 3.2s-3.2 9.6 0 12.8l137.6 137.6c19.2 19.2 19.2 54.4 0 73.6l-246.4 252.8c-3.2 3.2-3.2 9.6 0 12.8s9.6 3.2 12.8 0l249.6-249.6c28.8-28.8 28.8-73.6 0-99.2l-137.6-137.6c-3.2-3.2-6.4-6.4-9.6-6.4zM265.6 473.6c-3.2 0-3.2 0-6.4 3.2l-240 236.8c-12.8 12.8-19.2 28.8-19.2 48s6.4 35.2 19.2 48l134.4 137.6c9.6 9.6 19.2 12.8 32 12.8 0 0 0 0 0 0 12.8 0 22.4-3.2 32-12.8l313.6-313.6c3.2-3.2 3.2-9.6 0-12.8s-9.6-3.2-12.8 0l-310.4 310.4c-6.4 6.4-12.8 9.6-19.2 9.6v0c-6.4 0-12.8-3.2-19.2-9.6l-137.6-134.4c-6.4-9.6-12.8-22.4-12.8-35.2s6.4-25.6 12.8-35.2l240-240c3.2-3.2 3.2-9.6 0-12.8-3.2 0-3.2 0-6.4 0zM892.8 169.6c-3.2 0-3.2 0-6.4 3.2s-3.2 9.6 0 12.8l38.4 38.4c3.2 3.2 9.6 3.2 12.8 0s3.2-9.6 0-12.8l-38.4-38.4c0-3.2-3.2-3.2-6.4-3.2zM812.8 249.6c-3.2 0-3.2 0-6.4 3.2s-3.2 9.6 0 12.8l38.4 38.4c3.2 3.2 9.6 3.2 12.8 0s3.2-9.6 0-12.8l-38.4-38.4c-3.2 0-3.2-3.2-6.4-3.2zM729.6 332.8c-3.2 0-3.2 0-6.4 3.2s-3.2 9.6 0 12.8l38.4 38.4c3.2 3.2 9.6 3.2 12.8 0s3.2-9.6 0-12.8l-38.4-38.4c0-3.2-3.2-3.2-6.4-3.2zM403.2 659.2c-3.2 0-3.2 0-6.4 3.2s-3.2 9.6 0 12.8l38.4 38.4c3.2 3.2 9.6 3.2 12.8 0 0-3.2 0-9.6-3.2-12.8l-38.4-38.4c0 0 0-3.2-3.2-3.2zM297.6 720c-3.2 0-3.2 0-6.4 3.2s-3.2 9.6 0 12.8l60.8 57.6c3.2 3.2 9.6 3.2 12.8 0s3.2-9.6 0-12.8l-60.8-57.6c-3.2-3.2-3.2-3.2-6.4-3.2zM240 825.6c-3.2 0-3.2 0-6.4 3.2s-3.2 9.6 0 12.8l38.4 38.4c3.2 3.2 9.6 3.2 12.8 0s3.2-9.6 0-12.8l-38.4-41.6c-3.2 0-6.4 0-6.4 0zM790.4 227.2c-3.2 0-3.2 0-6.4 3.2s-3.2 9.6 0 12.8l60.8 60.8c3.2 3.2 9.6 3.2 12.8 0s3.2-9.6 0-12.8l-60.8-60.8c-3.2-3.2-6.4-3.2-6.4-3.2z" />
<glyph unicode="&#xe90a;" glyph-name="quality" horiz-adv-x="864" d="M425.6-60.8c-3.2 0-6.4 0-6.4 3.2-51.2 22.4-416 227.2-416 422.4v393.6c0 16 12.8 25.6 25.6 28.8 102.4 9.6 307.2 99.2 374.4 153.6 12.8 9.6 35.2 9.6 48 0v0c67.2-57.6 268.8-144 374.4-153.6 16 0 25.6-12.8 25.6-28.8v-419.2c0-163.2-374.4-380.8-416-400-6.4 0-6.4 0-9.6 0zM425.6 928c-3.2 0-9.6 0-12.8-3.2-67.2-57.6-275.2-147.2-384-156.8-6.4 0-9.6-6.4-9.6-9.6v-396.8c0-179.2 358.4-384 406.4-403.2 57.6 25.6 406.4 240 406.4 384v416c0 3.2-6.4 9.6-12.8 9.6-112 9.6-313.6 99.2-384 156.8v0c0 3.2-6.4 3.2-9.6 3.2zM425.6 44.8c-3.2 0-6.4 3.2-9.6 6.4 0 3.2 0 9.6 6.4 9.6 25.6 9.6 320 204.8 320 320v307.2c0 6.4 3.2 9.6 9.6 9.6s9.6-3.2 9.6-9.6v-307.2c0-128-320-329.6-336-336 0 0 0 0 0 0zM96 352c-6.4 0-9.6 3.2-9.6 9.6v326.4c0 6.4 3.2 9.6 9.6 9.6 86.4 0 291.2 86.4 320 128 3.2 3.2 9.6 6.4 12.8 3.2s6.4-9.6 3.2-12.8c-32-44.8-236.8-128-326.4-134.4v-320c0-6.4-3.2-9.6-9.6-9.6zM380.8 348.8l-92.8 92.8c-3.2 3.2-3.2 9.6 0 12.8s9.6 3.2 12.8 0l80-80 169.6 188.8c3.2 3.2 9.6 3.2 12.8 0s3.2-9.6 0-12.8l-182.4-201.6z" />
<glyph unicode="&#xe90b;" d="M988.8 448c0-262.4-214.4-476.8-476.8-476.8s-476.8 214.4-476.8 476.8 214.4 476.8 476.8 476.8 476.8-214.4 476.8-476.8z" />
<glyph unicode="&#xe90c;" glyph-name="phone" d="M812.8-48c-41.6 0-89.6 9.6-147.2 32-121.6 44.8-249.6 134.4-368 252.8-115.2 115.2-204.8 246.4-249.6 368-41.6 108.8-41.6 198.4 0 240 3.2 3.2 9.6 9.6 16 16 38.4 38.4 80 83.2 134.4 83.2 38.4-3.2 76.8-25.6 115.2-73.6 112-140.8 60.8-192 3.2-249.6l-9.6-9.6c-9.6-9.6-28.8-54.4 140.8-224 54.4-54.4 102.4-96 140.8-121.6 22.4-16 67.2-38.4 83.2-22.4l9.6 9.6c57.6 57.6 108.8 108.8 249.6-3.2 48-38.4 70.4-76.8 73.6-115.2 3.2-57.6-41.6-99.2-83.2-134.4-6.4-6.4-12.8-12.8-19.2-19.2-16-19.2-48-28.8-89.6-28.8v0zM198.4 912c-38.4 0-76.8-38.4-108.8-70.4-6.4-9.6-12.8-16-19.2-22.4-32-32-28.8-112 6.4-204.8 44.8-115.2 131.2-243.2 243.2-355.2 115.2-115.2 240-201.6 355.2-243.2 92.8-35.2 172.8-38.4 204.8-6.4 6.4 6.4 12.8 12.8 19.2 19.2 35.2 32 73.6 70.4 70.4 112 0 28.8-22.4 57.6-60.8 89.6-118.4 96-150.4 60.8-204.8 6.4l-9.6-9.6c-25.6-25.6-67.2-19.2-124.8 16-38.4 25.6-89.6 67.2-147.2 124.8-140.8 140.8-185.6 227.2-140.8 272l9.6 9.6c60.8 51.2 92.8 83.2-3.2 201.6-28.8 38.4-60.8 57.6-89.6 60.8 0 0 0 0 0 0v0zM812.8-57.6c-41.6 0-96 9.6-150.4 32-121.6 44.8-252.8 137.6-371.2 252.8-118.4 118.4-208 249.6-256 371.2-41.6 112-41.6 208 3.2 249.6 6.4 6.4 9.6 9.6 16 16 41.6 44.8 86.4 92.8 147.2 89.6 41.6 0 80-25.6 121.6-76.8 118.4-147.2 60.8-204.8 3.2-262.4l-9.6-9.6c-3.2-3.2-6.4-16 6.4-41.6 19.2-41.6 64-99.2 137.6-169.6 54.4-54.4 102.4-96 137.6-118.4s64-32 70.4-22.4l9.6 9.6c57.6 60.8 115.2 115.2 262.4-3.2 51.2-41.6 76.8-80 76.8-121.6 3.2-60.8-44.8-105.6-86.4-144l-3.2-3.2c-6.4-6.4-9.6-9.6-16-12.8-19.2-19.2-48-32-86.4-32v0l-12.8-3.2zM806.4-38.4h6.4c38.4 0 70.4 9.6 86.4 28.8 3.2 3.2 9.6 9.6 16 16l3.2 3.2c38.4 35.2 80 76.8 80 128 0 35.2-25.6 70.4-70.4 108.8-134.4 108.8-179.2 60.8-236.8 3.2l-9.6-9.6c-16-16-48-9.6-96 19.2-38.4 25.6-86.4 67.2-140.8 121.6-73.6 73.6-121.6 131.2-140.8 176-19.2 38.4-9.6 57.6-3.2 64l9.6 9.6c57.6 54.4 105.6 99.2-3.2 233.6-35.2 44.8-70.4 67.2-105.6 70.4-51.2 3.2-92.8-41.6-128-80-9.6-6.4-12.8-12.8-19.2-19.2-38.4-38.4-38.4-121.6 3.2-227.2 44.8-118.4 134.4-249.6 249.6-364.8s246.4-204.8 364.8-249.6c48-19.2 96-32 134.4-32zM812.8-25.6c-38.4 0-86.4 9.6-137.6 28.8-118.4 44.8-243.2 131.2-358.4 246.4s-201.6 243.2-246.4 358.4c-38.4 102.4-41.6 185.6-6.4 217.6 6.4 6.4 12.8 12.8 19.2 19.2 32 35.2 70.4 73.6 115.2 73.6v0 0c32 0 64-22.4 99.2-64 99.2-124.8 60.8-163.2 6.4-217.6l-9.6-9.6c-38.4-38.4 6.4-124.8 140.8-259.2 57.6-57.6 105.6-99.2 144-124.8 54.4-35.2 89.6-41.6 112-19.2l9.6 9.6c54.4 54.4 92.8 96 217.6-6.4 41.6-32 64-67.2 64-96 3.2-44.8-38.4-83.2-73.6-118.4-6.4-6.4-12.8-12.8-19.2-19.2-16-9.6-41.6-19.2-76.8-19.2zM195.2 899.2c-35.2 0-67.2-35.2-99.2-67.2-6.4-6.4-12.8-12.8-19.2-19.2-28.8-28.8-22.4-105.6 9.6-195.2 44.8-115.2 128-240 243.2-352 112-112 240-198.4 352-243.2 89.6-32 166.4-38.4 195.2-9.6 6.4 6.4 12.8 12.8 19.2 19.2 32 32 70.4 67.2 67.2 102.4 0 25.6-19.2 54.4-57.6 83.2-112 89.6-137.6 60.8-192 6.4l-9.6-9.6c-28.8-28.8-76.8-25.6-137.6 16-41.6 25.6-89.6 70.4-147.2 128-147.2 147.2-192 236.8-140.8 284.8l9.6 9.6c54.4 54.4 83.2 80-6.4 192-28.8 35.2-57.6 54.4-86.4 54.4v0z" />
<glyph unicode="&#xe90d;" glyph-name="email" d="M512 654.976c114.112 0 206.976-92.864 206.976-206.976 0-16.48 13.344-29.824 29.824-29.824s29.824 13.344 29.824 29.824c0 147.008-119.616 266.624-266.624 266.624s-266.624-119.616-266.624-266.624c0-147.008 119.616-266.624 266.624-266.624 94.4 0 182.656 50.688 230.336 132.256 8.32 14.208 3.52 32.48-10.688 40.8s-32.48 3.52-40.8-10.688c-37.024-63.36-105.536-102.72-178.848-102.72-114.112 0-206.976 92.832-206.976 206.976s92.864 206.976 206.976 206.976zM1022.528 487.392c-18.688 248.832-220.352 451.264-469.056 470.88-150.336 11.84-297.408-42.208-403.52-148.32s-160.192-253.184-148.32-403.52c19.552-247.776 221.12-449.376 468.896-468.896 13.664-1.088 27.264-1.6 40.832-1.6 135.84 0 266.208 53.44 362.688 149.92 11.648 11.648 11.648 30.528 0 42.176s-30.528 11.648-42.176 0c-93.76-93.76-223.744-141.504-356.64-131.040-218.848 17.248-396.864 195.296-414.144 414.144-10.464 132.896 37.28 262.912 131.040 356.64s223.744 141.536 356.64 131.040c219.648-17.312 397.76-196.096 414.272-415.872 2.272-30.112 1.6-60.352-1.984-89.888-3.776-31.328-22.752-58.688-50.752-73.152-25.312-13.088-53.792-13.024-78.080 0.128-14.496 7.872-32.576 2.496-40.448-12s-2.496-32.576 12-40.448c41.92-22.72 90.72-22.976 133.888-0.704 45.568 23.52 76.416 68 82.592 118.976 4.032 33.408 4.8 67.552 2.24 101.536z" />
<glyph unicode="&#xe90e;" glyph-name="clock" d="M512 960c-282.304 0-512-229.696-512-512s229.696-512 512-512c282.304 0 512 229.696 512 512s-229.696 512-512 512zM512-20.96c-258.56 0-468.96 210.368-468.96 468.96s210.368 468.96 468.96 468.96c258.56 0 468.96-210.368 468.96-468.96s-210.368-468.96-468.96-468.96zM512.032 858.528c-11.872 0-21.536-9.632-21.536-21.536v-384.384h-249.088c-11.872 0-21.536-9.632-21.536-21.536s9.632-21.536 21.536-21.536h270.592c11.872 0 21.536 9.632 21.536 21.536v405.92c0 11.904-9.632 21.536-21.536 21.536z" />
<glyph unicode="&#xe90f;" glyph-name="plug" horiz-adv-x="800" d="M774.4 112v0h-739.2c-9.6 0-19.2 3.2-25.6 12.8-6.4 6.4-9.6 16-9.6 25.6l64 480c3.2 16 16 28.8 32 28.8h608c16 0 32-12.8 32-28.8l67.2-480c0-9.6 0-19.2-6.4-25.6-3.2-9.6-12.8-12.8-22.4-12.8zM99.2 640c-9.6 0-16-6.4-16-12.8l-64-480c0-3.2 0-9.6 3.2-12.8s6.4-6.4 12.8-6.4h739.2c0 0 0 0 0 0 3.2 0 9.6 3.2 12.8 6.4s3.2 9.6 3.2 12.8l-67.2 480c0 6.4-6.4 12.8-16 12.8h-608zM752 480h-694.4c-6.4 0-9.6 3.2-9.6 9.6s3.2 9.6 9.6 9.6h694.4c6.4 0 9.6-3.2 9.6-9.6s-6.4-9.6-9.6-9.6zM777.6 294.4h-745.6c-6.4 0-9.6 3.2-9.6 9.6s3.2 9.6 9.6 9.6h745.6c6.4 0 9.6-3.2 9.6-9.6s-6.4-9.6-9.6-9.6zM272 112c0 0 0 0 0 0-6.4 0-9.6 3.2-9.6 9.6l16 528c0 3.2 3.2 9.6 9.6 9.6 0 0 0 0 0 0 6.4 0 9.6-3.2 9.6-9.6l-19.2-531.2c0-3.2-3.2-6.4-6.4-6.4zM553.6 112c-3.2 0-9.6 3.2-9.6 9.6l-41.6 528c0 6.4 3.2 9.6 9.6 9.6s9.6-3.2 9.6-9.6l41.6-528c-3.2-6.4-6.4-9.6-9.6-9.6 0 0 0 0 0 0zM444.8-9.6h-80v134.4h80v-134.4zM380.8 6.4h44.8v99.2h-44.8v-99.2zM608-60.8h-406.4c-12.8 0-22.4 9.6-22.4 22.4v19.2c0 12.8 9.6 22.4 22.4 22.4h406.4c12.8 0 22.4-9.6 22.4-22.4v-19.2c0-12.8-9.6-22.4-22.4-22.4zM201.6-9.6c-3.2 0-6.4-3.2-6.4-6.4v-19.2c0-3.2 3.2-6.4 6.4-6.4h406.4c3.2 0 6.4 3.2 6.4 6.4v19.2c0 3.2-3.2 6.4-6.4 6.4h-406.4zM403.2 755.2c-38.4 0-70.4 32-70.4 70.4s32 70.4 70.4 70.4 70.4-32 70.4-70.4-32-70.4-70.4-70.4zM403.2 880c-28.8 0-54.4-22.4-54.4-54.4s22.4-54.4 54.4-54.4 54.4 22.4 54.4 54.4-25.6 54.4-54.4 54.4zM528 819.2h-28.8c-6.4 0-9.6 3.2-9.6 9.6s3.2 9.6 9.6 9.6h28.8c6.4 0 9.6-3.2 9.6-9.6s-6.4-9.6-9.6-9.6zM310.4 819.2h-28.8c-6.4 0-9.6 3.2-9.6 9.6s3.2 9.6 9.6 9.6h28.8c6.4 0 9.6-3.2 9.6-9.6s-6.4-9.6-9.6-9.6zM403.2 694.4c-6.4 0-9.6 3.2-9.6 9.6v25.6c0 6.4 3.2 9.6 9.6 9.6s9.6-3.2 9.6-9.6v-28.8c0-3.2-3.2-6.4-9.6-6.4zM403.2 912c-6.4 0-9.6 3.2-9.6 9.6v25.6c0 6.4 3.2 9.6 9.6 9.6s9.6-3.2 9.6-9.6v-28.8c0-3.2-3.2-6.4-9.6-6.4zM486.4 736c-3.2 0-3.2 0-6.4 3.2l-19.2 19.2c-3.2 3.2-3.2 9.6 0 12.8s9.6 3.2 12.8 0l19.2-19.2c3.2-3.2 3.2-9.6 0-12.8 0-3.2-3.2-3.2-6.4-3.2zM332.8 889.6c-3.2 0-3.2 0-6.4 3.2l-19.2 19.2c-3.2 3.2-3.2 9.6 0 12.8s9.6 3.2 12.8 0l19.2-19.2c3.2-3.2 3.2-9.6 0-12.8 0-3.2-3.2-3.2-6.4-3.2zM310.4 732.8c0 0-3.2 3.2-6.4 3.2-3.2 3.2-3.2 9.6 0 12.8l22.4 19.2c3.2 3.2 9.6 3.2 12.8 0s3.2-9.6 0-12.8l-22.4-19.2c0 0-3.2-3.2-6.4-3.2zM467.2 889.6c-3.2 0-3.2 0-6.4 3.2s-3.2 9.6 0 12.8l19.2 16c3.2 3.2 9.6 3.2 12.8 0s3.2-9.6 0-12.8l-19.2-19.2c-3.2 0-6.4 0-6.4 0z" />
<glyph unicode="&#xe910;" glyph-name="download" horiz-adv-x="910" d="M782.387 256v-192h-662.021v192h-120.367v-256c0-35.391 26.962-64 60.183-64h782.387c33.28 0 60.183 28.609 60.183 64v256h-120.366zM689.431 493.248c-4.875 11.456-15.588 18.752-27.386 18.752h-120.366v416c0 17.664-13.481 32-30.092 32h-120.367c-16.61 0-30.091-14.336-30.091-32v-416h-120.367c-11.796 0-22.509-7.36-27.383-18.752-4.935-11.456-3.009-24.831 4.754-34.303l210.642-255.999c5.717-6.98 13.962-10.945 22.629-10.945s16.912 4.033 22.629 10.945l210.642 255.999c7.822 9.408 9.631 22.848 4.756 34.303z" />
<glyph unicode="&#xe911;" glyph-name="next-thin" horiz-adv-x="415" d="M24.622-59.405l384.919 500.757-376.108 507.351-22.216-16.486 363.676-490.595-372.216-484.162z" />
<glyph unicode="&#xe912;" glyph-name="prev-thin" horiz-adv-x="415" d="M390.378 955.405l-384.919-500.757 376.108-507.351 22.216 16.486-363.676 490.595 372.216 484.162z" />
<glyph unicode="&#xe913;" d="M512-64c-281.6 0-512 230.4-512 512s230.4 512 512 512 512-230.4 512-512-230.4-512-512-512zM512 892.8c-243.2 0-444.8-201.6-444.8-444.8s198.4-444.8 444.8-444.8c243.2 0 444.8 198.4 444.8 444.8 0 243.2-201.6 444.8-444.8 444.8z" />
<glyph unicode="&#xe914;" d="M272 483.2h476.8v-67.2h-476.8v67.2z" />
<glyph unicode="&#xe915;" d="M476.8 688h67.2v-476.8h-67.2v476.8z" />
<glyph unicode="&#xe916;" glyph-name="down-arrow" d="M511.989 155.427l329.142 329.143-109.713 109.713-146.285-146.285v512.001h-146.285v-512.001l-146.285 146.285-109.714-109.713 329.139-329.143zM0 82.288h1024v-146.285h-1024v146.285z" />
<glyph unicode="&#xe917;" glyph-name="linkedin" d="M950.608 9.143v0.037h0.219v321.902c0 157.477-33.902 278.784-218.002 278.784-88.5 0-147.892-48.567-172.139-94.61h-2.56v79.909h-174.555v-585.985h181.76v290.158c0 76.398 14.482 150.272 109.093 150.272 93.218 0 94.607-87.186 94.607-155.173v-285.294h181.577zM87.643 595.125h181.979v-585.982h-181.979v585.982zM178.542 886.857c-58.185 0-105.399-47.214-105.399-105.399s47.214-106.386 105.399-106.386c58.185 0 105.399 48.201 105.399 106.386-0.037 58.185-47.25 105.399-105.399 105.399v0z" />
<glyph unicode="&#xe918;" glyph-name="youtube" d="M971.719 687.947c-11.062 41.127-43.488 73.547-84.609 84.621-75.123 20.555-375.621 20.555-375.621 20.555s-300.486 0-375.609-19.775c-40.33-11.062-73.547-44.279-84.609-85.4-19.77-75.117-19.77-230.9-19.77-230.9s0-156.568 19.77-230.9c11.074-41.121 43.488-73.541 84.615-84.615 75.908-20.561 375.615-20.561 375.615-20.561s300.486 0 375.609 19.775c41.127 11.068 73.547 43.488 84.621 84.609 19.764 75.123 19.764 230.9 19.764 230.9s0.791 156.574-19.775 231.691zM415.816 313.129v287.836l249.879-143.918z" />
<glyph unicode="&#xe919;" glyph-name="xing" horiz-adv-x="878" d="M0 286.441l161.243 275.831-120.906 221.311h204.65l120.968-221.311-161.254-275.831h-204.701zM763.004-5.486h-217.157l-207.825 378.511 322.589 586.975h217.103l-322.586-586.975 207.876-378.511z" />
<glyph unicode="&#xe91a;" glyph-name="twitter" horiz-adv-x="1195" d="M1064.883 673.589c0.452-10.079 0.666-20.204 0.666-30.375 0-310.578-236.403-668.72-668.731-668.737-132.734 0-256.25 38.912-360.266 105.583 18.391-2.176 37.109-3.251 56.063-3.251 110.124 0 211.469 37.561 291.922 100.608-102.891 1.906-189.641 69.86-219.578 163.25 14.327-2.75 29.062-4.25 44.171-4.25 21.454 0 42.235 2.891 61.984 8.282-107.546 21.531-188.562 116.578-188.562 230.391 0 1.062 0 2.016 0.031 2.999 31.672-17.609 67.891-28.203 106.453-29.391-63.109 42.109-104.594 114.094-104.594 195.641 0 43.063 11.641 83.406 31.828 118.141 115.907-142.219 289.125-235.75 484.469-245.578-4.031 17.219-6.11 35.156-6.11 53.594 0 129.75 105.265 235.016 235.063 235.016 67.613 0 128.669-28.578 171.566-74.266 53.547 10.563 103.825 30.125 149.248 57.047-17.579-54.86-54.827-100.89-103.364-130 47.548 5.687 92.86 18.297 134.972 37.016-31.454-47.141-71.347-88.547-117.231-121.719z" />
</font>
</defs>
</svg>
