<?xml version="1.0" encoding="UTF-8"?> <svg xmlns="http://www.w3.org/2000/svg" width="94" height="58" viewBox="0 0 94 58" fill="none"><path d="M91.3947 25.2937C91.5583 25.2939 91.7151 25.3591 91.8307 25.4748C91.9463 25.5906 92.0113 25.7475 92.0113 25.9111V44.0137C92.0113 44.1773 91.9463 44.3342 91.8306 44.4499C91.7149 44.5655 91.5581 44.6305 91.3945 44.6305H63.5975H63.4475V44.4805V8.84761V8.84743C63.4477 8.68381 63.5127 8.52694 63.6284 8.41124C63.7441 8.29555 63.901 8.23046 64.0646 8.23026H64.0648H80.7194H80.7195V8.38026C80.8033 8.38019 80.8856 8.40271 80.9578 8.44544C81.0299 8.48818 81.0892 8.54955 81.1294 8.62312L90.0929 25.0401M91.3947 25.2937L90.2243 24.9678L90.0929 25.0401M91.3947 25.2937L90.7737 25.292L90.7731 25.292C90.661 25.2921 90.5509 25.2621 90.4544 25.205C90.3579 25.1481 90.2785 25.0662 90.2245 24.9681M91.3947 25.2937L90.2245 24.9681M90.0929 25.0401L90.2246 24.9682L90.2245 24.9681M90.0929 25.0401C90.1599 25.1619 90.2584 25.2635 90.3781 25.3342C90.4978 25.4049 90.6342 25.4421 90.7733 25.442L90.2245 24.9681M91.2331 24.0435H91.1441L91.1015 23.9654L82.3585 7.95264L82.3584 7.95257C82.1979 7.65815 81.9609 7.41244 81.6725 7.24131C81.3841 7.07017 81.0549 6.97993 80.7196 6.98008H80.7195H64.0649C63.5697 6.98066 63.0951 7.17762 62.7449 7.52774C62.3948 7.87788 62.1978 8.35261 62.1973 8.84778V45.2556C62.1973 45.4214 62.2631 45.5804 62.3804 45.6976C62.4976 45.8148 62.6566 45.8807 62.8224 45.8807H91.3943C91.8893 45.8801 92.3639 45.6832 92.7139 45.3332C93.064 44.9832 93.2609 44.5086 93.2614 44.0136L93.2614 25.9112C93.2609 25.4161 93.064 24.9415 92.714 24.5914C92.3639 24.2413 91.8893 24.0442 91.3943 24.0435H91.2331Z" fill="#005CA9" stroke="white" stroke-width="0.3"></path><path d="M69.9124 25.5896H84.983C85.2794 25.5895 85.5706 25.5124 85.828 25.3658C86.0855 25.2191 86.3004 25.008 86.4517 24.7532C86.6029 24.4984 86.6852 24.2086 86.6905 23.9123C86.6959 23.616 86.6241 23.3235 86.4821 23.0634L80.5007 12.1157C80.3538 11.8464 80.1371 11.6217 79.8733 11.4652C79.6095 11.3087 79.3084 11.2262 79.0016 11.2263H70.8454C70.3925 11.2268 69.9583 11.4069 69.6381 11.7271C69.3179 12.0473 69.1378 12.4815 69.1373 12.9344V24.8145C69.1373 24.9163 69.1572 25.0171 69.1962 25.1112C69.2351 25.2053 69.2922 25.2908 69.3642 25.3627C69.4362 25.4347 69.5216 25.4918 69.6157 25.5308C69.7098 25.5697 69.8106 25.5897 69.9124 25.5896ZM79.0045 12.7748C79.0329 12.7748 79.0607 12.7825 79.0852 12.7969C79.1096 12.8113 79.1297 12.832 79.1435 12.8569L85.1214 23.8063C85.1346 23.8303 85.1413 23.8573 85.1408 23.8847C85.1404 23.9121 85.1328 23.9389 85.1188 23.9624C85.1049 23.9859 85.085 24.0054 85.0612 24.0189C85.0373 24.0324 85.0104 24.0395 84.983 24.0394H70.6869V12.9327C70.6869 12.8908 70.7036 12.8506 70.7332 12.821C70.7628 12.7914 70.8029 12.7748 70.8448 12.7748H79.0045Z" fill="#005CA9"></path><path fill-rule="evenodd" clip-rule="evenodd" d="M69.9124 25.2896H84.983C84.983 25.2896 84.983 25.2896 84.983 25.2896C85.2272 25.2895 85.4673 25.226 85.6796 25.1051C85.8918 24.9842 86.069 24.8102 86.1937 24.6001C86.3183 24.39 86.3862 24.1511 86.3906 23.9069C86.395 23.6627 86.3358 23.4215 86.2188 23.2071L80.2375 12.2595C80.1164 12.0376 79.9376 11.8522 79.7202 11.7232C79.5028 11.5942 79.2546 11.5262 79.0018 11.5263L70.8456 11.5263C70.4722 11.5267 70.1143 11.6752 69.8502 11.9392C69.5862 12.2032 69.4377 12.5612 69.4373 12.9345V24.8145C69.4373 24.8769 69.4495 24.9389 69.4734 24.9965C69.4972 25.0541 69.5322 25.1065 69.5763 25.1506C69.6204 25.1947 69.6728 25.2297 69.7304 25.2535C69.7881 25.2774 69.85 25.2896 69.9124 25.2896ZM69.1373 12.9344C69.1378 12.4815 69.3179 12.0473 69.6381 11.7271C69.9583 11.4069 70.3925 11.2268 70.8454 11.2263H79.0016C79.3084 11.2262 79.6095 11.3087 79.8733 11.4652C80.1371 11.6217 80.3538 11.8464 80.5007 12.1157L86.4821 23.0634C86.6241 23.3235 86.6959 23.616 86.6905 23.9123C86.6852 24.2086 86.6029 24.4984 86.4517 24.7532C86.3004 25.008 86.0855 25.2191 85.828 25.3658C85.5706 25.5124 85.2794 25.5895 84.983 25.5896H69.9124C69.8106 25.5897 69.7098 25.5697 69.6157 25.5308C69.5216 25.4918 69.4362 25.4347 69.3642 25.3627C69.2922 25.2908 69.2351 25.2053 69.1962 25.1112C69.1572 25.0171 69.1373 24.9163 69.1373 24.8145V12.9344ZM79.005 12.4748C79.0869 12.4749 79.1673 12.497 79.2378 12.5386C79.3083 12.5803 79.3664 12.6401 79.406 12.7118L79.4068 12.7131L85.3843 23.6618C85.3844 23.6619 85.3842 23.6616 85.3843 23.6618C85.4225 23.7314 85.4421 23.8103 85.4408 23.8897C85.4395 23.9692 85.4174 24.0471 85.3768 24.1155C85.3362 24.184 85.2784 24.2406 85.2092 24.2799C85.1402 24.319 85.0622 24.3395 84.9829 24.3394C84.9826 24.3394 84.9831 24.3394 84.9829 24.3394H70.3869V12.9327C70.3869 12.8112 70.4352 12.6948 70.521 12.6089C70.6069 12.523 70.7234 12.4748 70.8448 12.4748H79.005Z" fill="white"></path><path d="M77.4173 36.4341C72.5484 36.6075 68.742 40.6951 68.9154 45.564C69.0888 50.4329 73.1765 54.2394 78.0454 54.0659C82.9143 53.8925 86.7207 49.8049 86.5473 44.936C86.3738 40.0671 82.2862 36.2606 77.4173 36.4341Z" fill="white" stroke="white" stroke-width="0.3"></path><path d="M77.7299 36.9097H77.8799V36.9127C82.4129 36.993 86.0758 40.7032 86.0758 45.2573C86.0758 49.8615 82.3318 53.6043 77.7299 53.6043C73.128 53.6043 69.3847 49.8579 69.3847 45.2555C69.3847 40.6531 73.1263 36.9097 77.7299 36.9097ZM77.7299 54.8545C83.021 54.8545 87.326 50.549 87.326 45.2573C87.326 39.9656 83.0211 35.6612 77.7299 35.6612C72.4388 35.6612 68.1345 39.9645 68.1345 45.2555C68.1345 50.5467 72.4383 54.8545 77.7299 54.8545Z" fill="#005CA9" stroke="white" stroke-width="0.3"></path><path d="M77.7299 40.2152L73.3643 42.7352V47.7758L77.7299 50.2958L82.0949 47.7758V42.7352L77.7299 40.2152Z" fill="white" stroke="white" stroke-width="0.3"></path><path d="M0.855042 45.7537H0.855152H57.1709C57.3367 45.7537 57.4957 45.6879 57.6129 45.5706C57.7301 45.4534 57.796 45.2944 57.796 45.1286V2.32534C57.7954 1.74859 57.566 1.19562 57.1582 0.787793C56.7503 0.379947 56.1973 0.150569 55.6206 0.15L2.40541 0.15C1.82865 0.150588 1.27568 0.379964 0.867851 0.787793C0.460003 1.19564 0.230629 1.74864 0.230061 2.32542V45.1286V45.1287C0.23 45.2108 0.246124 45.2921 0.277508 45.368C0.308895 45.4438 0.354927 45.5127 0.412975 45.5708C0.47102 45.6288 0.53994 45.6749 0.615795 45.7063C0.691647 45.7376 0.772945 45.7538 0.855042 45.7537ZM56.5458 44.3535V44.5035H56.3958H1.63024H1.48024V44.3535V2.32642L1.48024 2.32631C1.48042 2.08105 1.57793 1.84588 1.75136 1.67245C1.92479 1.49902 2.15996 1.40151 2.40522 1.40133H2.40533H55.6207L55.6208 1.40133C55.8661 1.40151 56.1013 1.49902 56.2747 1.67245C56.4481 1.84588 56.5456 2.08105 56.5458 2.32631V2.32642V44.3535Z" fill="#005CA9" stroke="white" stroke-width="0.3"></path><path d="M66.1247 37.5321H49.8613V47.035H66.1247V37.5321Z" fill="white" stroke="white" stroke-width="0.3"></path><path d="M66.8998 37.382L66.8998 37.3819C66.8998 37.2998 66.8837 37.2185 66.8523 37.1427C66.8209 37.0668 66.7749 36.9979 66.7169 36.9398C66.6588 36.8818 66.5899 36.8358 66.514 36.8044C66.4382 36.773 66.3569 36.7569 66.2748 36.7569H66.2747L49.7113 36.7569L49.7112 36.7569C49.6291 36.7569 49.5478 36.773 49.4719 36.8044C49.3961 36.8358 49.3272 36.8818 49.2691 36.9398C49.2111 36.9979 49.165 37.0668 49.1337 37.1427C49.1023 37.2185 49.0861 37.2998 49.0862 37.3819V37.382V47.1849C49.0862 47.3507 49.1521 47.5097 49.2693 47.6269C49.3865 47.7441 49.5455 47.81 49.7113 47.81H66.2747C66.4405 47.81 66.5995 47.7441 66.7167 47.6269C66.8339 47.5097 66.8998 47.3507 66.8998 47.1849L66.8998 37.382ZM65.6502 46.4098L65.6502 46.5598H65.5002H50.4864H50.3364V46.4098V38.1571V38.0071H50.4864H65.4996H65.6496L65.6496 38.1571L65.6502 46.4098Z" fill="#005CA9" stroke="white" stroke-width="0.3"></path><path d="M17.564 39.0181C14.119 42.4631 14.119 48.0486 17.564 51.4936C21.009 54.9386 26.5945 54.9386 30.0395 51.4936C33.4845 48.0486 33.4845 42.4631 30.0395 39.0181C26.5945 35.5731 21.009 35.5731 17.564 39.0181Z" fill="white" stroke="white" stroke-width="0.3"></path><path d="M15.9793 50.8169L15.9795 50.8172C16.7073 51.8463 17.632 52.721 18.7001 53.3904C19.7681 54.0599 20.9583 54.5109 22.2018 54.7174L22.2023 54.7175C22.7376 54.8081 23.2795 54.8539 23.8225 54.8543C25.3321 54.8511 26.8196 54.4918 28.1642 53.8057C29.5089 53.1196 30.6728 52.126 31.5613 50.9056C32.4499 49.6851 33.038 48.2723 33.2779 46.7819C33.5178 45.2915 33.4028 43.7654 32.9421 42.3278C32.4815 40.8902 31.6882 39.5815 30.6267 38.5081C29.5653 37.4347 28.2656 36.6268 26.8332 36.15C25.4009 35.6732 23.8763 35.5411 22.3832 35.7642C20.8902 35.9874 19.4709 36.5596 18.2406 37.4344C13.9285 40.5011 12.9149 46.5048 15.9793 50.8169ZM23.6348 36.9085V36.9068L23.7847 36.9067C24.2561 36.9062 24.7268 36.9453 25.1917 37.0236L25.1917 37.0236C26.5452 37.2521 27.8213 37.8108 28.9072 38.6504C29.9931 39.4899 30.8552 40.5843 31.4172 41.8366C31.9791 43.0888 32.2235 44.4604 32.1288 45.8297C32.034 47.199 31.603 48.5238 30.874 49.6867C30.1449 50.8497 29.1403 51.8149 27.9491 52.4969C26.758 53.1788 25.417 53.5565 24.045 53.5964C22.673 53.6364 21.3123 53.3373 20.0835 52.7258C18.8547 52.1142 17.7957 51.2091 17.0002 50.0905C14.333 46.3399 15.2146 41.1187 18.9651 38.4514C20.3306 37.4758 21.9592 36.9385 23.6348 36.9085Z" fill="#005CA9" stroke="white" stroke-width="0.3"></path><path d="M25.899 40.6717L20.8812 41.1474L18.7842 45.7311L21.7055 49.8386L26.7233 49.3629L28.8204 44.7792L25.899 40.6717Z" fill="white" stroke="white" stroke-width="0.3"></path></svg> 