<?xml version="1.0" encoding="UTF-8"?> <!-- Generator: Adobe Illustrator 23.0.2, SVG Export Plug-In . SVG Version: 6.00 Build 0) --> <svg xmlns="http://www.w3.org/2000/svg" xmlns:xlink="http://www.w3.org/1999/xlink" id="Layer_1" x="0px" y="0px" viewBox="0 0 78 57" style="enable-background:new 0 0 78 57;" xml:space="preserve"> <style type="text/css"> .st0{fill:#005CA9;} </style> <path class="st0" d="M19,57c-5,0-9-4-9-9s4-9,9-9s9,4,9,9S24,57,19,57z M19,40c-4.4,0-8,3.6-8,8s3.6,8,8,8s8-3.6,8-8S23.4,40,19,40z "></path> <path class="st0" d="M75.5,48.5c-0.3,0-0.5-0.2-0.5-0.5s0.2-0.5,0.5-0.5c0.3,0,0.5-0.2,0.5-0.5v-8c0-0.3-0.2-0.5-0.5-0.5H2 c-0.3,0-0.5,0.2-0.5,0.5v3.5C1.5,42.8,1.7,43,2,43h5c0.8,0,1.5,0.7,1.5,1.5v3C8.8,47.5,9,47.7,9,48s-0.2,0.5-0.5,0.5 c-0.6,0-1-0.4-1-1v-3C7.5,44.2,7.3,44,7,44H2c-0.8,0-1.5-0.7-1.5-1.5V39c0-0.8,0.7-1.5,1.5-1.5h73.5c0.8,0,1.5,0.7,1.5,1.5v8 C77,47.8,76.3,48.5,75.5,48.5z"></path> <path class="st0" d="M54,48.5H29c-0.3,0-0.5-0.2-0.5-0.5s0.2-0.5,0.5-0.5h25c0.3,0,0.5,0.2,0.5,0.5S54.3,48.5,54,48.5z"></path> <path class="st0" d="M52,38.5c-0.1,0-0.3,0-0.4-0.1c-0.2-0.2-0.2-0.4-0.1-0.6c0.3-1.1,0.2-12.8,0-23.2c0-0.4,0.1-0.8,0.4-1.1 c0.3-0.3,0.7-0.4,1.1-0.4h11.5c0.5,0,0.9,0.2,1.2,0.6l9,12.8c0.2,0.3,0.3,0.6,0.3,0.9V38c0,0.3-0.2,0.5-0.5,0.5S74,38.3,74,38V27.3 c0-0.1,0-0.2-0.1-0.3l-9-12.8c-0.1-0.1-0.2-0.2-0.4-0.2H53c-0.1,0-0.3,0.1-0.4,0.1c-0.1,0.1-0.1,0.2-0.1,0.4 c0.5,23.2,0,23.6-0.2,23.8C52.3,38.5,52.1,38.5,52,38.5z"></path> <path class="st0" d="M68.5,26h-10c-0.8,0-1.5-0.7-1.5-1.5V17c0-0.3,0.2-0.5,0.5-0.5S58,16.7,58,17v7.5c0,0.3,0.2,0.5,0.5,0.5h10 c0.3,0,0.5,0.2,0.5,0.5S68.8,26,68.5,26z"></path> <path class="st0" d="M39.9,34.5H25.8c-0.2,0-0.3,0-0.5-0.1l-7.1-3.8c-0.1-0.1-0.2-0.1-0.3-0.2L1.5,11.5c-0.3-0.3-0.3-0.8-0.1-1.1 l4.9-8.8c0.2-0.3,0.6-0.5,1-0.5L31.3,3c0.1,0,0.3,0,0.4,0.1l8.1,4.3c0.2,0.1,0.3,0.2,0.4,0.3l7.6,11.8c0.2,0.3,0.2,0.7,0.1,1 l-6.6,13.2c-0.1,0.2-0.3,0.3-0.4,0.4c0,0,0,0,0,0l-0.6,0.3C40,34.5,40,34.5,39.9,34.5z M40.5,33.7L40.5,33.7L40.5,33.7z M7.1,2 l-4.9,8.8l16.4,18.8l7.1,3.8h14l0.5-0.2c0,0,0,0,0,0l6.6-13.2L39.3,8.3L31.2,4L7.1,2z"></path> <path class="st0" d="M12,38.5c-0.3,0-0.5-0.2-0.5-0.5V23.3c0-0.3,0.2-0.5,0.5-0.5s0.5,0.2,0.5,0.5V38C12.5,38.3,12.3,38.5,12,38.5z M6,38.5c-0.3,0-0.5-0.2-0.5-0.5V16c0-0.3,0.2-0.5,0.5-0.5s0.5,0.2,0.5,0.5v22C6.5,38.3,6.3,38.5,6,38.5z"></path> <path class="st0" d="M34,38.5c-0.3,0-0.5-0.2-0.5-0.5v-3.5c0-0.3,0.2-0.5,0.5-0.5s0.5,0.2,0.5,0.5V38C34.5,38.3,34.3,38.5,34,38.5z"></path> <path class="st0" d="M25.5,34.5c-0.1,0-0.2,0-0.2-0.1c-0.2-0.1-0.3-0.4-0.2-0.7l14-26c0.1-0.2,0.4-0.3,0.7-0.2 C40,7.7,40.1,8,39.9,8.2l-14,26C25.9,34.4,25.7,34.5,25.5,34.5z M18,30.5c-0.1,0-0.2,0-0.2-0.1c-0.2-0.1-0.3-0.4-0.2-0.7l13.5-26 c0.1-0.2,0.4-0.3,0.7-0.2C32,3.7,32.1,4,31.9,4.2l-13.5,26C18.4,30.4,18.2,30.5,18,30.5z"></path> <path class="st0" d="M65,57c-5,0-9-4-9-9s4-9,9-9s9,4,9,9S70,57,65,57z M65,40c-4.4,0-8,3.6-8,8s3.6,8,8,8s8-3.6,8-8S69.4,40,65,40z "></path> </svg> 