<?xml version="1.0" encoding="UTF-8"?> <!-- Generator: Adobe Illustrator 23.0.2, SVG Export Plug-In . SVG Version: 6.00 Build 0) --> <svg xmlns="http://www.w3.org/2000/svg" xmlns:xlink="http://www.w3.org/1999/xlink" id="Layer_1" x="0px" y="0px" viewBox="0 0 74 57" style="enable-background:new 0 0 74 57;" xml:space="preserve"> <style type="text/css"> .st0{fill:#005CA9;} </style> <path class="st0" d="M68.6,29.4h-17c-1,0-1.9-0.8-1.9-1.9V13c0-0.3,0.2-0.5,0.5-0.5s0.5,0.2,0.5,0.5v14.5c0,0.5,0.4,0.9,0.9,0.9h17 c0.3,0,0.5,0.2,0.5,0.5S68.9,29.4,68.6,29.4z"></path> <path class="st0" d="M39.2,35.7c-0.1,0-0.3-0.1-0.4-0.2L5.3,1C5.1,0.9,5.1,0.7,5.2,0.5s0.3-0.3,0.5-0.3h7.2c0.6,0,1.2,0.2,1.6,0.6 l29.3,26.8c0.2,0.2,0.2,0.5,0,0.7c-0.2,0.2-0.5,0.2-0.7,0L13.7,1.5c-0.2-0.2-0.6-0.4-0.9-0.4h-6l32.8,33.7c0.2,0.2,0.2,0.5,0,0.7 C39.5,35.7,39.4,35.7,39.2,35.7z"></path> <path class="st0" d="M5.8,19.4c-0.9,0-1.8-0.3-2.6-0.8c-0.9-0.6-2-1.8-2.1-4.2c0-0.3,0.2-0.5,0.5-0.5c0.3,0,0.5,0.2,0.5,0.5 c0.1,1.6,0.6,2.7,1.6,3.4c1.5,1,3.5,0.7,4.6-0.6c0.3-0.4,0.7-1.2,0.7-1.9c0-3.7-3.8-3.8-3.9-3.8c-0.3,0-0.5-0.2-0.5-0.5V0.7 c0-0.3,0.2-0.5,0.5-0.5s0.5,0.2,0.5,0.5v9.9c1.8,0.2,4.4,1.4,4.4,4.8c0,1-0.5,2-0.9,2.5C8.4,18.9,7.1,19.4,5.8,19.4z"></path> <path class="st0" d="M58,56.8c-3.8,0-7.1-2.5-8-6.2c-0.1-0.6-0.6-0.9-1.2-0.9H22.4c-0.6,0-1,0.4-1.2,0.9c-1,3.4-4.3,5.8-7.9,5.8 c-3.6,0-6.8-2.4-7.9-5.8c-0.2-0.5-0.6-0.9-1.2-0.9H2.4c-1.2,0-2.2-1-2.2-2.2V36.9c0-1.2,1-2.2,2.2-2.2h39.7c0.7,0,1.2-0.6,1.2-1.2 V14.7c0-1.2,1-2.2,2.2-2.2h12.8c0.8,0,1.5,0.4,1.9,1l13.4,21.4c0,0.1,0.1,0.2,0.1,0.3v12.3c0,1.2-1,2.2-2.2,2.2h-4.4 c-0.6,0-1.1,0.4-1.2,0.9C65.1,54.3,61.8,56.8,58,56.8z M22.4,48.7h26.5c1,0,1.9,0.7,2.2,1.7c0.8,3.2,3.7,5.4,7,5.4s6.2-2.2,7-5.4 c0.3-1,1.1-1.7,2.2-1.7h4.4c0.7,0,1.2-0.6,1.2-1.2V35.4L59.5,14.1c-0.2-0.4-0.6-0.6-1.1-0.6H45.6c-0.7,0-1.2,0.6-1.2,1.2v18.8 c0,1.2-1,2.2-2.2,2.2H2.4c-0.7,0-1.2,0.6-1.2,1.2v10.5c0,0.7,0.6,1.2,1.2,1.2h1.9c1,0,1.9,0.6,2.1,1.6c0.9,3,3.7,5.1,6.9,5.1 c3.2,0,6-2.1,6.9-5.1C20.5,49.4,21.4,48.7,22.4,48.7z"></path> <path class="st0" d="M13.3,56.4c-4.5,0-8.2-3.7-8.2-8.2s3.7-8.2,8.2-8.2s8.2,3.7,8.2,8.2S17.8,56.4,13.3,56.4z M13.3,41.1 c-4,0-7.2,3.2-7.2,7.2c0,4,3.2,7.2,7.2,7.2s7.2-3.2,7.2-7.2C20.5,44.3,17.3,41.1,13.3,41.1z"></path> <path class="st0" d="M58,56.8c-4.5,0-8.2-3.7-8.2-8.2s3.7-8.2,8.2-8.2c4.5,0,8.2,3.7,8.2,8.2S62.6,56.8,58,56.8z M58,41.5 c-4,0-7.2,3.2-7.2,7.2c0,4,3.2,7.2,7.2,7.2s7.2-3.2,7.2-7.2C65.3,44.7,62,41.5,58,41.5z"></path> </svg> 