<?xml version="1.0" encoding="UTF-8"?> <!-- Generator: Adobe Illustrator 23.0.2, SVG Export Plug-In . SVG Version: 6.00 Build 0) --> <svg xmlns="http://www.w3.org/2000/svg" xmlns:xlink="http://www.w3.org/1999/xlink" id="Layer_1" x="0px" y="0px" viewBox="0 0 59 63" style="enable-background:new 0 0 59 63;" xml:space="preserve"> <style type="text/css"> .st0{clip-path:url(#SVGID_2_);} .st1{fill:#005CA9;} .st2{fill-rule:evenodd;clip-rule:evenodd;fill:#005CA9;} </style> <g> <g> <defs> <rect id="SVGID_1_" y="0" width="58.9" height="62.6"></rect> </defs> <clipPath id="SVGID_2_"> <use xlink:href="#SVGID_1_" style="overflow:visible;"></use> </clipPath> <g class="st0"> <path class="st1" d="M11.2,48.9c-0.1,0-0.2,0-0.3-0.1c-0.2-0.1-0.3-0.4-0.2-0.7c2.7-4.5-3.2-11-3.3-11C7.3,37,5.7,35,6,32.2 c0.2-1.9,1.4-3.7,3.4-5.2l0.3-0.2c1.2-0.9,1.9-2.3,2-3.8s-0.3-3-1.3-4.1s-1.8-2.4-2.6-3.7c-0.5-1-0.6-1.8-0.2-2.5 c0.7-1.2,2.7-1.6,4.3-1.6c1,0,1.9-0.4,2.6-1c0.6-0.5,0.9-1,0.8-1.4c-0.2-1.3-2.8-2.4-3.7-2.7c-0.3-0.1-0.4-0.4-0.3-0.6 C11.4,5,11.6,4.9,11.9,5c0.4,0.1,4,1.4,4.4,3.5c0.1,0.8-0.2,1.6-1.2,2.4c-0.9,0.7-2,1.1-3.2,1.2c-1.8,0.1-3.1,0.5-3.5,1.1 c-0.2,0.4-0.1,0.9,0.2,1.5c0.7,1.3,1.6,2.5,2.5,3.6c1.2,1.3,1.7,3.1,1.6,4.9c-0.2,1.8-1,3.4-2.4,4.5L10,27.8 c-1.8,1.4-2.8,2.9-3,4.5c-0.3,2.3,1.1,4.1,1.1,4.1c0.2,0.3,6.5,7,3.4,12.2C11.5,48.8,11.3,48.9,11.2,48.9z"></path> <path class="st1" d="M27.1,43.2c-0.1,0-0.2,0-0.2-0.1c-0.1-0.1-0.2-0.2-0.3-0.4c-0.6-6.5-5.8-12.3-7.3-14c-0.5-0.5-0.9-1.2-1-1.9 c-0.2-0.8,0-1.5,0.4-2.1c1-1.3,3.3-1.5,5-1.7c0.4,0,0.9-0.1,1.1-0.1c0.1-0.2,0.2-0.5,0.3-0.9c0.3-0.7,0.7-1.3,1.3-1.8 c0.6-0.5,0.7-1.1,0.3-1.8c-1.3-2.1-1.6-5.2,0.1-6.6c0.9-0.8,3.1-1,6.7-0.7c1,0.1,1.9-0.1,2.7-0.6c2.7-1.5,8-3.2,8.2-3.3 c0.3-0.1,0.5,0.1,0.6,0.3c0.1,0.3-0.1,0.5-0.3,0.6c-0.1,0-5.5,1.7-8,3.2c-1,0.6-2.1,0.8-3.3,0.7c-3.1-0.2-5.3,0-5.9,0.5 c-1.2,1.1-0.9,3.7,0.1,5.4c0.7,1.1,0.5,2.2-0.5,3.1c-0.5,0.4-0.9,0.9-1.1,1.4s-0.3,0.7-0.3,0.9c-0.1,0.6-0.8,0.7-2,0.8 c-1.4,0.1-3.5,0.3-4.3,1.3c-0.3,0.3-0.3,0.8-0.2,1.3c0.1,0.5,0.4,1,0.8,1.4c1.6,1.6,6.6,7.3,7.5,13.8c1.7-1.1,6.2-4.7,6.3-10.3 c0-1.2-0.4-2.4-1.2-3.4c-1.1-1.3-1.4-2.4-1.1-3.4c0.4-0.9,1.5-1.5,3.3-1.8c1-0.1,2,0.1,2.7,0.7c1.2,0.9,2.8,2.6,3.1,5.7 c0.1,1,0.3,1.6,0.7,1.8c0.4,0.2,1,0,1.4-0.2c0.7-0.4,1.3-1.1,1.7-1.9c0.9-2,3.5-6.8,8.2-7.1c0.3,0,0.5,0.2,0.5,0.5 S52.9,23,52.6,23c-4.2,0.2-6.5,4.6-7.4,6.5c-0.5,1-1.2,1.9-2.1,2.4c-0.9,0.5-1.7,0.6-2.4,0.2c-0.7-0.4-1.1-1.3-1.3-2.6 c-0.2-2.7-1.6-4.2-2.6-5c-0.6-0.4-1.3-0.6-2-0.5c-1.4,0.2-2.2,0.6-2.5,1.2c-0.2,0.5,0.1,1.4,0.9,2.4c0.9,1.2,1.5,2.6,1.4,4.1 c0,7.3-7,11.3-7.3,11.4C27.2,43.2,27.2,43.2,27.1,43.2z M24.7,23.2L24.7,23.2L24.7,23.2z"></path> <path class="st1" d="M28.1,9.2c-1.9,0-3-0.4-3.6-1.2c-0.4-0.5-0.4-1.3,0-2c0.1-0.2,0.2-0.3,0.4-0.5c3.6-2.6,5.9-0.8,7,0.5l0,0 c0.3,0.5,0.3,1,0.1,1.5c-0.2,0.3-0.4,0.5-0.7,0.6c0,0.1,0.1,0.2,0,0.4c-0.1,0.5-0.7,0.7-2.6,0.8C28.5,9.2,28.3,9.2,28.1,9.2z M28.4,5.3c-0.9,0-1.9,0.4-2.9,1.1l-0.1,0.1c-0.1,0.2-0.3,0.7,0,1c0.2,0.3,0.9,0.8,3.3,0.7c0.5,0,0.9-0.1,1.2-0.1 c-0.2-0.1-0.3-0.3-0.2-0.6C29.8,7,30.4,7.1,31,7.1c0.1,0,0.2-0.1,0.2-0.1s0.1-0.1,0-0.3l0,0C30.3,5.8,29.4,5.3,28.4,5.3z"></path> <path class="st1" d="M20.4,53.9h-0.1C8.3,50.7,0,39.8,0,27.4C0,12.3,12.2,0,27.1,0C40.9,0,52.4,10.4,54,24.3 c0,0.3-0.2,0.5-0.4,0.6c-0.3,0-0.5-0.2-0.6-0.4C51.5,11.1,40.3,1,27.1,1C12.7,1,1,12.9,1,27.4c0,12,8,22.5,19.5,25.5 c0.3,0.1,0.4,0.3,0.4,0.6C20.8,53.7,20.6,53.9,20.4,53.9z"></path> <path class="st1" d="M27.1,54.7c-0.3,0-0.5-0.2-0.5-0.5s0.2-0.5,0.5-0.5c5.6,0,11-1.8,15.5-5.1c-3.6-9.5,7.7-16.1,7.9-16.2 s0.4-0.1,0.5,0c0,0,0.6,0.4,1.4,1.2c0.3-1.3,0.5-2.7,0.6-4c0-0.3,0.3-0.5,0.5-0.5c0.3,0,0.5,0.3,0.5,0.5c-0.1,1.7-0.4,3.4-0.9,5 c0,0.2-0.2,0.3-0.3,0.3c-0.2,0-0.4,0-0.5-0.1c-0.7-0.7-1.4-1.2-1.7-1.5c-1.7,1.1-10.4,7-7,15.1c0.1,0.2,0,0.5-0.2,0.6 C38.7,52.8,33,54.7,27.1,54.7z"></path> <path class="st2" d="M44,38.5c0.2-0.2,0.5-0.3,0.7-0.1l5.7,3.8l5.4-3.5c0.2-0.1,0.5-0.1,0.7,0.1c0.1,0.2,0.1,0.5-0.1,0.7 l-5.7,3.6c-0.2,0.1-0.4,0.1-0.6,0l-6-4C43.9,39,43.8,38.7,44,38.5z"></path> <path class="st2" d="M50.9,32.4c0.2,0.1,0.2,0.3,0.2,0.4L51,42.7l0,0L50.7,62c0,0.3-0.2,0.5-0.5,0.5c-0.3,0-0.5-0.2-0.5-0.5v-4.9 c-4.3-3.4-6.6-6.6-7.4-9.6s-0.2-5.8,1-8s2.9-4,4.4-5.2c0.7-0.6,1.4-1.1,1.9-1.4c0.2-0.2,0.4-0.3,0.6-0.4c0.1,0,0.1-0.1,0.2-0.1 l0,0l0,0l0,0l0,0c0,0,0,0,0.2,0.4l-0.2-0.4C50.6,32.3,50.7,32.3,50.9,32.4z M50.1,33.8c-0.5,0.3-1.1,0.8-1.8,1.3 c-1.4,1.2-3,2.9-4.2,4.9c-1.1,2.1-1.7,4.5-1,7.3c0.7,2.6,2.7,5.5,6.5,8.7L50,42.7l0,0L50.1,33.8z"></path> <path class="st2" d="M50.2,32.6c0.2-0.2,0.5-0.3,0.7-0.1l-0.3,0.4c0.3-0.4,0.3-0.4,0.3-0.4l0,0l0,0l0,0l0,0l0.1,0.1 c0.1,0.1,0.3,0.2,0.5,0.4c0.5,0.4,1.1,0.9,1.8,1.6c1.4,1.4,3.1,3.4,4.2,5.7c1.1,2.4,1.7,5.2,0.7,8.1c-0.9,2.9-3.3,5.9-7.9,8.8 c-0.2,0.1-0.5,0.1-0.7-0.2c-0.1-0.2-0.1-0.5,0.2-0.7c4.4-2.8,6.6-5.6,7.5-8.3c0.8-2.6,0.4-5.1-0.7-7.4c-1-2.2-2.6-4.1-4-5.5 c-0.7-0.7-1.3-1.2-1.7-1.6c-0.2-0.2-0.4-0.3-0.5-0.4c-0.1,0-0.1-0.1-0.1-0.1l0,0l0,0l0,0l0,0l0,0C50.1,33.1,50.1,32.8,50.2,32.6z "></path> <path class="st2" d="M42,44.9c0.1-0.2,0.5-0.3,0.7-0.1l7.6,4.8l7.6-4.8c0.2-0.2,0.5-0.1,0.7,0.1c0.2,0.2,0.1,0.5-0.1,0.7l-7.8,5 c-0.2,0.1-0.4,0.1-0.5,0l-7.8-5C41.9,45.3,41.8,45.1,42,44.9z"></path> </g> </g> </g> </svg> 