<?xml version="1.0" encoding="UTF-8"?> <svg xmlns="http://www.w3.org/2000/svg" width="78" height="57" viewBox="0 0 78 57" fill="none"><path fill-rule="evenodd" clip-rule="evenodd" d="M0.403697 16.2416L9.62104 0.276861C9.72004 0.105455 9.90274 0 10.1004 0H47.0255C47.3313 0 47.579 0.247773 47.579 0.553505C47.579 0.859237 47.3313 1.10701 47.0255 1.10701H46.2239V46.1429H52.1786L52.3397 45.6639C53.4859 42.256 56.7086 39.7963 60.4931 39.7963C64.2776 39.7963 67.5003 42.256 68.6465 45.6639L68.8076 46.1429H76.5635V31.8999L61.2876 12.8353H49.8379C49.5321 12.8353 49.2844 12.5875 49.2844 12.2818C49.2844 11.9761 49.5321 11.7283 49.8379 11.7283H61.5533C61.7215 11.7283 61.8803 11.8046 61.9853 11.9357L77.549 31.3595C77.6275 31.4575 77.6705 31.5797 77.6705 31.7054V46.6964C77.6705 47.0021 77.4227 47.2499 77.117 47.2499H69.0502L69.0844 47.9856C69.0909 48.1254 69.0949 48.2622 69.0949 48.398C69.0949 53.1403 65.2356 56.9996 60.4933 56.9996C55.7509 56.9996 51.8916 53.1403 51.8916 48.398C51.8916 48.2619 51.8954 48.125 51.9021 47.9864L51.9372 47.2499H31.1019L31.124 47.9744L31.128 48.0951C31.1316 48.2032 31.1349 48.2983 31.1349 48.398C31.1349 48.7037 30.8872 48.9515 30.5814 48.9515C30.2756 48.9515 30.0279 48.7037 30.0279 48.398C30.0279 41.4931 24.4116 35.8768 17.5068 35.8768C10.6021 35.8768 4.9858 41.4931 4.9858 48.398C4.9858 48.7037 4.73807 48.9515 4.43229 48.9515C4.12652 48.9515 3.87879 48.7037 3.87879 48.398C3.87879 48.2984 3.88204 48.2032 3.88573 48.095L3.88969 47.9744L3.91182 47.2499H0.882972C0.577197 47.2499 0.329468 47.0021 0.329468 46.6964V16.5184C0.329468 16.4215 0.355092 16.3258 0.403697 16.2416ZM45.117 1.10701H10.42L1.43648 16.6668V46.1429H4.05468L4.1723 45.5847C5.47248 39.4152 10.9585 34.7699 17.5068 34.7699C24.0551 34.7699 29.5412 39.4152 30.8414 45.5847L30.959 46.1429H45.117V1.10701ZM60.4931 40.9033C56.3599 40.9033 52.9985 44.2648 52.9985 48.3981C52.9985 52.5313 56.3598 55.8928 60.4931 55.8928C64.6264 55.8928 67.9877 52.5313 67.9877 48.3981C67.9877 44.2648 64.6263 40.9033 60.4931 40.9033Z" fill="#005CA9"></path><path fill-rule="evenodd" clip-rule="evenodd" d="M23.5367 7.40676C23.7031 7.40854 23.8561 7.49842 23.9387 7.64291L33.3134 24.0486C33.3963 24.1937 33.3957 24.3719 33.3118 24.5164C33.2279 24.6609 33.0735 24.7499 32.9064 24.7499H29.1565C28.8977 24.7499 28.6878 24.54 28.6878 24.2811C28.6878 24.0223 28.8977 23.8124 29.1565 23.8124H32.0987L23.5219 8.80297L14.5162 23.8124H23.3376L21.3254 21.8002C21.1423 21.6171 21.1423 21.3203 21.3254 21.1373C21.5084 20.9542 21.8052 20.9542 21.9882 21.1373L24.8006 23.9497C24.9837 24.1327 24.9837 24.4295 24.8006 24.6126L21.9882 27.425C21.8052 27.608 21.5084 27.608 21.3254 27.425C21.1423 27.2419 21.1423 26.9451 21.3254 26.7621L23.3376 24.7499H13.6883C13.5195 24.7499 13.3636 24.659 13.2804 24.5121C13.1972 24.3651 13.1995 24.1848 13.2864 24.04L23.1298 7.63431C23.2154 7.4916 23.3703 7.40499 23.5367 7.40676Z" fill="#005CA9"></path><path fill-rule="evenodd" clip-rule="evenodd" d="M50.2219 17.3084C50.2219 17.0027 50.4697 16.7549 50.7754 16.7549C51.0812 16.7549 51.3289 17.0027 51.3289 17.3084V27.7827H67.9763C68.2821 27.7827 68.5298 28.0304 68.5298 28.3362C68.5298 28.6419 68.2821 28.8897 67.9763 28.8897H50.7754C50.4697 28.8897 50.2219 28.6419 50.2219 28.3362V17.3084Z" fill="#005CA9"></path><path fill-rule="evenodd" clip-rule="evenodd" d="M8.90515 48.3982C8.90515 43.6557 12.7645 39.7964 17.5068 39.7964C22.2491 39.7964 26.1084 43.6557 26.1084 48.3982C26.1084 53.1405 22.2491 56.9998 17.5068 56.9998C12.7645 56.9998 8.90515 53.1405 8.90515 48.3982ZM17.5068 40.9034C13.3736 40.9034 10.0122 44.2649 10.0122 48.3982C10.0122 52.5313 13.3734 55.8928 17.5068 55.8928C21.6399 55.8928 25.0014 52.5314 25.0014 48.3982C25.0014 44.2649 21.64 40.9034 17.5068 40.9034Z" fill="#005CA9"></path></svg> 