<?xml version="1.0" encoding="UTF-8"?> <!-- Generator: Adobe Illustrator 23.0.2, SVG Export Plug-In . SVG Version: 6.00 Build 0) --> <svg xmlns="http://www.w3.org/2000/svg" xmlns:xlink="http://www.w3.org/1999/xlink" id="Layer_1" x="0px" y="0px" viewBox="0 0 63 79" style="enable-background:new 0 0 63 79;" xml:space="preserve"> <style type="text/css"> .st0{fill:#005CA9;} </style> <path class="st0" d="M60.1,65.4H2.9c-0.7,0-1.4-0.3-1.8-0.8s-0.7-1.2-0.6-1.9l5-37.1c0.2-1.2,1.2-2.1,2.4-2.1h47.1 c1.2,0,2.2,0.9,2.4,2.1l5.2,37.1c0.1,0.7-0.1,1.4-0.6,1.9C61.5,65.1,60.8,65.4,60.1,65.4z M7.9,24.5c-0.7,0-1.3,0.5-1.4,1.2l-5,37.1 c-0.1,0.4,0.1,0.8,0.3,1.1c0.3,0.3,0.7,0.5,1.1,0.5h57.2c0.4,0,0.8-0.2,1.1-0.5c0.3-0.3,0.4-0.7,0.3-1.1l-5.2-37.1 c-0.1-0.7-0.7-1.2-1.4-1.2H7.9z"></path> <path class="st0" d="M58.3,36.9H4.7c-0.3,0-0.5-0.2-0.5-0.5s0.2-0.5,0.5-0.5h53.6c0.3,0,0.5,0.2,0.5,0.5S58.6,36.9,58.3,36.9z"></path> <path class="st0" d="M60.3,51.3H2.7c-0.3,0-0.5-0.2-0.5-0.5s0.2-0.5,0.5-0.5h57.6c0.3,0,0.5,0.2,0.5,0.5S60.6,51.3,60.3,51.3z"></path> <path class="st0" d="M21.2,65.4C21.2,65.4,21.2,65.4,21.2,65.4c-0.3,0-0.5-0.2-0.5-0.5L21.9,24c0-0.3,0.3-0.5,0.5-0.5 c0.3,0,0.5,0.2,0.5,0.5L21.7,65C21.7,65.2,21.5,65.4,21.2,65.4z"></path> <path class="st0" d="M43,65.4c-0.3,0-0.5-0.2-0.5-0.5l-3.3-40.9c0-0.3,0.2-0.5,0.5-0.5c0.3,0,0.5,0.2,0.5,0.5l3.3,40.9 C43.5,65.2,43.3,65.4,43,65.4C43,65.4,43,65.4,43,65.4z"></path> <path class="st0" d="M34.4,74.8h-5.8V64.7h5.8V74.8z M29.6,73.8h3.8v-8.1h-3.8V73.8z"></path> <path class="st0" d="M47.3,78.8H15.8c-0.9,0-1.7-0.7-1.7-1.7v-1.6c0-0.9,0.7-1.7,1.7-1.7h31.4c0.9,0,1.7,0.7,1.7,1.7v1.6 C48.9,78,48.2,78.8,47.3,78.8z M15.8,74.8c-0.4,0-0.7,0.3-0.7,0.7v1.6c0,0.4,0.3,0.7,0.7,0.7h31.4c0.4,0,0.7-0.3,0.7-0.7v-1.6 c0-0.4-0.3-0.7-0.7-0.7H15.8z"></path> <path class="st0" d="M31.5,15.7c-2.9,0-5.3-2.4-5.3-5.3c0-2.9,2.4-5.3,5.3-5.3s5.3,2.4,5.3,5.3C36.8,13.3,34.4,15.7,31.5,15.7z M31.5,6.1c-2.4,0-4.3,1.9-4.3,4.3s1.9,4.3,4.3,4.3c2.4,0,4.3-1.9,4.3-4.3S33.8,6.1,31.5,6.1z"></path> <path class="st0" d="M41,10.8h-2.1c-0.3,0-0.5-0.2-0.5-0.5s0.2-0.5,0.5-0.5H41c0.3,0,0.5,0.2,0.5,0.5S41.3,10.8,41,10.8z"></path> <path class="st0" d="M24.2,10.8H22c-0.3,0-0.5-0.2-0.5-0.5s0.2-0.5,0.5-0.5h2.1c0.3,0,0.5,0.2,0.5,0.5S24.5,10.8,24.2,10.8z"></path> <path class="st0" d="M31.5,20.5c-0.3,0-0.5-0.2-0.5-0.5v-2.1c0-0.3,0.2-0.5,0.5-0.5s0.5,0.2,0.5,0.5V20C32,20.2,31.7,20.5,31.5,20.5 z"></path> <path class="st0" d="M31.5,3.6c-0.3,0-0.5-0.2-0.5-0.5V1c0-0.3,0.2-0.5,0.5-0.5S32,0.7,32,1v2.1C32,3.4,31.7,3.6,31.5,3.6z"></path> <path class="st0" d="M37.9,17.2c-0.1,0-0.3,0-0.4-0.1l-1.5-1.5c-0.2-0.2-0.2-0.5,0-0.7c0.2-0.2,0.5-0.2,0.7,0l1.5,1.5 c0.2,0.2,0.2,0.5,0,0.7C38.2,17.2,38.1,17.2,37.9,17.2z"></path> <path class="st0" d="M26,5.3c-0.1,0-0.3,0-0.4-0.1l-1.5-1.5C24,3.5,24,3.2,24.2,3s0.5-0.2,0.7,0l1.5,1.5c0.2,0.2,0.2,0.5,0,0.7 C26.3,5.3,26.2,5.3,26,5.3z"></path> <path class="st0" d="M24.4,17.3c-0.1,0-0.3,0-0.4-0.1c-0.2-0.2-0.2-0.5,0-0.7l1.5-1.5c0.2-0.2,0.5-0.2,0.7,0s0.2,0.5,0,0.7l-1.5,1.5 C24.6,17.3,24.5,17.3,24.4,17.3z"></path> <path class="st0" d="M36.3,5.4c-0.1,0-0.3,0-0.4-0.1c-0.2-0.2-0.2-0.5,0-0.7L37.4,3c0.2-0.2,0.5-0.2,0.7,0s0.2,0.5,0,0.7l-1.5,1.5 C36.5,5.4,36.4,5.4,36.3,5.4z"></path> </svg> 