<svg width="63" height="63" viewBox="0 0 63 63" fill="none" xmlns="http://www.w3.org/2000/svg">
<g clip-path="url(#clip0)">
<path d="M44.4549 17.9181C44.3275 17.7336 44.277 17.5066 44.3143 17.2855C44.3516 17.0644 44.4737 16.8665 44.6545 16.734C44.8354 16.6014 45.0609 16.5446 45.2829 16.5757C45.505 16.6067 45.7062 16.7232 45.8438 16.9002C46.2789 17.4937 46.6767 18.1135 47.0349 18.7563C47.0946 18.8553 47.1337 18.9654 47.1499 19.0798C47.1662 19.1943 47.1592 19.3109 47.1294 19.4226C47.0996 19.5344 47.0476 19.6389 46.9766 19.7302C46.9055 19.8214 46.8168 19.8973 46.7157 19.9535C46.6147 20.0097 46.5034 20.045 46.3884 20.0572C46.2734 20.0695 46.1571 20.0585 46.0465 20.0248C45.9359 19.9912 45.8332 19.9356 45.7445 19.8614C45.6558 19.7872 45.583 19.6959 45.5303 19.593C45.2066 19.0131 44.8475 18.4537 44.4549 17.9181ZM48.8658 23.594C49.1373 24.8435 49.274 26.1185 49.2734 27.3971C49.2805 31.013 48.1781 34.544 46.115 37.5135C43.7233 40.9388 42.4403 45.0155 42.4394 49.1932V53.9408C42.4394 54.066 42.4121 54.1897 42.3594 54.3033C42.3067 54.4169 42.2299 54.5176 42.1342 54.5984L39.0019 57.2478V60.479C39.0011 61.1475 38.7352 61.7883 38.2625 62.2609C37.7898 62.7335 37.1489 62.9993 36.4804 63H26.5196C25.851 62.9993 25.21 62.7335 24.7373 62.2608C24.2646 61.788 23.9987 61.1471 23.9981 60.4785V57.2473L20.8658 54.5979C20.7701 54.5171 20.6933 54.4164 20.6406 54.3028C20.5879 54.1892 20.5606 54.0655 20.5606 53.9403V49.1951C20.603 45.0772 19.3575 41.0489 16.9982 37.6735C14.7667 34.5426 13.6197 30.7682 13.732 26.9251C13.8751 22.261 15.8391 17.8384 19.2032 14.6048C22.5674 11.3712 27.0642 9.58365 31.7303 9.62522C35.3417 9.66469 38.8542 10.8101 41.7946 12.9071C41.9807 13.0396 42.1067 13.2405 42.1446 13.4658C42.1826 13.691 42.1296 13.9222 41.9971 14.1083C41.8647 14.2945 41.6637 14.4204 41.4385 14.4583C41.2132 14.4963 40.9821 14.4433 40.7959 14.3108C38.1409 12.4172 34.9691 11.3831 31.7082 11.3479H31.5039C27.3248 11.3622 23.3148 12.9997 20.3203 15.9149C17.3258 18.83 15.5812 22.7947 15.4547 26.9719C15.3531 30.4423 16.3882 33.8509 18.4024 36.6788C20.804 40.1012 22.1478 44.1535 22.2671 48.3328H40.7339C40.8992 44.1003 42.2757 40.0041 44.7 36.5306C46.5628 33.8491 47.558 30.6607 47.5512 27.3956C47.5516 26.2406 47.4282 25.0889 47.1831 23.9602C47.1344 23.737 47.1763 23.5035 47.2998 23.3113C47.4232 23.119 47.6179 22.9836 47.8411 22.935C48.0643 22.8863 48.2977 22.9282 48.49 23.0516C48.6823 23.1751 48.8177 23.3698 48.8663 23.593L48.8658 23.594ZM40.3131 53.8832H22.6869L25.1744 55.9868H37.8236L40.3131 53.8832ZM22.2828 50.0555V52.1591H40.7172V50.0555H22.2828ZM37.2793 57.7085H25.7207V60.4775C25.721 60.6893 25.8052 60.8923 25.955 61.0421C26.1047 61.1919 26.3078 61.2761 26.5196 61.2764H36.4804C36.6922 61.2761 36.8953 61.1919 37.045 61.0421C37.1948 60.8923 37.279 60.6893 37.2793 60.4775V57.7085ZM40.9707 27.405H41.7724H42.5742C42.8027 27.405 43.0217 27.4957 43.1833 27.6573C43.3448 27.8188 43.4355 28.0379 43.4355 28.2663V31.1653C43.4355 31.3937 43.3448 31.6128 43.1833 31.7744C43.0217 31.9359 42.8027 32.0266 42.5742 32.0266H40.9584C40.7192 32.9921 40.3342 33.9154 39.8165 34.7647L40.9648 35.913C41.0448 35.9929 41.1083 36.0878 41.1516 36.1924C41.195 36.2969 41.2173 36.4089 41.2173 36.522C41.2173 36.6352 41.195 36.7472 41.1516 36.8517C41.1083 36.9562 41.0448 37.0512 40.9648 37.1311L38.9148 39.1811C38.8349 39.2611 38.7399 39.3246 38.6354 39.368C38.5309 39.4113 38.4189 39.4336 38.3057 39.4336C38.1926 39.4336 38.0806 39.4113 37.976 39.368C37.8715 39.3246 37.7766 39.2611 37.6966 39.1811L36.542 38.0264C35.6948 38.5388 34.7748 38.9197 33.8133 39.156V40.7905C33.8133 41.019 33.7225 41.238 33.561 41.3996C33.3995 41.5611 33.1804 41.6519 32.952 41.6519H30.0505C29.8221 41.6519 29.603 41.5611 29.4415 41.3996C29.2799 41.238 29.1892 41.019 29.1892 40.7905V39.156C28.2269 38.9201 27.306 38.5394 26.458 38.0269L25.3034 39.1811C25.1388 39.3369 24.9209 39.4237 24.6943 39.4237C24.4677 39.4237 24.2497 39.3369 24.0852 39.1811L22.0352 37.1311C21.9552 37.0512 21.8917 36.9562 21.8484 36.8517C21.805 36.7472 21.7827 36.6352 21.7827 36.522C21.7827 36.4089 21.805 36.2969 21.8484 36.1924C21.8917 36.0878 21.9552 35.9929 22.0352 35.913L23.182 34.7652C22.6644 33.916 22.2793 32.9929 22.0402 32.0276H20.4258C20.1973 32.0276 19.9783 31.9369 19.8167 31.7754C19.6552 31.6138 19.5645 31.3947 19.5645 31.1663V28.2673C19.5645 28.0389 19.6552 27.8198 19.8167 27.6583C19.9783 27.4967 20.1973 27.406 20.4258 27.406H22.0283C22.2643 26.4346 22.6476 25.5051 23.1648 24.6497L22.0357 23.5202C21.9557 23.4402 21.8922 23.3453 21.8488 23.2408C21.8055 23.1362 21.7832 23.0242 21.7832 22.9111C21.7832 22.7979 21.8055 22.6859 21.8488 22.5814C21.8922 22.4769 21.9557 22.3819 22.0357 22.302L24.0857 20.252C24.1656 20.172 24.2606 20.1085 24.3651 20.0652C24.4696 20.0218 24.5816 19.9995 24.6948 19.9995C24.8079 19.9995 24.9199 20.0218 25.0244 20.0652C25.129 20.1085 25.2239 20.172 25.3039 20.252L26.4265 21.3747C27.2824 20.8529 28.2133 20.4656 29.1867 20.2264V18.6421C29.1867 18.4137 29.2775 18.1946 29.439 18.033C29.6005 17.8715 29.8196 17.7808 30.048 17.7808H32.9475C33.176 17.7808 33.395 17.8715 33.5566 18.033C33.7181 18.1946 33.8089 18.4137 33.8089 18.6421V20.2264C34.7831 20.4654 35.7149 20.8527 36.5715 21.3747L37.6942 20.252C37.7741 20.172 37.8691 20.1085 37.9736 20.0652C38.0781 20.0218 38.1901 19.9995 38.3033 19.9995C38.4164 19.9995 38.5284 20.0218 38.6329 20.0652C38.7374 20.1085 38.8324 20.172 38.9123 20.252L40.9623 22.302C41.0424 22.3819 41.1059 22.4769 41.1492 22.5814C41.1925 22.6859 41.2148 22.7979 41.2148 22.9111C41.2148 23.0242 41.1925 23.1362 41.1492 23.2408C41.1059 23.3453 41.0424 23.4402 40.9623 23.5202L39.8332 24.6497C40.3512 25.505 40.7341 26.3886 40.9707 27.3601V27.405ZM41.7119 29.1277H40.2668C40.0622 29.1277 39.8642 29.0549 39.7083 28.9222C39.5525 28.7895 39.449 28.6057 39.4163 28.4036C39.2182 27.1895 38.7436 26.0372 38.0294 25.0356C37.9108 24.8697 37.855 24.667 37.8719 24.4638C37.8887 24.2606 37.9771 24.0699 38.1214 23.9257L39.1373 22.9099L38.3055 22.0781L37.2935 23.09C37.1491 23.2349 36.9577 23.3235 36.7537 23.3401C36.5498 23.3566 36.3466 23.2998 36.1807 23.1801C35.1799 22.4596 34.0263 21.9799 32.8097 21.7783C32.6087 21.7447 32.4262 21.6408 32.2945 21.4853C32.1629 21.3298 32.0906 21.1326 32.0906 20.9288V19.5015H30.9094V20.9288C30.9094 21.1331 30.8368 21.3307 30.7045 21.4864C30.5722 21.6421 30.3889 21.7458 30.1873 21.7788C28.9715 21.9812 27.8187 22.4614 26.8188 23.182C26.6528 23.3016 26.4497 23.3582 26.2458 23.3417C26.0419 23.3252 25.8506 23.2367 25.706 23.092L24.694 22.08L23.8622 22.9118L24.8781 23.9277C25.0224 24.0719 25.1108 24.2625 25.1276 24.4658C25.1445 24.669 25.0887 24.8716 24.9701 25.0376C24.2559 26.0392 23.7813 27.1915 23.5832 28.4056C23.5505 28.6077 23.447 28.7915 23.2912 28.9242C23.1353 29.0568 22.9373 29.1297 22.7327 29.1296H21.2871V30.306H22.742C22.9458 30.3059 23.1431 30.3781 23.2986 30.5097C23.4542 30.6414 23.558 30.824 23.5915 31.025C23.7962 32.2327 24.2745 33.3776 24.9898 34.3719C25.11 34.538 25.167 34.7416 25.1505 34.9459C25.134 35.1503 25.0451 35.3421 24.8998 35.4867L23.8622 36.5203L24.694 37.3521L25.735 36.3106C25.8792 36.1664 26.0698 36.078 26.2731 36.0611C26.4763 36.0443 26.6789 36.1001 26.8449 36.2186C27.8407 36.9284 28.9854 37.4015 30.1918 37.6017C30.3929 37.6356 30.5755 37.7399 30.7069 37.8959C30.8384 38.052 30.9101 38.2496 30.9094 38.4536V39.9302H32.0906V38.4536C32.0903 38.2496 32.1624 38.0522 32.2941 37.8964C32.4258 37.7407 32.6085 37.6367 32.8097 37.6031C34.0161 37.403 35.1608 36.9299 36.1566 36.2201C36.3225 36.1015 36.5252 36.0457 36.7284 36.0626C36.9316 36.0794 37.1223 36.1679 37.2665 36.3121L38.3074 37.3536L39.1392 36.5218L38.1002 35.4867C37.9554 35.3422 37.8668 35.1508 37.8503 34.9469C37.8338 34.743 37.8905 34.5398 38.0102 34.3739C38.7255 33.3796 39.2038 32.2347 39.4085 31.027C39.442 30.826 39.5458 30.6434 39.7014 30.5117C39.8569 30.38 40.0542 30.3078 40.258 30.3079H41.7129L41.7119 29.1277ZM31.5 23.6373C30.3219 23.6368 29.1692 23.98 28.1833 24.6249C27.1973 25.2699 26.421 26.1884 25.9494 27.2681C25.4779 28.3477 25.3316 29.5415 25.5285 30.7031C25.7254 31.8646 26.257 32.9435 27.058 33.8074C27.1341 33.8932 27.2266 33.963 27.33 34.0126C27.4335 34.0622 27.5458 34.0906 27.6604 34.0962C27.775 34.1018 27.8895 34.0845 27.9973 34.0452C28.1051 34.0059 28.2039 33.9455 28.288 33.8675C28.3722 33.7895 28.4399 33.6955 28.4872 33.591C28.5345 33.4865 28.5604 33.3736 28.5635 33.2589C28.5665 33.1442 28.5467 33.0301 28.505 32.9232C28.4634 32.8163 28.4008 32.7188 28.321 32.6365C27.6453 31.9063 27.2415 30.9658 27.1776 29.973C27.1137 28.9802 27.3935 27.9956 27.9699 27.1848C28.5464 26.374 29.3845 25.7864 30.3432 25.5207C31.3019 25.255 32.3229 25.3275 33.2345 25.7259C34.1461 26.1243 34.8927 26.8244 35.3489 27.7085C35.8051 28.5926 35.943 29.6068 35.7395 30.5806C35.536 31.5545 35.0035 32.4285 34.2314 33.056C33.4594 33.6834 32.4949 34.0259 31.5 34.0259C31.2716 34.0259 31.0525 34.1167 30.8909 34.2782C30.7294 34.4397 30.6387 34.6588 30.6387 34.8872C30.6387 35.1157 30.7294 35.3348 30.8909 35.4963C31.0525 35.6578 31.2716 35.7486 31.5 35.7486C33.106 35.7486 34.6462 35.1106 35.7818 33.975C36.9174 32.8394 37.5554 31.2992 37.5554 29.6932C37.5554 28.0872 36.9174 26.547 35.7818 25.4114C34.6462 24.2758 33.106 23.6373 31.5 23.6373ZM31.5 6.68538C31.7284 6.68538 31.9475 6.59464 32.109 6.43311C32.2706 6.27157 32.3613 6.05249 32.3613 5.82405V0.861328C32.3613 0.63289 32.2706 0.413808 32.109 0.252277C31.9475 0.0907468 31.7284 0 31.5 0C31.2716 0 31.0525 0.0907468 30.8909 0.252277C30.7294 0.413808 30.6387 0.63289 30.6387 0.861328V5.82405C30.6387 6.05249 30.7294 6.27157 30.8909 6.43311C31.0525 6.59464 31.2716 6.68538 31.5 6.68538ZM52.5558 9.22606L49.0465 12.7354C48.9665 12.8153 48.9031 12.9103 48.8598 13.0148C48.8165 13.1193 48.7942 13.2313 48.7942 13.3444C48.7942 13.4576 48.8165 13.5696 48.8598 13.6741C48.9031 13.7786 48.9665 13.8735 49.0465 13.9535C49.1265 14.0335 49.2214 14.0969 49.3259 14.1402C49.4304 14.1835 49.5424 14.2058 49.6556 14.2058C49.7687 14.2058 49.8807 14.1835 49.9852 14.1402C50.0897 14.0969 50.1847 14.0335 50.2646 13.9535L53.7739 10.4442C53.8539 10.3642 53.9174 10.2693 53.9607 10.1648C54.004 10.0603 54.0262 9.94825 54.0262 9.83514C54.0262 9.72202 54.004 9.61001 53.9607 9.5055C53.9174 9.401 53.8539 9.30604 53.7739 9.22606C53.694 9.14607 53.599 9.08262 53.4945 9.03933C53.39 8.99605 53.278 8.97376 53.1649 8.97376C53.0517 8.97376 52.9397 8.99605 52.8352 9.03933C52.7307 9.08262 52.6358 9.14607 52.5558 9.22606ZM58.9353 30.6362H53.9726C53.7441 30.6362 53.525 30.727 53.3635 30.8885C53.202 31.05 53.1112 31.2691 53.1112 31.4975C53.1112 31.726 53.202 31.9451 53.3635 32.1066C53.525 32.2681 53.7441 32.3589 53.9726 32.3589H58.9353C59.1637 32.3589 59.3828 32.2681 59.5443 32.1066C59.7059 31.9451 59.7966 31.726 59.7966 31.4975C59.7966 31.2691 59.7059 31.05 59.5443 30.8885C59.3828 30.727 59.1637 30.6362 58.9353 30.6362ZM7.95965 30.6362H2.99692C2.76848 30.6362 2.5494 30.727 2.38787 30.8885C2.22634 31.05 2.13559 31.2691 2.13559 31.4975C2.13559 31.726 2.22634 31.9451 2.38787 32.1066C2.5494 32.2681 2.76848 32.3589 2.99692 32.3589H7.95965C8.18809 32.3589 8.40717 32.2681 8.5687 32.1066C8.73023 31.9451 8.82098 31.726 8.82098 31.4975C8.82098 31.2691 8.73023 31.05 8.5687 30.8885C8.40717 30.727 8.18809 30.6362 7.95965 30.6362ZM13.9535 12.7354L10.4442 9.22606C10.2827 9.06452 10.0636 8.97376 9.83514 8.97376C9.60669 8.97376 9.38759 9.06452 9.22606 9.22606C9.06452 9.38759 8.97376 9.60669 8.97376 9.83514C8.97376 10.0636 9.06452 10.2827 9.22606 10.4442L12.7354 13.9535C12.8153 14.0335 12.9103 14.0969 13.0148 14.1402C13.1193 14.1835 13.2313 14.2058 13.3444 14.2058C13.4576 14.2058 13.5696 14.1835 13.6741 14.1402C13.7786 14.0969 13.8735 14.0335 13.9535 13.9535C14.0335 13.8735 14.0969 13.7786 14.1402 13.6741C14.1835 13.5696 14.2058 13.4576 14.2058 13.3444C14.2058 13.2313 14.1835 13.1193 14.1402 13.0148C14.0969 12.9103 14.0335 12.8153 13.9535 12.7354Z" fill="#005CA9" stroke="white" stroke-width="0.7"/>
</g>
<defs>
<clipPath id="clip0">
<rect width="63" height="63" fill="white"/>
</clipPath>
</defs>
</svg>
