<svg width="21" height="21" viewBox="0 0 21 21" fill="none" xmlns="http://www.w3.org/2000/svg">
<g clip-path="url(#clip0)">
<path d="M11.1591 21H9.84112C8.77517 21 7.90789 20.1328 7.90789 19.0668V18.6209C7.45471 18.4761 7.01441 18.2934 6.59141 18.0745L6.27543 18.3905C5.51012 19.1567 4.2842 19.1342 3.54112 18.3902L2.60962 17.4587C1.86523 16.7151 1.84382 15.4896 2.60986 14.7244L2.9256 14.4087C2.7067 13.9857 2.52398 13.5455 2.37915 13.0922H1.93331C0.867397 13.0922 0.00012207 12.225 0.00012207 11.159V9.841C0.00012207 8.77505 0.867397 7.90781 1.93335 7.90781H2.37919C2.52402 7.45459 2.70674 7.01433 2.92564 6.59133L2.60966 6.27539C1.84406 5.51061 1.86518 4.28498 2.60991 3.54108L3.54149 2.60954C4.2863 1.86371 5.51192 1.84509 6.27576 2.60978L6.59146 2.92548C7.01445 2.70662 7.45475 2.52386 7.90793 2.37903V1.93319C7.90793 0.867234 8.77517 0 9.84117 0H11.1591C12.2251 0 13.0923 0.867234 13.0923 1.93319V2.37907C13.5455 2.52386 13.9858 2.70662 14.4088 2.92552L14.7248 2.60954C15.4901 1.84328 16.716 1.86576 17.4591 2.60982L18.3906 3.54129C19.135 4.28486 19.1564 5.51037 18.3903 6.2756L18.0746 6.59133C18.2935 7.01433 18.4762 7.45455 18.6211 7.90781H19.0669C20.1328 7.90781 21.0001 8.77505 21.0001 9.841V11.159C21.0001 12.225 20.1328 13.0922 19.0669 13.0922H18.6211C18.4762 13.5454 18.2935 13.9857 18.0746 14.4087L18.3906 14.7247C19.1562 15.4894 19.1351 16.7151 18.3903 17.459L17.4587 18.3905C16.7139 19.1363 15.4883 19.155 14.7245 18.3903L14.4088 18.0746C13.9858 18.2934 13.5455 18.4762 13.0923 18.621V19.0669C13.0923 20.1328 12.2251 21 11.1591 21ZM6.79711 16.7824C7.38474 17.1299 8.0172 17.3924 8.6769 17.5627C8.94858 17.6328 9.1384 17.8778 9.1384 18.1584V19.0668C9.1384 19.4543 9.45369 19.7695 9.84117 19.7695H11.1591C11.5466 19.7695 11.8619 19.4543 11.8619 19.0668V18.1584C11.8619 17.8778 12.0517 17.6328 12.3234 17.5627C12.9831 17.3924 13.6155 17.1299 14.2032 16.7824C14.445 16.6394 14.7528 16.6783 14.9514 16.8769L15.5949 17.5204C15.8723 17.7982 16.3178 17.7917 16.5884 17.5207L17.5206 16.5886C17.7906 16.3189 17.7996 15.8733 17.5208 15.595L16.8771 14.9512C16.6785 14.7526 16.6396 14.4448 16.7826 14.203C17.1301 13.6154 17.3926 12.983 17.5628 12.3232C17.633 12.0515 17.878 11.8618 18.1586 11.8618H19.0669C19.4544 11.8618 19.7697 11.5465 19.7697 11.159V9.84104C19.7697 9.45357 19.4544 9.13832 19.0669 9.13832H18.1586C17.878 9.13832 17.633 8.9485 17.5628 8.67686C17.3926 8.01712 17.1301 7.38466 16.7826 6.79707C16.6396 6.55532 16.6785 6.24746 16.8771 6.04886L17.5206 5.40537C17.7988 5.12753 17.7915 4.6821 17.5208 4.41176L16.5888 3.47968C16.3186 3.20914 15.873 3.20123 15.5952 3.47944L14.9515 4.12318C14.7529 4.32182 14.4449 4.3607 14.2032 4.21772C13.6156 3.87019 12.9831 3.60765 12.3234 3.4374C12.0517 3.3673 11.8619 3.12227 11.8619 2.84169V1.93319C11.8619 1.54571 11.5466 1.23047 11.1592 1.23047H9.84121C9.45373 1.23047 9.13844 1.54571 9.13844 1.93319V2.8416C9.13844 3.12219 8.94862 3.36722 8.67694 3.43731C8.01724 3.60757 7.38478 3.87011 6.79715 4.21764C6.55532 4.36058 6.2475 4.32169 6.0489 4.1231L5.40545 3.4796C5.12802 3.20184 4.68247 3.20828 4.41189 3.47931L3.47972 4.41144C3.20976 4.68107 3.20074 5.12663 3.47948 5.40504L4.12322 6.04878C4.32182 6.24738 4.3607 6.55524 4.21776 6.79699C3.87023 7.38458 3.60773 8.01704 3.43748 8.67677C3.36734 8.94846 3.12231 9.13824 2.84177 9.13824H1.93335C1.54588 9.13828 1.23059 9.45353 1.23059 9.841V11.159C1.23059 11.5465 1.54588 11.8617 1.93335 11.8617H2.84173C3.12231 11.8617 3.3673 12.0515 3.43744 12.3232C3.60769 12.9829 3.87023 13.6154 4.21772 14.203C4.36066 14.4447 4.32177 14.7526 4.12318 14.9512L3.47968 15.5947C3.20151 15.8725 3.20877 16.3179 3.47944 16.5883L4.41152 17.5204C4.68169 17.7909 5.12728 17.7988 5.40512 17.5206L6.04882 16.8769C6.19516 16.7306 6.49962 16.6064 6.79711 16.7824Z" fill="#005CA9"/>
<path d="M10.5001 15.0691C7.98066 15.0691 5.93098 13.0194 5.93098 10.5C5.93098 7.98056 7.98066 5.93085 10.5001 5.93085C13.0196 5.93085 15.0693 7.98056 15.0693 10.5C15.0693 13.0194 13.0196 15.0691 10.5001 15.0691ZM10.5001 7.16132C8.65914 7.16132 7.16145 8.65904 7.16145 10.5C7.16145 12.3409 8.65918 13.8387 10.5001 13.8387C12.3411 13.8387 13.8388 12.3409 13.8388 10.5C13.8388 8.65904 12.3411 7.16132 10.5001 7.16132Z" fill="#005CA9"/>
</g>
<defs>
<clipPath id="clip0">
<rect x="0.00012207" width="21" height="21" fill="white"/>
</clipPath>
</defs>
</svg>
